<?xml version="1.0" encoding="UTF-8"?>
<!DOCTYPE svg PUBLIC "-//W3C//DTD SVG 1.1//EN" "http://www.w3.org/Graphics/SVG/1.1/DTD/svg11.dtd">
<svg xmlns="http://www.w3.org/2000/svg" version="1.1" width="246px" height="250px" style="shape-rendering:geometricPrecision; text-rendering:geometricPrecision; image-rendering:optimizeQuality; fill-rule:evenodd; clip-rule:evenodd" xmlns:xlink="http://www.w3.org/1999/xlink">
<g><path style="opacity:1" fill="#fefefe" d="M -0.5,-0.5 C 81.5,-0.5 163.5,-0.5 245.5,-0.5C 245.5,82.8333 245.5,166.167 245.5,249.5C 163.5,249.5 81.5,249.5 -0.5,249.5C -0.5,166.167 -0.5,82.8333 -0.5,-0.5 Z"/></g>
<g><path style="opacity:1" fill="#cc9995" d="M 136.5,28.5 C 125.079,28.1556 113.746,28.8222 102.5,30.5C 104.658,28.78 107.325,27.9467 110.5,28C 119.343,27.1764 128.01,27.3431 136.5,28.5 Z"/></g>
<g><path style="opacity:1" fill="#d9b2b0" d="M 136.5,28.5 C 139.85,28.335 143.183,28.5017 146.5,29C 147.416,29.2784 148.082,29.7784 148.5,30.5C 144.316,30.1491 140.316,29.4824 136.5,28.5 Z"/></g>
<g><path style="opacity:1" fill="#993227" d="M 136.5,28.5 C 140.316,29.4824 144.316,30.1491 148.5,30.5C 177.046,37.9163 198.713,54.2496 213.5,79.5C 213.427,81.0269 214.094,82.0269 215.5,82.5C 216.736,84.649 217.736,86.9823 218.5,89.5C 218.66,91.153 219.326,92.4863 220.5,93.5C 222.477,98.7448 224.144,104.078 225.5,109.5C 226.257,119.482 226.59,129.482 226.5,139.5C 225.275,144.29 224.608,149.29 224.5,154.5C 223.368,157.551 222.368,160.551 221.5,163.5C 219.926,165.102 219.259,167.102 219.5,169.5C 206.758,197.912 185.758,217.246 156.5,227.5C 153.848,227.41 151.515,228.076 149.5,229.5C 146.198,230.294 142.865,230.96 139.5,231.5C 129.809,232.745 120.143,232.745 110.5,231.5C 75.8788,226.042 50.2121,208.042 33.5,177.5C 33.2451,175.033 32.2451,173.033 30.5,171.5C 22.3746,150.346 20.3746,128.512 24.5,106C 26.4385,100.369 28.4385,94.8694 30.5,89.5C 32.2451,87.9674 33.2451,85.9674 33.5,83.5C 48.1207,55.0127 71.1207,37.346 102.5,30.5C 113.746,28.8222 125.079,28.1556 136.5,28.5 Z"/></g>
<g><path style="opacity:1" fill="#d2a4a0" d="M 77.5,43.5 C 76.5144,45.4077 74.8477,46.4077 72.5,46.5C 73.6594,44.7497 75.326,43.7497 77.5,43.5 Z"/></g>
<g><path style="opacity:1" fill="#cb9592" d="M 109.5,32.5 C 106.829,34.1181 103.829,34.7847 100.5,34.5C 103.273,33.3428 106.273,32.6761 109.5,32.5 Z"/></g>
<g><path style="opacity:1" fill="#faf4f4" d="M 220.5,105.5 C 220.686,110.839 221.019,116.172 221.5,121.5C 221.529,124.269 222.195,126.603 223.5,128.5C 223.5,129.5 223.5,130.5 223.5,131.5C 221.975,139.671 220.642,148.005 219.5,156.5C 205.979,197.848 177.646,221.682 134.5,228C 120.892,229.466 107.559,228.299 94.5,224.5C 92.9674,222.755 90.9674,221.755 88.5,221.5C 52.6163,206.486 32.1163,179.486 27,140.5C 26.5003,132.841 26.3336,125.174 26.5,117.5C 27.3705,114.997 28.0372,112.33 28.5,109.5C 28.448,107.097 28.7814,104.764 29.5,102.5C 31.6545,100.383 32.6545,97.716 32.5,94.5C 40.2685,74.0476 53.6018,58.0476 72.5,46.5C 74.8477,46.4077 76.5144,45.4077 77.5,43.5C 84.5767,39.1383 92.2433,36.1383 100.5,34.5C 103.829,34.7847 106.829,34.1181 109.5,32.5C 147.666,28.6684 179.166,41.3351 204,70.5C 211.173,81.5065 216.673,93.1731 220.5,105.5 Z"/></g>
<g><path style="opacity:1" fill="#d7afad" d="M 132.5,38.5 C 132.5,42.5 132.5,46.5 132.5,50.5C 130.517,50.8432 129.183,50.1765 128.5,48.5C 129.15,48.8039 129.817,49.1373 130.5,49.5C 131.167,45.6875 131.834,42.0208 132.5,38.5 Z"/></g>
<g><path style="opacity:1" fill="#9a352a" d="M 99.5,41.5 C 98.2056,43.68 98.5389,45.68 100.5,47.5C 100.263,48.791 100.596,49.791 101.5,50.5C 102.167,51.5 102.833,52.5 103.5,53.5C 101.533,53.7394 99.6995,53.4061 98,52.5C 97.0572,49.176 96.2239,45.8426 95.5,42.5C 94.448,42.6495 93.448,42.4828 92.5,42C 94.8194,40.2721 97.1527,40.1054 99.5,41.5 Z"/></g>
<g><path style="opacity:1" fill="#a04036" d="M 148.5,39.5 C 149.675,39.281 150.675,39.6143 151.5,40.5C 149.058,43.3226 147.724,46.6559 147.5,50.5C 147.608,51.4419 147.941,52.2753 148.5,53C 145.86,53.839 143.527,53.339 141.5,51.5C 143.579,48.1082 144.912,44.4416 145.5,40.5C 146.209,39.596 147.209,39.2627 148.5,39.5 Z"/></g>
<g><path style="opacity:1" fill="#c78f8b" d="M 148.5,39.5 C 147.209,39.2627 146.209,39.596 145.5,40.5C 144.249,39.528 144.582,38.8614 146.5,38.5C 147.416,38.5427 148.083,38.8761 148.5,39.5 Z"/></g>
<g><path style="opacity:1" fill="#983127" d="M 132.5,38.5 C 131.834,42.0208 131.167,45.6875 130.5,49.5C 129.817,49.1373 129.15,48.8039 128.5,48.5C 126.745,46.0117 124.745,43.6784 122.5,41.5C 121.203,43.9732 121.203,46.3066 122.5,48.5C 121.167,49.8333 119.833,49.8333 118.5,48.5C 119.777,47.3064 120.444,45.6397 120.5,43.5C 120.712,40.9886 120.045,38.8219 118.5,37C 120.5,36.3333 122.5,36.3333 124.5,37C 125.795,39.7581 127.461,42.2581 129.5,44.5C 130.952,41.7185 130.619,39.2185 128.5,37C 130.167,36.3333 131.833,36.3333 133.5,37C 132.944,37.3826 132.611,37.8826 132.5,38.5 Z"/></g>
<g><path style="opacity:1" fill="#c68a85" d="M 99.5,41.5 C 100.15,43.4352 100.483,45.4352 100.5,47.5C 98.5389,45.68 98.2056,43.68 99.5,41.5 Z"/></g>
<g><path style="opacity:1" fill="#93281e" d="M 167.5,46.5 C 165.925,48.1137 165.259,50.1137 165.5,52.5C 164.539,54.2646 164.205,56.2646 164.5,58.5C 162.57,54.6273 161.903,50.294 162.5,45.5C 164.216,45.6287 165.883,45.962 167.5,46.5 Z"/></g>
<g><path style="opacity:1" fill="#bb736f" d="M 103.5,53.5 C 102.833,52.5 102.167,51.5 101.5,50.5C 103.167,50.5 104.833,50.5 106.5,50.5C 106.384,47.1401 106.051,43.8067 105.5,40.5C 103.058,40.6463 102.391,39.813 103.5,38C 105.167,37.3333 106.833,37.3333 108.5,38C 108.024,42.4203 107.857,46.9203 108,51.5C 106.67,52.5822 105.17,53.2488 103.5,53.5 Z"/></g>
<g><path style="opacity:1" fill="#e3c3c2" d="M 118.5,48.5 C 119.833,49.8333 121.167,49.8333 122.5,48.5C 124.048,48.8212 124.715,49.8212 124.5,51.5C 122.167,51.5 119.833,51.5 117.5,51.5C 117.263,50.209 117.596,49.209 118.5,48.5 Z"/></g>
<g><path style="opacity:1" fill="#b56660" d="M 164.5,58.5 C 164.205,56.2646 164.539,54.2646 165.5,52.5C 165.351,53.552 165.517,54.552 166,55.5C 168.73,53.8815 170.563,51.5481 171.5,48.5C 172.736,49.2458 174.07,49.5792 175.5,49.5C 175.5,50.5 175.5,51.5 175.5,52.5C 171.402,53.5723 167.735,55.5723 164.5,58.5 Z"/></g>
<g><path style="opacity:1" fill="#a14237" d="M 140.5,56.5 C 138.052,57.4731 135.385,57.8064 132.5,57.5C 127.167,57.5 121.833,57.5 116.5,57.5C 113.813,57.6641 111.146,57.4974 108.5,57C 109.737,56.7679 110.737,56.2679 111.5,55.5C 121.123,53.9696 130.79,54.3029 140.5,56.5 Z"/></g>
<g><path style="opacity:1" fill="#bb736f" d="M 66.5,62.5 C 65.8333,61.1667 65.1667,59.8333 64.5,58.5C 64.4142,57.5041 64.7476,56.6708 65.5,56C 68.4385,52.9316 70.9385,53.0983 73,56.5C 73.6877,57.3317 73.521,57.9984 72.5,58.5C 70.5914,57.6518 68.5914,57.3184 66.5,57.5C 66.5,59.1667 66.5,60.8333 66.5,62.5 Z"/></g>
<g><path style="opacity:1" fill="#b3645d" d="M 111.5,55.5 C 110.737,56.2679 109.737,56.7679 108.5,57C 111.146,57.4974 113.813,57.6641 116.5,57.5C 113.713,58.4767 110.713,58.81 107.5,58.5C 107.158,57.6618 106.492,57.3284 105.5,57.5C 107.102,55.9261 109.102,55.2594 111.5,55.5 Z"/></g>
<g><path style="opacity:1" fill="#af5b54" d="M 140.5,56.5 C 141.791,56.2627 142.791,56.596 143.5,57.5C 142.761,57.369 142.094,57.5357 141.5,58C 142.416,58.2784 143.082,58.7784 143.5,59.5C 139.64,59.1916 135.974,58.5249 132.5,57.5C 135.385,57.8064 138.052,57.4731 140.5,56.5 Z"/></g>
<g><path style="opacity:1" fill="#b66862" d="M 167.5,46.5 C 165.883,45.962 164.216,45.6287 162.5,45.5C 161.903,50.294 162.57,54.6273 164.5,58.5C 163.432,59.4345 162.099,59.7678 160.5,59.5C 161.638,54.476 161.638,49.476 160.5,44.5C 163.264,43.5312 165.598,44.1978 167.5,46.5 Z"/></g>
<g><path style="opacity:1" fill="#9d3b32" d="M 75.5,67.5 C 74.8333,67.5 74.5,67.1667 74.5,66.5C 75.3676,64.5198 74.7009,62.8531 72.5,61.5C 75.0468,57.6155 77.0468,58.1155 78.5,63C 77.6854,64.6434 76.6854,66.1434 75.5,67.5 Z"/></g>
<g><path style="opacity:1" fill="#993228" d="M 64.5,58.5 C 65.1667,59.8333 65.8333,61.1667 66.5,62.5C 67.4725,64.1392 68.8058,65.4726 70.5,66.5C 70.6107,67.1174 70.944,67.6174 71.5,68C 69.5273,68.4955 67.5273,68.6621 65.5,68.5C 63.9301,66.4713 62.9301,64.138 62.5,61.5C 62.4534,59.9623 63.1201,58.9623 64.5,58.5 Z"/></g>
<g><path style="opacity:1" fill="#a14036" d="M 181.5,67.5 C 180.167,68.1667 178.833,68.8333 177.5,69.5C 176.522,69.189 175.855,68.5223 175.5,67.5C 178.521,64.3135 181.354,60.9802 184,57.5C 186.978,59.311 189.478,61.6443 191.5,64.5C 190.14,66.9812 189.14,66.6478 188.5,63.5C 186.453,62.0961 184.786,62.4294 183.5,64.5C 189.382,65.2773 189.549,67.2773 184,70.5C 183.781,69.062 183.281,67.7287 182.5,66.5C 181.893,66.6236 181.56,66.9569 181.5,67.5 Z"/></g>
<g><path style="opacity:1" fill="#b86e68" d="M 70.5,66.5 C 71.8333,66.5 73.1667,66.5 74.5,66.5C 74.5,67.1667 74.8333,67.5 75.5,67.5C 72.4476,70.9795 69.1143,71.3128 65.5,68.5C 67.5273,68.6621 69.5273,68.4955 71.5,68C 70.944,67.6174 70.6107,67.1174 70.5,66.5 Z"/></g>
<g><path style="opacity:1" fill="#bc746f" d="M 181.5,67.5 C 180.766,68.7079 180.433,70.0413 180.5,71.5C 182.5,71.5 184.5,71.5 186.5,71.5C 186.55,73.5901 185.55,74.9234 183.5,75.5C 181.146,73.8122 179.146,71.8122 177.5,69.5C 178.833,68.8333 180.167,68.1667 181.5,67.5 Z"/></g>
<g><path style="opacity:1" fill="#b76b65" d="M 57.5,75.5 C 57.1667,75.5 56.8333,75.5 56.5,75.5C 49.6798,75.5488 48.5132,73.5488 53,69.5C 54.1236,71.8035 55.6236,73.8035 57.5,75.5 Z"/></g>
<g><path style="opacity:1" fill="#972e24" d="M 56.5,75.5 C 56.8333,75.5 57.1667,75.5 57.5,75.5C 58.8333,76.1667 60.1667,76.8333 61.5,77.5C 57.2258,79.4717 52.5592,80.805 47.5,81.5C 43.919,82.2912 43.5857,81.1245 46.5,78C 50.1667,77.6667 53.8333,77.3333 57.5,77C 56.944,76.6174 56.6107,76.1174 56.5,75.5 Z"/></g>
<g><path style="opacity:1" fill="#f0e0df" d="M 116.5,57.5 C 121.833,57.5 127.167,57.5 132.5,57.5C 135.974,58.5249 139.64,59.1916 143.5,59.5C 175.362,69.6919 193.362,91.3586 197.5,124.5C 198.031,133.704 197.031,142.704 194.5,151.5C 184.058,180.76 163.392,197.926 132.5,203C 124.397,203.827 116.397,203.327 108.5,201.5C 106.485,200.076 104.152,199.41 101.5,199.5C 89.5423,195.026 79.0423,188.359 70,179.5C 47.6509,150.499 45.6509,120.165 64,88.5C 75.4521,73.8491 89.9521,63.8491 107.5,58.5C 110.713,58.81 113.713,58.4767 116.5,57.5 Z"/></g>
<g><path style="opacity:1" fill="#c68a86" d="M 136.5,61.5 C 139.495,61.2938 142.162,61.9605 144.5,63.5C 141.572,63.4349 138.905,62.7682 136.5,61.5 Z"/></g>
<g><path style="opacity:1" fill="#902116" d="M 133.5,61.5 C 134.5,61.5 135.5,61.5 136.5,61.5C 138.905,62.7682 141.572,63.4349 144.5,63.5C 170.162,71.493 186.162,88.493 192.5,114.5C 194.223,126.979 193.557,139.312 190.5,151.5C 189.833,153.833 189.167,156.167 188.5,158.5C 186.896,159.287 186.229,160.62 186.5,162.5C 178.389,177.056 166.722,187.722 151.5,194.5C 149.302,194.12 147.635,194.787 146.5,196.5C 115.402,204.734 89.5686,196.734 69,172.5C 66.4883,168.139 63.9883,163.806 61.5,159.5C 61.2451,157.033 60.2451,155.033 58.5,153.5C 57.333,148.748 56.333,144.082 55.5,139.5C 55.3169,132.132 55.6502,124.799 56.5,117.5C 61.9309,91.2303 77.2642,73.397 102.5,64C 105.168,63.433 107.834,62.933 110.5,62.5C 118.132,61.6423 125.799,61.3089 133.5,61.5 Z"/></g>
<g><path style="opacity:1" fill="#f9f3f3" d="M 140.5,84.5 C 142.102,86.0739 144.102,86.7406 146.5,86.5C 155.969,90.238 164.969,95.0713 173.5,101C 180.831,107.361 179.831,111.028 170.5,112C 163.941,106.221 156.608,101.721 148.5,98.5C 147.365,96.7868 145.698,96.1201 143.5,96.5C 142.432,95.5655 141.099,95.2322 139.5,95.5C 139.183,99.7016 139.517,103.702 140.5,107.5C 142.033,109.245 144.033,110.245 146.5,110.5C 160.68,118.01 172.014,128.677 180.5,142.5C 180.552,144.903 180.219,147.236 179.5,149.5C 177.598,150.511 175.598,150.678 173.5,150C 166.422,138.675 157.422,129.175 146.5,121.5C 144.967,119.755 142.967,118.755 140.5,118.5C 137.474,117.826 134.474,116.993 131.5,116C 130.874,115.25 130.374,114.416 130,113.5C 129.333,100.5 129.333,87.5 130,74.5C 133.13,71.8783 136.297,71.8783 139.5,74.5C 140.487,77.7683 140.82,81.1016 140.5,84.5 Z"/></g>
<g><path style="opacity:1" fill="#faf5f5" d="M 109.5,118.5 C 107.033,118.755 105.033,119.755 103.5,121.5C 93.1872,127.48 84.8538,135.48 78.5,145.5C 77.5116,146.795 76.5116,148.128 75.5,149.5C 72.8915,149.6 70.5582,148.933 68.5,147.5C 68.3379,145.473 68.5045,143.473 69,141.5C 78.7496,125.897 91.9162,114.564 108.5,107.5C 109.483,103.702 109.817,99.7016 109.5,95.5C 106.505,95.2938 103.838,95.9605 101.5,97.5C 92.9521,100.783 85.2854,105.616 78.5,112C 76.0106,112.941 74.0106,112.441 72.5,110.5C 72.5,108.5 72.5,106.5 72.5,104.5C 76.6336,99.7065 81.6336,96.0398 87.5,93.5C 89.0269,93.573 90.0269,92.9063 90.5,91.5C 94.0578,89.5537 97.7245,87.8871 101.5,86.5C 104.152,86.5905 106.485,85.9238 108.5,84.5C 109.23,80.9694 109.896,77.3027 110.5,73.5C 113.612,72.0171 116.445,72.3504 119,74.5C 119.667,87.8333 119.667,101.167 119,114.5C 116.032,116.511 112.866,117.844 109.5,118.5 Z"/></g>
<g><path style="opacity:1" fill="#af5d56" d="M 133.5,61.5 C 125.799,61.3089 118.132,61.6423 110.5,62.5C 110.611,61.8826 110.944,61.3826 111.5,61C 119.012,60.1782 126.345,60.3448 133.5,61.5 Z"/></g>
<g><path style="opacity:1" fill="#b46560" d="M 61.5,77.5 C 62.8284,78.9097 62.4951,80.0764 60.5,81C 57.1667,81.3333 53.8333,81.6667 50.5,82C 52.8971,83.7183 55.5638,84.8849 58.5,85.5C 57.5197,86.9814 56.353,88.3147 55,89.5C 53.0073,86.3411 50.5073,83.6745 47.5,81.5C 52.5592,80.805 57.2258,79.4717 61.5,77.5 Z"/></g>
<g><path style="opacity:1" fill="#c1807c" d="M 213.5,79.5 C 214.906,79.9731 215.573,80.9731 215.5,82.5C 214.094,82.0269 213.427,81.0269 213.5,79.5 Z"/></g>
<g><path style="opacity:1" fill="#9d3a30" d="M 199.5,74.5 C 202.26,76.939 204.26,79.939 205.5,83.5C 205.392,84.4419 205.059,85.2753 204.5,86C 202.527,86.4955 200.527,86.6621 198.5,86.5C 197.956,88.5795 197.122,90.5795 196,92.5C 194.764,89.5831 194.264,86.5831 194.5,83.5C 191.711,86.1291 189.711,85.4625 188.5,81.5C 189.262,81.0894 190.262,80.9227 191.5,81C 194.491,79.0348 197.157,76.8682 199.5,74.5 Z"/></g>
<g><path style="opacity:1" fill="#e5c6c5" d="M 198.5,79.5 C 199.833,79.5 201.167,79.5 202.5,79.5C 202.114,83.7376 200.448,84.4043 197.5,81.5C 197.863,80.8165 198.196,80.1499 198.5,79.5 Z"/></g>
<g><path style="opacity:1" fill="#9e3c33" d="M 105.5,57.5 C 106.492,57.3284 107.158,57.6618 107.5,58.5C 89.9521,63.8491 75.4521,73.8491 64,88.5C 45.6509,120.165 47.6509,150.499 70,179.5C 79.0423,188.359 89.5423,195.026 101.5,199.5C 103.515,200.924 105.848,201.59 108.5,201.5C 116.397,203.327 124.397,203.827 132.5,203C 163.392,197.926 184.058,180.76 194.5,151.5C 195.492,151.328 196.158,151.662 196.5,152.5C 189.511,174.487 175.511,190.153 154.5,199.5C 152.033,199.755 150.033,200.755 148.5,202.5C 110.956,212.207 81.2895,201.207 59.5,169.5C 48.7655,148.455 46.5988,126.455 53,103.5C 62.9405,79.3844 80.4405,64.051 105.5,57.5 Z"/></g>
<g><path style="opacity:1" fill="#bd7975" d="M 108.5,84.5 C 106.485,85.9238 104.152,86.5905 101.5,86.5C 103.515,85.0762 105.848,84.4095 108.5,84.5 Z"/></g>
<g><path style="opacity:1" fill="#bf7b76" d="M 140.5,84.5 C 142.898,84.2594 144.898,84.9261 146.5,86.5C 144.102,86.7406 142.102,86.0739 140.5,84.5 Z"/></g>
<g><path style="opacity:1" fill="#c07e79" d="M 33.5,83.5 C 33.2451,85.9674 32.2451,87.9674 30.5,89.5C 30.7549,87.0326 31.7549,85.0326 33.5,83.5 Z"/></g>
<g><path style="opacity:1" fill="#9e3c32" d="M 143.5,57.5 C 170.415,64.9081 188.582,81.9081 198,108.5C 199.968,116.715 200.801,125.049 200.5,133.5C 199.71,134.609 199.21,135.942 199,137.5C 198.825,132.981 198.325,128.647 197.5,124.5C 193.362,91.3586 175.362,69.6919 143.5,59.5C 143.082,58.7784 142.416,58.2784 141.5,58C 142.094,57.5357 142.761,57.369 143.5,57.5 Z"/></g>
<g><path style="opacity:1" fill="#cd9995" d="M 218.5,89.5 C 220.104,90.287 220.771,91.6203 220.5,93.5C 219.326,92.4863 218.66,91.153 218.5,89.5 Z"/></g>
<g><path style="opacity:1" fill="#cc9794" d="M 90.5,91.5 C 90.0269,92.9063 89.0269,93.573 87.5,93.5C 87.9731,92.0937 88.9731,91.427 90.5,91.5 Z"/></g>
<g><path style="opacity:1" fill="#9b362c" d="M 41.5,94.5 C 44.3388,96.4203 47.3388,98.0869 50.5,99.5C 50.5852,100.995 49.9185,101.995 48.5,102.5C 44.85,100.172 40.85,98.8389 36.5,98.5C 36.4977,96.1691 37.331,94.1691 39,92.5C 39.4169,93.756 40.2502,94.4226 41.5,94.5 Z"/></g>
<g><path style="opacity:1" fill="#c78b86" d="M 41.5,94.5 C 44.698,95.7868 48.0314,96.4535 51.5,96.5C 51.7373,97.791 51.404,98.791 50.5,99.5C 47.3388,98.0869 44.3388,96.4203 41.5,94.5 Z"/></g>
<g><path style="opacity:1" fill="#bf817f" d="M 108.5,107.5 C 108.5,103.833 108.5,100.167 108.5,96.5C 106.194,96.9926 103.861,97.3259 101.5,97.5C 103.838,95.9605 106.505,95.2938 109.5,95.5C 109.817,99.7016 109.483,103.702 108.5,107.5 Z"/></g>
<g><path style="opacity:1" fill="#c9908e" d="M 143.5,96.5 C 142.5,96.5 141.5,96.5 140.5,96.5C 140.5,100.167 140.5,103.833 140.5,107.5C 139.517,103.702 139.183,99.7016 139.5,95.5C 141.099,95.2322 142.432,95.5655 143.5,96.5 Z"/></g>
<g><path style="opacity:1" fill="#c88e8a" d="M 143.5,96.5 C 145.698,96.1201 147.365,96.7868 148.5,98.5C 146.597,98.2041 144.93,97.5375 143.5,96.5 Z"/></g>
<g><path style="opacity:1" fill="#d09f9c" d="M 32.5,94.5 C 32.6545,97.716 31.6545,100.383 29.5,102.5C 30.129,99.6027 31.129,96.936 32.5,94.5 Z"/></g>
<g><path style="opacity:1" fill="#993329" d="M 210.5,106.5 C 211.167,105.5 211.833,104.5 212.5,103.5C 212.843,101.517 212.176,100.183 210.5,99.5C 208.78,101.658 207.947,104.325 208,107.5C 206.301,108.406 204.467,108.739 202.5,108.5C 200.394,106.281 199.394,103.615 199.5,100.5C 200.538,98.4805 201.872,98.1472 203.5,99.5C 201.72,100.99 201.054,102.99 201.5,105.5C 202.5,105.5 203.5,105.5 204.5,105.5C 205.468,103.393 205.802,101.059 205.5,98.5C 210.928,95.2203 213.928,96.8869 214.5,103.5C 213.9,105.468 212.567,106.468 210.5,106.5 Z"/></g>
<g><path style="opacity:1" fill="#dab5b3" d="M 205.5,98.5 C 205.802,101.059 205.468,103.393 204.5,105.5C 204.795,103.265 204.461,101.265 203.5,99.5C 201.872,98.1472 200.538,98.4805 199.5,100.5C 198.226,99.8106 198.226,98.9772 199.5,98C 201.598,97.3224 203.598,97.4891 205.5,98.5 Z"/></g>
<g><path style="opacity:1" fill="#f3e7e6" d="M 203.5,99.5 C 204.461,101.265 204.795,103.265 204.5,105.5C 203.5,105.5 202.5,105.5 201.5,105.5C 201.054,102.99 201.72,100.99 203.5,99.5 Z"/></g>
<g><path style="opacity:1" fill="#f8f1f1" d="M 210.5,99.5 C 212.176,100.183 212.843,101.517 212.5,103.5C 210.824,102.817 210.157,101.483 210.5,99.5 Z"/></g>
<g><path style="opacity:1" fill="#d9afad" d="M 210.5,99.5 C 210.157,101.483 210.824,102.817 212.5,103.5C 211.833,104.5 211.167,105.5 210.5,106.5C 209.596,107.209 209.263,108.209 209.5,109.5C 206.941,109.802 204.607,109.468 202.5,108.5C 204.467,108.739 206.301,108.406 208,107.5C 207.947,104.325 208.78,101.658 210.5,99.5 Z"/></g>
<g><path style="opacity:1" fill="#d7aca9" d="M 72.5,104.5 C 72.5,106.5 72.5,108.5 72.5,110.5C 69.8333,108.5 69.8333,106.5 72.5,104.5 Z"/></g>
<g><path style="opacity:1" fill="#c1807c" d="M 140.5,107.5 C 142.967,107.755 144.967,108.755 146.5,110.5C 144.033,110.245 142.033,109.245 140.5,107.5 Z"/></g>
<g><path style="opacity:1" fill="#b1625c" d="M 28.5,109.5 C 28.0372,112.33 27.3705,114.997 26.5,117.5C 25.9644,114.302 26.631,111.635 28.5,109.5 Z"/></g>
<g><path style="opacity:1" fill="#d1a2a0" d="M 34.5,111.5 C 33.5028,111.47 32.8361,111.97 32.5,113C 33.0556,114.011 33.7222,114.844 34.5,115.5C 33.5,115.5 32.5,115.5 31.5,115.5C 31.5,113.5 31.5,111.5 31.5,109.5C 33.1788,109.285 34.1788,109.952 34.5,111.5 Z"/></g>
<g><path style="opacity:1" fill="#b05e58" d="M 34.5,111.5 C 34.9568,113.773 36.2901,115.106 38.5,115.5C 37.7659,116.708 37.4326,118.041 37.5,119.5C 35.901,119.768 34.5676,119.434 33.5,118.5C 37.0007,118.649 37.3341,117.649 34.5,115.5C 33.7222,114.844 33.0556,114.011 32.5,113C 32.8361,111.97 33.5028,111.47 34.5,111.5 Z"/></g>
<g><path style="opacity:1" fill="#cc9693" d="M 225.5,109.5 C 227,115.26 227.667,121.26 227.5,127.5C 227.499,131.681 227.166,135.681 226.5,139.5C 226.59,129.482 226.257,119.482 225.5,109.5 Z"/></g>
<g><path style="opacity:1" fill="#c2847f" d="M 42.5,117.5 C 41.7194,119.663 42.5528,119.996 45,118.5C 45.7796,120.387 45.6129,122.054 44.5,123.5C 44.5,122.5 44.5,121.5 44.5,120.5C 42.712,120.785 41.0453,120.452 39.5,119.5C 40.0047,118.081 41.0047,117.415 42.5,117.5 Z"/></g>
<g><path style="opacity:1" fill="#d6a9a7" d="M 127.5,120.5 C 125.097,120.448 122.764,120.781 120.5,121.5C 121.312,120.007 122.645,119.34 124.5,119.5C 125.726,119.52 126.726,119.853 127.5,120.5 Z"/></g>
<g><path style="opacity:1" fill="#983026" d="M 42.5,117.5 C 41.0047,117.415 40.0047,118.081 39.5,119.5C 41.0453,120.452 42.712,120.785 44.5,120.5C 44.5,121.5 44.5,122.5 44.5,123.5C 44.4891,126.001 43.8224,126.168 42.5,124C 38.8296,123.452 35.1629,122.952 31.5,122.5C 31.1568,120.517 31.8235,119.183 33.5,118.5C 34.5676,119.434 35.901,119.768 37.5,119.5C 37.4326,118.041 37.7659,116.708 38.5,115.5C 40.9898,113.84 43.4898,112.173 46,110.5C 47.3144,114.166 46.1477,116.5 42.5,117.5 Z"/></g>
<g><path style="opacity:1" fill="#c07e78" d="M 109.5,118.5 C 107.967,120.245 105.967,121.245 103.5,121.5C 105.033,119.755 107.033,118.755 109.5,118.5 Z"/></g>
<g><path style="opacity:1" fill="#faf5f5" d="M 127.5,120.5 C 128.008,123.389 128.675,126.222 129.5,129C 132.802,130.026 136.135,130.86 139.5,131.5C 149.058,136.392 156.392,143.725 161.5,153.5C 161.427,155.027 162.094,156.027 163.5,156.5C 166.698,160.591 167.864,165.258 167,170.5C 164.782,172.619 162.282,172.952 159.5,171.5C 154.616,159.23 146.949,149.064 136.5,141C 134.846,140.392 133.179,139.892 131.5,139.5C 131.44,138.957 131.107,138.624 130.5,138.5C 129.194,141.98 129.194,145.313 130.5,148.5C 133.758,152.587 137.591,156.254 142,159.5C 142.847,161.193 143.68,162.86 144.5,164.5C 144.755,166.967 145.755,168.967 147.5,170.5C 149.864,175.115 149.864,179.615 147.5,184C 143.743,185.222 141.076,184.055 139.5,180.5C 138.535,171.887 134.535,165.22 127.5,160.5C 126.726,159.853 125.726,159.52 124.5,159.5C 122.645,159.34 121.312,160.007 120.5,161.5C 116.861,164.14 114.195,167.473 112.5,171.5C 110.926,173.102 110.259,175.102 110.5,177.5C 109.731,179.667 108.731,181.834 107.5,184C 105.5,184.667 103.5,184.667 101.5,184C 100.944,183.617 100.611,183.117 100.5,182.5C 100.342,179.098 100.676,175.764 101.5,172.5C 102.434,168.627 103.934,164.961 106,161.5C 109.486,156.695 113.653,152.695 118.5,149.5C 119.808,145.981 119.808,142.315 118.5,138.5C 117.893,138.624 117.56,138.957 117.5,139.5C 115.076,140.03 112.743,140.864 110.5,142C 107,145.5 103.5,149 100,152.5C 96.0272,158.95 92.1938,165.45 88.5,172C 81.9986,172.812 79.8319,169.979 82,163.5C 86.579,153.583 92.7457,144.749 100.5,137C 105.863,131.985 112.196,129.152 119.5,128.5C 119.298,126.05 119.631,123.717 120.5,121.5C 122.764,120.781 125.097,120.448 127.5,120.5 Z"/></g>
<g><path style="opacity:1" fill="#d8afab" d="M 140.5,118.5 C 142.967,118.755 144.967,119.755 146.5,121.5C 144.033,121.245 142.033,120.245 140.5,118.5 Z"/></g>
<g><path style="opacity:1" fill="#a04137" d="M 214.5,122.5 C 211.14,122.616 207.807,122.949 204.5,123.5C 204.216,121.585 204.549,119.919 205.5,118.5C 205.917,119.124 206.584,119.457 207.5,119.5C 211.019,119.276 214.185,118.276 217,116.5C 218.422,119.03 218.755,121.697 218,124.5C 217.184,123.177 216.017,122.511 214.5,122.5 Z"/></g>
<g><path style="opacity:1" fill="#debab9" d="M 205.5,118.5 C 204.549,119.919 204.216,121.585 204.5,123.5C 207.807,122.949 211.14,122.616 214.5,122.5C 211.404,123.919 208.071,124.919 204.5,125.5C 203.167,122.833 203.167,120.167 204.5,117.5C 205.107,117.624 205.44,117.957 205.5,118.5 Z"/></g>
<g><path style="opacity:1" fill="#e6cac9" d="M 220.5,105.5 C 222.508,112.902 223.508,120.568 223.5,128.5C 222.195,126.603 221.529,124.269 221.5,121.5C 221.019,116.172 220.686,110.839 220.5,105.5 Z"/></g>
<g><path style="opacity:1" fill="#ce9b97" d="M 56.5,117.5 C 55.6502,124.799 55.3169,132.132 55.5,139.5C 54.8346,136.016 54.5013,132.349 54.5,128.5C 54.5112,124.435 55.1778,120.768 56.5,117.5 Z"/></g>
<g><path style="opacity:1" fill="#e3c3c0" d="M 127.5,120.5 C 130.172,122.391 131.172,125.058 130.5,128.5C 133.166,128.933 135.832,129.433 138.5,130C 139.056,130.383 139.389,130.883 139.5,131.5C 136.135,130.86 132.802,130.026 129.5,129C 128.675,126.222 128.008,123.389 127.5,120.5 Z"/></g>
<g><path style="opacity:1" fill="#9e3a33" d="M 218.5,138.5 C 217.833,138.167 217.167,137.833 216.5,137.5C 216.586,136.504 216.252,135.671 215.5,135C 216.448,134.517 217.448,134.351 218.5,134.5C 218.5,135.833 218.5,137.167 218.5,138.5 Z"/></g>
<g><path style="opacity:1" fill="#b46762" d="M 35.5,136.5 C 37.288,136.215 38.9547,136.548 40.5,137.5C 40.3764,138.107 40.0431,138.44 39.5,138.5C 37.1707,140.002 35.8373,139.336 35.5,136.5 Z"/></g>
<g><path style="opacity:1" fill="#d7acab" d="M 206.5,137.5 C 205.883,137.389 205.383,137.056 205,136.5C 204.211,138.712 204.378,140.712 205.5,142.5C 205.44,143.043 205.107,143.376 204.5,143.5C 203.52,140.914 203.187,138.247 203.5,135.5C 205.179,135.285 206.179,135.952 206.5,137.5 Z"/></g>
<g><path style="opacity:1" fill="#af5b54" d="M 197.5,124.5 C 198.325,128.647 198.825,132.981 199,137.5C 199.21,135.942 199.71,134.609 200.5,133.5C 200.248,138.519 199.748,143.519 199,148.5C 198.392,150.066 197.558,151.4 196.5,152.5C 196.158,151.662 195.492,151.328 194.5,151.5C 197.031,142.704 198.031,133.704 197.5,124.5 Z"/></g>
<g><path style="opacity:1" fill="#962d23" d="M 206.5,137.5 C 207.919,138.451 209.585,138.784 211.5,138.5C 213.265,139.461 215.265,139.795 217.5,139.5C 217.5,140.5 217.5,141.5 217.5,142.5C 217.5,144.167 217.5,145.833 217.5,147.5C 216.022,147.762 214.689,147.429 213.5,146.5C 213.957,145.702 214.624,145.369 215.5,145.5C 216.828,144.09 216.495,142.924 214.5,142C 211.304,141.195 208.304,141.362 205.5,142.5C 204.378,140.712 204.211,138.712 205,136.5C 205.383,137.056 205.883,137.389 206.5,137.5 Z"/></g>
<g><path style="opacity:1" fill="#b9716d" d="M 30.5,135.5 C 31.675,135.281 32.675,135.614 33.5,136.5C 32.6906,138.071 32.3573,139.738 32.5,141.5C 33.8333,141.5 35.1667,141.5 36.5,141.5C 35.4324,142.434 34.099,142.768 32.5,142.5C 32.2627,143.791 32.596,144.791 33.5,145.5C 33.6309,146.376 33.2975,147.043 32.5,147.5C 31.3678,143.574 30.7011,139.574 30.5,135.5 Z"/></g>
<g><path style="opacity:1" fill="#c48886" d="M 216.5,137.5 C 217.167,137.833 217.833,138.167 218.5,138.5C 218.768,140.099 218.434,141.432 217.5,142.5C 217.5,141.5 217.5,140.5 217.5,139.5C 215.265,139.795 213.265,139.461 211.5,138.5C 213.415,138.784 215.081,138.451 216.5,137.5 Z"/></g>
<g><path style="opacity:1" fill="#dbb2b1" d="M 30.5,135.5 C 32.3569,134.235 34.0236,134.568 35.5,136.5C 35.8373,139.336 37.1707,140.002 39.5,138.5C 39.5,139.167 39.5,139.833 39.5,140.5C 38.391,140.557 37.391,140.89 36.5,141.5C 35.1667,141.5 33.8333,141.5 32.5,141.5C 32.3573,139.738 32.6906,138.071 33.5,136.5C 32.675,135.614 31.675,135.281 30.5,135.5 Z"/></g>
<g><path style="opacity:1" fill="#ae5c55" d="M 117.5,139.5 C 117.56,138.957 117.893,138.624 118.5,138.5C 119.808,142.315 119.808,145.981 118.5,149.5C 118.813,145.958 118.479,142.625 117.5,139.5 Z"/></g>
<g><path style="opacity:1" fill="#c58c8a" d="M 131.5,139.5 C 130.523,142.287 130.19,145.287 130.5,148.5C 129.194,145.313 129.194,141.98 130.5,138.5C 131.107,138.624 131.44,138.957 131.5,139.5 Z"/></g>
<g><path style="opacity:1" fill="#92261c" d="M 39.5,140.5 C 40.8333,140.5 42.1667,140.5 43.5,140.5C 44.404,141.209 44.7373,142.209 44.5,143.5C 41.8127,143.336 39.146,143.503 36.5,144C 35.5842,144.278 34.9175,144.778 34.5,145.5C 34.1667,145.5 33.8333,145.5 33.5,145.5C 32.596,144.791 32.2627,143.791 32.5,142.5C 34.099,142.768 35.4324,142.434 36.5,141.5C 37.391,140.89 38.391,140.557 39.5,140.5 Z"/></g>
<g><path style="opacity:1" fill="#c78b87" d="M 205.5,142.5 C 208.304,141.362 211.304,141.195 214.5,142C 216.495,142.924 216.828,144.09 215.5,145.5C 215.209,144.351 214.376,143.684 213,143.5C 210.538,142.841 208.038,142.507 205.5,142.5 Z"/></g>
<g><path style="opacity:1" fill="#af5d57" d="M 34.5,145.5 C 34.9175,144.778 35.5842,144.278 36.5,144C 39.146,143.503 41.8127,143.336 44.5,143.5C 44.7373,142.209 44.404,141.209 43.5,140.5C 43.9193,137.675 42.9193,135.509 40.5,134C 42.1341,133.506 43.8008,133.34 45.5,133.5C 45.6655,137.514 45.4988,141.514 45,145.5C 41.5816,144.734 38.0816,144.734 34.5,145.5 Z"/></g>
<g><path style="opacity:1" fill="#c9918d" d="M 180.5,142.5 C 181.147,143.274 181.48,144.274 181.5,145.5C 181.66,147.355 180.993,148.688 179.5,149.5C 180.219,147.236 180.552,144.903 180.5,142.5 Z"/></g>
<g><path style="opacity:1" fill="#b96e68" d="M 192.5,114.5 C 195.222,126.391 195.055,138.391 192,150.5C 191.617,151.056 191.117,151.389 190.5,151.5C 193.557,139.312 194.223,126.979 192.5,114.5 Z"/></g>
<g><path style="opacity:1" fill="#cd9793" d="M 226.5,139.5 C 226.666,143.514 226.499,147.514 226,151.5C 225.768,152.737 225.268,153.737 224.5,154.5C 224.608,149.29 225.275,144.29 226.5,139.5 Z"/></g>
<g><path style="opacity:1" fill="#be7873" d="M 78.5,145.5 C 78.9118,147.973 77.9118,149.306 75.5,149.5C 76.5116,148.128 77.5116,146.795 78.5,145.5 Z"/></g>
<g><path style="opacity:1" fill="#d9b0ae" d="M 223.5,131.5 C 223.133,137.172 222.633,142.839 222,148.5C 221.721,151.457 220.887,154.123 219.5,156.5C 220.642,148.005 221.975,139.671 223.5,131.5 Z"/></g>
<g><path style="opacity:1" fill="#d8afad" d="M 68.5,147.5 C 70.5582,148.933 72.8915,149.6 75.5,149.5C 72.5983,151.115 70.265,150.449 68.5,147.5 Z"/></g>
<g><path style="opacity:1" fill="#c38480" d="M 161.5,153.5 C 162.906,153.973 163.573,154.973 163.5,156.5C 162.094,156.027 161.427,155.027 161.5,153.5 Z"/></g>
<g><path style="opacity:1" fill="#c9908c" d="M 58.5,153.5 C 60.2451,155.033 61.2451,157.033 61.5,159.5C 59.7549,157.967 58.7549,155.967 58.5,153.5 Z"/></g>
<g><path style="opacity:1" fill="#d6aca9" d="M 127.5,160.5 C 125.097,160.448 122.764,160.781 120.5,161.5C 121.312,160.007 122.645,159.34 124.5,159.5C 125.726,159.52 126.726,159.853 127.5,160.5 Z"/></g>
<g><path style="opacity:1" fill="#9a342b" d="M 206.5,164.5 C 206.167,164.5 205.833,164.5 205.5,164.5C 203.868,161.927 201.702,161.261 199,162.5C 199.025,160.08 199.691,157.747 201,155.5C 201.576,157.852 203.076,158.852 205.5,158.5C 208.442,158.146 211.275,157.48 214,156.5C 213.975,158.92 213.309,161.253 212,163.5C 209.739,160.969 207.906,161.303 206.5,164.5 Z"/></g>
<g><path style="opacity:1" fill="#9a342a" d="M 42.5,157.5 C 41.5525,158.978 40.2191,159.978 38.5,160.5C 38.281,161.675 38.6143,162.675 39.5,163.5C 40.4168,162.873 41.4168,162.539 42.5,162.5C 43.1667,161.833 43.8333,161.167 44.5,160.5C 46.4835,160.617 48.1502,159.95 49.5,158.5C 50.9501,159.85 51.6168,161.516 51.5,163.5C 47.8546,163.666 44.1879,164.666 40.5,166.5C 40.5,166.833 40.5,167.167 40.5,167.5C 39.2223,167.218 38.2223,166.551 37.5,165.5C 33.5247,158.446 35.1914,155.78 42.5,157.5 Z"/></g>
<g><path style="opacity:1" fill="#bd7672" d="M 188.5,158.5 C 188.34,160.153 187.674,161.486 186.5,162.5C 186.229,160.62 186.896,159.287 188.5,158.5 Z"/></g>
<g><path style="opacity:1" fill="#f0dedd" d="M 38.5,160.5 C 40.4832,160.157 41.8166,160.824 42.5,162.5C 41.4168,162.539 40.4168,162.873 39.5,163.5C 38.6143,162.675 38.281,161.675 38.5,160.5 Z"/></g>
<g><path style="opacity:1" fill="#be7a75" d="M 42.5,157.5 C 43.9063,157.973 44.573,158.973 44.5,160.5C 43.8333,161.167 43.1667,161.833 42.5,162.5C 41.8166,160.824 40.4832,160.157 38.5,160.5C 40.2191,159.978 41.5525,158.978 42.5,157.5 Z"/></g>
<g><path style="opacity:1" fill="#dfbcb9" d="M 51.5,163.5 C 52.0431,163.56 52.3764,163.893 52.5,164.5C 48.5475,165.494 44.5475,166.16 40.5,166.5C 44.1879,164.666 47.8546,163.666 51.5,163.5 Z"/></g>
<g><path style="opacity:1" fill="#b2645f" d="M 205.5,164.5 C 205.833,164.5 206.167,164.5 206.5,164.5C 207.882,165.801 209.548,166.634 211.5,167C 210.929,168.205 210.262,169.372 209.5,170.5C 207.748,168.754 206.415,166.754 205.5,164.5 Z"/></g>
<g><path style="opacity:1" fill="#cf9c98" d="M 221.5,163.5 C 221.741,165.898 221.074,167.898 219.5,169.5C 219.259,167.102 219.926,165.102 221.5,163.5 Z"/></g>
<g><path style="opacity:1" fill="#d1a3a2" d="M 37.5,165.5 C 38.2223,166.551 39.2223,167.218 40.5,167.5C 40.1788,169.048 39.1788,169.715 37.5,169.5C 37.5,168.167 37.5,166.833 37.5,165.5 Z"/></g>
<g><path style="opacity:1" fill="#c9908c" d="M 144.5,164.5 C 146.245,166.033 147.245,168.033 147.5,170.5C 145.755,168.967 144.755,166.967 144.5,164.5 Z"/></g>
<g><path style="opacity:1" fill="#ba716b" d="M 112.5,171.5 C 112.741,173.898 112.074,175.898 110.5,177.5C 110.259,175.102 110.926,173.102 112.5,171.5 Z"/></g>
<g><path style="opacity:1" fill="#d8afac" d="M 30.5,171.5 C 32.2451,173.033 33.2451,175.033 33.5,177.5C 31.7549,175.967 30.7549,173.967 30.5,171.5 Z"/></g>
<g><path style="opacity:1" fill="#cb9490" d="M 101.5,172.5 C 100.676,175.764 100.342,179.098 100.5,182.5C 99.3622,179.696 99.1955,176.696 100,173.5C 100.383,172.944 100.883,172.611 101.5,172.5 Z"/></g>
<g><path style="opacity:1" fill="#be7975" d="M 151.5,194.5 C 150.07,195.537 148.403,196.204 146.5,196.5C 147.635,194.787 149.302,194.12 151.5,194.5 Z"/></g>
<g><path style="opacity:1" fill="#cc9895" d="M 101.5,199.5 C 104.152,199.41 106.485,200.076 108.5,201.5C 105.848,201.59 103.515,200.924 101.5,199.5 Z"/></g>
<g><path style="opacity:1" fill="#cc9792" d="M 154.5,199.5 C 152.967,201.245 150.967,202.245 148.5,202.5C 150.033,200.755 152.033,199.755 154.5,199.5 Z"/></g>
<g><path style="opacity:1" fill="#b05e58" d="M 161.5,204.5 C 160.566,205.568 160.232,206.901 160.5,208.5C 158.901,208.768 157.568,208.434 156.5,207.5C 155.833,206.833 155.167,206.167 154.5,205.5C 156.519,202.071 158.852,201.738 161.5,204.5 Z"/></g>
<g><path style="opacity:1" fill="#e7cccb" d="M 156.5,207.5 C 156.5,206.5 156.5,205.5 156.5,204.5C 157.5,204.5 158.5,204.5 159.5,204.5C 159.5,205.5 159.5,206.5 159.5,207.5C 158.5,207.5 157.5,207.5 156.5,207.5 Z"/></g>
<g><path style="opacity:1" fill="#a03f35" d="M 89.5,212.5 C 88.8386,213.718 88.1719,215.051 87.5,216.5C 85.1286,216.108 84.4619,215.108 85.5,213.5C 86.3944,210.989 87.3944,208.489 88.5,206C 88.0946,205.055 87.428,204.388 86.5,204C 88.9018,203.186 91.2351,203.353 93.5,204.5C 91.9618,207.148 90.6285,209.815 89.5,212.5 Z"/></g>
<g><path style="opacity:1" fill="#92271d" d="M 161.5,204.5 C 161.5,205.833 161.5,207.167 161.5,208.5C 162.791,208.263 163.791,208.596 164.5,209.5C 164.869,211.993 164.203,212.66 162.5,211.5C 160.393,210.532 158.059,210.198 155.5,210.5C 153.403,209.121 153.07,207.455 154.5,205.5C 155.167,206.167 155.833,206.833 156.5,207.5C 157.568,208.434 158.901,208.768 160.5,208.5C 160.232,206.901 160.566,205.568 161.5,204.5 Z"/></g>
<g><path style="opacity:1" fill="#ae5b54" d="M 164.5,209.5 C 166.416,213.624 165.083,216.29 160.5,217.5C 156.187,217.174 154.52,214.841 155.5,210.5C 158.059,210.198 160.393,210.532 162.5,211.5C 164.203,212.66 164.869,211.993 164.5,209.5 Z"/></g>
<g><path style="opacity:1" fill="#f5eaea" d="M 162.5,211.5 C 162.5,212.833 162.5,214.167 162.5,215.5C 159.5,215.833 158.167,214.5 158.5,211.5C 159.833,211.5 161.167,211.5 162.5,211.5 Z"/></g>
<g><path style="opacity:1" fill="#d8adab" d="M 89.5,212.5 C 90.2309,214.599 90.2309,216.599 89.5,218.5C 87.2706,217.423 84.9372,216.756 82.5,216.5C 82.5,215.5 82.5,214.5 82.5,213.5C 83.5,213.5 84.5,213.5 85.5,213.5C 84.4619,215.108 85.1286,216.108 87.5,216.5C 88.1719,215.051 88.8386,213.718 89.5,212.5 Z"/></g>
<g><path style="opacity:1" fill="#9d3a31" d="M 115.5,222.5 C 114.833,222.5 114.5,222.167 114.5,221.5C 114.65,217.839 113.15,216.839 110,218.5C 109.26,219.749 109.427,220.749 110.5,221.5C 110.158,222.338 109.492,222.672 108.5,222.5C 107.051,219.949 107.385,217.615 109.5,215.5C 107.816,211.87 108.983,209.87 113,209.5C 118.242,209.709 119.409,211.876 116.5,216C 118.129,218.615 117.796,220.782 115.5,222.5 Z"/></g>
<g><path style="opacity:1" fill="#efdcdc" d="M 112.5,210.5 C 114.912,210.694 115.912,212.027 115.5,214.5C 114.5,214.5 113.5,214.5 112.5,214.5C 112.5,213.167 112.5,211.833 112.5,210.5 Z"/></g>
<g><path style="opacity:1" fill="#a14239" d="M 138.5,222.5 C 137.833,222.5 137.5,222.167 137.5,221.5C 137.5,220.5 137.5,219.5 137.5,218.5C 131.613,218.787 129.946,216.121 132.5,210.5C 140.481,208.317 143.314,211.317 141,219.5C 139.955,220.373 139.122,221.373 138.5,222.5 Z"/></g>
<g><path style="opacity:1" fill="#f0e0df" d="M 134.5,210.5 C 135.5,210.5 136.5,210.5 137.5,210.5C 137.5,212.167 137.5,213.833 137.5,215.5C 136.5,215.5 135.5,215.5 134.5,215.5C 134.5,213.833 134.5,212.167 134.5,210.5 Z"/></g>
<g><path style="opacity:1" fill="#f2e3e2" d="M 114.5,221.5 C 113.167,221.5 111.833,221.5 110.5,221.5C 109.427,220.749 109.26,219.749 110,218.5C 113.15,216.839 114.65,217.839 114.5,221.5 Z"/></g>
<g><path style="opacity:1" fill="#c68985" d="M 88.5,221.5 C 90.9674,221.755 92.9674,222.755 94.5,224.5C 92.0326,224.245 90.0326,223.245 88.5,221.5 Z"/></g>
<g><path style="opacity:1" fill="#bc7571" d="M 110.5,221.5 C 111.833,221.5 113.167,221.5 114.5,221.5C 114.5,222.167 114.833,222.5 115.5,222.5C 115.03,223.693 114.03,224.36 112.5,224.5C 110.645,224.66 109.312,223.993 108.5,222.5C 109.492,222.672 110.158,222.338 110.5,221.5 Z"/></g>
<g><path style="opacity:1" fill="#bd7a76" d="M 137.5,221.5 C 137.5,222.167 137.833,222.5 138.5,222.5C 137.105,224.3 135.439,224.634 133.5,223.5C 134.577,222.295 135.91,221.628 137.5,221.5 Z"/></g>
<g><path style="opacity:1" fill="#ca9390" d="M 156.5,227.5 C 154.485,228.924 152.152,229.59 149.5,229.5C 151.515,228.076 153.848,227.41 156.5,227.5 Z"/></g>
<g><path style="opacity:1" fill="#ecd9d8" d="M 110.5,231.5 C 120.143,232.745 129.809,232.745 139.5,231.5C 138.391,232.29 137.058,232.79 135.5,233C 131.333,233.167 127.167,233.333 123,233.5C 118.443,233.491 114.276,232.825 110.5,231.5 Z"/></g>
</svg>
