<?xml version="1.0" encoding="UTF-8"?>
<svg version="1.1" xmlns="http://www.w3.org/2000/svg" width="246" height="250">
<path d="M0 0 C81.18 0 162.36 0 246 0 C246 82.5 246 165 246 250 C164.82 250 83.64 250 0 250 C0 167.5 0 85 0 0 Z " fill="#F7F0F0" transform="translate(0,0)"/>
<path d="M0 0 C81.18 0 162.36 0 246 0 C246 82.5 246 165 246 250 C164.82 250 83.64 250 0 250 C0 167.5 0 85 0 0 Z M77 39 C76.67 39.66 76.34 40.32 76 41 C74.64251035 41.6425451 73.26256669 42.23778178 71.875 42.8125 C51.63687829 52.62668241 37.43390619 72.86298391 29.19921875 93.06640625 C28.51889003 94.73066315 27.82364681 96.38947789 27.08203125 98.02734375 C19.05515568 116.64806524 20.45780079 146.00075027 27.6875 164.5 C30.61972967 171.6093773 34.20683295 178.31326786 38 185 C38.39316406 185.73347656 38.78632812 186.46695313 39.19140625 187.22265625 C41.09017811 190.72979957 43.11025552 193.27538378 46 196 C47.0261839 197.20379265 48.04627484 198.41278856 49.0625 199.625 C58.03406252 210.0111461 58.03406252 210.0111461 70 216 C70 216.66 70 217.32 70 218 C93.68725017 231.92398358 118.29981796 235.91479288 145.5 231.6875 C146.63707397 231.51118042 146.63707397 231.51118042 147.79711914 231.33129883 C152.57844345 230.49006527 156.59418571 229.03262107 161 227 C162.99263591 226.31163487 164.99041337 225.63718601 167 225 C167 224.34 167 223.68 167 223 C167.69738281 222.90847656 168.39476562 222.81695312 169.11328125 222.72265625 C184.23142986 218.9380047 198.10492719 204.15156639 207.375 192.3125 C208.03725586 191.47392456 208.03725586 191.47392456 208.71289062 190.6184082 C210.843244 187.83586331 212.53663308 185.52673713 213 182 C213.66 182 214.32 182 215 182 C216.0063655 179.56495491 217.00526413 177.12729136 218 174.6875 C218.28617188 173.99720703 218.57234375 173.30691406 218.8671875 172.59570312 C220.08910744 169.58454326 221 167.28113016 221 164 C221.66 164 222.32 164 223 164 C223.50449402 161.41747107 224.00374301 158.83411297 224.5 156.25 C224.64308594 155.52039063 224.78617188 154.79078125 224.93359375 154.0390625 C225.58888879 150.60656468 226 147.50830509 226 144 C226.66 144 227.32 144 228 144 C228 135.42 228 126.84 228 118 C227.34 118 226.68 118 226 118 C226.06574219 116.30810547 226.06574219 116.30810547 226.1328125 114.58203125 C226.12640934 109.72949967 225.13755449 105.35323634 223.875 100.6875 C223.65126709 99.85299316 223.42753418 99.01848633 223.19702148 98.15869141 C221.32824391 91.52945564 218.78405679 85.77667404 215 80 C214.48050781 79.19175781 213.96101562 78.38351563 213.42578125 77.55078125 C211.97911189 75.34615918 210.49289634 73.17341888 209 71 C208.319375 69.9275 207.63875 68.855 206.9375 67.75 C203.33848574 62.64172169 198.5127621 58.5424593 193.9375 54.3125 C193.42123047 53.82716797 192.90496094 53.34183594 192.37304688 52.84179688 C189.70453885 50.37725125 187.24593772 48.58320793 184 47 C183.01 45.515 183.01 45.515 182 44 C180.24491882 42.86946532 180.24491882 42.86946532 178.19140625 41.95703125 C177.07088867 41.43012695 177.07088867 41.43012695 175.92773438 40.89257812 C175.14720703 40.53615234 174.36667969 40.17972656 173.5625 39.8125 C172.78583984 39.44447266 172.00917969 39.07644531 171.20898438 38.69726562 C166.79793567 36.58154914 166.79793567 36.58154914 162 36 C162 35.34 162 34.68 162 34 C136.08465002 24.85340589 101.39294146 25.42682113 77 39 Z " fill="#FEFDFD" transform="translate(0,0)"/>
<path d="M0 0 C1.59811523 0.00676758 1.59811523 0.00676758 3.22851562 0.01367188 C5.83990291 0.02538213 8.45117124 0.04178276 11.0625 0.0625 C11.0625 0.7225 11.0625 1.3825 11.0625 2.0625 C11.97128906 2.10117187 11.97128906 2.10117187 12.8984375 2.140625 C23.59662809 2.86481021 31.45666908 6.9016902 40.0625 13.0625 C40.98869141 13.66384766 40.98869141 13.66384766 41.93359375 14.27734375 C46.82414174 17.5122942 50.3596482 21.55108502 54.0625 26.0625 C55.238125 27.3928125 55.238125 27.3928125 56.4375 28.75 C58.18857767 31.24191822 58.71936319 33.06005291 59.0625 36.0625 C60.0525 36.3925 61.0425 36.7225 62.0625 37.0625 C62.93798828 38.76489258 62.93798828 38.76489258 63.6328125 40.95703125 C64.01759766 42.14329102 64.01759766 42.14329102 64.41015625 43.35351562 C64.79494141 44.60165039 64.79494141 44.60165039 65.1875 45.875 C65.45175781 46.69548828 65.71601563 47.51597656 65.98828125 48.36132812 C69.18746685 58.3729927 69.18746685 58.3729927 69.1953125 63.07421875 C69.19724609 63.82848145 69.19917969 64.58274414 69.20117188 65.35986328 C69.19666016 66.1486084 69.19214844 66.93735352 69.1875 67.75 C69.18556641 68.55421387 69.18363281 69.35842773 69.18164062 70.18701172 C69.14257153 75.54490363 68.84863882 80.75606297 68.0625 86.0625 C67.4025 86.0625 66.7425 86.0625 66.0625 86.0625 C65.94132813 86.79855469 65.82015625 87.53460938 65.6953125 88.29296875 C65.44394531 89.75669922 65.44394531 89.75669922 65.1875 91.25 C65.02507812 92.21292969 64.86265625 93.17585938 64.6953125 94.16796875 C64.08210483 96.97282604 63.20583657 99.43474747 62.0625 102.0625 C61.4025 102.0625 60.7425 102.0625 60.0625 102.0625 C59.72605469 103.34640625 59.72605469 103.34640625 59.3828125 104.65625 C57.85822779 108.58949813 55.67642703 111.42654654 52.9375 114.5625 C52.4432251 115.13492432 51.9489502 115.70734863 51.43969727 116.29711914 C47.69940367 120.53579519 43.87957159 124.06685471 39.0625 127.0625 C38.23621094 127.58328125 37.40992188 128.1040625 36.55859375 128.640625 C17.82475038 140.14337235 -1.19627991 141.25238002 -22.5234375 136.484375 C-24.33546811 136.03931485 -26.13817659 135.55643192 -27.9375 135.0625 C-27.9375 134.4025 -27.9375 133.7425 -27.9375 133.0625 C-28.65808594 132.95421875 -29.37867188 132.8459375 -30.12109375 132.734375 C-37.06842193 131.07703735 -42.80609654 126.78290479 -46.9375 121.0625 C-47.56140625 120.76859375 -48.1853125 120.4746875 -48.828125 120.171875 C-58.42699462 115.12358061 -64.25918088 99.83785722 -67.95703125 90.3359375 C-73.23051623 72.72964103 -70.58778605 52.15945466 -62.59375 35.984375 C-60.9375 33.0625 -60.9375 33.0625 -58.9375 32.0625 C-58.52628906 31.18722656 -58.11507812 30.31195313 -57.69140625 29.41015625 C-55.59788715 25.41428571 -53.05945858 22.65027669 -49.875 19.5 C-49.30152832 18.92862305 -48.72805664 18.35724609 -48.13720703 17.76855469 C-42.69269308 12.52210554 -37.08657719 9.44552573 -29.9375 7.0625 C-29.6075 6.4025 -29.2775 5.7425 -28.9375 5.0625 C-26.8984375 4.02734375 -26.8984375 4.02734375 -24.3125 3 C-23.47460938 2.65839844 -22.63671875 2.31679688 -21.7734375 1.96484375 C-14.62987081 -0.30810929 -7.41224889 -0.05981331 0 0 Z " fill="#902219" transform="translate(125.9375,60.9375)"/>
<path d="M0 0 C-0.33 1.65 -0.66 3.3 -1 5 C-0.34 5 0.32 5 1 5 C1.02708567 6.60407328 1.04643483 8.2082785 1.0625 9.8125 C1.07410156 10.70582031 1.08570312 11.59914063 1.09765625 12.51953125 C1 15 1 15 0 18 C1.65 18 3.3 18 5 18 C5 18.99 5 19.98 5 21 C4.11441406 21.07476562 3.22882813 21.14953125 2.31640625 21.2265625 C-20.47905981 23.64606046 -38.44025021 33.35127055 -53.3125 50.8125 C-66.81088193 68.58536954 -69.26999997 88.88968432 -66.69091797 110.60205078 C-65.28958526 119.29102946 -62.458828 127.0629506 -58.171875 134.77734375 C-57 137 -57 137 -57 139 C-56.34 139 -55.68 139 -55 139 C-53.71211757 140.47144268 -52.49429673 142.0045715 -51.3125 143.5625 C-43.79153857 153.1321821 -35.64100633 160.69240741 -24 165 C-24 165.66 -24 166.32 -24 167 C-23.31035156 167.12117187 -22.62070313 167.24234375 -21.91015625 167.3671875 C-20.50056641 167.61855469 -20.50056641 167.61855469 -19.0625 167.875 C-17.68771484 168.11863281 -17.68771484 168.11863281 -16.28515625 168.3671875 C-14.51821888 168.7075488 -12.75239884 169.06285634 -11.00830078 169.50561523 C-4.88065904 171.03512831 0.94739258 171.34601337 7.25 171.3125 C8.25836914 171.31121094 9.26673828 171.30992187 10.30566406 171.30859375 C17.08668668 171.22140606 23.13997117 170.54246822 29.671875 168.65625 C32 168 32 168 35 168 C35 167.34 35 166.68 35 166 C35.60585937 165.79246094 36.21171875 165.58492187 36.8359375 165.37109375 C45.85506595 162.0548296 53.51831081 157.14647782 60 150 C61.03253906 148.93845703 61.03253906 148.93845703 62.0859375 147.85546875 C66.96333074 142.7107101 70.51626445 137.78146978 73.515625 131.34765625 C75.2843797 128.55023106 77.08078871 127.48409567 80 126 C80 127.32 80 128.64 80 130 C80.66 130 81.32 130 82 130 C82 129.34 82 128.68 82 128 C84.25 128.125 84.25 128.125 87 129 C91 134.08108108 91 134.08108108 91 137 C91.66 137 92.32 137 93 137 C93.33 135.68 93.66 134.36 94 133 C93.0409375 132.8453125 93.0409375 132.8453125 92.0625 132.6875 C91.381875 132.460625 90.70125 132.23375 90 132 C89.67 131.01 89.34 130.02 89 129 C90.093125 129.04125 91.18625 129.0825 92.3125 129.125 C96.08892229 129.32074666 96.08892229 129.32074666 99 127 C99.50734456 133.15255941 98.03279883 136.9121947 95.0625 142.25 C94.65499512 142.99652832 94.24749023 143.74305664 93.82763672 144.51220703 C90.21157405 150.95544914 86.03490629 156.5829061 81 162 C79.73542969 163.38445312 79.73542969 163.38445312 78.4453125 164.796875 C60.53220517 183.59265718 36.71546707 194.34642026 10.8046875 195.2890625 C-0.11085142 195.50791224 -10.5447947 195.491997 -21 192 C-21 191.34 -21 190.68 -21 190 C-21.92619141 189.85304687 -21.92619141 189.85304687 -22.87109375 189.703125 C-32.98839597 187.91681289 -40.69490057 183.94704441 -49 178 C-49.680625 177.51402344 -50.36125 177.02804688 -51.0625 176.52734375 C-64.31171356 166.82332991 -64.31171356 166.82332991 -68 160 C-68.680625 159.34 -69.36125 158.68 -70.0625 158 C-72.20164079 155.79185467 -73.03577214 153.89268359 -74 151 C-74.66 151 -75.32 151 -76 151 C-77.44371606 148.3365406 -78.88003077 145.6695008 -80.3125 143 C-80.71662109 142.25621094 -81.12074219 141.51242188 -81.53710938 140.74609375 C-93.67041992 118.05778949 -94.08334411 90.42869116 -87.61572266 65.85058594 C-86.77281456 63.31718254 -85.45882969 61.2250055 -84 59 C-83.3842259 57.47100159 -82.80077339 55.92859665 -82.25 54.375 C-74.69599325 35.24949977 -56.07124637 16.24475977 -37.375 7.8125 C-35.91745223 7.20644062 -34.45918132 6.60211571 -33 6 C-31.9275 5.484375 -30.855 4.96875 -29.75 4.4375 C-20.12746203 0.40224214 -10.32323552 -0.45618226 0 0 Z " fill="#FAF5F5" transform="translate(118,34)"/>
<path d="M0 0 C0 0.66 0 1.32 0 2 C1.24716797 2.12761719 1.24716797 2.12761719 2.51953125 2.2578125 C6.71956293 3.15344215 9.95367492 4.81419447 13.6875 6.875 C14.35072266 7.22691406 15.01394531 7.57882813 15.69726562 7.94140625 C18.89265232 9.67264295 21.55411592 11.31786575 24 14 C25.76216402 15.42743585 27.53401309 16.84295365 29.3125 18.25 C33.23307368 21.43094039 36.65985117 24.58917283 39.80859375 28.52734375 C41.05705855 30.13929385 41.05705855 30.13929385 43 31.875 C45.57692488 34.61298269 47.5177703 37.63050503 49.55859375 40.78125 C50.68130112 42.50942828 51.86121865 44.2004866 53.0625 45.875 C57.42556141 52.91219582 60.25696418 60.19809402 62.3125 68.1875 C62.56966797 69.16662354 62.56966797 69.16662354 62.83203125 70.16552734 C63.97725171 74.90506993 64.14519232 79.16563347 64 84 C64.66 84 65.32 84 66 84 C66 92.58 66 101.16 66 110 C65.34 110 64.68 110 64 110 C63.92652344 111.16015625 63.92652344 111.16015625 63.8515625 112.34375 C63.41252377 118.46001367 62.69992464 124.10692791 61 130 C60.34 130 59.68 130 59 130 C58.88785156 130.85851562 58.77570313 131.71703125 58.66015625 132.6015625 C57.97351836 136.1363256 56.86705313 139.07603124 55.4375 142.375 C54.98246094 143.43460938 54.52742187 144.49421875 54.05859375 145.5859375 C53.70925781 146.38257813 53.35992187 147.17921875 53 148 C52.34 148 51.68 148 51 148 C50.73316406 148.73863281 50.46632812 149.47726563 50.19140625 150.23828125 C43.79091215 165.07483643 28.1266447 177.68258349 14.5 185.5625 C13.90034424 185.90941895 13.30068848 186.25633789 12.68286133 186.61376953 C9.89972913 188.16052666 8.23664058 189 5 189 C5 189.66 5 190.32 5 191 C4.19175781 191.26554688 3.38351563 191.53109375 2.55078125 191.8046875 C0.94783203 192.33449219 0.94783203 192.33449219 -0.6875 192.875 C-2.27111328 193.39707031 -2.27111328 193.39707031 -3.88671875 193.9296875 C-5.77843627 194.58003957 -7.6555156 195.27903011 -9.49609375 196.0625 C-29.24068113 203.45516922 -56.79081822 200.26405381 -75.8046875 192.47265625 C-81.35288732 189.91560083 -86.68844211 187.0165476 -92 184 C-92 183.34 -92 182.68 -92 182 C-92.8559375 181.78730469 -93.711875 181.57460937 -94.59375 181.35546875 C-98.77654452 179.69098515 -101.30134229 177.40634561 -104.5 174.3125 C-105.07097412 173.77230225 -105.64194824 173.23210449 -106.23022461 172.67553711 C-110.09449948 168.98074312 -113.66741405 165.18709517 -117 161 C-117.94359375 159.87078125 -117.94359375 159.87078125 -118.90625 158.71875 C-124.94594064 150.87616663 -129.3766822 141.77465278 -132.9765625 132.59375 C-134.02946182 129.82348709 -134.02946182 129.82348709 -135.6875 126.5625 C-143.83159068 104.45711101 -140.46388317 75.09550328 -131 54 C-123.65433486 38.61092843 -113.06037827 25.52566482 -99.75 14.9375 C-98.90103149 14.25796265 -98.90103149 14.25796265 -98.03491211 13.56469727 C-95.1790637 11.37048356 -92.48250058 9.6798983 -89.140625 8.31640625 C-85.91011412 7.36357465 -85.91011412 7.36357465 -85 5 C-59.71830056 -7.73289474 -26.71102921 -9.65964893 0 0 Z M-57 0 C-58.93150192 0.45088067 -60.86305122 0.90162032 -62.79663086 1.34350586 C-70.11777935 3.04677899 -76.43707097 5.25472425 -83 9 C-83.70898438 9.34417969 -84.41796875 9.68835937 -85.1484375 10.04296875 C-105.27010075 20.10380037 -121.26409642 40.01703776 -129.10546875 60.73828125 C-130 63 -130 63 -131.01171875 64.84765625 C-139.46294967 83.25330145 -136.9215581 111.255023 -131 130 C-129.31622521 134.23019584 -127.32553058 138.09239491 -125 142 C-124.03914029 143.74861414 -123.080605 145.49850868 -122.125 147.25 C-121.41935575 148.50152 -120.71214632 149.75216839 -120 151 C-119.34 151 -118.68 151 -118 151 C-117.79375 151.680625 -117.5875 152.36125 -117.375 153.0625 C-115.84117849 156.3393005 -113.96411428 158.57314324 -111.5625 161.24609375 C-110.20260336 162.77257772 -108.93560746 164.38083356 -107.6875 166 C-102.14643138 172.65636359 -94.24062392 177.39233023 -87 182 C-85.906875 182.70125 -84.81375 183.4025 -83.6875 184.125 C-78.19317168 187.20182386 -71.32236912 190 -65 190 C-65 190.66 -65 191.32 -65 192 C-41.69092445 199.78513855 -14.07120873 195.41773012 7.6875 184.9375 C29.56876404 174.00277705 47.59972633 153.97024208 56.1015625 131.02734375 C56.79785723 128.69581139 57.41417982 126.36116838 58 124 C58.350625 122.989375 58.70125 121.97875 59.0625 120.9375 C61.59500366 113.00232186 62.35792694 105.57168878 62.3125 97.25 C62.30758545 96.18523437 62.3026709 95.12046875 62.29760742 94.0234375 C62.18264331 86.30728217 61.35522668 79.37410257 59 72 C58.60698161 70.65043428 58.21652144 69.30012189 57.828125 67.94921875 C55.78443385 60.98694851 53.57274293 54.35154299 50 48 C49.34 48 48.68 48 48 48 C47.7525 47.0925 47.505 46.185 47.25 45.25 C45.91561912 41.78060972 44.62052812 40.54345376 42 38 C41.46375 36.948125 40.9275 35.89625 40.375 34.8125 C37.48355015 29.46734968 32.60248652 25.83658737 28 22 C27.11183594 21.25105469 26.22367188 20.50210938 25.30859375 19.73046875 C23.21413858 17.80007222 23.21413858 17.80007222 21 18 C21 17.34 21 16.68 21 16 C9.24400699 8.99161955 -1.92980827 3.34290982 -15.48046875 0.578125 C-18 0 -18 0 -19 -1 C-25.30304149 -2.23434562 -31.59556389 -2.18358531 -38 -2.1875 C-39.05445312 -2.19974609 -40.10890625 -2.21199219 -41.1953125 -2.22460938 C-46.86850852 -2.23527328 -51.57944027 -1.84390572 -57 0 Z " fill="#9C3931" transform="translate(162,34)"/>
<path d="M0 0 C3.1305429 -0.39964378 5.13083761 -0.52149743 7.875 1.125 C9.4682099 3.78034983 9.20214032 5.96789518 9 9 C9.86496094 9.09796875 10.72992188 9.1959375 11.62109375 9.296875 C19.34030281 10.9031844 26.92583736 16.03039689 32 22 C32.73283203 22.80050781 32.73283203 22.80050781 33.48046875 23.6171875 C36.95791916 27.48102128 39.60610666 31.40016362 42 36 C42.37382812 36.65097656 42.74765625 37.30195313 43.1328125 37.97265625 C45.61104235 42.46986356 46.53681785 45.73918502 46 51 C45 52 45 52 41.4375 52.0625 C40.303125 52.041875 39.16875 52.02125 38 52 C36.82823482 49.87767021 35.66245215 47.75242209 34.5 45.625 C34.16613281 45.02171875 33.83226562 44.4184375 33.48828125 43.796875 C31 39.2265625 31 39.2265625 31 37 C30.34 37 29.68 37 29 37 C28.11256212 35.60057872 27.22710994 34.19985986 26.3515625 32.79296875 C24.17854256 29.91026311 21.40222494 27.77844502 18.609375 25.515625 C18.07828125 25.01546875 17.5471875 24.5153125 17 24 C17 23.34 17 22.68 17 22 C14.36 21.34 11.72 20.68 9 20 C8.68664107 23.89876802 8.83755937 27.24893108 10 31 C12.54080342 33.54941631 15.27332431 35.49932922 18.19140625 37.6015625 C23.52337984 42.15487513 26.66754749 49.13715318 28 56 C28.1875 59.625 28.1875 59.625 28 63 C26 65 26 65 22.875 65.125 C21.92625 65.08375 20.9775 65.0425 20 65 C17.96254197 61.23070264 16.54460966 57.59029691 15.25 53.5 C13.59908623 48.92246637 11.87579821 45.81925877 7.9296875 42.90625 C5.0631369 41.56001571 2.93607315 41.52336302 -0.13671875 42.1796875 C-3.54183167 43.67879382 -4.96592681 45.91807093 -7 49 C-7.33 49.99 -7.66 50.98 -8 52 C-8.66 52 -9.32 52 -10 52 C-10.13277344 52.85464844 -10.26554687 53.70929688 -10.40234375 54.58984375 C-10.57894531 55.69457031 -10.75554687 56.79929688 -10.9375 57.9375 C-11.19853516 59.59072266 -11.19853516 59.59072266 -11.46484375 61.27734375 C-12 64 -12 64 -13 65 C-16.4375 65.1875 -16.4375 65.1875 -20 65 C-22 63 -22 63 -22.5625 59.1875 C-22.39029278 50.31882814 -16.13682781 41.13682781 -10 35 C-4.63157895 31 -4.63157895 31 -2 31 C-2 27.04 -2 23.08 -2 19 C-16.03294795 25.12706178 -22.99881746 34.68661611 -29.5703125 48.23828125 C-31 51 -31 51 -33 53 C-35.5 53.25 -35.5 53.25 -38 53 C-40 51 -40 51 -40.359375 47.81640625 C-39.94957355 43.46449299 -38.51505716 40.56400108 -36.25 36.9375 C-35.90195313 36.35162109 -35.55390625 35.76574219 -35.1953125 35.16210938 C-34.1542782 33.42512436 -33.082676 31.71127887 -32 30 C-31.64099609 29.41621582 -31.28199219 28.83243164 -30.91210938 28.23095703 C-29.99696929 26.78396605 -29.00449378 25.38645465 -28 24 C-27.34 24 -26.68 24 -26 24 C-25.76667969 23.42378906 -25.53335938 22.84757812 -25.29296875 22.25390625 C-21.64802388 15.90002954 -13.87822176 11.15787349 -7 9 C-4.0625 8.8125 -4.0625 8.8125 -2 9 C-2.04125 8.071875 -2.0825 7.14375 -2.125 6.1875 C-2 3 -2 3 0 0 Z " fill="#F9F2F2" transform="translate(122,120)"/>
<path d="M0 0 C-0.33 1.65 -0.66 3.3 -1 5 C-0.34 5 0.32 5 1 5 C1.02708567 6.60407328 1.04643483 8.2082785 1.0625 9.8125 C1.07410156 10.70582031 1.08570312 11.59914063 1.09765625 12.51953125 C1 15 1 15 0 18 C1.65 18 3.3 18 5 18 C5 18.99 5 19.98 5 21 C4.11441406 21.07476562 3.22882813 21.14953125 2.31640625 21.2265625 C-18.91568673 23.48012492 -37.51121221 31.91304112 -51.2109375 48.7109375 C-52.36835076 50.25903878 -53.50176674 51.82572216 -54.59765625 53.41796875 C-55.06042969 53.94003906 -55.52320312 54.46210937 -56 55 C-56.99 55 -57.98 55 -59 55 C-60.67099977 55.31088368 -62.33871537 55.64080332 -64 56 C-64.309375 55.236875 -64.61875 54.47375 -64.9375 53.6875 C-67.89301161 49.83637881 -71.42100409 49.18074737 -76 48 C-78.29113732 50.1907039 -79.6975667 52.09457188 -81 55 C-81.33 54.34 -81.66 53.68 -82 53 C-74.69392499 34.98893682 -56.48184008 16.75403792 -38.828125 8.82421875 C-36.99106686 8.03213091 -36.99106686 8.03213091 -35.296875 7.01953125 C-24.61736223 0.96006857 -12.07551519 -0.74438107 0 0 Z " fill="#F8F2F1" transform="translate(118,34)"/>
<path d="M0 0 C3.63190758 2.74096344 6.94383279 5.48843633 10 8.875 C10.86818359 9.66777344 10.86818359 9.66777344 11.75390625 10.4765625 C21.59838831 20.14765838 28.31734205 36.14599004 29 49.875 C29.06703125 50.93203125 29.1340625 51.9890625 29.203125 53.078125 C29.83513994 72.85116379 24.92075752 90.64696435 12 105.875 C11.41089844 106.66519531 10.82179688 107.45539063 10.21484375 108.26953125 C7.69650764 111.23201835 4.89737333 113.54404495 1.8125 115.875 C1.02262695 116.49375 1.02262695 116.49375 0.21679688 117.125 C-7.42973069 122.97180722 -15.27311854 126.70332158 -24.5625 129.1875 C-25.52124023 129.4453125 -26.47998047 129.703125 -27.46777344 129.96875 C-39.07095692 132.89567917 -50.38395972 133.12337941 -62 129.875 C-63.04607422 129.60042969 -63.04607422 129.60042969 -64.11328125 129.3203125 C-73.9529874 126.40617649 -83.28745905 121.61140572 -91 114.875 C-91.65484375 114.38257813 -92.3096875 113.89015625 -92.984375 113.3828125 C-102.05460201 106.27913913 -110.14366756 94.06585471 -113 82.875 C-113 81.555 -113 80.235 -113 78.875 C-113.66 78.875 -114.32 78.875 -115 78.875 C-118.58890148 62.82107465 -118.68173752 46.0224341 -112 30.875 C-111.53722656 29.78960937 -111.07445312 28.70421875 -110.59765625 27.5859375 C-104.07572554 13.41359953 -92.27523631 -0.71223052 -77.4375 -6.5 C-76.61121094 -6.77585937 -75.78492188 -7.05171875 -74.93359375 -7.3359375 C-72.81060697 -7.95448958 -72.81060697 -7.95448958 -72 -10.125 C-46.52567141 -18.13873827 -21.83967704 -15.40425221 0 0 Z M-72 -6.125 C-72.33 -5.465 -72.66 -4.805 -73 -4.125 C-74.46105582 -3.55533581 -75.94519934 -3.044413 -77.4375 -2.5625 C-83.88564397 -0.09378202 -88.15417517 4.07787692 -93 8.875 C-93.69738281 9.52339844 -94.39476563 10.17179687 -95.11328125 10.83984375 C-98.46820312 14.01416941 -100.51542462 16.42127387 -102 20.875 C-102.44730469 21.29523438 -102.89460938 21.71546875 -103.35546875 22.1484375 C-113.50649533 32.80580982 -113.49018807 49.88815584 -113.17578125 63.65625 C-112.63341719 78.72265778 -107.0030395 92.57480825 -97 103.875 C-96.2575 104.865 -95.515 105.855 -94.75 106.875 C-93.07313101 109.13157828 -93.07313101 109.13157828 -90 109.875 C-89.484375 110.596875 -88.96875 111.31875 -88.4375 112.0625 C-83.92295555 117.27158975 -77.84131783 120.84696655 -71 121.875 C-71 122.535 -71 123.195 -71 123.875 C-64.02297618 125.75206732 -57.22965062 127.49212131 -50 127.875 C-48.38738281 127.97167969 -48.38738281 127.97167969 -46.7421875 128.0703125 C-32.63088029 128.51971719 -18.56298553 126.40442544 -7 117.875 C-6.08863281 117.26527344 -5.17726563 116.65554687 -4.23828125 116.02734375 C4.57709452 109.97804769 12.17427691 102.54964678 17 92.875 C17 92.215 17 91.555 17 90.875 C17.66 90.875 18.32 90.875 19 90.875 C19.67184618 88.77248139 20.33730968 86.66792237 21 84.5625 C21.556875 82.80486328 21.556875 82.80486328 22.125 81.01171875 C23.13434772 77.93613324 23.13434772 77.93613324 23 74.875 C23.66 74.875 24.32 74.875 25 74.875 C27.61652795 57.21343635 26.4713903 40.87375469 18 24.875 C17.34 24.875 16.68 24.875 16 24.875 C15.86464844 23.79025391 15.86464844 23.79025391 15.7265625 22.68359375 C12.89289356 11.72978746 0.16052336 3.43728178 -9 -2.125 C-16.42883598 -6.37172041 -23.37252099 -9.125 -32 -9.125 C-32 -9.785 -32 -10.445 -32 -11.125 C-35.64576392 -11.18378077 -39.29140352 -11.2188558 -42.9375 -11.25 C-43.95908203 -11.26675781 -44.98066406 -11.28351562 -46.03320312 -11.30078125 C-55.37973709 -11.36050351 -63.4121602 -9.80550277 -72 -6.125 Z " fill="#E5CAC9" transform="translate(169,72.125)"/>
<path d="M0 0 C3.3125 -0.25 3.3125 -0.25 7 0 C9.71042547 2.41826524 9.99482153 3.95009994 10.37231445 7.58764648 C10.3853108 9.01540627 10.38131179 10.44338867 10.36328125 11.87109375 C10.36402901 13.01010887 10.36402901 13.01010887 10.36479187 14.1721344 C10.36245586 15.77502057 10.35275514 17.37791071 10.33618164 18.98071289 C10.31261443 21.42562926 10.31562093 23.86945216 10.32226562 26.31445312 C10.31668739 27.87500646 10.3095766 29.43555523 10.30078125 30.99609375 C10.30214836 32.0869352 10.30214836 32.0869352 10.30354309 33.19981384 C10.24798026 37.20694191 9.93576889 40.45179113 8 44 C5.71484375 44.96875 5.71484375 44.96875 2.9375 45.5 C-12.20634131 49.11878805 -22.85631382 60.20935165 -31 73 C-33.125 76.125 -33.125 76.125 -35 78 C-37.625 78.5 -37.625 78.5 -40 78 C-42.34134034 74.48798949 -42.43298856 73.13400979 -42 69 C-33.85451004 53.23608119 -18.00331652 41.55873628 -2 35 C-1.67 31.04 -1.34 27.08 -1 23 C-4.96 23.495 -4.96 23.495 -9 24 C-9 24.66 -9 25.32 -9 26 C-9.59425781 26.1959375 -10.18851563 26.391875 -10.80078125 26.59375 C-18.84068495 29.49461728 -25.93375589 33.93375589 -32 40 C-34.87012296 40.36796448 -36.40774618 40.37509409 -38.875 38.8125 C-40 37 -40 37 -40.125 34.6875 C-38.47124629 30.73686615 -35.52252413 28.36733146 -32 26 C-31.34 26 -30.68 26 -30 26 C-30 25.34 -30 24.68 -30 24 C-29.38511719 23.74605469 -28.77023438 23.49210937 -28.13671875 23.23046875 C-27.32847656 22.88628906 -26.52023438 22.54210937 -25.6875 22.1875 C-24.48673828 21.68283203 -24.48673828 21.68283203 -23.26171875 21.16796875 C-20.99169778 20.15954557 -20.99169778 20.15954557 -19.6484375 18.53125 C-17.10956313 16.17286433 -14.18854001 15.43204118 -10.9375 14.3125 C-9.98133789 13.97508789 -9.98133789 13.97508789 -9.00585938 13.63085938 C-4.30164799 12 -4.30164799 12 -2 12 C-2.04125 10.7625 -2.0825 9.525 -2.125 8.25 C-2.13658291 4.98362038 -1.8568702 2.7853053 0 0 Z " fill="#F7EFEF" transform="translate(111,73)"/>
<path d="M0 0 C3.0625 0.25 3.0625 0.25 6.0625 2.25 C6.35546875 4.8515625 6.35546875 4.8515625 6.25 7.875 C6.22292969 8.87789062 6.19585937 9.88078125 6.16796875 10.9140625 C6.13316406 11.68492188 6.09835938 12.45578125 6.0625 13.25 C6.82691406 13.37375 7.59132812 13.4975 8.37890625 13.625 C18.03798026 15.48474951 25.62526662 19.33703285 34.0625 24.25 C34.0625 24.91 34.0625 25.57 34.0625 26.25 C34.805 26.4975 35.5475 26.745 36.3125 27 C39.39060608 28.39913913 41.03273779 29.54365039 43.0625 32.25 C43.4375 35.375 43.4375 35.375 43.0625 38.25 C41.0625 40.25 41.0625 40.25 38.6875 40.5625 C35.60565707 40.19561394 34.28035231 39.38570963 32.0625 37.25 C32.0625 36.59 32.0625 35.93 32.0625 35.25 C31.36640625 34.99089844 30.6703125 34.73179688 29.953125 34.46484375 C26.76047481 33.12306779 23.8316845 31.50805651 20.8125 29.8125 C15.63302756 26.98411915 10.72418918 24.88133417 5.0625 23.25 C4.56626966 27.56720393 4.57436878 31.13575485 6.0625 35.25 C9.47053236 37.78923042 12.51162244 39.15334004 16.44921875 40.75 C22.41116399 43.22501294 26.64396508 46.61592679 31.0625 51.25 C31.6090625 51.7759375 32.155625 52.301875 32.71875 52.84375 C43.77826012 63.51520713 43.77826012 63.51520713 45.0625 70.25 C45.7225 70.25 46.3825 70.25 47.0625 70.25 C46.7325 72.56 46.4025 74.87 46.0625 77.25 C42.5975 77.745 42.5975 77.745 39.0625 78.25 C38.42183594 77.32058594 37.78117187 76.39117187 37.12109375 75.43359375 C27.22526327 61.22178286 16.19148109 50.15717839 -0.68359375 44.640625 C-1.48337646 44.37797852 -2.28315918 44.11533203 -3.10717773 43.84472656 C-4.01318726 43.55033691 -4.01318726 43.55033691 -4.9375 43.25 C-4.98684656 37.44760386 -5.02319402 31.64532919 -5.04736328 25.84277344 C-5.05743627 23.86781691 -5.07109521 21.89287534 -5.08837891 19.91796875 C-5.11257039 17.08329582 -5.12396991 14.24881962 -5.1328125 11.4140625 C-5.14313507 10.52756012 -5.15345764 9.64105774 -5.16409302 8.72769165 C-5.1644907 6.56714048 -5.06022534 4.40706282 -4.9375 2.25 C-2.9375 0.25 -2.9375 0.25 0 0 Z " fill="#F8F2F2" transform="translate(134.9375,72.75)"/>
<path d="M0 0 C6.73306625 4.86762798 12.56413098 10.45277502 17.70703125 16.95703125 C18.33867187 17.53710938 18.9703125 18.1171875 19.62109375 18.71484375 C30.27771002 30.16970842 33.90534729 48.12780982 33.89453125 63.14453125 C33.89517578 64.06838623 33.89582031 64.99224121 33.89648438 65.9440918 C33.84360924 72.80163666 33.26019179 79.25902641 31.70703125 85.95703125 C31.04703125 85.95703125 30.38703125 85.95703125 29.70703125 85.95703125 C29.52140625 87.00890625 29.33578125 88.06078125 29.14453125 89.14453125 C26.3290736 100.19129219 19.59775351 109.00675637 11.70703125 116.95703125 C10.79953125 117.90578125 9.89203125 118.85453125 8.95703125 119.83203125 C2.92408591 125.52981296 -5.57545579 132.95703125 -14.29296875 132.95703125 C-14.29296875 133.61703125 -14.29296875 134.27703125 -14.29296875 134.95703125 C-33.99745087 141.36313284 -53.74267397 140.47379618 -73.29296875 133.95703125 C-73.29296875 133.29703125 -73.29296875 132.63703125 -73.29296875 131.95703125 C-74.01226562 131.85132813 -74.7315625 131.745625 -75.47265625 131.63671875 C-87.05810204 128.84465841 -97.49039555 117.20600548 -104.29296875 107.95703125 C-104.29296875 107.29703125 -104.29296875 106.63703125 -104.29296875 105.95703125 C-104.95296875 105.95703125 -105.61296875 105.95703125 -106.29296875 105.95703125 C-116.67568662 85.58618811 -121.96546096 62.68575398 -115.46484375 39.93359375 C-108.70277529 22.75793985 -97.4225193 7.34299838 -81.29296875 -2.04296875 C-80.55820313 -2.47222656 -79.8234375 -2.90148437 -79.06640625 -3.34375 C-53.82543976 -16.97724862 -23.89861404 -15.69308132 0 0 Z M-70.29296875 -5.04296875 C-70.62296875 -4.38296875 -70.95296875 -3.72296875 -71.29296875 -3.04296875 C-72.75143006 -2.44779868 -74.23631146 -1.91679817 -75.73046875 -1.41796875 C-89.78440848 3.99510362 -102.27176958 17.86584824 -108.48046875 31.39453125 C-109.10300488 32.90793805 -109.70619731 34.42940215 -110.29296875 35.95703125 C-110.65390625 36.88 -111.01484375 37.80296875 -111.38671875 38.75390625 C-114.38050421 46.66605354 -115.48718777 53.65890192 -115.48046875 62.08203125 C-115.48111328 62.91645752 -115.48175781 63.75088379 -115.48242188 64.6105957 C-115.42644924 71.2020098 -114.7333321 77.51397735 -113.29296875 83.95703125 C-112.63296875 83.95703125 -111.97296875 83.95703125 -111.29296875 83.95703125 C-111.25171875 84.86453125 -111.21046875 85.77203125 -111.16796875 86.70703125 C-109.29243175 99.45040594 -99.36663918 112.3850262 -89.29296875 119.95703125 C-88.70128906 120.44558594 -88.10960938 120.93414062 -87.5 121.4375 C-72.75700204 133.2622963 -53.06552426 139.01144256 -34.29296875 136.95703125 C-22.10416957 134.78581865 -10.35007607 131.34130374 -0.29296875 123.95703125 C1.14949219 122.90322266 1.14949219 122.90322266 2.62109375 121.828125 C11.89494533 114.64151495 18.07902677 106.1659696 23.70703125 95.95703125 C24.279375 94.96703125 24.279375 94.96703125 24.86328125 93.95703125 C32.87619403 78.41683677 32.81872917 56.19232316 27.70703125 39.95703125 C21.97269534 24.05877681 13.01697563 12.20877777 -1.29296875 2.95703125 C-1.98132813 2.4878125 -2.6696875 2.01859375 -3.37890625 1.53515625 C-23.20321456 -11.5731619 -48.05215751 -12.03950409 -70.29296875 -5.04296875 Z " fill="#A0403A" transform="translate(167.29296875,67.04296875)"/>
<path d="M0 0 C15.196531 1.49224453 29.85224673 10.75519233 40 22 C40.86818359 22.79277344 40.86818359 22.79277344 41.75390625 23.6015625 C51.59838831 33.27265838 58.31734205 49.27099004 59 63 C59.10054687 64.58554688 59.10054687 64.58554688 59.203125 66.203125 C59.83513994 85.97616379 54.92075752 103.77196435 42 119 C41.41089844 119.79019531 40.82179687 120.58039063 40.21484375 121.39453125 C37.69743062 124.35593259 34.90115537 126.67516197 31.8125 129 C30.9464917 129.65464233 30.9464917 129.65464233 30.06298828 130.32250977 C21.08508147 137.00783948 11.55661842 142.39492041 0 142 C2.61816521 140.25455653 4.65160616 139.31530304 7.5625 138.25 C13.11575695 136.06089001 18.0130801 133.26388974 23 130 C23.89847656 129.42507812 24.79695313 128.85015625 25.72265625 128.2578125 C34.92079662 122.02222367 42.2958948 114.16207342 47 104 C47.66 104 48.32 104 49 104 C49.12117188 103.43152344 49.24234375 102.86304688 49.3671875 102.27734375 C50.41322054 97.45754536 51.59204484 92.7267066 53 88 C53.66 88 54.32 88 55 88 C55.55637031 72.51236235 55.75444619 58.54305492 50 44 C49.65710938 43.04867187 49.31421875 42.09734375 48.9609375 41.1171875 C48.1925723 38.83394014 48.1925723 38.83394014 46 38 C45.10546875 36.36328125 45.10546875 36.36328125 44.1875 34.3125 C37.97870833 21.50686719 23.9601465 12.14755115 11 7 C6.699795 5.80814717 2.38078554 4.84457151 -2 4 C-1.01 3.34 -0.02 2.68 1 2 C0.67 1.34 0.34 0.68 0 0 Z " fill="#EDDBDA" transform="translate(139,59)"/>
<path d="M0 0 C26.54383197 -0.41857086 45.65428748 2.07550797 65.84375 20.859375 C68.44806388 23.44481704 70.72489923 26.12266667 73 29 C73.63164062 29.58007812 74.26328125 30.16015625 74.9140625 30.7578125 C85.57067877 42.21267717 89.19831604 60.17077857 89.1875 75.1875 C89.18814453 76.11135498 89.18878906 77.03520996 89.18945312 77.98706055 C89.13657799 84.84460541 88.55316054 91.30199516 87 98 C86.67 98 86.34 98 86 98 C85.855625 97.2575 85.71125 96.515 85.5625 95.75 C85.08847162 93.12921046 85.08847162 93.12921046 84.375 91.1875 C83.91705115 88.51613171 84.36121446 86.17527304 84.73046875 83.51171875 C86.85410361 63.72190407 81.84279809 44.71538244 69.6875 28.9375 C65.08188685 23.70457057 59.8192711 19.78989787 54 16 C53.31035156 15.52949219 52.62070313 15.05898437 51.91015625 14.57421875 C37.25154243 4.89173968 22.06417541 3.84212814 5 3 C5 2.67 5 2.34 5 2 C3.35 1.67 1.7 1.34 0 1 C0 0.67 0 0.34 0 0 Z " fill="#AE5D57" transform="translate(112,55)"/>
<path d="M0 0 C2.93380851 1.46690425 3.06347322 3.46167506 4.1875 6.5 C6.61786906 12.55789322 9.80206109 17.06592962 14 22 C14.51949219 22.71671875 15.03898437 23.4334375 15.57421875 24.171875 C17.18458218 26.23666976 18.60417892 27.00862576 21 28 C21 28.66 21 29.32 21 30 C21.99 30.33 22.98 30.66 24 31 C24 31.66 24 32.32 24 33 C27.20970449 34.63542086 30.46807572 36.14031997 33.75 37.625 C34.73484375 38.07101563 35.7196875 38.51703125 36.734375 38.9765625 C37.48203125 39.31429687 38.2296875 39.65203125 39 40 C39 40.66 39 41.32 39 42 C55.80673744 44.73919951 71.0866191 46.19443282 88 43 C87 45 87 45 84.0625 46 C83.051875 46.33 82.04125 46.66 81 47 C80.01 47.99 80.01 47.99 79 49 C69.5150887 51.71244276 57.38878193 50.62553548 48 48 C47.30261719 47.81695312 46.60523438 47.63390625 45.88671875 47.4453125 C36.0470126 44.53117649 26.71254095 39.73640572 19 33 C18.34515625 32.50757813 17.6903125 32.01515625 17.015625 31.5078125 C12.19568624 27.73290471 8.84069977 23.2781618 5.4375 18.25 C4.98342773 17.58758301 4.52935547 16.92516602 4.06152344 16.24267578 C2.95336368 14.54934203 1.96627785 12.7781182 1 11 C1.33 10.01 1.66 9.02 2 8 C1.69193547 5.92352124 1.69193547 5.92352124 1.0625 3.8125 C0.711875 2.554375 0.36125 1.29625 0 0 Z " fill="#E7CECD" transform="translate(59,154)"/>
<path d="M0 0 C-0.33 1.65 -0.66 3.3 -1 5 C-0.34 5 0.32 5 1 5 C1.02708567 6.60407328 1.04643483 8.2082785 1.0625 9.8125 C1.07410156 10.70582031 1.08570312 11.59914063 1.09765625 12.51953125 C1 15 1 15 0 18 C1.65 18 3.3 18 5 18 C5 18.99 5 19.98 5 21 C-3.91 21.99 -3.91 21.99 -13 23 C-12.67 21.68 -12.34 20.36 -12 19 C-11.34 18.67 -10.68 18.34 -10 18 C-10.01740234 16.73542969 -10.01740234 16.73542969 -10.03515625 15.4453125 C-10.04417969 14.34960938 -10.05320312 13.25390625 -10.0625 12.125 C-10.07410156 11.03445312 -10.08570312 9.94390625 -10.09765625 8.8203125 C-10 6 -10 6 -9 4 C-11.47266765 4.34444881 -11.47266765 4.34444881 -14 5 C-14.33 5.66 -14.66 6.32 -15 7 C-14.01 7 -13.02 7 -12 7 C-11.67 10.3 -11.34 13.6 -11 17 C-12.65 17 -14.3 17 -16 17 C-16.99 14.03 -17.98 11.06 -19 8 C-18.34 8 -17.68 8 -17 8 C-17 7.34 -17 6.68 -17 6 C-19.31 6.33 -21.62 6.66 -24 7 C-23.06079055 4.66883399 -22.46843842 3.28728031 -20.29296875 1.953125 C-13.51498639 -0.31039415 -7.09708948 -0.29616911 0 0 Z " fill="#FDFBFA" transform="translate(118,34)"/>
<path d="M0 0 C2.38621806 3.57932709 2.4785033 4.77322084 2 9 C1.401875 10.093125 0.80375 11.18625 0.1875 12.3125 C-8.28425223 28.44199269 -6.26840321 51.58451727 -4 69 C-4.66 68.67 -5.32 68.34 -6 68 C-6 70.31 -6 72.62 -6 75 C-11.87334202 69.12665798 -10.22455118 55.40308434 -10.25 47.625 C-10.14419477 30.50470568 -8.07077792 15.32671768 0 0 Z " fill="#A54C45" transform="translate(33,84)"/>
<path d="M0 0 C0.33 0 0.66 0 1 0 C2.07209642 10.18491597 -5.02985475 22.07589759 -11.2109375 29.7421875 C-13.42230654 32.21803921 -15.68098333 34.62505158 -18 37 C-18.9075 37.94875 -19.815 38.8975 -20.75 39.875 C-26.78294534 45.57278171 -35.28248704 53 -44 53 C-44 53.66 -44 54.32 -44 55 C-45.98 55.495 -45.98 55.495 -48 56 C-48 55.34 -48 54.68 -48 54 C-49.0725 54.350625 -50.145 54.70125 -51.25 55.0625 C-54.78720743 55.94680186 -55.74811124 56.02880551 -59 55 C-57.74445313 54.63648438 -56.48890625 54.27296875 -55.1953125 53.8984375 C-46.14033178 51.20790771 -37.68698854 48.67633495 -30 43 C-28.72769531 42.08927734 -28.72769531 42.08927734 -27.4296875 41.16015625 C-15.77582808 32.37627713 -8.53294609 20.32825236 -3 7 C-2.41767222 5.64540061 -1.83442664 4.29119518 -1.25 2.9375 C-0.63125 1.4834375 -0.63125 1.4834375 0 0 Z " fill="#A2443E" transform="translate(197,147)"/>
<path d="M0 0 C2.328125 0.4296875 2.328125 0.4296875 5 2 C6.3902361 4.92012346 7.04211301 7.97989135 7.75 11.125 C7.95753906 11.95515625 8.16507813 12.7853125 8.37890625 13.640625 C10.31580648 21.61315626 11.16952944 29.36166148 11.125 37.5625 C11.12886719 38.27857422 11.13273438 38.99464844 11.13671875 39.73242188 C11.12849081 44.25367635 10.73860558 48.53905679 10 53 C9.67 53 9.34 53 9 53 C8.95512451 52.37134033 8.91024902 51.74268066 8.86401367 51.0949707 C7.61614924 33.8608721 7.61614924 33.8608721 4 17 C3.64292969 15.75089844 3.28585938 14.50179687 2.91796875 13.21484375 C2.21476812 10.77227761 1.49990494 8.33301646 0.76953125 5.8984375 C0 3 0 3 0 0 Z " fill="#93271F" transform="translate(216,89)"/>
<path d="M0 0 C3.46941546 0.45822468 6.67395049 0.89131683 10 2 C10 2.66 10 3.32 10 4 C10.90492187 4.09087891 10.90492187 4.09087891 11.828125 4.18359375 C12.62734375 4.26738281 13.4265625 4.35117188 14.25 4.4375 C15.43335938 4.55931641 15.43335938 4.55931641 16.640625 4.68359375 C19 5 19 5 20.78125 5.5 C23.49668729 6.11192953 26.07743405 6.21705122 28.859375 6.31640625 C29.97441406 6.35830078 31.08945313 6.40019531 32.23828125 6.44335938 C33.39714844 6.48267578 34.55601563 6.52199219 35.75 6.5625 C36.92433594 6.60568359 38.09867188 6.64886719 39.30859375 6.69335938 C42.20561451 6.79934794 45.10271935 6.90141638 48 7 C48 7.33 48 7.66 48 8 C38.1 8.495 38.1 8.495 28 9 C34.6 9.33 41.2 9.66 48 10 C48 10.33 48 10.66 48 11 C29.88577778 11.46428409 12.60559932 11.26189917 -4 3 C-4.33 2.34 -4.66 1.68 -5 1 C-2.525 1.495 -2.525 1.495 0 2 C0 1.34 0 0.68 0 0 Z " fill="#A54B45" transform="translate(87,222)"/>
<path d="M0 0 C-0.33 8.91 -0.66 17.82 -1 27 C-0.34 27 0.32 27 1 27 C1.19335938 28.0621875 1.38671875 29.124375 1.5859375 30.21875 C3.50577023 40.67188487 3.50577023 40.67188487 6 51 C3 50 3 50 2.05078125 48.29296875 C1.80714844 47.59816406 1.56351563 46.90335938 1.3125 46.1875 C1.06113281 45.50042969 0.80976562 44.81335938 0.55078125 44.10546875 C0 42 0 42 0 38 C-0.66 38 -1.32 38 -2 38 C-3.633557 30.69274949 -4.19326413 23.58739192 -4.1875 16.125 C-4.18814453 15.31699951 -4.18878906 14.50899902 -4.18945312 13.67651367 C-4.15021118 9.37283145 -4.03395202 5.20166491 -3 1 C-1 0 -1 0 0 0 Z " fill="#E9D2D1" transform="translate(56,113)"/>
<path d="M0 0 C0.99 0 1.98 0 3 0 C3.226875 0.639375 3.45375 1.27875 3.6875 1.9375 C4.85250896 4.27193661 4.85250896 4.27193661 7.625 4.75 C8.40875 4.8325 9.1925 4.915 10 5 C10 4.34 10 3.68 10 3 C11.65 2.34 13.3 1.68 15 1 C15.3125 3.3125 15.3125 3.3125 15 6 C12.5 7.8125 12.5 7.8125 10 9 C11.32 9 12.64 9 14 9 C13.67 11.31 13.34 13.62 13 16 C12.34 16 11.68 16 11 16 C11 15.34 11 14.68 11 14 C7.04 14 3.08 14 -1 14 C-1 11.69 -1 9.38 -1 7 C-0.01 7 0.98 7 2 7 C2 7.66 2 8.32 2 9 C2.66 8.67 3.32 8.34 4 8 C4 7.34 4 6.68 4 6 C2.68 6 1.36 6 0 6 C0 4.02 0 2.04 0 0 Z " fill="#A0413A" transform="translate(32,110)"/>
<path d="M0 0 C1.72065674 0.00580078 1.72065674 0.00580078 3.47607422 0.01171875 C11.22991408 0.09100812 18.66507791 0.53034155 26.25 2.25 C26.25 2.91 26.25 3.57 26.25 4.25 C26.91 4.58 27.57 4.91 28.25 5.25 C26.89595503 5.27763357 25.54173445 5.29667422 24.1875 5.3125 C23.43339844 5.32410156 22.67929688 5.33570313 21.90234375 5.34765625 C19.25 5.25 19.25 5.25 16.17578125 4.75390625 C10.93623161 4.08136704 5.77652822 4.10531146 0.5 4.125 C-0.5209375 4.12113281 -1.541875 4.11726563 -2.59375 4.11328125 C-9.36416118 4.12187314 -16.01963131 4.51974003 -22.75 5.25 C-22.42 4.26 -22.09 3.27 -21.75 2.25 C-14.53306828 0.00406689 -7.51053504 -0.06092858 0 0 Z " fill="#91241B" transform="translate(123.75,28.75)"/>
<path d="M0 0 C6 6 6 6 6.125 8.5 C6 11 6 11 5 12 C3.00041636 12.04080783 0.99954746 12.04254356 -1 12 C-1.33 14.31 -1.66 16.62 -2 19 C-2.66 19 -3.32 19 -4 19 C-5.125 12.375 -5.125 12.375 -4 9 C-5.65 9.66 -7.3 10.32 -9 11 C-9.66 9.35 -10.32 7.7 -11 6 C-9.73308493 5.32591692 -8.46129251 4.66099503 -7.1875 4 C-6.47980469 3.62875 -5.77210938 3.2575 -5.04296875 2.875 C-3 2 -3 2 0 2 C0 1.34 0 0.68 0 0 Z " fill="#A64C46" transform="translate(200,75)"/>
<path d="M0 0 C5.94 1.485 5.94 1.485 12 3 C12 3.66 12 4.32 12 5 C12.82757813 5.08121094 13.65515625 5.16242187 14.5078125 5.24609375 C18.79082126 6.17072539 22.08042457 7.93356669 25.875 10.0625 C26.56335938 10.43955078 27.25171875 10.81660156 27.9609375 11.20507812 C29.6449213 12.12893035 31.32307467 13.06339667 33 14 C32.34 14.33 31.68 14.66 31 15 C30.34 14.67 29.68 14.34 29 14 C29.495 15.98 29.495 15.98 30 18 C28.97261719 17.46890625 27.94523437 16.9378125 26.88671875 16.390625 C16.17860528 10.90892102 5.87030854 6.33514266 -6 4 C-6 3.67 -6 3.34 -6 3 C-4.02 2.67 -2.04 2.34 0 2 C0 1.34 0 0.68 0 0 Z " fill="#9B372F" transform="translate(150,31)"/>
<path d="M0 0 C1.23363281 0.01804688 2.46726563 0.03609375 3.73828125 0.0546875 C6.74303791 0.10127287 9.74607674 0.16666453 12.75 0.25 C12.75 0.58 12.75 0.91 12.75 1.25 C11.02716797 1.30607422 11.02716797 1.30607422 9.26953125 1.36328125 C0.74475104 1.7020996 -7.22650496 2.39777977 -15.5234375 4.55078125 C-18.76159202 5.38119623 -21.933676 5.86438093 -25.25 6.25 C-25.58 7.24 -25.91 8.23 -26.25 9.25 C-28.32421875 10.27734375 -28.32421875 10.27734375 -30.9375 11.1875 C-35.16168297 12.75579552 -38.51931376 14.70635029 -42.25 17.25 C-45.625 18.5 -45.625 18.5 -48.25 19.25 C-43.46356167 14.32680629 -38.84841749 10.33464985 -32.6875 7.25 C-31.29337891 6.5384375 -31.29337891 6.5384375 -29.87109375 5.8125 C-19.63328091 1.39488928 -11.18336526 -0.31570847 0 0 Z " fill="#A9524D" transform="translate(122.25,55.75)"/>
<path d="M0 0 C1.31823302 0.59155331 2.62947051 1.19871463 3.9375 1.8125 C5.03384766 2.31716797 5.03384766 2.31716797 6.15234375 2.83203125 C8 4 8 4 9 7 C9.66 7 10.32 7 11 7 C11 7.99 11 8.98 11 10 C8.70370006 11.14814997 6.92301914 11.30769809 4.375 11.5625 C3.55773438 11.64628906 2.74046875 11.73007813 1.8984375 11.81640625 C1.27195312 11.87699219 0.64546875 11.93757813 0 12 C2.31 12.66 4.62 13.32 7 14 C6.34 15.65 5.68 17.3 5 19 C4.01 19 3.02 19 2 19 C1.5875 18.21625 1.175 17.4325 0.75 16.625 C-1.62604214 13.0609368 -3.91862822 12.84707716 -8 12 C-6.125 8.125 -6.125 8.125 -5 7 C-3.31816052 6.76712992 -1.6287584 6.58735834 0.0625 6.4375 C1.44115234 6.31181641 1.44115234 6.31181641 2.84765625 6.18359375 C3.55792969 6.12300781 4.26820312 6.06242187 5 6 C2.69 5.34 0.38 4.68 -2 4 C-1.34 2.68 -0.68 1.36 0 0 Z " fill="#9C3831" transform="translate(52,71)"/>
<path d="M0 0 C5.45826892 5.45826892 4.21790933 16.17730583 4.25 23.4375 C4.22955067 31.14826093 3.74717292 38.46531679 2 46 C1.67 46 1.34 46 1 46 C0.855625 45.2575 0.71125 44.515 0.5625 43.75 C0.08847162 41.12921046 0.08847162 41.12921046 -0.625 39.1875 C-1.08200079 36.52166206 -0.64401098 34.19134252 -0.26171875 31.53515625 C0.48208783 24.33022386 0.33106085 16.93330083 -0.5625 9.75 C-1 6 -1 6 0 4 C0 2.68 0 1.36 0 0 Z " fill="#A2453E" transform="translate(197,107)"/>
<path d="M0 0 C0 0.66 0 1.32 0 2 C0.99 2.66 1.98 3.32 3 4 C1.96101563 4.23074219 0.92203125 4.46148437 -0.1484375 4.69921875 C-7.54362516 6.40552736 -14.23483865 8.21486075 -20.9375 11.89453125 C-23.5263188 13.2820989 -26.1836145 14.18473051 -29 15 C-28.42752071 11.6796201 -27.52803683 10.20060488 -25 8 C-23.1940918 7.03271484 -23.1940918 7.03271484 -21.19921875 6.2109375 C-20.10383789 5.75847656 -20.10383789 5.75847656 -18.98632812 5.296875 C-18.22771484 4.99265625 -17.46910156 4.6884375 -16.6875 4.375 C-15.94048828 4.06304687 -15.19347656 3.75109375 -14.42382812 3.4296875 C-9.67996975 1.49715872 -5.19182238 0 0 0 Z " fill="#9E3D36" transform="translate(102,31)"/>
<path d="M0 0 C2.625 0.375 2.625 0.375 5 1 C5 2.65 5 4.3 5 6 C6.32 6.33 7.64 6.66 9 7 C9.20086443 10.71599191 9.1519437 11.77208445 7 15 C4 15.3125 4 15.3125 1 15 C-1.53199972 12.46800028 -2.11946497 10.45440665 -3 7 C-2.68989682 3.588865 -2.44323037 2.44323037 0 0 Z " fill="#983129" transform="translate(157,203)"/>
<path d="M0 0 C3.58357037 0.27565926 5.34858004 1.20193885 8.25 3.25 C8.25 2.59 8.25 1.93 8.25 1.25 C9.24 1.25 10.23 1.25 11.25 1.25 C11.58 3.56 11.91 5.87 12.25 8.25 C10.9196875 8.435625 10.9196875 8.435625 9.5625 8.625 C6.29866513 9.11693802 6.29866513 9.11693802 3.625 10.375 C0.91453393 11.37359276 -0.06177133 11.05533433 -2.75 10.25 C-2.94412181 8.77168779 -3.13012131 7.29230684 -3.3125 5.8125 C-3.41691406 4.98878906 -3.52132812 4.16507813 -3.62890625 3.31640625 C-3.66886719 2.63449219 -3.70882812 1.95257813 -3.75 1.25 C-2.75 0.25 -2.75 0.25 0 0 Z " fill="#C28582" transform="translate(39.75,156.75)"/>
<path d="M0 0 C2.96772079 3.38084102 3.8928593 6.61503817 5 10.9375 C6.16976065 15.49469254 7.42755004 19.06491565 10 23 C11.09680501 24.88807148 12.1801173 26.78404363 13.25 28.6875 C13.79140625 29.64011719 14.3328125 30.59273437 14.890625 31.57421875 C15.25671875 32.37472656 15.6228125 33.17523438 16 34 C15.67 34.66 15.34 35.32 15 36 C13.12719727 35.7121582 13.12719727 35.7121582 11 35 C9.4360618 32.39143513 8.16547431 29.94896909 6.9375 27.1875 C6.58751953 26.42010498 6.23753906 25.65270996 5.87695312 24.86206055 C2.27591873 16.74193143 -0.20968225 8.95081106 0 0 Z " fill="#9B362F" transform="translate(26,149)"/>
<path d="M0 0 C0.33 0 0.66 0 1 0 C1 8.58 1 17.16 1 26 C0.34 26 -0.32 26 -1 26 C-1.04898438 26.7734375 -1.09796875 27.546875 -1.1484375 28.34375 C-1.58747623 34.46001367 -2.30007536 40.10692791 -4 46 C-5.65 46 -7.3 46 -9 46 C-8.73445312 45.00742188 -8.46890625 44.01484375 -8.1953125 42.9921875 C-5.84651808 34.02325605 -4.09488715 25.22010232 -3 16 C-2.34 16.33 -1.68 16.66 -1 17 C-0.67 11.39 -0.34 5.78 0 0 Z " fill="#A44942" transform="translate(227,118)"/>
<path d="M0 0 C2 3 2 3 2 6 C1.34 6 0.68 6 0 6 C-0.18175781 6.58007812 -0.36351563 7.16015625 -0.55078125 7.7578125 C-1.68320066 11.27702357 -2.73019543 14.52514396 -4.5625 17.75 C-9.13937156 28.09770961 -8.52379734 40.83430076 -9 52 C-9.33 52 -9.66 52 -10 52 C-9.99476318 51.23333008 -9.98952637 50.46666016 -9.98413086 49.67675781 C-9.96333636 46.20118022 -9.95033191 42.72561573 -9.9375 39.25 C-9.92912109 38.0434375 -9.92074219 36.836875 -9.91210938 35.59375 C-9.90888672 34.43359375 -9.90566406 33.2734375 -9.90234375 32.078125 C-9.89448853 30.47565918 -9.89448853 30.47565918 -9.88647461 28.84082031 C-9.89249927 26.0829099 -9.89249927 26.0829099 -10.58178711 23.82568359 C-11.32040247 20.60130199 -9.40567598 17.84232698 -8 15 C-7.70577148 14.38672852 -7.41154297 13.77345703 -7.10839844 13.14160156 C-6.21343558 11.29421905 -5.29769864 9.45866806 -4.375 7.625 C-4.06304687 6.99722656 -3.75109375 6.36945313 -3.4296875 5.72265625 C-1.12679248 1.12679248 -1.12679248 1.12679248 0 0 Z " fill="#E4CAC8" transform="translate(65,88)"/>
<path d="M0 0 C1.65 0 3.3 0 5 0 C5 3.96 5 7.92 5 12 C1.04 12 -2.92 12 -7 12 C-7 12.66 -7 13.32 -7 14 C-7.66 14 -8.32 14 -9 14 C-9.8723412 11.00519083 -10.10829766 8.36424089 -10.0625 5.25 C-10.05347656 4.45078125 -10.04445313 3.6515625 -10.03515625 2.828125 C-10.02355469 2.22484375 -10.01195313 1.6215625 -10 1 C-8.68 1 -7.36 1 -6 1 C-6 1.66 -6 2.32 -6 3 C-4.02 3 -2.04 3 0 3 C0 3.66 0 4.32 0 5 C-2.60582371 5.93065133 -3.64198224 6.14917407 -6.25 5.0625 C-6.8275 4.711875 -7.405 4.36125 -8 4 C-8 5.32 -8 6.64 -8 8 C-2.555 7.505 -2.555 7.505 3 7 C1.59624169 3.45678112 1.59624169 3.45678112 0 0 Z " fill="#B0615C" transform="translate(41,134)"/>
<path d="M0 0 C-3.25409154 7.98408252 -13.35269297 13.6629933 -21 17 C-26.36433865 18.83497377 -31.30177905 20.19472338 -37 20 C-34.38183479 18.25455653 -32.34839384 17.31530304 -29.4375 16.25 C-20.47456489 12.716785 -12.95402322 7.38337899 -5.34765625 1.5390625 C-3 0 -3 0 0 0 Z " fill="#F1E3E2" transform="translate(176,181)"/>
<path d="M0 0 C2.125 0.9375 2.125 0.9375 4 2 C4 2.99 4 3.98 4 5 C1.69 4.67 -0.62 4.34 -3 4 C-2.1395861 8.33229715 -2.1395861 8.33229715 0 12 C1.66617115 12.04063832 3.33388095 12.042721 5 12 C5 11.01 5 10.02 5 9 C4.34 9 3.68 9 3 9 C3.66 7.68 4.32 6.36 5 5 C5.66 5 6.32 5 7 5 C8.30250648 11.15730337 8.30250648 11.15730337 7.125 14.4375 C4.14796099 16.62649927 1.72530044 16.55977075 -1.90234375 16.3828125 C-4 16 -4 16 -6.0625 14.375 C-7.29767016 11.24590226 -7.5453438 9.34023079 -7 6 C-4.827365 3.42714276 -3.02006162 1.51003081 0 0 Z " fill="#A54B45" transform="translate(70,54)"/>
<path d="M0 0 C3.53265167 1.30838951 5.37292416 3.42046294 7.65625 6.3671875 C9.02023677 8.09902214 9.02023677 8.09902214 10.9296875 9.7890625 C18.02158973 17.36267884 21.09450728 27.91022401 22 38 C18.60489955 36.30244978 17.99859313 32.33102182 16.6875 28.9375 C12.83711677 19.32493542 8.24020691 12.06131916 1.57421875 4.1015625 C0 2 0 2 0 0 Z " fill="#9F3E37" transform="translate(176,76)"/>
<path d="M0 0 C1.65 0 3.3 0 5 0 C5.08075665 2.29109597 5.13907731 4.58299267 5.1875 6.875 C5.23970703 8.78925781 5.23970703 8.78925781 5.29296875 10.7421875 C5.19628906 11.81726563 5.09960938 12.89234375 5 14 C1.32003497 16.45331002 -0.65413172 16.39507893 -5 16 C-7.56616632 12.15075052 -7.55097676 9.5650696 -8 5 C-8.99 4.67 -9.98 4.34 -11 4 C-7.91190305 2.23537317 -6.76687864 2 -3 2 C-3 2.66 -3 3.32 -3 4 C-3.66 4 -4.32 4 -5 4 C-4.21791649 6.79133871 -3.38293093 9.44481903 -2 12 C0.57080135 13.13440778 0.57080135 13.13440778 3 13 C2.67 9.7 2.34 6.4 2 3 C1.01 3 0.02 3 -1 3 C-0.67 2.01 -0.34 1.02 0 0 Z " fill="#A44741" transform="translate(104,38)"/>
<path d="M0 0 C0.66 0 1.32 0 2 0 C4.57036892 3.15954668 6.7485135 6.60821323 9 10 C9.495 10.72574219 9.99 11.45148438 10.5 12.19921875 C13.26332022 16.38531992 14.87852446 20.10628856 16 25 C13.625 24.75 13.625 24.75 11 24 C9.2058242 21.43689172 9 20.16880694 9 17 C8.34 17 7.68 17 7 17 C3 10.25 3 10.25 3 8 C2.01 7.67 1.02 7.34 0 7 C0 4.69 0 2.38 0 0 Z " fill="#9F3F37" transform="translate(203,65)"/>
<path d="M0 0 C6.57142857 4 6.57142857 4 8 8 C7.01 8.495 7.01 8.495 6 9 C5.67 7.68 5.34 6.36 5 5 C3.68 5 2.36 5 1 5 C1 5.66 1 6.32 1 7 C2.32 7.66 3.64 8.32 5 9 C3.68 10.32 2.36 11.64 1 13 C0.67 11.68 0.34 10.36 0 9 C-0.99 9.66 -1.98 10.32 -3 11 C-3 11.66 -3 12.32 -3 13 C-0.03 13.495 -0.03 13.495 3 14 C3 14.99 3 15.98 3 17 C1.234375 17.70703125 1.234375 17.70703125 -1 18 C-2.921875 16.63671875 -2.921875 16.63671875 -4.75 14.6875 C-5.36359375 14.05199219 -5.9771875 13.41648437 -6.609375 12.76171875 C-8 11 -8 11 -8 9 C-7.34 9 -6.68 9 -6 9 C-5.7525 8.443125 -5.505 7.88625 -5.25 7.3125 C-3.78393985 4.60028873 -1.97010529 2.36412635 0 0 Z " fill="#9F3E37" transform="translate(184,58)"/>
<path d="M0 0 C3.5625 0.1875 3.5625 0.1875 5.5625 2.1875 C6.02125706 6.85153007 6.18647088 9.11783563 3.8125 13.1875 C1.5625 15.1875 1.5625 15.1875 -2.4375 15.1875 C-2.4375 14.5275 -2.4375 13.8675 -2.4375 13.1875 C-1.1175 12.8575 0.2025 12.5275 1.5625 12.1875 C1.5625 11.1975 1.5625 10.2075 1.5625 9.1875 C0.758125 9.208125 -0.04625 9.22875 -0.875 9.25 C-3.4375 9.1875 -3.4375 9.1875 -4.4375 8.1875 C-4.5625 4.6875 -4.5625 4.6875 -4.4375 1.1875 C-3.4375 0.1875 -3.4375 0.1875 0 0 Z " fill="#A54B44" transform="translate(136.4375,209.8125)"/>
<path d="M0 0 C0.66 0 1.32 0 2 0 C5.27245922 11.86266466 5.04340209 25.07051479 2 37 C0.42578125 38.89453125 0.42578125 38.89453125 -1 40 C-0.9278125 39.20722656 -0.855625 38.41445312 -0.78125 37.59765625 C0.21535498 25.07088531 0.0968954 12.55913442 0 0 Z " fill="#F2E5E5" transform="translate(194,113)"/>
<path d="M0 0 C1.34578125 0.2165625 1.34578125 0.2165625 2.71875 0.4375 C17.7494641 2.673474 32.00223278 2.23371001 47 0 C47 0.66 47 1.32 47 2 C32.67606729 7.17509827 14.32393271 7.17509827 0 2 C0 1.34 0 0.68 0 0 Z " fill="#9E3B34" transform="translate(102,201)"/>
<path d="M0 0 C2.75 -0.375 2.75 -0.375 6 0 C10 4.84210526 10 4.84210526 10 8 C10.66 8 11.32 8 12 8 C11.34 5.36 10.68 2.72 10 0 C11.65 0 13.3 0 15 0 C14.67 0.66 14.34 1.32 14 2 C13.77141886 4.0374763 13.58975722 6.08040303 13.4375 8.125 C13.35371094 9.22070312 13.26992187 10.31640625 13.18359375 11.4453125 C13.12300781 12.28835937 13.06242188 13.13140625 13 14 C11.0625 13.1875 11.0625 13.1875 9 12 C8.67 11.01 8.34 10.02 8 9 C7.01 8.67 6.02 8.34 5 8 C5 7.01 5 6.02 5 5 C4.34 5 3.68 5 3 5 C3 7.31 3 9.62 3 12 C3.66 12 4.32 12 5 12 C5 12.66 5 13.32 5 14 C3.02 14 1.04 14 -1 14 C-1 13.34 -1 12.68 -1 12 C-0.34 11.67 0.32 11.34 1 11 C1.0270043 9.54176788 1.04639787 8.08339325 1.0625 6.625 C1.07410156 5.81289063 1.08570312 5.00078125 1.09765625 4.1640625 C1.14466334 1.95062858 1.14466334 1.95062858 0 0 Z " fill="#9C3932" transform="translate(119,37)"/>
<path d="M0 0 C2.375 0.1875 2.375 0.1875 5 1 C6.86007925 4.27728249 7 6.1659754 7 10 C5.68 10.33 4.36 10.66 3 11 C3.66 8.69 4.32 6.38 5 4 C4.01 4 3.02 4 2 4 C2.04125 5.093125 2.0825 6.18625 2.125 7.3125 C2 11 2 11 0 14 C-2.4375 14.5 -2.4375 14.5 -5 14 C-7.72508509 10.71110421 -8.36146791 8.21712557 -8 4 C-6.68 3.67 -5.36 3.34 -4 3 C-4.66 5.31 -5.32 7.62 -6 10 C-4.68 10 -3.36 10 -2 10 C-2.04125 8.906875 -2.0825 7.81375 -2.125 6.6875 C-2 3 -2 3 0 0 Z " fill="#A84F49" transform="translate(208,96)"/>
<path d="M0 0 C1.98 0.66 3.96 1.32 6 2 C6 2.66 6 3.32 6 4 C5.34 4 4.68 4 4 4 C4.33 6.31 4.66 8.62 5 11 C6.32 10.34 7.64 9.68 9 9 C9 7.68 9 6.36 9 5 C10.65 5.33 12.3 5.66 14 6 C14 6.99 14 7.98 14 9 C12.948125 9.3403125 12.948125 9.3403125 11.875 9.6875 C9.32735409 10.85055574 7.96787748 11.80127672 5.9375 13.625 C3 16 3 16 -1 16 C-0.67 10.72 -0.34 5.44 0 0 Z " fill="#A54A43" transform="translate(162,44)"/>
<path d="M0 0 C10.33460043 1.01482048 20.08950601 5.15694616 28 12 C28 12.66 28 13.32 28 14 C23.97698977 13.40237891 21.04760519 12.08397979 17.5 10.125 C11.19519522 6.86281245 4.95152699 5.278184 -2 4 C-1.01 3.34 -0.02 2.68 1 2 C0.67 1.34 0.34 0.68 0 0 Z " fill="#F2E5E4" transform="translate(139,59)"/>
<path d="M0 0 C0.7638501 -0.00531738 1.5277002 -0.01063477 2.31469727 -0.01611328 C8.71876575 0.06290651 14.15795836 1.35629173 19.875 4.3125 C19.02381592 4.30726318 18.17263184 4.30202637 17.2956543 4.29663086 C14.0843939 4.27940938 10.87315735 4.2669636 7.66186523 4.25756836 C6.28197446 4.25259376 4.90208879 4.24581168 3.5222168 4.23706055 C-4.75593324 4.18594229 -12.89782454 4.35192285 -21.125 5.3125 C-14.29013602 0.75592401 -7.97817052 0.02756405 0 0 Z " fill="#F9F3F3" transform="translate(124.125,57.6875)"/>
<path d="M0 0 C-1.11375 0.45375 -2.2275 0.9075 -3.375 1.375 C-6.96199008 2.72465986 -6.96199008 2.72465986 -9 5 C-13.25097205 6.2323919 -17.54772463 6.14945557 -21.9375 6.125 C-22.62779297 6.12886719 -23.31808594 6.13273438 -24.02929688 6.13671875 C-28.12408324 6.12895612 -31.98358696 5.79196877 -36 5 C-36 4.67 -36 4.34 -36 4 C-34.35 3.67 -32.7 3.34 -31 3 C-31.99 2.34 -32.98 1.68 -34 1 C-33.13217896 1.01571045 -33.13217896 1.01571045 -32.24682617 1.03173828 C-17.95293174 1.403557 -17.95293174 1.403557 -3.86328125 -0.66015625 C-2 -1 -2 -1 0 0 Z " fill="#DFBFBE" transform="translate(147,198)"/>
<path d="M0 0 C0.66 0.66 1.32 1.32 2 2 C4.90675183 2.02168637 4.90675183 2.02168637 8.125 1.625 C9.22070312 1.51414063 10.31640625 1.40328125 11.4453125 1.2890625 C12.28835937 1.19367188 13.13140625 1.09828125 14 1 C13.34 3.31 12.68 5.62 12 8 C9.03 7.505 9.03 7.505 6 7 C7.72226496 10.24849977 7.72226496 10.24849977 11 11 C10.67 12.32 10.34 13.64 10 15 C9.34 15 8.68 15 8 15 C7.46375 13.865625 6.9275 12.73125 6.375 11.5625 C4.63257149 8.45370668 4.37723731 8.10881846 0.75 7.0625 C-0.61125 7.0315625 -0.61125 7.0315625 -2 7 C-1.42415568 4.61435923 -0.77772405 2.33317216 0 0 Z " fill="#9E3E37" transform="translate(201,156)"/>
<path d="M0 0 C2.45286296 3.67929445 2.23228878 5.47377907 2.1953125 9.85546875 C2.1924826 10.51710526 2.18965271 11.17874176 2.18673706 11.86042786 C2.17555918 13.96963737 2.15045981 16.07841925 2.125 18.1875 C2.11496707 19.61913448 2.10584176 21.05077564 2.09765625 22.48242188 C2.07562795 25.98841977 2.04111485 29.49416813 2 33 C1.01 32.34 0.02 31.68 -1 31 C-1.35644531 28.57324219 -1.35644531 28.57324219 -1.328125 25.546875 C-1.32296875 24.45246094 -1.3178125 23.35804688 -1.3125 22.23046875 C-1.291875 21.08191406 -1.27125 19.93335938 -1.25 18.75 C-1.24484375 17.61691406 -1.2396875 16.48382813 -1.234375 15.31640625 C-1.18530886 10.0847295 -0.95664472 5.15514561 0 0 Z " fill="#91241B" transform="translate(24,113)"/>
<path d="M0 0 C0.66 0.33 1.32 0.66 2 1 C2 1.99 2 2.98 2 4 C-0.01171875 5.53515625 -0.01171875 5.53515625 -2.6875 7.0625 C-3.55761719 7.56910156 -4.42773438 8.07570312 -5.32421875 8.59765625 C-8.97572756 10.51136671 -11.84012721 12 -16 12 C-16 12.66 -16 13.32 -16 14 C-17.32 14.33 -18.64 14.66 -20 15 C-20 14.34 -20 13.68 -20 13 C-21.0725 13.350625 -22.145 13.70125 -23.25 14.0625 C-26.78720743 14.94680186 -27.74811124 15.02880551 -31 14 C-29.11667969 13.45472656 -29.11667969 13.45472656 -27.1953125 12.8984375 C-12.42352497 8.70328497 -12.42352497 8.70328497 0 0 Z " fill="#A9534D" transform="translate(169,188)"/>
<path d="M0 0 C1.62631722 0.26280792 3.25098316 0.53583231 4.875 0.8125 C6.23238281 1.03873047 6.23238281 1.03873047 7.6171875 1.26953125 C10.41798339 1.87432205 12.97472558 2.63765232 15.6875 3.53125 C21.17473576 5.21491564 26.41393616 5.54712975 32.125 5.6875 C33.08148438 5.72166016 34.03796875 5.75582031 35.0234375 5.79101562 C37.34884073 5.87240474 39.67391876 5.94189612 42 6 C42 6.33 42 6.66 42 7 C37.89242037 7.07489276 33.7851124 7.12894754 29.67700195 7.16479492 C28.28337672 7.17975938 26.88979756 7.20013851 25.49633789 7.22631836 C17.50606753 7.37253429 10.42475072 7.23610451 3 4 C2.01 3.67 1.02 3.34 0 3 C0 2.01 0 1.02 0 0 Z " fill="#F9F3F2" transform="translate(95,195)"/>
<path d="M0 0 C0.33 0 0.66 0 1 0 C0.99476318 0.71953857 0.98952637 1.43907715 0.98413086 2.18041992 C0.75957268 20.61919571 0.75957268 20.61919571 2 39 C1.34 39 0.68 39 0 39 C-1.89702933 31.32329702 -2.30594064 24.01262961 -2.25 16.125 C-2.25773437 15.01125 -2.26546875 13.8975 -2.2734375 12.75 C-2.26957031 11.14511719 -2.26957031 11.14511719 -2.265625 9.5078125 C-2.26336914 8.54504395 -2.26111328 7.58227539 -2.25878906 6.59033203 C-1.99291445 3.92907764 -1.35534677 2.28201633 0 0 Z " fill="#962E25" transform="translate(52,113)"/>
<path d="M0 0 C-1.58986928 3.96532102 -4.35958606 6.58774495 -7.375 9.5 C-7.85710937 9.97308594 -8.33921875 10.44617188 -8.8359375 10.93359375 C-10.22088769 12.29219978 -11.61035765 13.6461937 -13 15 C-14.33555001 16.33111297 -15.66982247 17.66351831 -17 19 C-17.33 18.34 -17.66 17.68 -18 17 C-14.88990273 9.89120623 -8.16082444 0 0 0 Z " fill="#EDDAD9" transform="translate(83,73)"/>
<path d="M0 0 C0.99 0 1.98 0 3 0 C2.67 4.29 2.34 8.58 2 13 C1.01 13 0.02 13 -1 13 C-0.67 11.35 -0.34 9.7 0 8 C-3.63 8 -7.26 8 -11 8 C-11 6.02 -11 4.04 -11 2 C-10.01 2.495 -10.01 2.495 -9 3 C-7.29636178 3.22622081 -5.58671299 3.40888473 -3.875 3.5625 C-2.96492187 3.64628906 -2.05484375 3.73007813 -1.1171875 3.81640625 C-0.41851562 3.87699219 0.28015625 3.93757812 1 4 C0.67 2.68 0.34 1.36 0 0 Z " fill="#AF5D58" transform="translate(216,135)"/>
<path d="M0 0 C-0.33 9.24 -0.66 18.48 -1 28 C-1.33 28 -1.66 28 -2 28 C-2 26.02 -2 24.04 -2 22 C-2.66 22 -3.32 22 -4 22 C-4.02719556 19.62492145 -4.04693247 17.25016036 -4.0625 14.875 C-4.07087891 14.20984375 -4.07925781 13.5446875 -4.08789062 12.859375 C-4.10778245 8.80144222 -3.95520819 4.95299994 -3 1 C-1 0 -1 0 0 0 Z " fill="#F3E7E6" transform="translate(56,113)"/>
<path d="M0 0 C2.31 0.33 4.62 0.66 7 1 C7 1.66 7 2.32 7 3 C6.34 3 5.68 3 5 3 C4.67 6.96 4.34 10.92 4 15 C1.69 14.67 -0.62 14.34 -3 14 C-3 13.34 -3 12.68 -3 12 C-2.34 12 -1.68 12 -1 12 C-0.67 8.04 -0.34 4.08 0 0 Z " fill="#AB5751" transform="translate(145,39)"/>
<path d="M0 0 C0.66 0 1.32 0 2 0 C2.33 0.99 2.66 1.98 3 3 C3.99 3.33 4.98 3.66 6 4 C6 2.68 6 1.36 6 0 C6.66 0 7.32 0 8 0 C8 3.63 8 7.26 8 11 C7.01 11.33 6.02 11.66 5 12 C4.67 10.68 4.34 9.36 4 8 C3.01 8 2.02 8 1 8 C1 9.32 1 10.64 1 12 C0.01 11.67 -0.98 11.34 -2 11 C-1.85957123 9.35369672 -1.71250671 7.70795821 -1.5625 6.0625 C-1.48128906 5.14597656 -1.40007812 4.22945312 -1.31640625 3.28515625 C-1 1 -1 1 0 0 Z " fill="#99322B" transform="translate(110,211)"/>
<path d="M0 0 C0.99 0 1.98 0 3 0 C3 0.66 3 1.32 3 2 C4.32 1.67 5.64 1.34 7 1 C7 1.66 7 2.32 7 3 C5.35 3 3.7 3 2 3 C2 3.66 2 4.32 2 5 C4.31 5 6.62 5 9 5 C9.33 4.01 9.66 3.02 10 2 C11.65 2 13.3 2 15 2 C14.67 4.31 14.34 6.62 14 9 C13.34 9 12.68 9 12 9 C12 8.34 12 7.68 12 7 C8.04 7 4.08 7 0 7 C0 4.69 0 2.38 0 0 Z " fill="#B0605B" transform="translate(31,117)"/>
<path d="M0 0 C0.33 0.66 0.66 1.32 1 2 C1.99 2 2.98 2 4 2 C4.33 5.3 4.66 8.6 5 12 C3.35 12 1.7 12 0 12 C-0.99 9.03 -1.98 6.06 -3 3 C-2.34 3 -1.68 3 -1 3 C-0.67 2.01 -0.34 1.02 0 0 Z " fill="#F5ECEC" transform="translate(102,39)"/>
<path d="M0 0 C0.83402344 0.39832031 1.66804688 0.79664063 2.52734375 1.20703125 C8.93770475 4.22496753 15.22223578 6.93220753 22 9 C21.01 9.495 21.01 9.495 20 10 C19.01 9.67 18.02 9.34 17 9 C17 9.66 17 10.32 17 11 C14.36 10.34 11.72 9.68 9 9 C9 8.34 9 7.68 9 7 C8.29875 6.9175 7.5975 6.835 6.875 6.75 C3.34727053 5.82972275 0.93888386 4.11873023 -2 2 C-1.34 1.34 -0.68 0.68 0 0 Z " fill="#A74F49" transform="translate(85,192)"/>
<path d="M0 0 C0.66 0 1.32 0 2 0 C2.24234375 0.7734375 2.4846875 1.546875 2.734375 2.34375 C4.72801547 8.53937114 6.91406475 14.2689774 10 20 C9.34 20 8.68 20 8 20 C7.67 20.66 7.34 21.32 7 22 C5.62865399 19.27831329 4.27795288 16.5493512 2.9375 13.8125 C2.54755859 13.04357422 2.15761719 12.27464844 1.75585938 11.48242188 C-1.05682797 5.68280992 -1.05682797 5.68280992 -0.74609375 1.94921875 C-0.49988281 1.30597656 -0.25367188 0.66273438 0 0 Z " fill="#A3463F" transform="translate(54,151)"/>
<path d="M0 0 C1.79824219 0.00966797 1.79824219 0.00966797 3.6328125 0.01953125 C5.4890625 0.04466797 5.4890625 0.04466797 7.3828125 0.0703125 C8.64351562 0.07933594 9.90421875 0.08835938 11.203125 0.09765625 C14.3048829 0.12115442 17.40624902 0.15400916 20.5078125 0.1953125 C20.5078125 0.5253125 20.5078125 0.8553125 20.5078125 1.1953125 C18.78498047 1.25138672 18.78498047 1.25138672 17.02734375 1.30859375 C8.39852235 1.65329942 0.45249154 2.32200497 -7.890625 4.671875 C-10.53856607 5.20464392 -11.97709485 5.08930278 -14.4921875 4.1953125 C-10.46185404 0.16497904 -5.46476734 -0.0520454 0 0 Z " fill="#9D3B33" transform="translate(114.4921875,55.8046875)"/>
<path d="M0 0 C3.875 0.875 3.875 0.875 5 2 C5.125 4.5 5.125 4.5 5 7 C4 8 4 8 0.9375 8.0625 C-0.031875 8.041875 -1.00125 8.02125 -2 8 C-2.33 10.31 -2.66 12.62 -3 15 C-3.66 14.67 -4.32 14.34 -5 14 C-4.67 11.03 -4.34 8.06 -4 5 C-3.34 5 -2.68 5 -2 5 C-2 4.01 -2 3.02 -2 2 C-1.34 2 -0.68 2 0 2 C0 1.34 0 0.68 0 0 Z " fill="#B66C67" transform="translate(201,79)"/>
<path d="M0 0 C0.33 0.99 0.66 1.98 1 3 C-1.29629994 4.14814997 -3.07698086 4.30769809 -5.625 4.5625 C-6.44226562 4.64628906 -7.25953125 4.73007813 -8.1015625 4.81640625 C-9.04128906 4.90728516 -9.04128906 4.90728516 -10 5 C-7.69 5.66 -5.38 6.32 -3 7 C-3.66 8.65 -4.32 10.3 -5 12 C-5.99 12 -6.98 12 -8 12 C-8.4125 11.21625 -8.825 10.4325 -9.25 9.625 C-11.62604214 6.0609368 -13.91862822 5.84707716 -18 5 C-17.67 4.01 -17.34 3.02 -17 2 C-16.67 2.66 -16.34 3.32 -16 4 C-15.14728516 3.7834375 -15.14728516 3.7834375 -14.27734375 3.5625 C-9.37737795 2.38454495 -5.0354688 1.78572473 0 2 C0 1.34 0 0.68 0 0 Z " fill="#B8706C" transform="translate(62,78)"/>
<path d="M0 0 C-0.33 0.66 -0.66 1.32 -1 2 C-5.75424852 3.58474951 -10.58396685 3.18448088 -15.5625 3.1875 C-16.62919922 3.19974609 -17.69589844 3.21199219 -18.79492188 3.22460938 C-19.81263672 3.22654297 -20.83035156 3.22847656 -21.87890625 3.23046875 C-22.8129126 3.23457764 -23.74691895 3.23868652 -24.70922852 3.24291992 C-27 3 -27 3 -29 1 C-25.4792903 0.83065283 -21.95841552 0.66500807 -18.4375 0.5 C-17.44685547 0.45230469 -16.45621094 0.40460938 -15.43554688 0.35546875 C-10.28371538 0.11584868 -5.15735906 -0.05786658 0 0 Z " fill="#8F1F16" transform="translate(142,229)"/>
<path d="M0 0 C0.66 0 1.32 0 2 0 C1.31066647 3.59134257 -0.17871859 6.4342523 -1.9375 9.625 C-2.46214844 10.58664063 -2.98679687 11.54828125 -3.52734375 12.5390625 C-5 15 -5 15 -7 17 C-7.66 16.67 -8.32 16.34 -9 16 C-6.53419811 5.49528302 -6.53419811 5.49528302 -1 2 C-0.67 1.34 -0.34 0.68 0 0 Z " fill="#93271F" transform="translate(42,72)"/>
<path d="M0 0 C2.64 0.33 5.28 0.66 8 1 C7.34 2.32 6.68 3.64 6 5 C6.66 5 7.32 5 8 5 C8.33 5.99 8.66 6.98 9 8 C8 9 8 9 5.625 9.3125 C3 9 3 9 1.1875 7.3125 C-0.17577792 4.65769564 -0.24535485 2.94425817 0 0 Z " fill="#F4E9E8" transform="translate(67,58)"/>
<path d="M0 0 C2 2 2 2 2.125 5.125 C2.08375 6.07375 2.0425 7.0225 2 8 C1.34 7.67 0.68 7.34 0 7 C-2.04055005 6.92934383 -4.08334257 6.91578024 -6.125 6.9375 C-7.22070312 6.94652344 -8.31640625 6.95554687 -9.4453125 6.96484375 C-10.70988281 6.98224609 -10.70988281 6.98224609 -12 7 C-12 5.35 -12 3.7 -12 2 C-8.04 2 -4.08 2 0 2 C0 1.34 0 0.68 0 0 Z " fill="#9E3D36" transform="translate(217,117)"/>
<path d="M0 0 C0.33 0.66 0.66 1.32 1 2 C5.12606298 3.72718916 8.54702569 4.2120464 13 4 C12.67 5.65 12.34 7.3 12 9 C8.12049035 9 6.63334507 8.59216239 3.25 7 C2.45078125 6.62875 1.6515625 6.2575 0.828125 5.875 C0.22484375 5.58625 -0.3784375 5.2975 -1 5 C-0.67 3.35 -0.34 1.7 0 0 Z " fill="#A2443E" transform="translate(39,93)"/>
<path d="M0 0 C2.97333944 3.3993193 4.00106257 6.73950385 5.1875 11.0625 C5.53167969 12.29097656 5.87585938 13.51945313 6.23046875 14.78515625 C7 18 7 18 7 21 C6.01 21 5.02 21 4 21 C1.20919651 14.04931961 0.36580804 7.45491562 0 0 Z " fill="#92251C" transform="translate(26,149)"/>
<path d="M0 0 C-0.33 0.66 -0.66 1.32 -1 2 C-0.01 2.66 0.98 3.32 2 4 C0.27192682 4.33895656 -1.45751974 4.67091525 -3.1875 5 C-4.63189453 5.2784375 -4.63189453 5.2784375 -6.10546875 5.5625 C-8.7934206 5.96877612 -11.28771019 6.07933572 -14 6 C-13.01 5.34 -12.02 4.68 -11 4 C-13.97 3.505 -13.97 3.505 -17 3 C-17 2.67 -17 2.34 -17 2 C-15.10507994 1.66151348 -13.20901534 1.32943089 -11.3125 1 C-9.72888672 0.7215625 -9.72888672 0.7215625 -8.11328125 0.4375 C-5.35095938 0.04931926 -2.78257957 -0.08259976 0 0 Z " fill="#A74D47" transform="translate(152,226)"/>
<path d="M0 0 C5.72705173 5.2151365 6.50643617 12.64760081 7 20 C4.38913185 18.69456592 4.2910937 17.65974813 3.2734375 14.96484375 C2.9640625 14.15595703 2.6546875 13.34707031 2.3359375 12.51367188 C2.01882812 11.66353516 1.70171875 10.81339844 1.375 9.9375 C1.05015625 9.08349609 0.7253125 8.22949219 0.390625 7.34960938 C-0.41255115 5.23536628 -1.20910214 3.11886025 -2 1 C-1.34 0.67 -0.68 0.34 0 0 Z " fill="#A2453F" transform="translate(191,94)"/>
<path d="M0 0 C2.31 0.33 4.62 0.66 7 1 C5.58192622 5.47238653 3.88695626 9.71146306 2 14 C0.68 13.34 -0.64 12.68 -2 12 C-0.68 8.7 0.64 5.4 2 2 C1.34 2 0.68 2 0 2 C0 1.34 0 0.68 0 0 Z " fill="#A34741" transform="translate(87,203)"/>
<path d="M0 0 C2.64 0 5.28 0 8 0 C7.67 1.32 7.34 2.64 7 4 C6.319375 4.12375 5.63875 4.2475 4.9375 4.375 C1.5722588 5.09100877 -1.70013425 6.02945125 -5 7 C-5.33 5.68 -5.66 4.36 -6 3 C-4.02 2.67 -2.04 2.34 0 2 C0 1.34 0 0.68 0 0 Z " fill="#962C23" transform="translate(44,161)"/>
<path d="M0 0 C2.33294775 -0.04241723 4.66702567 -0.04092937 7 0 C8 1 8 1 8.0625 4.0625 C8.041875 5.031875 8.02125 6.00125 8 7 C5.125 7.125 5.125 7.125 2 7 C0 5 0 5 -0.125 2.375 C-0.08375 1.59125 -0.0425 0.8075 0 0 Z " fill="#C58A86" transform="translate(156,211)"/>
<path d="M0 0 C1.32 0 2.64 0 4 0 C4.66 0.99 5.32 1.98 6 3 C6.66 2.34 7.32 1.68 8 1 C8 2.32 8 3.64 8 5 C4.81593728 7.72919661 2.83730374 8.9379775 -1.375 9.25 C-2.24125 9.1675 -3.1075 9.085 -4 9 C-4 7.68 -4 6.36 -4 5 C-3.01 4.67 -2.02 4.34 -1 4 C-0.67 4.99 -0.34 5.98 0 7 C0.99 6.01 1.98 5.02 3 4 C1.68 3.34 0.36 2.68 -1 2 C-0.67 1.34 -0.34 0.68 0 0 Z " fill="#F3E6E6" transform="translate(185,63)"/>
<path d="M0 0 C0 0.66 0 1.32 0 2 C-5.62759557 6.46326545 -13.93180122 8.26889887 -21 8 C-17.59222455 5.7281497 -14.18544527 4.4515982 -10.375 3 C-2.88023952 -0.15568862 -2.88023952 -0.15568862 0 0 Z " fill="#F0E1E0" transform="translate(160,193)"/>
<path d="M0 0 C1.75211782 0.25677589 3.50167936 0.53102953 5.25 0.8125 C6.22453125 0.96332031 7.1990625 1.11414062 8.203125 1.26953125 C11.12322338 2.03218264 12.74205815 3.03774101 15 5 C14.34 5 13.68 5 13 5 C13 5.66 13 6.32 13 7 C8.05 6.01 3.1 5.02 -2 4 C-1.01 3.34 -0.02 2.68 1 2 C0.67 1.34 0.34 0.68 0 0 Z " fill="#E2C4C3" transform="translate(139,59)"/>
<path d="M0 0 C1.32 0 2.64 0 4 0 C4 0.66 4 1.32 4 2 C5.98 2 7.96 2 10 2 C10 2.66 10 3.32 10 4 C7.39417629 4.93065133 6.35801776 5.14917407 3.75 4.0625 C3.1725 3.711875 2.595 3.36125 2 3 C2 4.32 2 5.64 2 7 C3.32 7.33 4.64 7.66 6 8 C4.68 8 3.36 8 2 8 C2.33 9.65 2.66 11.3 3 13 C2.34 13 1.68 13 1 13 C0.1276588 10.00519083 -0.10829766 7.36424089 -0.0625 4.25 C-0.05347656 3.45078125 -0.04445313 2.6515625 -0.03515625 1.828125 C-0.02355469 1.22484375 -0.01195313 0.6215625 0 0 Z " fill="#BB7774" transform="translate(31,135)"/>
<path d="M0 0 C1 4 1 4 0.4375 6 C-1.56503644 8.78613766 -4.09578899 10.23221938 -7 12 C-7.33 11.34 -7.66 10.68 -8 10 C-8.99 10 -9.98 10 -11 10 C-5.555 5.05 -5.555 5.05 0 0 Z " fill="#9E3D36" transform="translate(194,200)"/>
<path d="M0 0 C2.4375 0.125 2.4375 0.125 5 1 C6.86007925 4.27728249 7 6.1659754 7 10 C5.68 10.33 4.36 10.66 3 11 C3.66 8.69 4.32 6.38 5 4 C4.01 4 3.02 4 2 4 C2 6.31 2 8.62 2 11 C1.67 11 1.34 11 1 11 C0.67 9.02 0.34 7.04 0 5 C-0.99 5.495 -0.99 5.495 -2 6 C-1.125 1.125 -1.125 1.125 0 0 Z " fill="#A8504A" transform="translate(208,96)"/>
<path d="M0 0 C7.11056684 -0.39503149 13.579461 0.7897305 20 4 C20 4.66 20 5.32 20 6 C15.48974943 6.25056948 15.48974943 6.25056948 13.15234375 5.0546875 C9.95111753 3.48602855 6.63948971 3.13561178 3.14453125 2.5625 C2.43683594 2.376875 1.72914063 2.19125 1 2 C0.67 1.34 0.34 0.68 0 0 Z " fill="#9E3C35" transform="translate(136,57)"/>
<path d="M0 0 C4.62 1.65 9.24 3.3 14 5 C14 5.99 14 6.98 14 8 C12.58194169 7.71517632 11.16559621 7.42181856 9.75 7.125 C8.96109375 6.96257812 8.1721875 6.80015625 7.359375 6.6328125 C4.95408701 5.98768559 3.07414008 5.38581926 1 4 C0.67 2.68 0.34 1.36 0 0 Z " fill="#952A22" transform="translate(73,216)"/>
<path d="M0 0 C1.65 0 3.3 0 5 0 C5 4.62 5 9.24 5 14 C2.3333581 15.33332095 0.83319697 14.67102033 -2 14 C-2 13.67 -2 13.34 -2 13 C-0.35 13 1.3 13 3 13 C2.67 9.7 2.34 6.4 2 3 C1.01 3 0.02 3 -1 3 C-0.67 2.01 -0.34 1.02 0 0 Z " fill="#B9726E" transform="translate(104,38)"/>
<path d="M0 0 C5.94 1.485 5.94 1.485 12 3 C5.18710803 6.40644598 1.1701234 5.89016325 -6 4 C-6 3.67 -6 3.34 -6 3 C-4.02 2.67 -2.04 2.34 0 2 C0 1.34 0 0.68 0 0 Z " fill="#AE5D58" transform="translate(150,31)"/>
<path d="M0 0 C0.66 0 1.32 0 2 0 C3.50149828 3.00299655 3.18438425 6.08476691 3.1875 9.375 C3.19974609 10.04789063 3.21199219 10.72078125 3.22460938 11.4140625 C3.23647961 15.43411581 2.85337282 17.29325435 1 21 C0.67 14.07 0.34 7.14 0 0 Z " fill="#FAF6F6" transform="translate(194,113)"/>
<path d="M0 0 C5.06998019 0.65419099 9.41990777 2.8546409 14 5 C13.01 5.33 12.02 5.66 11 6 C11 6.66 11 7.32 11 8 C6.01780786 6.72548573 3.37464528 4.87091665 0 1 C0 0.67 0 0.34 0 0 Z " fill="#ECD9D8" transform="translate(84,189)"/>
<path d="M0 0 C0.33 0 0.66 0 1 0 C0.53328373 5.41390868 -0.24297811 9.20517932 -3 14 C-3.66 14 -4.32 14 -5 14 C-4.14285714 5.42857143 -4.14285714 5.42857143 -2 2 C-1.34 2 -0.68 2 0 2 C0 1.34 0 0.68 0 0 Z " fill="#952A22" transform="translate(220,162)"/>
<path d="M0 0 C2.02350324 3.03525486 2.32124018 4.19426202 2.625 7.6875 C2.69976563 8.49574219 2.77453125 9.30398437 2.8515625 10.13671875 C2.92503906 11.05904297 2.92503906 11.05904297 3 12 C2.34 11.67 1.68 11.34 1 11 C1 13.31 1 15.62 1 18 C-1.62766009 15.37233991 -1.44567546 13.78584523 -1.75 10.125 C-1.84796875 9.07570312 -1.9459375 8.02640625 -2.046875 6.9453125 C-1.99947282 3.96687573 -1.56327605 2.48921647 0 0 Z " fill="#A8504A" transform="translate(26,141)"/>
<path d="M0 0 C0 0.66 0 1.32 0 2 C2.31 1.34 4.62 0.68 7 0 C5.6032879 2.7934242 4.00586915 2.96442959 1.125 4.0625 C0.24070312 4.40410156 -0.64359375 4.74570313 -1.5546875 5.09765625 C-3.35847791 5.7632722 -5.1759841 6.3919947 -7 7 C-7.66 6.34 -8.32 5.68 -9 5 C-7.87926138 4.16094435 -6.75325453 3.32892169 -5.625 2.5 C-4.99851562 2.0359375 -4.37203125 1.571875 -3.7265625 1.09375 C-2 0 -2 0 0 0 Z " fill="#E3C6C5" transform="translate(90,67)"/>
<path d="M0 0 C2.97 0 5.94 0 9 0 C9 3.96 9 7.92 9 12 C6.73390016 7.46780033 7.07264024 5.82227075 8 1 C7.34 1 6.68 1 6 1 C6 2.32 6 3.64 6 5 C4.68 4.67 3.36 4.34 2 4 C2 3.01 2 2.02 2 1 C1.34 0.67 0.68 0.34 0 0 Z " fill="#D3A5A3" transform="translate(110,210)"/>
<path d="M0 0 C0.99 0.33 1.98 0.66 3 1 C4.16796875 3.94140625 4.16796875 3.94140625 5.1875 7.5625 C5.53167969 8.76003906 5.87585938 9.95757812 6.23046875 11.19140625 C6.48441406 12.11824219 6.73835937 13.04507813 7 14 C6.01 14.495 6.01 14.495 5 15 C4.16013916 13.06532058 3.32831973 11.12714871 2.5 9.1875 C2.0359375 8.10855469 1.571875 7.02960938 1.09375 5.91796875 C0 3 0 3 0 0 Z " fill="#902118" transform="translate(216,89)"/>
<path d="M0 0 C0.99 0.33 1.98 0.66 3 1 C3 1.66 3 2.32 3 3 C3.99 3.33 4.98 3.66 6 4 C6 4.66 6 5.32 6 6 C6.99 6.33 7.98 6.66 9 7 C8.34 8.32 7.68 9.64 7 11 C1.25 6.25 1.25 6.25 -1 4 C-0.34 3.34 0.32 2.68 1 2 C0.67 1.34 0.34 0.68 0 0 Z " fill="#DEBEBC" transform="translate(77,181)"/>
<path d="M0 0 C2 1 2 1 2.8515625 3.109375 C3.23441406 4.41648437 3.23441406 4.41648437 3.625 5.75 C3.88539063 6.61109375 4.14578125 7.4721875 4.4140625 8.359375 C4.99939868 10.99729006 5.10651736 13.30801576 5 16 C4.34 16 3.68 16 3 16 C2.67 16.66 2.34 17.32 2 18 C1.01 14.7 0.02 11.4 -1 8 C-0.01 8.495 -0.01 8.495 1 9 C1.625 11.5625 1.625 11.5625 2 14 C2.33 13.67 2.66 13.34 3 13 C2.58219602 10.79995528 2.0906992 8.61368072 1.5625 6.4375 C1.27503906 5.23996094 0.98757812 4.04242188 0.69140625 2.80859375 C0.46324219 1.88175781 0.23507813 0.95492187 0 0 Z " fill="#B1635E" transform="translate(219,90)"/>
<path d="M0 0 C0.66 0.33 1.32 0.66 2 1 C-1.63 4.63 -5.26 8.26 -9 12 C-9.66 11.67 -10.32 11.34 -11 11 C-8.0530627 5.80777714 -5.36704345 2.75232998 0 0 Z " fill="#9D3B34" transform="translate(78,72)"/>
<path d="M0 0 C0.99 0.33 1.98 0.66 3 1 C3.94921875 3.94140625 3.94921875 3.94140625 4.6875 7.5625 C4.93886719 8.76003906 5.19023438 9.95757812 5.44921875 11.19140625 C5.63097656 12.11824219 5.81273437 13.04507813 6 14 C3 13 3 13 2.05078125 11.328125 C0.66829057 7.43666975 -0.39357798 4.19816517 0 0 Z " fill="#F5EBEB" transform="translate(56,150)"/>
<path d="M0 0 C1.65 0.33 3.3 0.66 5 1 C5 1.99 5 2.98 5 4 C4.29875 4.2475 3.5975 4.495 2.875 4.75 C-0.37002459 6.16088026 -3.10316737 7.97895398 -6 10 C-6 8.02 -6 6.04 -6 4 C-5.34 4.66 -4.68 5.32 -4 6 C-2.68 5.34 -1.36 4.68 0 4 C0 2.68 0 1.36 0 0 Z " fill="#B66C68" transform="translate(171,49)"/>
<path d="M0 0 C0 0.66 0 1.32 0 2 C0.99 2.66 1.98 3.32 3 4 C-0.3 4.66 -3.6 5.32 -7 6 C-6.67 5.34 -6.34 4.68 -6 4 C-6.99 4 -7.98 4 -9 4 C-10.33981486 3.6937566 -11.67511887 3.36548445 -13 3 C-8.76915382 1.13345022 -4.65260883 0 0 0 Z " fill="#B46964" transform="translate(102,31)"/>
<path d="M0 0 C1.32 0.33 2.64 0.66 4 1 C4.33 2.98 4.66 4.96 5 7 C3.02 7 1.04 7 -1 7 C-1 4.37886292 -0.68707555 2.49064888 0 0 Z " fill="#D6ADAB" transform="translate(111,218)"/>
<path d="M0 0 C-1 3 -1 3 -4.3125 4.75 C-8.97563098 6.33072237 -8.97563098 6.33072237 -12 5 C-7.86095268 1.43582036 -5.4268417 0 0 0 Z " fill="#93271E" transform="translate(175,218)"/>
<path d="M0 0 C0 0.66 0 1.32 0 2 C-6.8165735 3.7879537 -12.96517526 4.23668569 -20 4 C-16.7242367 2.12588542 -13.71507296 1.46012399 -10 0.875 C-8.96875 0.70742187 -7.9375 0.53984375 -6.875 0.3671875 C-4 0 -4 0 0 0 Z " fill="#952A22" transform="translate(149,201)"/>
<path d="M0 0 C5.94 1.485 5.94 1.485 12 3 C12 3.66 12 4.32 12 5 C6.06 5.495 6.06 5.495 0 6 C0 4.02 0 2.04 0 0 Z " fill="#92251C" transform="translate(205,137)"/>
<path d="M0 0 C0.99 0.33 1.98 0.66 3 1 C3.33 5.29 3.66 9.58 4 14 C3.34 14 2.68 14 2 14 C1.66179834 12.4176994 1.32964061 10.83410625 1 9.25 C0.814375 8.36828125 0.62875 7.4865625 0.4375 6.578125 C0 4 0 4 0 0 Z " fill="#9C3932" transform="translate(50,138)"/>
<path d="M0 0 C0.33 0 0.66 0 1 0 C1.40652968 5.42039575 0.03993514 9.07015675 -2 14 C-2.66 14 -3.32 14 -4 14 C-3.46148032 8.72250715 -2.22656164 4.74354436 0 0 Z " fill="#9C3831" transform="translate(197,147)"/>
<path d="M0 0 C0 0.99 0 1.98 0 3 C-3.96 3.66 -7.92 4.32 -12 5 C-12 4.01 -12 3.02 -12 2 C-7.8794254 0.00214565 -4.54805635 -0.17835515 0 0 Z " fill="#942A21" transform="translate(45,141)"/>
<path d="M0 0 C2.125 0.9375 2.125 0.9375 4 2 C4 2.99 4 3.98 4 5 C1.69 4.67 -0.62 4.34 -3 4 C-3 5.65 -3 7.3 -3 9 C-3.99 7.68 -4.98 6.36 -6 5 C-2.25 1.125 -2.25 1.125 0 0 Z " fill="#B86E6B" transform="translate(70,54)"/>
<path d="M0 0 C0.33 0 0.66 0 1 0 C1.33 3.63 1.66 7.26 2 11 C-0.31 10.67 -2.62 10.34 -5 10 C-5 9.34 -5 8.68 -5 8 C-4.01 8 -3.02 8 -2 8 C-1.7834375 6.576875 -1.7834375 6.576875 -1.5625 5.125 C-1 2 -1 2 0 0 Z " fill="#9D3A32" transform="translate(147,43)"/>
<path d="M0 0 C1.67542976 0.28604898 3.34385343 0.61781233 5 1 C5 2.98 5 4.96 5 7 C3.68 7 2.36 7 1 7 C0.34 5.02 -0.32 3.04 -1 1 C-0.67 0.67 -0.34 0.34 0 0 Z " fill="#CD9B98" transform="translate(133,210)"/>
<path d="M0 0 C0.66 0.33 1.32 0.66 2 1 C1.875 2.875 1.875 2.875 1 5 C-1.875 6.375 -1.875 6.375 -5 7 C-5.99 6.34 -6.98 5.68 -8 5 C-6.71475739 4.13619741 -5.42157581 3.28419631 -4.125 2.4375 C-3.04605469 1.72400391 -3.04605469 1.72400391 -1.9453125 0.99609375 C-1.30335938 0.66738281 -0.66140625 0.33867187 0 0 Z " fill="#E9D2D1" transform="translate(165,187)"/>
<path d="M0 0 C0.33 0.66 0.66 1.32 1 2 C1.66 2 2.32 2 3 2 C2.57576756 3.46224799 2.13509755 4.91973412 1.6875 6.375 C1.44386719 7.18710938 1.20023438 7.99921875 0.94921875 8.8359375 C0 11 0 11 -3 13 C-2.45144652 8.428721 -1.58255197 4.32564205 0 0 Z " fill="#A8504A" transform="translate(54,103)"/>
<path d="M0 0 C2.30163882 3.45245824 2.34490322 4.94738713 2 9 C1.34 9.66 0.68 10.32 0 11 C-0.33 10.01 -0.66 9.02 -1 8 C-1.99 8.99 -2.98 9.98 -4 11 C-3.5247412 9.35303396 -3.04468109 7.70745272 -2.5625 6.0625 C-2.29566406 5.14597656 -2.02882813 4.22945313 -1.75390625 3.28515625 C-1 1 -1 1 0 0 Z " fill="#AD5A55" transform="translate(33,84)"/>
<path d="M0 0 C2.625 0.375 2.625 0.375 5 1 C4.67 2.65 4.34 4.3 4 6 C2.35 5.67 0.7 5.34 -1 5 C-1.33 4.01 -1.66 3.02 -2 2 C-1.34 1.34 -0.68 0.68 0 0 Z " fill="#C28481" transform="translate(157,203)"/>
<path d="M0 0 C0.99 0 1.98 0 3 0 C3.268125 0.61875 3.53625 1.2375 3.8125 1.875 C4.95556848 4.2995233 4.95556848 4.2995233 8 6 C6.02 6.99 6.02 6.99 4 8 C4 7.34 4 6.68 4 6 C2.68 6 1.36 6 0 6 C0 4.02 0 2.04 0 0 Z " fill="#C0807D" transform="translate(32,110)"/>
<path d="M0 0 C0.99 0.99 1.98 1.98 3 3 C2.01 3.495 2.01 3.495 1 4 C1 4.66 1 5.32 1 6 C-0.98 6.66 -2.96 7.32 -5 8 C-4.34 6.02 -3.68 4.04 -3 2 C-2.01 2 -1.02 2 0 2 C0 1.34 0 0.68 0 0 Z " fill="#98322A" transform="translate(200,75)"/>
<path d="M0 0 C0.66 0 1.32 0 2 0 C1.67 1.98 1.34 3.96 1 6 C1.99 6.33 2.98 6.66 4 7 C3.01 7.33 2.02 7.66 1 8 C1 9.32 1 10.64 1 12 C0.01 11.67 -0.98 11.34 -2 11 C-1.85957123 9.35369672 -1.71250671 7.70795821 -1.5625 6.0625 C-1.48128906 5.14597656 -1.40007812 4.22945312 -1.31640625 3.28515625 C-1 1 -1 1 0 0 Z " fill="#A1433C" transform="translate(110,211)"/>
<path d="M0 0 C1.32 0.33 2.64 0.66 4 1 C4 3.31 4 5.62 4 8 C2.68 8 1.36 8 0 8 C0 5.33333333 0 2.66666667 0 0 Z " fill="#E7D1CF" transform="translate(202,98)"/>
<path d="M0 0 C1.5625 1.625 1.5625 1.625 3 4 C2.77962372 7.67293796 2.63033454 9.36966546 0 12 C0 11.01 0 10.02 0 9 C-0.66 9 -1.32 9 -2 9 C-1.34 6.03 -0.68 3.06 0 0 Z " fill="#DEBCBA" transform="translate(192,147)"/>
<path d="M0 0 C0.33 0 0.66 0 1 0 C1 2.97 1 5.94 1 9 C1.66 9 2.32 9 3 9 C2.67 11.64 2.34 14.28 2 17 C1.67 17 1.34 17 1 17 C0.855625 16.2575 0.71125 15.515 0.5625 14.75 C0.08847162 12.12921046 0.08847162 12.12921046 -0.625 10.1875 C-1.22226755 6.70343929 -0.52266557 3.48443711 0 0 Z " fill="#C28682" transform="translate(197,136)"/>
<path d="M0 0 C0 0.99 0 1.98 0 3 C0.66 3.66 1.32 4.32 2 5 C1.01 5.99 0.02 6.98 -1 8 C-1 7.34 -1 6.68 -1 6 C-1.66 6 -2.32 6 -3 6 C-3.28875 6.639375 -3.5775 7.27875 -3.875 7.9375 C-5 10 -5 10 -7 11 C-5.20974068 7.12110481 -3.03770253 3.03770253 0 0 Z " fill="#A8504A" transform="translate(45,66)"/>
<path d="M0 0 C-0.33 0.33 -0.66 0.66 -1 1 C-0.01 1.66 0.98 2.32 2 3 C-0.31 3.66 -2.62 4.32 -5 5 C-5 4.34 -5 3.68 -5 3 C-6.65 3 -8.3 3 -10 3 C-9 1 -9 1 -5.5625 -0.1875 C-2 -1 -2 -1 0 0 Z " fill="#AC5852" transform="translate(165,222)"/>
<path d="M0 0 C1 4 1 4 0 6 C1.32 5.34 2.64 4.68 4 4 C3.67 6.31 3.34 8.62 3 11 C2.34 11 1.68 11 1 11 C0.67 10.01 0.34 9.02 0 8 C-0.99 8.66 -1.98 9.32 -3 10 C-2.01 6.7 -1.02 3.4 0 0 Z " fill="#E3C6C5" transform="translate(197,153)"/>
<path d="M0 0 C2.5654594 2.5654594 2.54046087 4.47686668 3 8 C2.34 8 1.68 8 1 8 C0.67 8.99 0.34 9.98 0 11 C-0.66 8.36 -1.32 5.72 -2 3 C-1.34 3 -0.68 3 0 3 C0 2.01 0 1.02 0 0 Z " fill="#E8D1D0" transform="translate(193,105)"/>
<path d="M0 0 C1.24546405 2.49092811 0.7767578 3.41080733 0 6 C0.66 6 1.32 6 2 6 C1.34 7.98 0.68 9.96 0 12 C-0.33 10.68 -0.66 9.36 -1 8 C-1.66 8 -2.32 8 -3 8 C-1.125 1.125 -1.125 1.125 0 0 Z " fill="#AD5A55" transform="translate(215,170)"/>
<path d="M0 0 C3.00617269 3.00617269 2.59585316 5.82381598 3 10 C2.67 10 2.34 10 2 10 C1.67 11.65 1.34 13.3 1 15 C0.67 15 0.34 15 0 15 C-0.19491452 13.54263913 -0.38069358 12.08405407 -0.5625 10.625 C-0.66691406 9.81289062 -0.77132812 9.00078125 -0.87890625 8.1640625 C-1 6 -1 6 0 4 C0 2.68 0 1.36 0 0 Z " fill="#B9726E" transform="translate(197,107)"/>
<path d="M0 0 C0.33 0.66 0.66 1.32 1 2 C2.97888961 2.72693904 4.97954558 3.39816251 7 4 C6.67 4.66 6.34 5.32 6 6 C3.69 5.67 1.38 5.34 -1 5 C-0.67 3.35 -0.34 1.7 0 0 Z " fill="#973028" transform="translate(39,93)"/>
<path d="M0 0 C0.66 0 1.32 0 2 0 C2.33 2.31 2.66 4.62 3 7 C2.01 7.66 1.02 8.32 0 9 C0 7.35 0 5.7 0 4 C-0.66 4 -1.32 4 -2 4 C-1.34 2.68 -0.68 1.36 0 0 Z " fill="#9D3933" transform="translate(75,59)"/>
<path d="M0 0 C1.31602523 0.61754259 2.62773556 1.24428742 3.9375 1.875 C4.66839844 2.22304687 5.39929687 2.57109375 6.15234375 2.9296875 C8 4 8 4 9 6 C5.37 5.34 1.74 4.68 -2 4 C-1.34 2.68 -0.68 1.36 0 0 Z " fill="#C0807D" transform="translate(52,71)"/>
<path d="M0 0 C4.455 0.99 4.455 0.99 9 2 C9 2.99 9 3.98 9 5 C7.68 5.33 6.36 5.66 5 6 C3.35 4.02 1.7 2.04 0 0 Z " fill="#B9726E" transform="translate(178,70)"/>
<path d="M0 0 C1.32 0 2.64 0 4 0 C4.66 0.99 5.32 1.98 6 3 C6.66 2.34 7.32 1.68 8 1 C8 2.32 8 3.64 8 5 C4.85375007 5.26218749 3.38162983 5.24754367 0.6875 3.5 C0.130625 3.005 -0.42625 2.51 -1 2 C-0.67 1.34 -0.34 0.68 0 0 Z " fill="#E6CDCC" transform="translate(185,63)"/>
<path d="M0 0 C0 0.66 0 1.32 0 2 C-4.455 3.485 -4.455 3.485 -9 5 C-9 4.01 -9 3.02 -9 2 C-3.375 0 -3.375 0 0 0 Z " fill="#F6EDED" transform="translate(99,64)"/>
<path d="M0 0 C3.465 1.485 3.465 1.485 7 3 C6.01 3.495 6.01 3.495 5 4 C4.34 3.67 3.68 3.34 3 3 C3.33 4.32 3.66 5.64 4 7 C0.535 5.02 0.535 5.02 -3 3 C-2.01 2.67 -1.02 2.34 0 2 C0 1.34 0 0.68 0 0 Z " fill="#AA554F" transform="translate(176,42)"/>
<path d="M0 0 C1 4 1 4 0.0625 6.25 C-0.4634375 7.11625 -0.4634375 7.11625 -1 8 C-1.33 7.34 -1.66 6.68 -2 6 C-3.32 6.33 -4.64 6.66 -6 7 C-4.02 4.69 -2.04 2.38 0 0 Z " fill="#A84F49" transform="translate(194,200)"/>
<path d="M0 0 C1.65 0 3.3 0 5 0 C5.33 0.99 5.66 1.98 6 3 C3.69 3.66 1.38 4.32 -1 5 C-0.67 3.35 -0.34 1.7 0 0 Z " fill="#9A332C" transform="translate(37,157)"/>
<path d="M0 0 C-1.5830577 4.2742558 -4.50568404 6.26531794 -8 9 C-8.33 8.34 -8.66 7.68 -9 7 C-8.34 7 -7.68 7 -7 7 C-6.731875 6.401875 -6.46375 5.80375 -6.1875 5.1875 C-3.37142857 0 -3.37142857 0 0 0 Z " fill="#E1C3C2" transform="translate(103,137)"/>
<path d="M0 0 C0.66 0.33 1.32 0.66 2 1 C2 1.99 2 2.98 2 4 C-1.22515763 5.73662334 -4.51329166 6.8905928 -8 8 C-5.33333333 5.33333333 -2.66666667 2.66666667 0 0 Z " fill="#AC5752" transform="translate(82,67)"/>
<path d="M0 0 C1.32 0 2.64 0 4 0 C3 2 2 4 1 6 C-0.32 5.67 -1.64 5.34 -3 5 C-1.75 2.5 -1.75 2.5 0 0 Z " fill="#942920" transform="translate(47,64)"/>
<path d="M0 0 C0.99 0.33 1.98 0.66 3 1 C2.34 1 1.68 1 1 1 C1 3.31 1 5.62 1 8 C1.66 8 2.32 8 3 8 C3 8.66 3 9.32 3 10 C1.02 10 -0.96 10 -3 10 C-3 9.34 -3 8.68 -3 8 C-2.34 7.67 -1.68 7.34 -1 7 C-0.59270772 4.67843403 -0.25561323 2.3431213 0 0 Z " fill="#AB5752" transform="translate(121,41)"/>
<path d="M0 0 C-0.125 1.875 -0.125 1.875 -1 4 C-4.0625 5.25 -4.0625 5.25 -7 6 C-6.6875 4.125 -6.6875 4.125 -6 2 C-3 0 -3 0 0 0 Z " fill="#93281F" transform="translate(80,40)"/>
<path d="M0 0 C0.99 0.66 1.98 1.32 3 2 C3.1875 5.125 3.1875 5.125 3 8 C2.34 8 1.68 8 1 8 C0.01 6.02 -0.98 4.04 -2 2 C-1.34 2 -0.68 2 0 2 C0 1.34 0 0.68 0 0 Z " fill="#E2C5C4" transform="translate(128,37)"/>
<path d="M0 0 C4.455 0.99 4.455 0.99 9 2 C8.01 3.485 8.01 3.485 7 5 C2.25 4.25 2.25 4.25 0 2 C0 1.34 0 0.68 0 0 Z " fill="#E7CFCE" transform="translate(104,197)"/>
<path d="M0 0 C0.99 0.33 1.98 0.66 3 1 C0.36 3.64 -2.28 6.28 -5 9 C-5 4.61031544 -2.87194899 3.23094261 0 0 Z " fill="#9D3A33" transform="translate(120,162)"/>
<path d="M0 0 C0.99 0.66 1.98 1.32 3 2 C3.1875 4.625 3.1875 4.625 3 7 C1.35 7 -0.3 7 -2 7 C-1.34 4.69 -0.68 2.38 0 0 Z " fill="#A54B45" transform="translate(220,157)"/>
<path d="M0 0 C0.99 0.495 0.99 0.495 2 1 C3.1577506 4.47325181 3.06866652 7.36067448 3 11 C2.01 10.34 1.02 9.68 0 9 C-0.29296875 6.8359375 -0.29296875 6.8359375 -0.1875 4.375 C-0.16042969 3.55773437 -0.13335937 2.74046875 -0.10546875 1.8984375 C-0.05326172 0.95871094 -0.05326172 0.95871094 0 0 Z " fill="#A54B45" transform="translate(198,116)"/>
<path d="M0 0 C0 0.99 0 1.98 0 3 C-2.3125 4.75 -2.3125 4.75 -5 6 C-5.99 5.67 -6.98 5.34 -8 5 C-5.47211993 2.20127563 -3.79588866 0.54226981 0 0 Z " fill="#9C3932" transform="translate(90,64)"/>
<path d="M0 0 C0.66 1.32 1.32 2.64 2 4 C0.02 4.99 0.02 4.99 -2 6 C-2 5.34 -2 4.68 -2 4 C-3.65 4.33 -5.3 4.66 -7 5 C-4.87219421 2.65941363 -2.88437779 1.29299694 0 0 Z " fill="#A34640" transform="translate(177,214)"/>
<path d="M0 0 C-1.32 0.99 -2.64 1.98 -4 3 C-3.34 3.66 -2.68 4.32 -2 5 C-3.32 5 -4.64 5 -6 5 C-6 4.34 -6 3.68 -6 3 C-7.32 2.67 -8.64 2.34 -10 2 C-8.71211992 1.46987262 -7.41953322 0.9511671 -6.125 0.4375 C-5.40570313 0.14746094 -4.68640625 -0.14257812 -3.9453125 -0.44140625 C-2 -1 -2 -1 0 0 Z " fill="#E5CBCA" transform="translate(163,198)"/>
<path d="M0 0 C3.16115776 1.36983503 3.9927092 1.9890638 6 5 C4.68 5.33 3.36 5.66 2 6 C0 3 0 3 0 0 Z " fill="#F0E1E0" transform="translate(73,179)"/>
<path d="M0 0 C2.2477975 2.05233685 3.0022242 3.00667261 4 6 C3.34 6 2.68 6 2 6 C1.67 6.66 1.34 7.32 1 8 C0.01 5.69 -0.98 3.38 -2 1 C-1.34 0.67 -0.68 0.34 0 0 Z " fill="#A9534D" transform="translate(60,165)"/>
<path d="M0 0 C0.33 0 0.66 0 1 0 C1 2.64 1 5.28 1 8 C0.01 8 -0.98 8 -2 8 C-2.125 5.125 -2.125 5.125 -2 2 C-1.34 1.34 -0.68 0.68 0 0 Z " fill="#8E1D13" transform="translate(208,100)"/>
<path d="M0 0 C1.22589844 0.01353516 1.22589844 0.01353516 2.4765625 0.02734375 C3.41628906 0.04474609 3.41628906 0.04474609 4.375 0.0625 C1.97736815 2.46013185 1.04226502 2.40530586 -2.25 2.6875 C-3.06726562 2.76226562 -3.88453125 2.83703125 -4.7265625 2.9140625 C-5.35304687 2.96304688 -5.97953125 3.01203125 -6.625 3.0625 C-6.625 2.4025 -6.625 1.7425 -6.625 1.0625 C-4.21954362 -0.14022819 -2.67503047 -0.03821472 0 0 Z " fill="#92241B" transform="translate(52.625,78.9375)"/>
<path d="M0 0 C0.66 0 1.32 0 2 0 C2.66 0.99 3.32 1.98 4 3 C4.99 3.33 5.98 3.66 7 4 C6.67 5.32 6.34 6.64 6 8 C5.34 8 4.68 8 4 8 C2.68 5.36 1.36 2.72 0 0 Z " fill="#B2635F" transform="translate(205,163)"/>
<path d="M0 0 C2 3 2 3 2 6 C1.38125 6.144375 0.7625 6.28875 0.125 6.4375 C-2.03258322 6.93152225 -2.03258322 6.93152225 -4 8 C-2.87548273 5.0280615 -1.77706209 2.66559313 0 0 Z " fill="#DCB7B5" transform="translate(65,88)"/>
<path d="M0 0 C0.66 0 1.32 0 2 0 C1.38722388 2.96175123 0.74627478 4.38058783 -1 7 C-1.99 7 -2.98 7 -4 7 C-2.79618552 4.50638429 -1.54571278 2.31856917 0 0 Z " fill="#91231B" transform="translate(42,72)"/>
<path d="M0 0 C1.2065625 0.0309375 1.2065625 0.0309375 2.4375 0.0625 C2.4375 0.7225 2.4375 1.3825 2.4375 2.0625 C0.7875 2.3925 -0.8625 2.7225 -2.5625 3.0625 C-2.2325 4.3825 -1.9025 5.7025 -1.5625 7.0625 C-2.2225 6.7325 -2.8825 6.4025 -3.5625 6.0625 C-3.605221 4.39638095 -3.60313832 2.72867115 -3.5625 1.0625 C-2.5625 0.0625 -2.5625 0.0625 0 0 Z " fill="#DBB6B4" transform="translate(40.5625,160.9375)"/>
<path d="M0 0 C2.31 0.33 4.62 0.66 7 1 C7 1.66 7 2.32 7 3 C4.69 3.33 2.38 3.66 0 4 C0 2.68 0 1.36 0 0 Z " fill="#E5CACA" transform="translate(33,138)"/>
<path d="M0 0 C0.99 0.66 1.98 1.32 3 2 C3 3.32 3 4.64 3 6 C1.68 6 0.36 6 -1 6 C-0.67 4.68 -0.34 3.36 0 2 C-0.66 1.67 -1.32 1.34 -2 1 C-1.34 0.67 -0.68 0.34 0 0 Z " fill="#F0E2E1" transform="translate(41,135)"/>
<path d="M0 0 C0.66 0 1.32 0 2 0 C2.33 1.65 2.66 3.3 3 5 C0.69 5 -1.62 5 -4 5 C-4 4.34 -4 3.68 -4 3 C-2.35 3 -0.7 3 1 3 C0.67 2.01 0.34 1.02 0 0 Z " fill="#94271F" transform="translate(37,117)"/>
<path d="M0 0 C0 2.97 0 5.94 0 9 C-0.66 9 -1.32 9 -2 9 C-2 7.35 -2 5.7 -2 4 C-2.99 3.67 -3.98 3.34 -5 3 C-2.25 0 -2.25 0 0 0 Z " fill="#DCBAB9" transform="translate(196,84)"/>
<path d="M0 0 C2.4375 0.8125 2.4375 0.8125 5 2 C5.33 2.99 5.66 3.98 6 5 C4.35 4.67 2.7 4.34 1 4 C0.67 2.68 0.34 1.36 0 0 Z " fill="#93271E" transform="translate(179,45)"/>
<path d="M0 0 C-3.51187196 2.40814077 -5.72656908 3.36629408 -10 3 C-6.86618053 -0.60389239 -4.59270471 -1.53090157 0 0 Z " fill="#902017" transform="translate(100,34)"/>
<path d="M0 0 C0.33 0.99 0.66 1.98 1 3 C-0.32 3.99 -1.64 4.98 -3 6 C-3.66 5.34 -4.32 4.68 -5 4 C-3 1 -3 1 0 0 Z " fill="#92261D" transform="translate(198,199)"/>
<path d="M0 0 C0 0.66 0 1.32 0 2 C-3.82320557 3.42258812 -6.91281305 4.24042276 -11 4 C-7.32740617 1.55160412 -4.45351799 0 0 0 Z " fill="#FDFAFA" transform="translate(150,197)"/>
<path d="M0 0 C0.99 0 1.98 0 3 0 C2.67 1.65 2.34 3.3 2 5 C1.01 5 0.02 5 -1 5 C-0.67 3.35 -0.34 1.7 0 0 Z " fill="#99342C" transform="translate(211,178)"/>
<path d="M0 0 C0.33 0.99 0.66 1.98 1 3 C-0.9375 5.6875 -0.9375 5.6875 -3 8 C-4 5 -4 5 -3.1875 2.875 C-2 1 -2 1 0 0 Z " fill="#F5EBEB" transform="translate(186,167)"/>
<path d="M0 0 C1.65 0 3.3 0 5 0 C5.33 0.66 5.66 1.32 6 2 C5.67 2.66 5.34 3.32 5 4 C3.0625 3.6875 3.0625 3.6875 1 3 C0.67 2.01 0.34 1.02 0 0 Z " fill="#EEDDDC" transform="translate(207,163)"/>
<path d="M0 0 C0.66 0.33 1.32 0.66 2 1 C1.67 1.66 1.34 2.32 1 3 C2.65 2.67 4.3 2.34 6 2 C5.67 2.66 5.34 3.32 5 4 C1.9375 4.625 1.9375 4.625 -1 5 C-1.33 3.68 -1.66 2.36 -2 1 C-1.34 0.67 -0.68 0.34 0 0 Z " fill="#A64C46" transform="translate(40,163)"/>
<path d="M0 0 C0.66 0 1.32 0 2 0 C1.67 2.31 1.34 4.62 1 7 C0.01 7 -0.98 7 -2 7 C-1.125 2.25 -1.125 2.25 0 0 Z " fill="#F6ECEC" transform="translate(190,156)"/>
<path d="M0 0 C0.33 0 0.66 0 1 0 C1.36923077 5.53846154 1.36923077 5.53846154 -0.5 7.875 C-1.2425 8.431875 -1.2425 8.431875 -2 9 C-2.25 3.375 -2.25 3.375 0 0 Z " fill="#FAF6F5" transform="translate(195,144)"/>
<path d="M0 0 C0.99 0 1.98 0 3 0 C3.1875 2.375 3.1875 2.375 3 5 C2.01 5.66 1.02 6.32 0 7 C0 4.69 0 2.38 0 0 Z " fill="#E9D2D2" transform="translate(210,100)"/>
<path d="M0 0 C1.2077558 3.62326739 0.54311128 4.64146369 -1 8 C-1.66 8 -2.32 8 -3 8 C-2.25 2.25 -2.25 2.25 0 0 Z " fill="#99332C" transform="translate(58,97)"/>
<path d="M0 0 C0.33 0.99 0.66 1.98 1 3 C-0.32 4.32 -1.64 5.64 -3 7 C-3.33 6.34 -3.66 5.68 -4 5 C-2.52830189 1.26415094 -2.52830189 1.26415094 0 0 Z " fill="#F3E6E6" transform="translate(69,85)"/>
<path d="M0 0 C1.98 0 3.96 0 6 0 C5.1875 1.9375 5.1875 1.9375 4 4 C3.01 4.33 2.02 4.66 1 5 C0.67 3.35 0.34 1.7 0 0 Z " fill="#B46763" transform="translate(183,66)"/>
<path d="M0 0 C0.99 0 1.98 0 3 0 C3.33 1.65 3.66 3.3 4 5 C3.01 5 2.02 5 1 5 C0.67 3.35 0.34 1.7 0 0 Z " fill="#93281F" transform="translate(44,190)"/>
<path d="M0 0 C0.66 0.33 1.32 0.66 2 1 C0.02 2.98 -1.96 4.96 -4 7 C-4.66 6.67 -5.32 6.34 -6 6 C-4 4 -2 2 0 0 Z " fill="#E4C8C7" transform="translate(115,153)"/>
<path d="M0 0 C0.33 0 0.66 0 1 0 C0.67 2.64 0.34 5.28 0 8 C-0.66 7.67 -1.32 7.34 -2 7 C-2.125 4.625 -2.125 4.625 -2 2 C-1.34 1.34 -0.68 0.68 0 0 Z " fill="#93281F" transform="translate(197,85)"/>
<path d="M0 0 C1 3 1 3 0.0625 5.1875 C-0.4634375 6.0846875 -0.4634375 6.0846875 -1 7 C-1.99 6.34 -2.98 5.68 -4 5 C-2.68 3.35 -1.36 1.7 0 0 Z " fill="#AB554F" transform="translate(67,81)"/>
<path d="M0 0 C0.33 0.66 0.66 1.32 1 2 C1.99 2.33 2.98 2.66 4 3 C3.01 3.99 2.02 4.98 1 6 C0.01 5.34 -0.98 4.68 -2 4 C-1.34 2.68 -0.68 1.36 0 0 Z " fill="#A54B45" transform="translate(37,77)"/>
<path d="M0 0 C2.475 0.99 2.475 0.99 5 2 C4.01 2.495 4.01 2.495 3 3 C2.67 3.66 2.34 4.32 2 5 C0.68 4.34 -0.64 3.68 -2 3 C-1.34 2.67 -0.68 2.34 0 2 C0 1.34 0 0.68 0 0 Z " fill="#B46762" transform="translate(156,61)"/>
</svg>
