<?xml version="1.0" standalone="no"?>
<!DOCTYPE svg PUBLIC "-//W3C//DTD SVG 20010904//EN"
 "http://www.w3.org/TR/2001/REC-SVG-20010904/DTD/svg10.dtd">
<svg version="1.0" xmlns="http://www.w3.org/2000/svg"
 width="246.000000pt" height="250.000000pt" viewBox="0 0 246.000000 250.000000"
 preserveAspectRatio="xMidYMid meet">

<g transform="translate(0.000000,250.000000) scale(0.100000,-0.100000)"
fill="#000000" stroke="none">
<path d="M1050 2195 c-357 -65 -673 -354 -779 -711 -160 -541 151 -1110 694
-1270 505 -149 1045 116 1239 606 73 186 87 431 37 633 -25 97 -96 248 -156
333 -150 210 -384 361 -634 408 -101 19 -296 20 -401 1z m464 -50 c286 -85
490 -255 624 -520 258 -511 7 -1147 -533 -1353 -434 -165 -923 -6 -1179 382
-91 138 -137 267 -158 448 -27 224 52 499 194 685 153 198 355 323 613 379 40
9 108 12 205 9 120 -3 161 -8 234 -30z"/>
<path d="M1198 2118 c16 -16 16 -90 0 -106 -9 -9 -5 -12 17 -11 17 0 24 3 18
6 -14 5 -18 73 -4 73 4 0 21 -18 36 -40 39 -56 55 -53 55 13 0 29 5 58 12 65
9 9 6 12 -17 12 -23 0 -26 -3 -17 -12 7 -7 12 -26 12 -42 l-1 -31 -37 43 c-25
28 -46 42 -62 42 -19 0 -21 -3 -12 -12z"/>
<path d="M1059 2113 c-15 -4 -15 -8 2 -41 22 -42 24 -63 7 -80 -32 -32 -66 1
-71 70 -1 17 -8 28 -17 28 -18 0 -51 -20 -33 -20 6 0 14 -15 18 -32 16 -75 58
-98 106 -59 22 17 22 21 12 67 -8 34 -8 53 -1 61 11 13 6 14 -23 6z"/>
<path d="M1462 2094 c3 -3 -2 -32 -12 -64 -18 -58 -18 -58 4 -64 32 -9 35 -8
29 13 -7 26 15 101 30 101 20 0 -16 20 -37 20 -11 0 -17 -3 -14 -6z"/>
<path d="M1622 1975 c-2 -41 1 -75 6 -75 5 0 34 20 66 44 53 42 55 46 37 56
-16 8 -19 8 -15 -4 3 -8 -7 -23 -23 -36 l-28 -22 -3 38 c-2 22 1 40 8 42 12 4
-18 31 -35 32 -6 0 -11 -33 -13 -75z"/>
<path d="M670 1932 c-39 -33 -45 -79 -15 -112 46 -51 151 8 120 67 -10 20 -14
21 -30 9 -18 -13 -18 -15 -2 -30 19 -19 12 -46 -11 -46 -21 0 -72 50 -72 71 0
24 26 42 50 34 23 -7 27 7 7 24 -10 8 -22 4 -47 -17z"/>
<path d="M1071 1925 c-182 -48 -343 -158 -441 -301 -47 -68 -100 -187 -116
-262 -18 -85 -18 -248 0 -333 57 -267 271 -492 541 -566 78 -21 221 -27 316
-14 286 42 526 257 610 546 19 65 23 103 23 205 -1 111 -4 135 -30 215 -107
321 -365 517 -699 531 -95 4 -123 1 -204 -21z m351 -21 c203 -46 384 -188 482
-379 186 -363 37 -807 -332 -987 -143 -69 -273 -90 -423 -68 -360 52 -628 357
-629 714 0 108 17 197 55 287 44 106 95 177 180 257 182 170 418 232 667 176z"/>
<path d="M1083 1866 c-219 -58 -383 -198 -471 -401 -73 -168 -70 -389 6 -557
160 -354 584 -508 934 -339 180 86 299 225 364 421 23 73 28 102 28 200 0 200
-61 347 -204 490 -135 136 -274 197 -465 206 -84 4 -115 0 -192 -20z m98 -105
c23 -19 24 -24 27 -198 3 -210 0 -219 -74 -243 -110 -35 -220 -123 -319 -256
-62 -82 -91 -94 -120 -50 -20 29 -14 45 47 128 71 97 175 189 268 237 l80 42
0 60 c0 32 -1 59 -3 59 -2 0 -32 -12 -67 -26 -65 -26 -153 -79 -203 -120 -37
-31 -72 -31 -92 0 -22 33 -9 55 58 105 74 54 150 95 235 127 l72 26 0 40 c0
28 7 46 25 63 29 30 36 31 66 6z m215 -8 c7 -10 14 -37 14 -59 l0 -41 78 -28
c98 -35 195 -92 258 -149 49 -44 49 -45 34 -73 -23 -42 -53 -41 -113 5 -72 54
-116 79 -189 108 -34 13 -63 24 -65 24 -2 0 -3 -27 -3 -60 l0 -61 45 -19 c104
-45 252 -174 333 -293 37 -53 40 -77 12 -102 -25 -23 -62 -14 -85 22 -93 145
-249 273 -363 298 -18 3 -37 15 -42 25 -13 25 -13 376 0 401 14 25 68 26 86 2z
m-102 -475 c9 -12 16 -32 16 -44 0 -17 8 -23 34 -28 87 -17 215 -135 290 -269
55 -97 62 -124 41 -147 -35 -39 -91 -12 -111 53 -10 33 -72 127 -108 166 -35
38 -113 91 -133 91 -9 0 -13 -16 -13 -55 0 -53 1 -56 39 -79 105 -66 187 -270
126 -312 -35 -23 -65 1 -87 73 -21 71 -72 144 -110 157 -60 21 -127 -43 -164
-158 -21 -65 -30 -76 -63 -76 -59 0 -66 49 -22 152 33 77 64 117 127 165 42
32 44 37 44 83 0 62 -15 65 -85 18 -59 -39 -123 -119 -176 -220 -36 -70 -43
-78 -69 -78 -41 0 -62 32 -47 73 16 46 73 145 118 203 58 75 142 138 214 159
32 10 41 18 46 42 9 44 17 53 49 53 18 0 34 -8 44 -22z"/>
<path d="M1829 1894 c-7 -14 -26 -37 -42 -50 -32 -27 -29 -37 25 -76 22 -15
32 -18 41 -9 8 8 6 11 -10 11 -11 0 -26 7 -33 16 -11 12 -11 18 2 31 19 19 40
9 31 -15 -6 -15 -3 -14 16 3 22 19 22 19 2 27 -25 9 -27 21 -6 38 18 15 45 -2
45 -28 0 -12 3 -13 11 -5 11 11 4 20 -47 66 -20 16 -21 16 -35 -9z"/>
<path d="M522 1788 c-16 -16 -15 -28 2 -28 8 0 24 -9 37 -20 l24 -19 -57 -1
c-46 0 -59 -4 -68 -19 -13 -25 -13 -34 1 -26 14 10 89 -42 89 -61 0 -14 3 -14
15 -4 22 18 19 23 -25 43 -22 10 -38 23 -34 28 3 5 29 9 59 9 30 0 56 4 60 10
3 5 -13 22 -36 37 -23 15 -44 35 -48 45 -5 15 -9 16 -19 6z"/>
<path d="M2000 1743 c0 -13 -89 -65 -100 -58 -14 9 -12 -7 5 -29 14 -19 15
-19 36 0 l21 19 -7 -42 c-8 -52 8 -92 19 -47 10 39 23 53 45 47 9 -2 23 2 30
11 10 12 8 23 -14 60 -26 44 -35 54 -35 39z m30 -59 c0 -17 -24 -29 -40 -19
-8 5 -6 13 6 26 18 20 34 17 34 -7z"/>
<path d="M382 1541 c-9 -24 -8 -31 1 -30 18 4 97 -23 97 -33 0 -17 17 -7 28
17 10 22 9 25 -9 25 -25 0 -91 27 -100 41 -3 6 -11 -3 -17 -20z"/>
<path d="M2072 1518 c-7 -7 -12 -27 -12 -45 0 -26 -4 -33 -20 -33 -23 0 -28
38 -7 59 10 10 8 12 -8 9 -16 -3 -19 -10 -17 -38 2 -19 9 -41 15 -48 16 -20
61 -11 65 13 7 50 13 65 27 65 18 0 20 -41 3 -58 -14 -14 0 -16 20 -3 14 8 8
55 -11 79 -12 15 -39 16 -55 0z"/>
<path d="M330 1376 c0 -10 11 -27 25 -38 30 -23 24 -41 -11 -32 -20 5 -24 3
-24 -17 0 -22 5 -24 51 -26 28 -1 57 -7 65 -14 11 -9 14 -8 14 4 0 8 3 23 6
32 5 13 2 15 -19 10 -36 -9 -43 12 -9 29 27 14 42 34 42 57 0 4 -16 -3 -36
-16 -47 -32 -58 -31 -83 3 -17 22 -20 24 -21 8z"/>
<path d="M2160 1310 c-21 -11 -83 -16 -98 -6 -8 5 -12 -2 -12 -23 0 -29 0 -29
37 -19 20 5 51 8 69 6 31 -4 33 -2 27 22 -7 32 -6 30 -23 20z"/>
<path d="M410 1157 c0 -1 9 -10 20 -20 19 -16 20 -16 20 3 0 13 -7 20 -20 20
-11 0 -20 -1 -20 -3z"/>
<path d="M2170 1130 c6 -11 13 -20 15 -20 3 0 5 9 5 20 0 11 -7 20 -15 20 -13
0 -14 -4 -5 -20z"/>
<path d="M320 1124 c0 -8 5 -12 10 -9 6 3 10 10 10 16 0 5 -4 9 -10 9 -5 0
-10 -7 -10 -16z"/>
<path d="M372 1121 c-11 -7 -11 -9 1 -14 16 -6 27 0 27 15 0 10 -11 10 -28 -1z"/>
<path d="M2050 1104 c0 -28 2 -29 51 -31 62 -2 82 -16 53 -38 -19 -14 -18 -14
4 -15 19 0 22 5 22 39 l0 38 -52 7 c-29 4 -58 12 -65 18 -10 8 -13 4 -13 -18z"/>
<path d="M450 1101 c0 -5 -30 -12 -66 -16 -52 -5 -64 -10 -60 -22 3 -8 6 -22
6 -31 0 -15 2 -15 10 -2 6 10 26 15 65 15 l55 0 0 33 c0 17 -2 32 -5 32 -3 0
-5 -4 -5 -9z"/>
<path d="M2001 910 c-6 -18 -11 -34 -11 -36 0 -1 9 0 19 3 20 5 53 -21 78 -63
10 -16 13 -17 22 -4 8 12 6 16 -8 18 -24 4 -36 33 -19 44 19 12 38 10 38 -4 1
-16 15 7 25 40 6 21 5 23 -13 13 -32 -17 -99 -14 -110 5 -8 14 -11 11 -21 -16z"/>
<path d="M366 914 c-3 -9 -2 -23 3 -32 9 -16 10 -16 16 1 8 19 40 23 50 6 4
-5 -7 -15 -24 -22 -20 -7 -29 -17 -26 -25 3 -8 5 -17 5 -21 0 -5 21 3 48 16
26 13 55 22 65 19 20 -5 22 7 6 35 -10 20 -12 20 -30 3 -18 -16 -20 -16 -40
10 -23 29 -63 35 -73 10z"/>
<path d="M1561 451 c-25 -25 -26 -35 -6 -55 8 -8 15 -26 15 -40 0 -32 32 -43
65 -22 30 20 33 61 6 76 -11 5 -21 20 -23 32 -4 30 -32 34 -57 9z m44 -20 c0
-8 -4 -16 -10 -18 -16 -5 -38 14 -30 26 9 16 40 9 40 -8z m25 -56 c15 -17 5
-35 -20 -35 -22 0 -33 23 -17 39 15 15 22 14 37 -4z"/>
<path d="M883 453 c21 -6 21 -3 -5 -57 -12 -25 -26 -43 -32 -40 -6 3 -2 -2 8
-10 21 -17 51 -22 42 -7 -3 5 5 34 19 65 l25 56 -38 -1 c-20 -1 -29 -3 -19 -6z"/>
<path d="M1100 380 c-6 -11 -8 -25 -4 -31 3 -6 1 -22 -6 -35 -17 -30 1 -54 40
-54 38 0 48 16 46 80 -1 54 -1 55 -33 58 -24 2 -34 -2 -43 -18z m58 -13 c2
-10 -3 -17 -12 -17 -18 0 -29 16 -21 31 9 14 29 6 33 -14z m-10 -70 c4 -20
-25 -34 -40 -19 -15 15 -1 44 19 40 10 -2 19 -11 21 -21z"/>
<path d="M1332 388 c-7 -7 -12 -25 -12 -40 0 -21 6 -29 24 -34 14 -3 30 -3 35
1 16 9 13 -7 -5 -33 -22 -31 0 -28 25 4 24 30 27 71 7 97 -15 20 -56 23 -74 5z
m52 -20 c3 -13 1 -27 -4 -32 -14 -14 -42 16 -34 37 9 24 31 21 38 -5z"/>
</g>
</svg>
