<?xml version="1.0" encoding="UTF-8"?>
<svg version="1.1" xmlns="http://www.w3.org/2000/svg" width="572" height="390">
<path d="M0 0 C188.76 0 377.52 0 572 0 C572 128.7 572 257.4 572 390 C383.24 390 194.48 390 0 390 C0 261.3 0 132.6 0 0 Z " fill="#FEFEFE" transform="translate(0,0)"/>
<path d="M0 0 C61.71 0 123.42 0 187 0 C187 68.97 187 137.94 187 209 C204.16 209 221.32 209 239 209 C239 140.03 239 71.06 239 0 C318.53 0 398.06 0 480 0 C480.04033135 63.4501746 480.04033135 63.4501746 480.04882812 89.88476562 C480.05078614 95.9359538 480.05280666 101.98714196 480.05493164 108.03833008 C480.05519539 108.79679688 480.05545914 109.55526368 480.05573088 110.33671433 C480.06008572 122.59768384 480.06797258 134.85864869 480.0771528 147.11961543 C480.08648894 159.69326794 480.09205553 172.26691801 480.09408849 184.84057385 C480.0954638 192.605465 480.09981482 200.37034297 480.10791647 208.13523007 C480.11380412 214.0792637 480.11445906 220.02329048 480.11310768 225.96732712 C480.11338421 228.41315734 480.11539194 230.85898803 480.11920547 233.30481529 C480.1241358 236.62819141 480.12300074 239.9515098 480.12025452 243.27488708 C480.12462378 244.7471327 480.12462378 244.7471327 480.12908131 246.24912065 C480.12709026 247.13241078 480.12509921 248.01570091 480.12304783 248.92575741 C480.12342755 249.69393164 480.12380727 250.46210586 480.1241985 251.2535581 C480 253 480 253 479 254 C464.15 254 449.3 254 434 254 C434 185.03 434 116.06 434 45 C416.84 45 399.68 45 382 45 C382 113.64 382 182.28 382 253 C366.82 253 351.64 253 336 253 C336 184.69 336 116.38 336 46 C319.5 46 303 46 286 46 C286 114.64 286 183.28 286 254 C262.425625 254.020625 238.85125 254.04125 214.5625 254.0625 C207.10599854 254.071604 199.64949707 254.08070801 191.96704102 254.09008789 C182.89440918 254.09460449 182.89440918 254.09460449 178.65342712 254.09544373 C175.67763022 254.09637917 172.70185098 254.10014164 169.72605896 254.10557556 C165.93735967 254.11240291 162.14868629 254.11449708 158.35998142 254.11307228 C156.96508861 254.11337048 155.57019494 254.11537208 154.17530739 254.11921513 C152.29990722 254.12414449 150.42449295 254.12240359 148.54908752 254.12025452 C147.49547814 254.12117631 146.44186876 254.1220981 145.35633183 254.12304783 C143 254 143 254 142 253 C141.90216304 250.31930668 141.87006089 247.66438877 141.87974548 244.98326111 C141.87846385 243.70791113 141.87846385 243.70791113 141.87715632 242.40679651 C141.8754989 239.5354183 141.88102714 236.66409751 141.88647461 233.79272461 C141.88675645 231.7433421 141.88659881 229.69395948 141.8860321 227.64457703 C141.88574401 222.06216088 141.89164264 216.47976602 141.89860606 210.89735484 C141.90483764 205.07037001 141.90544324 199.24338474 141.90663147 193.41639709 C141.90974536 182.37372706 141.91795953 171.33106687 141.92798096 160.28840119 C141.93914029 147.72029921 141.94465209 135.15219677 141.94967639 122.58409107 C141.9601421 96.72272065 141.9784883 70.86136375 142 45 C124.84 45 107.68 45 90 45 C90 113.97 90 182.94 90 254 C75.15 254 60.3 254 45 254 C43.21846618 252.21846618 43.87745141 249.82545538 43.87091869 247.45308393 C43.87528795 246.24931375 43.87528795 246.24931375 43.87974548 245.02122498 C43.87889106 244.17507521 43.87803663 243.32892545 43.87715632 242.45713478 C43.87549892 239.59957601 43.88102712 236.74207492 43.88647461 233.88452148 C43.88675645 231.84499106 43.88659881 229.80546054 43.8860321 227.76593018 C43.88574401 222.21037264 43.89164262 216.65483648 43.89860606 211.09928393 C43.90483766 205.30032632 43.90544324 199.50136828 43.90663147 193.70240784 C43.90974536 182.71286173 43.91795952 171.72332552 43.92798096 160.73378378 C43.93914031 148.22614015 43.9446521 135.71849606 43.94967639 123.21084869 C43.96014209 97.47389237 43.97848828 71.73694962 44 46 C29.48 46 14.96 46 0 46 C0 30.82 0 15.64 0 0 Z " fill="#2C65B7" transform="translate(28,72)"/>
<path d="M0 0 C15.18 0 30.36 0 46 0 C46 68.97 46 137.94 46 209 C60.19 209 74.38 209 89 209 C89 140.36 89 71.72 89 1 C89.33 1 89.66 1 90 1 C90 69.97 90 138.94 90 210 C75.15 210 60.3 210 45 210 C43.21846618 208.21846618 43.87745141 205.82545538 43.87091869 203.45308393 C43.87528795 202.24931375 43.87528795 202.24931375 43.87974548 201.02122498 C43.87889106 200.17507521 43.87803663 199.32892545 43.87715632 198.45713478 C43.87549892 195.59957601 43.88102712 192.74207492 43.88647461 189.88452148 C43.88675645 187.84499106 43.88659881 185.80546054 43.8860321 183.76593018 C43.88574401 178.21037264 43.89164262 172.65483648 43.89860606 167.09928393 C43.90483766 161.30032632 43.90544324 155.50136828 43.90663147 149.70240784 C43.90974536 138.71286173 43.91795952 127.72332552 43.92798096 116.73378378 C43.93914031 104.22614015 43.9446521 91.71849606 43.94967639 79.21084869 C43.96014209 53.47389237 43.97848828 27.73694962 44 2 C29.48 2 14.96 2 0 2 C0 1.34 0 0.68 0 0 Z " fill="#779EC6" transform="translate(28,116)"/>
<path d="M0 0 C0.66 0 1.32 0 2 0 C2 68.31 2 136.62 2 207 C18.17 207 34.34 207 51 207 C51 138.69 51 70.38 51 0 C51.33 0 51.66 0 52 0 C52 68.97 52 137.94 52 209 C34.84 209 17.68 209 0 209 C0 140.03 0 71.06 0 0 Z " fill="#B7D3ED" transform="translate(215,72)"/>
</svg>
