<?xml version="1.0" encoding="UTF-8"?>
<!DOCTYPE svg PUBLIC "-//W3C//DTD SVG 1.1//EN" "http://www.w3.org/Graphics/SVG/1.1/DTD/svg11.dtd">
<svg xmlns="http://www.w3.org/2000/svg" version="1.1" width="572px" height="390px" style="shape-rendering:geometricPrecision; text-rendering:geometricPrecision; image-rendering:optimizeQuality; fill-rule:evenodd; clip-rule:evenodd" xmlns:xlink="http://www.w3.org/1999/xlink">
<g><path style="opacity:1" fill="#fefefe" d="M -0.5,-0.5 C 190.167,-0.5 380.833,-0.5 571.5,-0.5C 571.5,129.5 571.5,259.5 571.5,389.5C 380.833,389.5 190.167,389.5 -0.5,389.5C -0.5,259.5 -0.5,129.5 -0.5,-0.5 Z"/></g>
<g><path style="opacity:1" fill="#2a64b7" d="M 210.5,71.5 C 209.86,141.253 210.527,210.92 212.5,280.5C 209.901,280.451 207.734,279.451 206,277.5C 204.318,278.865 204.151,280.365 205.5,282C 207.355,282.422 209.189,282.922 211,283.5C 213.76,281.209 216.593,281.042 219.5,283C 218.552,283.483 217.552,283.649 216.5,283.5C 216.5,284.833 216.5,286.167 216.5,287.5C 231.475,286.732 246.475,286.232 261.5,286C 262.167,285.667 262.833,285.333 263.5,285C 258.177,283.517 258.177,282.35 263.5,281.5C 264.936,285.027 267.103,285.36 270,282.5C 271.117,283.949 271.784,285.616 272,287.5C 273.427,285.295 273.927,283.128 273.5,281C 271.071,280.549 270.904,279.715 273,278.5C 273.333,278.833 273.667,279.167 274,279.5C 278.178,277.601 282.678,276.935 287.5,277.5C 287.5,208.833 287.5,140.167 287.5,71.5C 360.833,71.5 434.167,71.5 507.5,71.5C 507.833,156.002 507.499,240.335 506.5,324.5C 491.833,324.5 477.167,324.5 462.5,324.5C 462.833,254.998 462.499,185.665 461.5,116.5C 444.167,115.167 426.833,115.167 409.5,116.5C 408.501,185.331 408.167,254.331 408.5,323.5C 407.833,257.999 407.167,192.332 406.5,126.5C 405.833,124.833 405.167,123.167 404.5,121.5C 403.614,122.325 403.281,123.325 403.5,124.5C 401.9,123.048 400.9,121.215 400.5,119C 401.418,116.914 402.085,114.747 402.5,112.5C 401.167,112.5 399.833,112.5 398.5,112.5C 398.423,116.215 398.756,119.881 399.5,123.5C 398.133,122.147 397.133,122.481 396.5,124.5C 396.833,125.5 397.5,126.167 398.5,126.5C 399.5,192.497 399.833,258.497 399.5,324.5C 388.167,324.5 376.833,324.5 365.5,324.5C 366.091,323.849 366.757,323.182 367.5,322.5C 367.491,257.345 367.491,192.011 367.5,126.5C 366.5,126.5 365.5,126.5 364.5,126.5C 364.5,122.833 364.5,119.167 364.5,115.5C 346.992,115.17 329.659,115.503 312.5,116.5C 311.521,119.625 311.187,122.958 311.5,126.5C 310.233,125.913 309.233,125.913 308.5,126.5C 308.829,192.467 309.829,258.134 311.5,323.5C 311.5,323.833 311.5,324.167 311.5,324.5C 264.833,324.5 218.167,324.5 171.5,324.5C 171.17,255.792 171.503,187.125 172.5,118.5C 172.145,117.478 171.478,116.811 170.5,116.5C 170.167,116.5 169.833,116.5 169.5,116.5C 152.167,115.167 134.833,115.167 117.5,116.5C 116.501,185.665 116.167,254.998 116.5,324.5C 101.99,324.829 87.6569,324.496 73.5,323.5C 75.1848,255.823 76.1848,187.823 76.5,119.5C 78.1667,119.5 79.8333,119.5 81.5,119.5C 81.5,118.5 81.5,117.5 81.5,116.5C 79.4727,116.338 77.4727,116.505 75.5,117C 74.9152,118.302 74.2485,119.469 73.5,120.5C 73.7373,119.209 73.404,118.209 72.5,117.5C 72.3893,116.883 72.056,116.383 71.5,116C 56.8371,115.5 42.1705,115.333 27.5,115.5C 27.5,100.833 27.5,86.1667 27.5,71.5C 88.5,71.5 149.5,71.5 210.5,71.5 Z"/></g>
<g><path style="opacity:1" fill="#3669b4" d="M 210.5,71.5 C 212.167,71.5 213.833,71.5 215.5,71.5C 215.5,140.833 215.5,210.167 215.5,279.5C 232.659,280.497 249.992,280.83 267.5,280.5C 267.5,210.833 267.5,141.167 267.5,71.5C 268.167,71.5 268.833,71.5 269.5,71.5C 269.817,141.518 269.484,211.518 268.5,281.5C 266.833,281.5 265.167,281.5 263.5,281.5C 258.177,282.35 258.177,283.517 263.5,285C 262.833,285.333 262.167,285.667 261.5,286C 246.475,286.232 231.475,286.732 216.5,287.5C 216.5,286.167 216.5,284.833 216.5,283.5C 217.552,283.649 218.552,283.483 219.5,283C 216.593,281.042 213.76,281.209 211,283.5C 209.189,282.922 207.355,282.422 205.5,282C 204.151,280.365 204.318,278.865 206,277.5C 207.734,279.451 209.901,280.451 212.5,280.5C 210.527,210.92 209.86,141.253 210.5,71.5 Z"/></g>
<g><path style="opacity:1" fill="#d8e8f5" d="M 215.5,71.5 C 216.499,140.331 216.833,209.331 216.5,278.5C 232.833,278.5 249.167,278.5 265.5,278.5C 265.167,209.331 265.501,140.331 266.5,71.5C 266.5,140.833 266.5,210.167 266.5,279.5C 249.5,279.5 232.5,279.5 215.5,279.5C 215.5,210.167 215.5,140.833 215.5,71.5 Z"/></g>
<g><path style="opacity:1" fill="#2a62b7" d="M 269.5,71.5 C 275.5,71.5 281.5,71.5 287.5,71.5C 287.5,140.167 287.5,208.833 287.5,277.5C 282.678,276.935 278.178,277.601 274,279.5C 273.667,279.167 273.333,278.833 273,278.5C 270.904,279.715 271.071,280.549 273.5,281C 273.927,283.128 273.427,285.295 272,287.5C 271.784,285.616 271.117,283.949 270,282.5C 267.103,285.36 264.936,285.027 263.5,281.5C 265.167,281.5 266.833,281.5 268.5,281.5C 269.484,211.518 269.817,141.518 269.5,71.5 Z"/></g>
<g><path style="opacity:1" fill="#789abc" d="M 312.5,116.5 C 329.659,115.503 346.992,115.17 364.5,115.5C 364.5,119.167 364.5,122.833 364.5,126.5C 364.5,192.5 364.5,258.5 364.5,324.5C 363.501,255.669 363.167,186.669 363.5,117.5C 346.675,116.503 329.675,116.17 312.5,116.5 Z"/></g>
<g><path style="opacity:1" fill="#aac8e8" d="M 169.5,116.5 C 169.5,185.833 169.5,255.167 169.5,324.5C 169.167,324.5 168.833,324.5 168.5,324.5C 168.5,255.5 168.5,186.5 168.5,117.5C 151.5,117.5 134.5,117.5 117.5,117.5C 117.5,117.167 117.5,116.833 117.5,116.5C 134.833,115.167 152.167,115.167 169.5,116.5 Z"/></g>
<g><path style="opacity:1" fill="#2a62ba" d="M 73.5,323.5 C 73.5,255.833 73.5,188.167 73.5,120.5C 74.2485,119.469 74.9152,118.302 75.5,117C 77.4727,116.505 79.4727,116.338 81.5,116.5C 81.5,117.5 81.5,118.5 81.5,119.5C 79.8333,119.5 78.1667,119.5 76.5,119.5C 76.1848,187.823 75.1848,255.823 73.5,323.5 Z"/></g>
<g><path style="opacity:1" fill="#b0c8d8" d="M 312.5,116.5 C 329.675,116.17 346.675,116.503 363.5,117.5C 363.167,117.5 362.833,117.5 362.5,117.5C 346.167,117.5 329.833,117.5 313.5,117.5C 313.833,187.002 313.499,256.335 312.5,325.5C 312.167,325.5 311.833,325.5 311.5,325.5C 311.5,325.167 311.5,324.833 311.5,324.5C 311.5,324.167 311.5,323.833 311.5,323.5C 311.5,257.833 311.5,192.167 311.5,126.5C 311.187,122.958 311.521,119.625 312.5,116.5 Z"/></g>
<g><path style="opacity:1" fill="#2962b8" d="M 403.5,124.5 C 404.499,190.833 404.832,256.999 404.5,323C 403.207,323.49 401.873,323.657 400.5,323.5C 400.826,256.792 400.493,190.125 399.5,123.5C 398.756,119.881 398.423,116.215 398.5,112.5C 399.833,112.5 401.167,112.5 402.5,112.5C 402.085,114.747 401.418,116.914 400.5,119C 400.9,121.215 401.9,123.048 403.5,124.5 Z"/></g>
<g><path style="opacity:1" fill="#a0bece" d="M 27.5,115.5 C 42.1705,115.333 56.8371,115.5 71.5,116C 72.056,116.383 72.3893,116.883 72.5,117.5C 72.5,186.5 72.5,255.5 72.5,324.5C 71.5008,255.669 71.1675,186.669 71.5,117.5C 56.4619,118.15 41.7952,117.483 27.5,115.5 Z"/></g>
<g><path style="opacity:1" fill="#295fa7" d="M 170.5,116.5 C 171.478,116.811 172.145,117.478 172.5,118.5C 171.503,187.125 171.17,255.792 171.5,324.5C 170.501,255.335 170.167,186.002 170.5,116.5 Z"/></g>
<g><path style="opacity:1" fill="#295fb9" d="M 311.5,126.5 C 311.5,192.167 311.5,257.833 311.5,323.5C 309.829,258.134 308.829,192.467 308.5,126.5C 309.233,125.913 310.233,125.913 311.5,126.5 Z"/></g>
<g><path style="opacity:1" fill="#dfeaf0" d="M 362.5,117.5 C 362.833,117.5 363.167,117.5 363.5,117.5C 363.167,186.669 363.501,255.669 364.5,324.5C 379.5,325.833 394.5,325.833 409.5,324.5C 409.833,324.5 410.167,324.5 410.5,324.5C 403.03,325.831 395.196,326.498 387,326.5C 378.924,326.493 370.924,326.159 363,325.5C 362.5,256.167 362.333,186.834 362.5,117.5 Z"/></g>
<g><path style="opacity:1" fill="#f6fefe" d="M 117.5,126.5 C 118.833,159.16 119.5,192.16 119.5,225.5C 119.5,258.84 118.833,291.84 117.5,324.5C 117.5,258.5 117.5,192.5 117.5,126.5 Z"/></g>
<g><path style="opacity:1" fill="#2b61b0" d="M 364.5,126.5 C 365.5,126.5 366.5,126.5 367.5,126.5C 367.491,192.011 367.491,257.345 367.5,322.5C 366.757,323.182 366.091,323.849 365.5,324.5C 365.167,324.5 364.833,324.5 364.5,324.5C 364.5,258.5 364.5,192.5 364.5,126.5 Z"/></g>
<g><path style="opacity:1" fill="#2b64b4" d="M 408.5,323.5 C 405.713,324.477 402.713,324.81 399.5,324.5C 399.833,258.497 399.5,192.497 398.5,126.5C 397.5,126.167 396.833,125.5 396.5,124.5C 397.133,122.481 398.133,122.147 399.5,123.5C 400.493,190.125 400.826,256.792 400.5,323.5C 401.873,323.657 403.207,323.49 404.5,323C 404.832,256.999 404.499,190.833 403.5,124.5C 403.281,123.325 403.614,122.325 404.5,121.5C 405.167,123.167 405.833,124.833 406.5,126.5C 407.167,192.332 407.833,257.999 408.5,323.5 Z"/></g>
<g><path style="opacity:1" fill="#b5c7d5" d="M 461.5,116.5 C 461.5,116.833 461.5,117.167 461.5,117.5C 444.5,117.5 427.5,117.5 410.5,117.5C 410.5,186.5 410.5,255.5 410.5,324.5C 410.167,324.5 409.833,324.5 409.5,324.5C 409.5,255.167 409.5,185.833 409.5,116.5C 426.833,115.167 444.167,115.167 461.5,116.5 Z"/></g>
<g><path style="opacity:1" fill="#7ba7cf" d="M 266.5,71.5 C 266.833,71.5 267.167,71.5 267.5,71.5C 267.5,141.167 267.5,210.833 267.5,280.5C 249.992,280.83 232.659,280.497 215.5,279.5C 232.5,279.5 249.5,279.5 266.5,279.5C 266.5,210.167 266.5,140.833 266.5,71.5 Z"/></g>
<g><path style="opacity:1" fill="#6c94c8" d="M 117.5,116.5 C 117.5,116.833 117.5,117.167 117.5,117.5C 117.5,120.5 117.5,123.5 117.5,126.5C 117.5,192.5 117.5,258.5 117.5,324.5C 102.5,325.833 87.5,325.833 72.5,324.5C 72.5,255.5 72.5,186.5 72.5,117.5C 73.404,118.209 73.7373,119.209 73.5,120.5C 73.5,188.167 73.5,255.833 73.5,323.5C 87.6569,324.496 101.99,324.829 116.5,324.5C 116.167,254.998 116.501,185.665 117.5,116.5 Z"/></g>
<g><path style="opacity:1" fill="#799fd4" d="M 169.5,116.5 C 169.833,116.5 170.167,116.5 170.5,116.5C 170.167,186.002 170.501,255.335 171.5,324.5C 218.167,324.5 264.833,324.5 311.5,324.5C 311.5,324.833 311.5,325.167 311.5,325.5C 263.997,325.832 216.664,325.499 169.5,324.5C 169.5,255.167 169.5,185.833 169.5,116.5 Z"/></g>
<g><path style="opacity:1" fill="#7c9cc9" d="M 409.5,116.5 C 409.5,185.833 409.5,255.167 409.5,324.5C 394.5,325.833 379.5,325.833 364.5,324.5C 364.833,324.5 365.167,324.5 365.5,324.5C 376.833,324.5 388.167,324.5 399.5,324.5C 402.713,324.81 405.713,324.477 408.5,323.5C 408.167,254.331 408.501,185.331 409.5,116.5 Z"/></g>
<g><path style="opacity:1" fill="#769bc6" d="M 461.5,116.5 C 462.499,185.665 462.833,254.998 462.5,324.5C 477.167,324.5 491.833,324.5 506.5,324.5C 491.676,325.496 476.676,325.829 461.5,325.5C 461.5,256.167 461.5,186.833 461.5,117.5C 461.5,117.167 461.5,116.833 461.5,116.5 Z"/></g>
<g><path style="opacity:1" fill="#e4edf6" d="M 168.5,324.5 C 168.833,324.5 169.167,324.5 169.5,324.5C 216.664,325.499 263.997,325.832 311.5,325.5C 311.833,325.5 312.167,325.5 312.5,325.5C 288.669,326.167 264.669,326.5 240.5,326.5C 216.157,326.5 192.157,325.833 168.5,324.5 Z"/></g>
</svg>
