<?xml version="1.0" standalone="no"?>
<!DOCTYPE svg PUBLIC "-//W3C//DTD SVG 20010904//EN"
 "http://www.w3.org/TR/2001/REC-SVG-20010904/DTD/svg10.dtd">
<svg version="1.0" xmlns="http://www.w3.org/2000/svg"
 width="572.000000pt" height="390.000000pt" viewBox="0 0 572.000000 390.000000"
 preserveAspectRatio="xMidYMid meet">

<g transform="translate(0.000000,390.000000) scale(0.100000,-0.100000)"
fill="#000000" stroke="none">
<path d="M280 2960 l0 -220 223 -2 222 -3 5 -1040 5 -1040 218 -3 217 -2 0
1029 c0 566 3 1036 6 1045 5 14 38 16 258 16 183 0 255 -3 264 -12 9 -9 12
-255 12 -1045 l0 -1033 705 0 705 0 2 1043 3 1042 260 0 260 0 3 -1042 2
-1043 220 0 220 0 0 1033 c0 790 3 1036 12 1045 9 9 81 12 264 12 220 0 253
-2 258 -16 3 -9 6 -479 6 -1045 l0 -1029 220 0 220 0 0 1265 0 1265 -1195 0
-1195 0 -2 -1042 -3 -1043 -262 -3 -263 -2 0 1045 0 1045 -935 0 -935 0 0
-220z"/>
</g>
</svg>
