<?xml version="1.0" encoding="UTF-8"?>
<!DOCTYPE svg PUBLIC "-//W3C//DTD SVG 1.1//EN" "http://www.w3.org/Graphics/SVG/1.1/DTD/svg11.dtd">
<svg xmlns="http://www.w3.org/2000/svg" version="1.1" width="436px" height="434px" style="shape-rendering:geometricPrecision; text-rendering:geometricPrecision; image-rendering:optimizeQuality; fill-rule:evenodd; clip-rule:evenodd" xmlns:xlink="http://www.w3.org/1999/xlink">
<g><path style="opacity:1" fill="#f7f8fa" d="M -0.5,-0.5 C 144.833,-0.5 290.167,-0.5 435.5,-0.5C 435.5,144.167 435.5,288.833 435.5,433.5C 385.833,433.5 336.167,433.5 286.5,433.5C 285.833,430.833 285.167,430.833 284.5,433.5C 282.833,433.5 281.167,433.5 279.5,433.5C 278.833,430.833 278.167,430.833 277.5,433.5C 276.167,433.5 274.833,433.5 273.5,433.5C 272.74,431.015 271.74,431.015 270.5,433.5C 266.167,433.5 261.833,433.5 257.5,433.5C 257.157,431.775 256.157,431.275 254.5,432C 255.056,432.383 255.389,432.883 255.5,433.5C 252.5,433.5 249.5,433.5 246.5,433.5C 245.833,430.833 245.167,430.833 244.5,433.5C 241.167,433.5 237.833,433.5 234.5,433.5C 233.833,430.833 233.167,430.833 232.5,433.5C 230.5,433.5 228.5,433.5 226.5,433.5C 225.26,431.015 224.26,431.015 223.5,433.5C 215.833,433.5 208.167,433.5 200.5,433.5C 199.833,430.833 199.167,430.833 198.5,433.5C 184.167,433.5 169.833,433.5 155.5,433.5C 154.833,430.833 154.167,430.833 153.5,433.5C 152.833,433.5 152.167,433.5 151.5,433.5C 150.833,430.833 150.167,430.833 149.5,433.5C 99.5,433.5 49.5,433.5 -0.5,433.5C -0.5,288.833 -0.5,144.167 -0.5,-0.5 Z"/></g>
<g><path style="opacity:1" fill="#2a5843" d="M 197.5,4.5 C 285.351,2.66027 351.851,38.9936 397,113.5C 430.85,180.829 430.85,248.162 397,315.5C 351.624,391.283 284.457,427.45 195.5,424C 112.777,414.239 53.9433,371.739 19,296.5C -10.4518,219.425 -0.451799,148.092 49,82.5C 88.0377,36.5647 137.538,10.5647 197.5,4.5 Z"/></g>
<g><path style="opacity:1" fill="#f4f6f5" d="M 196.5,13.5 C 281.131,11.0978 345.298,45.7645 389,117.5C 418.411,174.451 421.411,232.784 398,292.5C 367.833,358.652 317,398.819 245.5,413C 163.576,423.269 97.7429,395.769 48,330.5C 11.9625,276.564 2.62914,218.231 20,155.5C 42.5,89 87,44.5 153.5,22C 167.701,17.7927 182.035,14.9594 196.5,13.5 Z"/></g>
<g><path style="opacity:1" fill="#275641" d="M 190.5,19.5 C 275.623,14.6369 340.123,48.3035 384,120.5C 409.296,167.994 414.63,217.661 400,269.5C 380.955,330.545 341.788,373.045 282.5,397C 206.591,422.799 138.591,409.465 78.5,357C 24.8345,302.312 6.66783,237.478 24,162.5C 50.7186,81.2788 106.219,33.6122 190.5,19.5 Z"/></g>
<g><path style="opacity:1" fill="#f0f3f2" d="M 212.5,41.5 C 212.44,40.9569 212.107,40.6236 211.5,40.5C 210.184,46.3204 210.184,51.9871 211.5,57.5C 212.5,57.5 213.5,57.5 214.5,57.5C 214.5,58.5 214.5,59.5 214.5,60.5C 211.167,60.5 207.833,60.5 204.5,60.5C 204.5,59.5 204.5,58.5 204.5,57.5C 205.822,57.67 206.989,57.3366 208,56.5C 208.667,49.8333 208.667,43.1667 208,36.5C 207.075,35.9535 206.242,35.2868 205.5,34.5C 207.765,33.3526 210.098,33.1859 212.5,34C 216.333,39.8333 220.167,45.6667 224,51.5C 224.499,46.5111 224.666,41.5111 224.5,36.5C 223.5,36.5 222.5,36.5 221.5,36.5C 221.5,35.5 221.5,34.5 221.5,33.5C 224.833,33.5 228.167,33.5 231.5,33.5C 231.5,34.5 231.5,35.5 231.5,36.5C 230.167,36.5 228.833,36.5 227.5,36.5C 227.5,44.8333 227.5,53.1667 227.5,61.5C 226.325,61.719 225.325,61.3857 224.5,60.5C 220.473,54.1492 216.473,47.8158 212.5,41.5 Z"/></g>
<g><path style="opacity:1" fill="#ebf0ee" d="M 192.5,33.5 C 193.833,33.5 195.167,33.5 196.5,33.5C 196.5,34.5 196.5,35.5 196.5,36.5C 195.5,36.5 194.5,36.5 193.5,36.5C 195.279,43.7365 195.779,51.0699 195,58.5C 191.975,62.9205 187.808,64.4205 182.5,63C 179.824,61.1604 177.991,58.6604 177,55.5C 176.574,50.4163 175.74,45.4163 174.5,40.5C 173.5,40.5 172.5,40.5 171.5,40.5C 171.5,39.5 171.5,38.5 171.5,37.5C 174.002,37.2505 176.502,36.9172 179,36.5C 183.277,37.0589 183.444,37.7255 179.5,38.5C 179.924,44.2237 180.757,49.8903 182,55.5C 184.467,59.9937 187.8,60.6604 192,57.5C 192.663,51.4518 192.33,45.4518 191,39.5C 189.89,37.9632 188.39,37.2965 186.5,37.5C 186.5,36.5 186.5,35.5 186.5,34.5C 188.735,34.7947 190.735,34.4614 192.5,33.5 Z"/></g>
<g><path style="opacity:1" fill="#edf1f0" d="M 239.5,35.5 C 243.806,35.492 247.806,36.492 251.5,38.5C 247.303,38.9183 245.469,41.2516 246,45.5C 245.584,49.9143 244.75,54.2476 243.5,58.5C 244.821,60.3318 245.821,62.3318 246.5,64.5C 242.833,63.8333 239.167,63.1667 235.5,62.5C 235.5,61.5 235.5,60.5 235.5,59.5C 236.822,59.67 237.989,59.3366 239,58.5C 240.679,51.9142 241.845,45.2476 242.5,38.5C 241.5,38.5 240.5,38.5 239.5,38.5C 239.5,37.5 239.5,36.5 239.5,35.5 Z"/></g>
<g><path style="opacity:1" fill="#f2f5f3" d="M 258.5,39.5 C 262.474,39.987 266.141,41.3203 269.5,43.5C 268.311,44.4287 266.978,44.762 265.5,44.5C 265.334,50.1764 265.501,55.8431 266,61.5C 269.882,57.2861 273.382,52.7861 276.5,48C 274.321,47.5581 273.655,46.5581 274.5,45C 277.404,45.5653 280.404,46.0653 283.5,46.5C 283.5,47.5 283.5,48.5 283.5,49.5C 281.801,49.3398 280.134,49.5065 278.5,50C 273.878,56.078 269.378,62.2447 265,68.5C 263.989,69.3366 262.822,69.67 261.5,69.5C 261.666,60.8269 261.5,52.1603 261,43.5C 259.519,42.5291 258.685,41.1958 258.5,39.5 Z"/></g>
<g><path style="opacity:1" fill="#f0f3f2" d="M 145.5,45.5 C 149.079,45.7657 149.413,47.099 146.5,49.5C 149.561,56.6214 152.894,63.6214 156.5,70.5C 155.277,71.6139 153.944,71.7805 152.5,71C 146.37,67.6995 140.37,64.1995 134.5,60.5C 134.167,60.8333 133.833,61.1667 133.5,61.5C 135.667,65.8333 137.833,70.1667 140,74.5C 141.422,74.5943 142.922,74.9276 144.5,75.5C 142.206,77.653 139.54,79.3197 136.5,80.5C 136.167,80 135.833,79.5 135.5,79C 136.893,77.6992 137.393,76.1992 137,74.5C 134.333,69.1667 131.667,63.8333 129,58.5C 124.519,57.3662 124.352,55.8662 128.5,54C 129.833,53.3333 131.167,53.3333 132.5,54C 137.703,57.3658 143.036,60.5324 148.5,63.5C 148.833,63.1667 149.167,62.8333 149.5,62.5C 147.667,58.8333 145.833,55.1667 144,51.5C 142.667,50.1667 141.333,50.1667 140,51.5C 139.833,51 139.667,50.5 139.5,50C 141.358,48.2453 143.358,46.7453 145.5,45.5 Z"/></g>
<g><path style="opacity:1" fill="#eff3f1" d="M 290.5,51.5 C 296.878,53.8567 302.878,57.0233 308.5,61C 307.292,63.2503 305.959,65.417 304.5,67.5C 303.5,67.1667 302.833,66.5 302.5,65.5C 303.428,64.2322 303.595,62.8989 303,61.5C 301.255,60.0443 299.422,58.711 297.5,57.5C 295.461,59.7419 293.795,62.2419 292.5,65C 295.102,68.2618 297.268,68.0951 299,64.5C 300.365,65.5929 300.699,66.9262 300,68.5C 298.732,70.7173 297.232,72.7173 295.5,74.5C 294.77,72.6587 294.103,70.8254 293.5,69C 292.216,68.3162 291.049,68.4829 290,69.5C 288.961,71.7463 287.794,73.913 286.5,76C 290.273,80.0661 293.94,80.2328 297.5,76.5C 298.5,76.8333 299.167,77.5 299.5,78.5C 298.649,80.8816 297.316,82.8816 295.5,84.5C 289.633,81.4039 283.967,78.0706 278.5,74.5C 280.567,73.8659 282.4,72.8659 284,71.5C 286.667,66.8333 289.333,62.1667 292,57.5C 292.322,55.3111 291.822,53.3111 290.5,51.5 Z"/></g>
<g><path style="opacity:1" fill="#88a59a" d="M 212.5,41.5 C 211.512,46.6405 211.179,51.9738 211.5,57.5C 210.184,51.9871 210.184,46.3204 211.5,40.5C 212.107,40.6236 212.44,40.9569 212.5,41.5 Z"/></g>
<g><path style="opacity:1" fill="#ecf0ef" d="M 107.5,66.5 C 114.156,70.4992 120.489,74.9992 126.5,80C 128.896,80.8793 131.229,81.5459 133.5,82C 130.64,84.3603 127.64,86.527 124.5,88.5C 123.516,79.9682 120.183,79.3015 114.5,86.5C 115.246,87.7362 115.579,89.0695 115.5,90.5C 116.822,90.67 117.989,90.3366 119,89.5C 119.692,90.0253 120.192,90.6919 120.5,91.5C 117.909,93.3799 115.409,95.3799 113,97.5C 112.308,96.9747 111.808,96.3081 111.5,95.5C 112.383,94.452 113.05,93.2853 113.5,92C 111.244,84.4767 108.911,76.9767 106.5,69.5C 106.685,68.4163 107.018,67.4163 107.5,66.5 Z"/></g>
<g><path style="opacity:1" fill="#f0f4f2" d="M 316.5,66.5 C 323.035,69.5345 327.701,74.3678 330.5,81C 329.163,86.162 325.829,88.3287 320.5,87.5C 320.462,90.9511 319.795,94.2844 318.5,97.5C 320.089,101 319.089,102 315.5,100.5C 314.447,99.5617 313.78,98.395 313.5,97C 314.974,93.8859 316.307,90.7192 317.5,87.5C 317.16,84.9818 315.826,83.8151 313.5,84C 311.641,85.5578 310.141,87.3911 309,89.5C 308.493,90.9961 308.993,92.1627 310.5,93C 310,93.5 309.5,94 309,94.5C 305.996,92.3256 303.163,89.9923 300.5,87.5C 300.808,86.6919 301.308,86.0253 302,85.5C 303.049,86.5171 304.216,86.6838 305.5,86C 309.894,81.2775 313.894,76.2775 317.5,71C 316.852,69.5603 316.519,68.0603 316.5,66.5 Z"/></g>
<g><path style="opacity:1" fill="#325f4b" d="M 110.5,73.5 C 113.401,74.7915 115.734,76.7915 117.5,79.5C 116.167,80.5 114.833,81.5 113.5,82.5C 112.296,79.5559 111.296,76.5559 110.5,73.5 Z"/></g>
<g><path style="opacity:1" fill="#fafbfb" d="M 195.5,75.5 C 255.883,71.4398 302.049,94.7731 334,145.5C 344.81,164.426 350.643,184.76 351.5,206.5C 361.593,205.87 370.093,201.87 377,194.5C 376.153,206.555 372.819,217.888 367,228.5C 364.961,230.874 362.628,232.874 360,234.5C 359.5,253.83 359.333,273.164 359.5,292.5C 366.508,292.334 373.508,292.5 380.5,293C 371.833,301.667 363.167,310.333 354.5,319C 337.5,319.333 320.5,319.667 303.5,320C 269.821,348.107 231.154,358.773 187.5,352C 162.544,347.188 140.544,336.521 121.5,320C 104.5,319.667 87.5,319.333 70.5,319C 61.8333,310.333 53.1667,301.667 44.5,293C 51.4921,292.5 58.4921,292.334 65.5,292.5C 65.833,272.822 65.4996,253.155 64.5,233.5C 59.0369,229.856 55.2036,224.856 53,218.5C 50.0834,211.077 48.7501,203.411 49,195.5C 55.7738,202.304 63.9405,205.971 73.5,206.5C 77.8971,155.846 101.897,117.679 145.5,92C 161.327,83.5573 177.994,78.0573 195.5,75.5 Z"/></g>
<g><path style="opacity:1" fill="#2d5b46" d="M 321.5,73.5 C 326.452,75.5661 327.452,78.7328 324.5,83C 321.12,83.9377 318.12,83.271 315.5,81C 318.094,78.9135 320.094,76.4135 321.5,73.5 Z"/></g>
<g><path style="opacity:1" fill="#eff3f1" d="M 89.5,81.5 C 90.3764,81.3691 91.0431,81.7025 91.5,82.5C 90.5721,83.7678 90.4054,85.1011 91,86.5C 95.1994,91.0343 99.6994,95.201 104.5,99C 106.313,98.9536 107.979,99.1203 109.5,99.5C 107.628,102.582 105.295,105.249 102.5,107.5C 101.692,107.192 101.025,106.692 100.5,106C 101.517,104.951 101.684,103.784 101,102.5C 99.3163,100.649 97.4829,98.982 95.5,97.5C 92.6826,99.8167 90.0159,102.317 87.5,105C 89.7047,107.54 92.2047,109.707 95,111.5C 96.3629,109.216 97.8629,109.049 99.5,111C 96.6223,113.709 93.9557,116.542 91.5,119.5C 90.6919,119.192 90.0253,118.692 89.5,118C 90.5536,116.612 90.7203,115.112 90,113.5C 86.1334,109.298 81.9668,105.465 77.5,102C 76.1011,101.405 74.7678,101.572 73.5,102.5C 72.6919,102.192 72.0253,101.692 71.5,101C 74.0218,98.4782 76.5218,95.9782 79,93.5C 79.471,97.2252 81.6377,100.225 85.5,102.5C 88.3174,100.183 90.9841,97.6833 93.5,95C 91.8333,93.3333 90.1667,91.6667 88.5,90C 86.4132,90.2179 84.4132,90.0512 82.5,89.5C 84.8558,86.8136 87.1891,84.147 89.5,81.5 Z"/></g>
<g><path style="opacity:1" fill="#f0f3f2" d="M 337.5,90.5 C 344.26,89.3744 348.594,92.0411 350.5,98.5C 349.929,100.741 348.596,102.408 346.5,103.5C 345.5,103.167 344.833,102.5 344.5,101.5C 347.923,96.3079 346.589,93.8079 340.5,94C 339.106,94.956 338.439,96.2894 338.5,98C 340.126,102.048 340.626,106.215 340,110.5C 334.351,117.267 329.018,116.934 324,109.5C 321.48,105.561 322.313,102.561 326.5,100.5C 327.5,100.833 328.167,101.5 328.5,102.5C 325.665,105.671 325.998,108.504 329.5,111C 333.197,112.154 335.197,110.821 335.5,107C 335.041,103.955 334.374,100.955 333.5,98C 333.927,94.9766 335.261,92.4766 337.5,90.5 Z"/></g>
<g><path style="opacity:1" fill="#eff3f2" d="M 356.5,106.5 C 359.487,109.246 362.153,112.413 364.5,116C 362.5,116 360.5,116 358.5,116C 353.074,119.129 347.907,122.629 343,126.5C 342.508,127.549 342.674,128.549 343.5,129.5C 343.192,130.308 342.692,130.975 342,131.5C 339.421,128.313 337.421,124.98 336,121.5C 336.333,121.167 336.667,120.833 337,120.5C 338.133,122.211 339.633,122.711 341.5,122C 346.422,118.622 351.255,115.122 356,111.5C 356.494,109.866 356.66,108.199 356.5,106.5 Z"/></g>
<g><path style="opacity:1" fill="#ecf1ef" d="M 65.5,108.5 C 67.0108,109.958 68.0108,111.791 68.5,114C 74.329,116.992 79.4957,120.825 84,125.5C 85.1478,135.019 80.9811,139.186 71.5,138C 67.5,135.667 63.5,133.333 59.5,131C 57.765,130.349 56.0983,130.515 54.5,131.5C 53.6919,131.192 53.0253,130.692 52.5,130C 54.5431,126.747 56.7098,123.58 59,120.5C 59.3091,122.807 60.1424,124.974 61.5,127C 65.5,129.333 69.5,131.667 73.5,134C 76.7894,134.746 79.2894,133.58 81,130.5C 81.6667,129.167 81.6667,127.833 81,126.5C 75.5435,119.848 68.7102,116.681 60.5,117C 62.5564,114.386 64.2231,111.553 65.5,108.5 Z"/></g>
<g><path style="opacity:1" fill="#0a2151" d="M 210.5,110.5 C 211.873,110.343 213.207,110.51 214.5,111C 215.127,113.343 216.127,115.51 217.5,117.5C 216.739,123.481 216.072,129.481 215.5,135.5C 213.5,135.5 211.5,135.5 209.5,135.5C 208.275,130.152 208.275,124.819 209.5,119.5C 208.975,118.808 208.308,118.308 207.5,118C 208.881,115.636 209.881,113.136 210.5,110.5 Z"/></g>
<g><path style="opacity:1" fill="#ecf0ef" d="M 366.5,123.5 C 367.822,123.33 368.989,123.663 370,124.5C 373.279,130.377 375.945,136.377 378,142.5C 376.144,144.406 373.977,145.24 371.5,145C 371.167,144.667 370.833,144.333 370.5,144C 373.877,141.715 374.21,139.215 371.5,136.5C 365.833,139.333 360.167,142.167 354.5,145C 353.167,146.333 353.167,147.667 354.5,149C 353.975,149.692 353.308,150.192 352.5,150.5C 350.374,147.081 348.374,143.581 346.5,140C 347.025,139.308 347.692,138.808 348.5,138.5C 350.193,140.279 352.193,140.779 354.5,140C 359.167,137.667 363.833,135.333 368.5,133C 369.833,131.667 369.833,130.333 368.5,129C 366.527,128.505 364.527,128.338 362.5,128.5C 362.281,127.325 362.614,126.325 363.5,125.5C 364.739,125.058 365.739,124.391 366.5,123.5 Z"/></g>
<g><path style="opacity:1" fill="#0e2353" d="M 181.5,135.5 C 184.167,135.5 186.833,135.5 189.5,135.5C 189.5,136.833 189.5,138.167 189.5,139.5C 197.249,139.787 204.916,139.12 212.5,137.5C 220.084,139.12 227.751,139.787 235.5,139.5C 235.5,138.167 235.5,136.833 235.5,135.5C 238.167,135.5 240.833,135.5 243.5,135.5C 243.665,140.862 242.998,146.029 241.5,151C 240.463,155.412 242.129,158.079 246.5,159C 255.344,160.057 262.178,156.89 267,149.5C 267.573,154.59 267.073,159.59 265.5,164.5C 267.214,170.368 271.214,172.701 277.5,171.5C 282.717,171.982 287.384,170.649 291.5,167.5C 291.833,167.833 292.167,168.167 292.5,168.5C 288.974,176.031 283.308,181.031 275.5,183.5C 269.177,181.84 263.177,179.34 257.5,176C 227.5,175.333 197.5,175.333 167.5,176C 162.62,178.607 157.62,180.94 152.5,183C 148.88,183.841 145.546,183.174 142.5,181C 137.689,177.194 134.022,172.527 131.5,167C 134.055,168.138 136.722,169.471 139.5,171C 145.253,171.851 150.92,171.517 156.5,170C 158.833,168.667 159.833,166.667 159.5,164C 157.888,159.273 157.388,154.439 158,149.5C 164.479,159.272 172.979,161.605 183.5,156.5C 184.657,153.216 184.824,149.882 184,146.5C 183.333,145.833 182.667,145.167 182,144.5C 181.502,141.518 181.335,138.518 181.5,135.5 Z"/></g>
<g><path style="opacity:1" fill="#edf1f0" d="M 47.5,138.5 C 48.5,138.5 49.5,138.5 50.5,138.5C 50.3433,139.873 50.51,141.207 51,142.5C 57.0803,146.79 63.2469,150.957 69.5,155C 70.3366,156.011 70.67,157.178 70.5,158.5C 64.1579,158.334 57.8246,158.5 51.5,159C 56.6664,162.673 61.6664,166.506 66.5,170.5C 59.1722,171.686 51.8389,171.686 44.5,170.5C 41.4062,170.65 38.7395,171.65 36.5,173.5C 37.0454,169.529 38.3787,165.862 40.5,162.5C 41.4287,163.689 41.762,165.022 41.5,166.5C 46.8283,167.148 52.1617,167.315 57.5,167C 53.6756,163.921 49.6756,161.088 45.5,158.5C 44.5,159.167 43.5,159.833 42.5,160.5C 42.1667,159.667 41.8333,158.833 41.5,158C 42.2755,155.178 42.9421,152.344 43.5,149.5C 44.5,149.5 45.5,149.5 46.5,149.5C 46.5,150.833 46.5,152.167 46.5,153.5C 51.8054,154.442 57.1387,154.609 62.5,154C 58.3017,150.97 53.9684,148.137 49.5,145.5C 48.5,146.167 47.5,146.833 46.5,147.5C 46.1667,146.833 45.8333,146.167 45.5,145.5C 46.4669,143.238 47.1336,140.905 47.5,138.5 Z"/></g>
<g><path style="opacity:1" fill="#eef2f1" d="M 379.5,150.5 C 380.5,150.5 381.5,150.5 382.5,150.5C 383.058,153.344 383.725,156.178 384.5,159C 384.167,159.833 383.833,160.667 383.5,161.5C 382.667,160.5 381.833,159.5 381,158.5C 378.651,161.017 376.151,163.35 373.5,165.5C 376.753,166.598 380.086,167.264 383.5,167.5C 383.265,164.188 384.265,163.355 386.5,165C 387.167,167 387.833,169 388.5,171C 388.37,172.059 387.87,172.892 387,173.5C 385.833,172.333 384.667,171.167 383.5,170C 376.789,168.361 370.123,168.361 363.5,170C 362.91,171.509 362.244,173.009 361.5,174.5C 359.204,170.653 358.204,166.653 358.5,162.5C 361.797,165.973 365.464,166.14 369.5,163C 372.965,160.537 376.131,157.704 379,154.5C 379.49,153.207 379.657,151.873 379.5,150.5 Z"/></g>
<g><path style="opacity:1" fill="#70809b" d="M 218.5,185.5 C 218.5,184.167 218.5,182.833 218.5,181.5C 214.5,181.5 210.5,181.5 206.5,181.5C 206.5,182.833 206.5,184.167 206.5,185.5C 205.549,184.081 205.216,182.415 205.5,180.5C 210.167,180.5 214.833,180.5 219.5,180.5C 219.784,182.415 219.451,184.081 218.5,185.5 Z"/></g>
<g><path style="opacity:1" fill="#71819b" d="M 235.5,185.5 C 235.5,184.167 235.5,182.833 235.5,181.5C 231.5,181.5 227.5,181.5 223.5,181.5C 223.5,182.833 223.5,184.167 223.5,185.5C 222.549,184.081 222.216,182.415 222.5,180.5C 227.167,180.5 231.833,180.5 236.5,180.5C 236.784,182.415 236.451,184.081 235.5,185.5 Z"/></g>
<g><path style="opacity:1" fill="#1d2d5b" d="M 172.5,180.5 C 176.833,180.5 181.167,180.5 185.5,180.5C 185.5,182.167 185.5,183.833 185.5,185.5C 181.167,185.5 176.833,185.5 172.5,185.5C 172.5,183.833 172.5,182.167 172.5,180.5 Z"/></g>
<g><path style="opacity:1" fill="#20305d" d="M 189.5,180.5 C 193.833,180.5 198.167,180.5 202.5,180.5C 202.5,182.167 202.5,183.833 202.5,185.5C 198.167,185.5 193.833,185.5 189.5,185.5C 189.5,183.833 189.5,182.167 189.5,180.5 Z"/></g>
<g><path style="opacity:1" fill="#08204f" d="M 218.5,185.5 C 214.5,185.5 210.5,185.5 206.5,185.5C 206.5,184.167 206.5,182.833 206.5,181.5C 210.5,181.5 214.5,181.5 218.5,181.5C 218.5,182.833 218.5,184.167 218.5,185.5 Z"/></g>
<g><path style="opacity:1" fill="#08204f" d="M 235.5,185.5 C 231.5,185.5 227.5,185.5 223.5,185.5C 223.5,184.167 223.5,182.833 223.5,181.5C 227.5,181.5 231.5,181.5 235.5,181.5C 235.5,182.833 235.5,184.167 235.5,185.5 Z"/></g>
<g><path style="opacity:1" fill="#1e2f5c" d="M 239.5,180.5 C 243.833,180.5 248.167,180.5 252.5,180.5C 252.5,182.167 252.5,183.833 252.5,185.5C 248.167,185.5 243.833,185.5 239.5,185.5C 239.5,183.833 239.5,182.167 239.5,180.5 Z"/></g>
<g><path style="opacity:1" fill="#162a58" d="M 166.5,182.5 C 167.649,182.791 168.316,183.624 168.5,185C 166.338,188.104 163.338,190.27 159.5,191.5C 158.167,189.833 158.167,188.167 159.5,186.5C 162.059,185.392 164.392,184.059 166.5,182.5 Z"/></g>
<g><path style="opacity:1" fill="#192c59" d="M 256.5,182.5 C 259.596,183.547 262.596,184.88 265.5,186.5C 266.833,188.167 266.833,189.833 265.5,191.5C 262.833,190.167 260.167,188.833 257.5,187.5C 256.548,185.955 256.215,184.288 256.5,182.5 Z"/></g>
<g><path style="opacity:1" fill="#0c2252" d="M 161.5,222.5 C 162.489,217.025 162.822,211.358 162.5,205.5C 164.5,205.5 166.5,205.5 168.5,205.5C 168.5,211.167 168.5,216.833 168.5,222.5C 170.167,222.5 171.833,222.5 173.5,222.5C 173.5,216.833 173.5,211.167 173.5,205.5C 175.833,205.5 178.167,205.5 180.5,205.5C 180.5,211.167 180.5,216.833 180.5,222.5C 182.167,222.5 183.833,222.5 185.5,222.5C 185.5,216.833 185.5,211.167 185.5,205.5C 187.833,205.5 190.167,205.5 192.5,205.5C 192.5,211.167 192.5,216.833 192.5,222.5C 194.167,222.5 195.833,222.5 197.5,222.5C 197.5,216.833 197.5,211.167 197.5,205.5C 199.833,205.5 202.167,205.5 204.5,205.5C 204.5,211.167 204.5,216.833 204.5,222.5C 206.167,222.5 207.833,222.5 209.5,222.5C 209.5,216.833 209.5,211.167 209.5,205.5C 211.5,205.5 213.5,205.5 215.5,205.5C 215.178,211.358 215.511,217.025 216.5,222.5C 217.833,222.5 219.167,222.5 220.5,222.5C 221.489,217.025 221.822,211.358 221.5,205.5C 223.5,205.5 225.5,205.5 227.5,205.5C 227.5,211.167 227.5,216.833 227.5,222.5C 229.167,222.5 230.833,222.5 232.5,222.5C 232.5,216.833 232.5,211.167 232.5,205.5C 234.833,205.5 237.167,205.5 239.5,205.5C 239.5,211.167 239.5,216.833 239.5,222.5C 241.167,222.5 242.833,222.5 244.5,222.5C 244.5,216.833 244.5,211.167 244.5,205.5C 246.833,205.5 249.167,205.5 251.5,205.5C 251.5,211.167 251.5,216.833 251.5,222.5C 253.167,222.5 254.833,222.5 256.5,222.5C 256.5,216.833 256.5,211.167 256.5,205.5C 258.833,205.5 261.167,205.5 263.5,205.5C 263.5,211.167 263.5,216.833 263.5,222.5C 264.833,222.5 266.167,222.5 267.5,222.5C 267.171,216.794 267.505,211.128 268.5,205.5C 271.251,210.801 273.251,216.468 274.5,222.5C 276.604,222.799 278.604,222.466 280.5,221.5C 278.961,218.254 277.294,215.088 275.5,212C 280.027,213.944 284.861,215.11 290,215.5C 294.219,215.643 298.052,214.476 301.5,212C 309.143,204.534 315.809,196.368 321.5,187.5C 327.405,197.775 335.072,206.608 344.5,214C 352.048,216.429 359.215,215.595 366,211.5C 365.277,218.105 362.11,223.271 356.5,227C 260.5,227.667 164.5,227.667 68.5,227C 63.4056,222.971 60.2389,217.805 59,211.5C 67.0751,216.568 75.2418,216.735 83.5,212C 91.4721,204.367 98.3054,195.867 104,186.5C 109.333,196.832 116.499,205.665 125.5,213C 133.352,216.484 141.019,215.984 148.5,211.5C 148.289,215.147 146.956,218.647 144.5,222C 146.579,222.808 148.579,222.641 150.5,221.5C 152.306,216.08 154.306,210.746 156.5,205.5C 157.495,211.128 157.829,216.794 157.5,222.5C 158.833,222.5 160.167,222.5 161.5,222.5 Z"/></g>
<g><path style="opacity:1" fill="#7c8ca3" d="M 308.5,197.5 C 244.669,196.501 180.669,196.168 116.5,196.5C 147.762,195.83 179.762,195.496 212.5,195.5C 244.833,195.833 277.167,196.167 309.5,196.5C 309.376,197.107 309.043,197.44 308.5,197.5 Z"/></g>
<g><path style="opacity:1" fill="#1a2b59" d="M 116.5,196.5 C 180.669,196.168 244.669,196.501 308.5,197.5C 307.636,198.688 306.636,199.855 305.5,201C 243.5,201.667 181.5,201.667 119.5,201C 118.614,199.385 117.614,197.885 116.5,196.5 Z"/></g>
<g><path style="opacity:1" fill="#8e9aaf" d="M 133.5,205.5 C 131.5,205.5 129.5,205.5 127.5,205.5C 127.5,206.5 127.5,207.5 127.5,208.5C 126.566,207.432 126.232,206.099 126.5,204.5C 129.059,204.198 131.393,204.532 133.5,205.5 Z"/></g>
<g><path style="opacity:1" fill="#0c2252" d="M 133.5,205.5 C 133.5,206.833 133.5,208.167 133.5,209.5C 131.379,209.675 129.379,209.341 127.5,208.5C 127.5,207.5 127.5,206.5 127.5,205.5C 129.5,205.5 131.5,205.5 133.5,205.5 Z"/></g>
<g><path style="opacity:1" fill="#0b2251" d="M 138.5,205.5 C 140.833,205.5 143.167,205.5 145.5,205.5C 145.5,206.5 145.5,207.5 145.5,208.5C 143.194,208.993 140.861,209.326 138.5,209.5C 138.5,208.167 138.5,206.833 138.5,205.5 Z"/></g>
<g><path style="opacity:1" fill="#647692" d="M 168.5,205.5 C 166.5,205.5 164.5,205.5 162.5,205.5C 162.822,211.358 162.489,217.025 161.5,222.5C 161.5,216.5 161.5,210.5 161.5,204.5C 164.059,204.198 166.393,204.532 168.5,205.5 Z"/></g>
<g><path style="opacity:1" fill="#7888a0" d="M 209.5,205.5 C 211.607,204.532 213.941,204.198 216.5,204.5C 216.5,210.5 216.5,216.5 216.5,222.5C 215.511,217.025 215.178,211.358 215.5,205.5C 213.5,205.5 211.5,205.5 209.5,205.5 Z"/></g>
<g><path style="opacity:1" fill="#687994" d="M 227.5,205.5 C 225.5,205.5 223.5,205.5 221.5,205.5C 221.822,211.358 221.489,217.025 220.5,222.5C 220.5,216.5 220.5,210.5 220.5,204.5C 223.059,204.198 225.393,204.532 227.5,205.5 Z"/></g>
<g><path style="opacity:1" fill="#122655" d="M 279.5,205.5 C 281.833,205.5 284.167,205.5 286.5,205.5C 286.5,206.833 286.5,208.167 286.5,209.5C 284.409,209.682 282.409,209.348 280.5,208.5C 279.614,207.675 279.281,206.675 279.5,205.5 Z"/></g>
<g><path style="opacity:1" fill="#182a58" d="M 291.5,205.5 C 293.833,205.5 296.167,205.5 298.5,205.5C 297.539,208.835 295.206,210.501 291.5,210.5C 291.5,208.833 291.5,207.167 291.5,205.5 Z"/></g>
<g><path style="opacity:1" fill="#0d2353" d="M 281.5,233.5 C 281.5,247.833 281.5,262.167 281.5,276.5C 235.5,276.5 189.5,276.5 143.5,276.5C 143.5,262.167 143.5,247.833 143.5,233.5C 165.167,233.5 186.833,233.5 208.5,233.5C 208.5,232.5 208.5,231.5 208.5,230.5C 211.167,230.5 213.833,230.5 216.5,230.5C 216.5,231.5 216.5,232.5 216.5,233.5C 238.167,233.5 259.833,233.5 281.5,233.5 Z"/></g>
<g><path style="opacity:1" fill="#b7bfcc" d="M 281.5,233.5 C 259.833,233.5 238.167,233.5 216.5,233.5C 216.5,232.5 216.5,231.5 216.5,230.5C 213.833,230.5 211.167,230.5 208.5,230.5C 208.5,231.5 208.5,232.5 208.5,233.5C 186.833,233.5 165.167,233.5 143.5,233.5C 164.66,232.503 185.993,232.169 207.5,232.5C 207.5,231.5 207.5,230.5 207.5,229.5C 210.833,229.5 214.167,229.5 217.5,229.5C 217.5,230.5 217.5,231.5 217.5,232.5C 239.007,232.169 260.34,232.503 281.5,233.5 Z"/></g>
<g><path style="opacity:1" fill="#092050" d="M 72.5,233.5 C 93.5,233.5 114.5,233.5 135.5,233.5C 135.5,253.833 135.5,274.167 135.5,294.5C 114.5,294.5 93.5,294.5 72.5,294.5C 72.5,274.167 72.5,253.833 72.5,233.5 Z"/></g>
<g><path style="opacity:1" fill="#0a2151" d="M 289.5,233.5 C 310.5,233.5 331.5,233.5 352.5,233.5C 352.5,253.833 352.5,274.167 352.5,294.5C 331.5,294.5 310.5,294.5 289.5,294.5C 289.5,274.167 289.5,253.833 289.5,233.5 Z"/></g>
<g><path style="opacity:1" fill="#e4e7ec" d="M 183.5,238.5 C 184.833,238.5 186.167,238.5 187.5,238.5C 187.5,239.833 187.5,241.167 187.5,242.5C 186.167,242.5 184.833,242.5 183.5,242.5C 183.5,241.167 183.5,239.833 183.5,238.5 Z"/></g>
<g><path style="opacity:1" fill="#f1f2f5" d="M 217.5,238.5 C 223.167,238.5 228.833,238.5 234.5,238.5C 234.5,239.833 234.5,241.167 234.5,242.5C 228.833,242.5 223.167,242.5 217.5,242.5C 217.5,241.167 217.5,239.833 217.5,238.5 Z"/></g>
<g><path style="opacity:1" fill="#5e708e" d="M 238.5,238.5 C 238.5,239.5 238.5,240.5 238.5,241.5C 239.5,241.5 240.5,241.5 241.5,241.5C 241.5,240.5 241.5,239.5 241.5,238.5C 242.434,239.568 242.768,240.901 242.5,242.5C 240.833,242.5 239.167,242.5 237.5,242.5C 237.232,240.901 237.566,239.568 238.5,238.5 Z"/></g>
<g><path style="opacity:1" fill="#fefefe" d="M 238.5,238.5 C 239.5,238.5 240.5,238.5 241.5,238.5C 241.5,239.5 241.5,240.5 241.5,241.5C 240.5,241.5 239.5,241.5 238.5,241.5C 238.5,240.5 238.5,239.5 238.5,238.5 Z"/></g>
<g><path style="opacity:1" fill="#b5becb" d="M 156.5,238.5 C 156.5,239.5 156.5,240.5 156.5,241.5C 164.167,241.5 171.833,241.5 179.5,241.5C 179.5,240.5 179.5,239.5 179.5,238.5C 180.434,239.568 180.768,240.901 180.5,242.5C 172.167,242.5 163.833,242.5 155.5,242.5C 155.232,240.901 155.566,239.568 156.5,238.5 Z"/></g>
<g><path style="opacity:1" fill="#fefefe" d="M 156.5,238.5 C 164.167,238.5 171.833,238.5 179.5,238.5C 179.5,239.5 179.5,240.5 179.5,241.5C 171.833,241.5 164.167,241.5 156.5,241.5C 156.5,240.5 156.5,239.5 156.5,238.5 Z"/></g>
<g><path style="opacity:1" fill="#a6b1c1" d="M 191.5,238.5 C 191.5,239.5 191.5,240.5 191.5,241.5C 196.833,241.5 202.167,241.5 207.5,241.5C 207.5,240.5 207.5,239.5 207.5,238.5C 208.434,239.568 208.768,240.901 208.5,242.5C 202.5,242.5 196.5,242.5 190.5,242.5C 190.232,240.901 190.566,239.568 191.5,238.5 Z"/></g>
<g><path style="opacity:1" fill="#fefefe" d="M 191.5,238.5 C 196.833,238.5 202.167,238.5 207.5,238.5C 207.5,239.5 207.5,240.5 207.5,241.5C 202.167,241.5 196.833,241.5 191.5,241.5C 191.5,240.5 191.5,239.5 191.5,238.5 Z"/></g>
<g><path style="opacity:1" fill="#b5beca" d="M 245.5,238.5 C 245.5,239.5 245.5,240.5 245.5,241.5C 253.167,241.5 260.833,241.5 268.5,241.5C 268.5,240.5 268.5,239.5 268.5,238.5C 269.434,239.568 269.768,240.901 269.5,242.5C 261.167,242.5 252.833,242.5 244.5,242.5C 244.232,240.901 244.566,239.568 245.5,238.5 Z"/></g>
<g><path style="opacity:1" fill="#fefefe" d="M 245.5,238.5 C 253.167,238.5 260.833,238.5 268.5,238.5C 268.5,239.5 268.5,240.5 268.5,241.5C 260.833,241.5 253.167,241.5 245.5,241.5C 245.5,240.5 245.5,239.5 245.5,238.5 Z"/></g>
<g><path style="opacity:1" fill="#fefffe" d="M 84.5,246.5 C 87.5,246.5 90.5,246.5 93.5,246.5C 93.5,249.5 93.5,252.5 93.5,255.5C 93.5,252.5 93.5,249.5 93.5,246.5C 90.5,246.5 87.5,246.5 84.5,246.5 Z"/></g>
<g><path style="opacity:1" fill="#b1bbc7" d="M 84.5,246.5 C 87.6248,245.521 90.9581,245.187 94.5,245.5C 94.8128,249.042 94.4794,252.375 93.5,255.5C 93.5,252.5 93.5,249.5 93.5,246.5C 90.5,246.5 87.5,246.5 84.5,246.5 Z"/></g>
<g><path style="opacity:1" fill="#acb5c4" d="M 108.5,246.5 C 105.5,246.5 102.5,246.5 99.5,246.5C 99.5,249.5 99.5,252.5 99.5,255.5C 98.5206,252.375 98.1872,249.042 98.5,245.5C 102.042,245.187 105.375,245.521 108.5,246.5 Z"/></g>
<g><path style="opacity:1" fill="#fefefe" d="M 108.5,246.5 C 108.5,249.5 108.5,252.5 108.5,255.5C 105.5,255.5 102.5,255.5 99.5,255.5C 99.5,252.5 99.5,249.5 99.5,246.5C 102.5,246.5 105.5,246.5 108.5,246.5 Z"/></g>
<g><path style="opacity:1" fill="#f7f7f9" d="M 113.5,245.5 C 116.833,245.5 120.167,245.5 123.5,245.5C 123.5,248.833 123.5,252.167 123.5,255.5C 120.167,255.5 116.833,255.5 113.5,255.5C 113.5,252.167 113.5,248.833 113.5,245.5 Z"/></g>
<g><path style="opacity:1" fill="#e6e9ed" d="M 148.5,245.5 C 149.833,245.5 151.167,245.5 152.5,245.5C 152.5,254.5 152.5,263.5 152.5,272.5C 151.167,272.5 149.833,272.5 148.5,272.5C 148.5,263.5 148.5,254.5 148.5,245.5 Z"/></g>
<g><path style="opacity:1" fill="#fafafb" d="M 160.5,245.5 C 165.844,245.334 171.177,245.501 176.5,246C 177.579,246.956 178.745,247.789 180,248.5C 180.5,256.493 180.666,264.493 180.5,272.5C 172.5,272.5 164.5,272.5 156.5,272.5C 156.334,264.493 156.5,256.493 157,248.5C 158.145,247.364 159.312,246.364 160.5,245.5 Z"/></g>
<g><path style="opacity:1" fill="#e1e5ea" d="M 183.5,245.5 C 184.833,245.5 186.167,245.5 187.5,245.5C 187.5,254.5 187.5,263.5 187.5,272.5C 186.167,272.5 184.833,272.5 183.5,272.5C 183.5,263.5 183.5,254.5 183.5,245.5 Z"/></g>
<g><path style="opacity:1" fill="#f8f8f9" d="M 194.5,245.5 C 206.171,245.333 217.838,245.5 229.5,246C 230.833,246.667 232.167,247.333 233.5,248C 234.482,256.081 234.816,264.248 234.5,272.5C 231.167,272.5 227.833,272.5 224.5,272.5C 224.5,265.833 224.5,259.167 224.5,252.5C 216.5,252.5 208.5,252.5 200.5,252.5C 200.5,259.167 200.5,265.833 200.5,272.5C 197.167,272.5 193.833,272.5 190.5,272.5C 190.169,264.472 190.502,256.472 191.5,248.5C 192.855,247.812 193.855,246.812 194.5,245.5 Z"/></g>
<g><path style="opacity:1" fill="#e6e9ee" d="M 237.5,245.5 C 238.833,245.5 240.167,245.5 241.5,245.5C 241.5,254.5 241.5,263.5 241.5,272.5C 240.167,272.5 238.833,272.5 237.5,272.5C 237.5,263.5 237.5,254.5 237.5,245.5 Z"/></g>
<g><path style="opacity:1" fill="#fdfdfe" d="M 268.5,248.5 C 268.5,256.167 268.5,263.833 268.5,271.5C 260.833,271.5 253.167,271.5 245.5,271.5C 245.5,263.833 245.5,256.167 245.5,248.5C 248.853,246.027 252.686,245.027 257,245.5C 261.314,245.027 265.147,246.027 268.5,248.5 Z"/></g>
<g><path style="opacity:1" fill="#f2f3f5" d="M 272.5,245.5 C 273.833,245.5 275.167,245.5 276.5,245.5C 276.5,254.5 276.5,263.5 276.5,272.5C 275.167,272.5 273.833,272.5 272.5,272.5C 272.5,263.5 272.5,254.5 272.5,245.5 Z"/></g>
<g><path style="opacity:1" fill="#f3f4f6" d="M 301.5,245.5 C 304.833,245.5 308.167,245.5 311.5,245.5C 311.5,248.833 311.5,252.167 311.5,255.5C 308.167,255.5 304.833,255.5 301.5,255.5C 301.5,252.167 301.5,248.833 301.5,245.5 Z"/></g>
<g><path style="opacity:1" fill="#f4f6f8" d="M 316.5,245.5 C 319.833,245.5 323.167,245.5 326.5,245.5C 326.5,248.833 326.5,252.167 326.5,255.5C 323.167,255.5 319.833,255.5 316.5,255.5C 316.5,252.167 316.5,248.833 316.5,245.5 Z"/></g>
<g><path style="opacity:1" fill="#8795aa" d="M 340.5,255.5 C 340.5,252.5 340.5,249.5 340.5,246.5C 337.5,246.5 334.5,246.5 331.5,246.5C 331.5,249.5 331.5,252.5 331.5,255.5C 330.521,252.375 330.187,249.042 330.5,245.5C 334.167,245.5 337.833,245.5 341.5,245.5C 341.813,249.042 341.479,252.375 340.5,255.5 Z"/></g>
<g><path style="opacity:1" fill="#fefefe" d="M 340.5,255.5 C 337.5,255.5 334.5,255.5 331.5,255.5C 331.5,252.5 331.5,249.5 331.5,246.5C 334.5,246.5 337.5,246.5 340.5,246.5C 340.5,249.5 340.5,252.5 340.5,255.5 Z"/></g>
<g><path style="opacity:1" fill="#e9ebef" d="M 221.5,256.5 C 215.69,255.51 209.69,255.177 203.5,255.5C 203.5,261.167 203.5,266.833 203.5,272.5C 202.51,266.69 202.177,260.69 202.5,254.5C 209.5,254.5 216.5,254.5 223.5,254.5C 223.829,260.537 223.496,266.537 222.5,272.5C 221.505,267.208 221.172,261.875 221.5,256.5 Z"/></g>
<g><path style="opacity:1" fill="#7888a0" d="M 221.5,256.5 C 215.833,256.5 210.167,256.5 204.5,256.5C 204.821,262.026 204.488,267.36 203.5,272.5C 203.5,266.833 203.5,261.167 203.5,255.5C 209.69,255.177 215.69,255.51 221.5,256.5 Z"/></g>
<g><path style="opacity:1" fill="#b8c0cc" d="M 245.5,248.5 C 245.5,256.167 245.5,263.833 245.5,271.5C 253.167,271.5 260.833,271.5 268.5,271.5C 268.5,263.833 268.5,256.167 268.5,248.5C 269.492,256.316 269.826,264.316 269.5,272.5C 261.167,272.5 252.833,272.5 244.5,272.5C 244.174,264.316 244.508,256.316 245.5,248.5 Z"/></g>
<g><path style="opacity:1" fill="#21315e" d="M 276.5,281.5 C 233.833,282.833 191.167,282.833 148.5,281.5C 169.489,280.167 190.823,279.5 212.5,279.5C 234.177,279.5 255.511,280.167 276.5,281.5 Z"/></g>
<g><path style="opacity:1" fill="#8c9aad" d="M 148.5,281.5 C 191.167,282.833 233.833,282.833 276.5,281.5C 277.043,281.56 277.376,281.893 277.5,282.5C 234.167,283.833 190.833,283.833 147.5,282.5C 147.624,281.893 147.957,281.56 148.5,281.5 Z"/></g>
<g><path style="opacity:1" fill="#172b59" d="M 278.5,287.5 C 234.5,288.833 190.5,288.833 146.5,287.5C 168.156,286.167 190.156,285.5 212.5,285.5C 234.844,285.5 256.844,286.167 278.5,287.5 Z"/></g>
<g><path style="opacity:1" fill="#aeb7c6" d="M 146.5,287.5 C 190.5,288.833 234.5,288.833 278.5,287.5C 279.043,287.56 279.376,287.893 279.5,288.5C 234.833,289.833 190.167,289.833 145.5,288.5C 145.624,287.893 145.957,287.56 146.5,287.5 Z"/></g>
<g><path style="opacity:1" fill="#16305d" d="M 280.5,292.5 C 235.095,292.172 189.761,292.505 144.5,293.5C 166.823,292.167 189.49,291.5 212.5,291.5C 235.336,291.5 258.002,291.833 280.5,292.5 Z"/></g>
<g><path style="opacity:1" fill="#08204f" d="M 280.5,292.5 C 280.5,292.833 280.5,293.167 280.5,293.5C 235.167,294.833 189.833,294.833 144.5,293.5C 189.761,292.505 235.095,292.172 280.5,292.5 Z"/></g>
<g><path style="opacity:1" fill="#cfd3dc" d="M 144.5,293.5 C 189.833,294.833 235.167,294.833 280.5,293.5C 281.043,293.56 281.376,293.893 281.5,294.5C 235.5,295.833 189.5,295.833 143.5,294.5C 143.624,293.893 143.957,293.56 144.5,293.5 Z"/></g>
<g><path style="opacity:1" fill="#8a99ac" d="M 365.5,300.5 C 263.5,299.167 161.5,299.167 59.5,300.5C 58.9569,300.44 58.6236,300.107 58.5,299.5C 161.167,298.167 263.833,298.167 366.5,299.5C 366.376,300.107 366.043,300.44 365.5,300.5 Z"/></g>
<g><path style="opacity:1" fill="#082050" d="M 59.5,300.5 C 161.5,299.167 263.5,299.167 365.5,300.5C 364.521,302.145 363.188,303.479 361.5,304.5C 262.502,305.667 163.502,305.833 64.5,305C 62.9625,303.293 61.2959,301.793 59.5,300.5 Z"/></g>
<g><path style="opacity:1" fill="#162857" d="M 67.5,308.5 C 163.999,307.334 260.666,307.168 357.5,308C 355.99,310.009 354.323,311.842 352.5,313.5C 259.167,314.833 165.833,314.833 72.5,313.5C 71.1455,311.479 69.4788,309.812 67.5,308.5 Z"/></g>
<g><path style="opacity:1" fill="#275641" d="M 172.5,322.5 C 173.5,322.5 174.5,322.5 175.5,322.5C 175.179,327.695 175.513,332.695 176.5,337.5C 174.581,338.834 173.581,338.834 173.5,337.5C 173.666,333.154 173.499,328.821 173,324.5C 170.335,323.526 170.169,322.859 172.5,322.5 Z"/></g>
<g><path style="opacity:1" fill="#315e4a" d="M 251.5,330.5 C 250.127,330.657 248.793,330.49 247.5,330C 252.804,328.584 253.638,326.084 250,322.5C 248.469,323.217 247.136,324.217 246,325.5C 244.174,324.99 244.007,324.156 245.5,323C 251.154,319.95 253.987,321.45 254,327.5C 252.955,328.373 252.122,329.373 251.5,330.5 Z"/></g>
<g><path style="opacity:1" fill="#376350" d="M 221.5,321.5 C 229.752,321.647 232.252,325.647 229,333.5C 227.578,335.638 225.745,336.805 223.5,337C 225.607,335.736 226.607,333.903 226.5,331.5C 219.935,332.578 217.768,329.911 220,323.5C 220.717,322.956 221.217,322.289 221.5,321.5 Z"/></g>
<g><path style="opacity:1" fill="#f2f5f4" d="M 223.5,322.5 C 224.675,322.281 225.675,322.614 226.5,323.5C 227.374,325.747 227.708,328.08 227.5,330.5C 221.216,330.496 219.882,327.829 223.5,322.5 Z"/></g>
<g><path style="opacity:1" fill="#8ba79e" d="M 172.5,322.5 C 173.568,321.566 174.901,321.232 176.5,321.5C 176.5,326.833 176.5,332.167 176.5,337.5C 175.513,332.695 175.179,327.695 175.5,322.5C 174.5,322.5 173.5,322.5 172.5,322.5 Z"/></g>
<g><path style="opacity:1" fill="#3f6957" d="M 196.5,321.5 C 203.664,320.642 205.664,323.309 202.5,329.5C 206.52,337.644 204.187,340.478 195.5,338C 194.074,335.289 194.408,332.789 196.5,330.5C 193.951,327.389 193.951,324.389 196.5,321.5 Z"/></g>
<g><path style="opacity:1" fill="#edf2f0" d="M 197.5,322.5 C 198.833,322.5 200.167,322.5 201.5,322.5C 201.5,324.5 201.5,326.5 201.5,328.5C 197.262,328.28 195.928,326.28 197.5,322.5 Z"/></g>
<g><path style="opacity:1" fill="#f9fafa" d="M 197.5,331.5 C 201.485,331.629 202.818,333.463 201.5,337C 196.728,337.81 195.395,335.977 197.5,331.5 Z"/></g>
<g><path style="opacity:1" fill="#4e7664" d="M 251.5,330.5 C 256.815,333.145 256.815,335.978 251.5,339C 246.786,340.423 244.786,338.923 245.5,334.5C 251.371,339.191 253.371,337.858 251.5,330.5 Z"/></g>
<g><path style="opacity:1" fill="#eff3f1" d="M 286.5,347.5 C 288.39,347.297 289.89,347.963 291,349.5C 293,346.833 295,346.833 297,349.5C 295.711,352.568 294.878,355.901 294.5,359.5C 295.833,359.5 297.167,359.5 298.5,359.5C 298.6,362.667 297.933,365.667 296.5,368.5C 296.833,369.5 297.5,370.167 298.5,370.5C 302.614,366.338 303.28,366.838 300.5,372C 302.487,374.476 303.487,377.31 303.5,380.5C 301.401,381.231 299.401,381.231 297.5,380.5C 299.957,378.668 299.957,377.001 297.5,375.5C 296.218,377.179 295.218,379.013 294.5,381C 293.517,381.591 292.85,381.257 292.5,380C 293.897,378.039 294.897,375.872 295.5,373.5C 294.727,370.429 294.393,367.429 294.5,364.5C 292.076,369.016 289.91,373.683 288,378.5C 286.186,379.76 284.353,379.76 282.5,378.5C 285.94,375.393 288.607,371.727 290.5,367.5C 289.675,366.614 288.675,366.281 287.5,366.5C 285.992,363.86 286.326,361.527 288.5,359.5C 287.675,358.614 286.675,358.281 285.5,358.5C 285.579,357.07 285.246,355.736 284.5,354.5C 286.171,352.49 286.838,350.157 286.5,347.5 Z"/></g>
<g><path style="opacity:1" fill="#eaefed" d="M 147.5,348.5 C 149.595,348.76 150.928,349.926 151.5,352C 149.316,355.361 147.316,358.861 145.5,362.5C 149.403,364.283 149.07,365.45 144.5,366C 142.544,369.595 142.044,373.428 143,377.5C 144.252,375.999 145.252,374.332 146,372.5C 145.971,377.892 143.804,382.225 139.5,385.5C 138.676,382.215 138.176,378.882 138,375.5C 137.586,375.043 137.086,374.709 136.5,374.5C 130.075,377.202 123.408,378.036 116.5,377C 114.579,375.759 114.246,374.259 115.5,372.5C 121.372,374.801 127.372,374.968 133.5,373C 135.559,371.815 135.726,370.648 134,369.5C 132.433,370.856 130.6,371.523 128.5,371.5C 129.167,369.167 129.833,366.833 130.5,364.5C 128.143,364.663 125.81,364.497 123.5,364C 121.74,363.035 121.406,361.868 122.5,360.5C 129.442,361.464 136.442,361.797 143.5,361.5C 144.829,357.178 146.163,352.845 147.5,348.5 Z"/></g>
<g><path style="opacity:1" fill="#ecf1ef" d="M 134.5,356.5 C 137.167,356.5 139.833,356.5 142.5,356.5C 142.5,357.833 142.5,359.167 142.5,360.5C 140.143,360.663 137.81,360.497 135.5,360C 134.663,358.989 134.33,357.822 134.5,356.5 Z"/></g>
<g><path style="opacity:1" fill="#dfe7e4" d="M 152.5,358.5 C 154.722,358.559 155.722,359.725 155.5,362C 155.576,364.756 154.243,365.923 151.5,365.5C 151.993,363.194 152.326,360.861 152.5,358.5 Z"/></g>
<g><path style="opacity:1" fill="#f2f5f4" d="M 280.5,362.5 C 281.822,362.33 282.989,362.663 284,363.5C 284.914,374.141 283.414,374.808 279.5,365.5C 280.127,364.583 280.461,363.583 280.5,362.5 Z"/></g>
<g><path style="opacity:1" fill="#e9eeec" d="M 199.5,385.5 C 202.166,385.066 203.333,386.066 203,388.5C 201.055,389.863 198.888,390.697 196.5,391C 195.289,393.9 193.289,395.566 190.5,396C 193.064,394.149 193.064,392.316 190.5,390.5C 191.325,389.614 192.325,389.281 193.5,389.5C 193.649,388.448 193.483,387.448 193,386.5C 191.644,387.38 190.144,387.714 188.5,387.5C 190.445,384.515 191.445,381.182 191.5,377.5C 190.448,377.649 189.448,377.483 188.5,377C 187.167,376.333 187.167,375.667 188.5,375C 192.018,374.585 194.351,372.752 195.5,369.5C 197.102,370.55 197.935,369.883 198,367.5C 199.011,368.337 200.178,368.67 201.5,368.5C 201.5,367.167 201.5,365.833 201.5,364.5C 202.5,364.5 203.5,364.5 204.5,364.5C 204.657,365.873 204.49,367.207 204,368.5C 202.286,370.043 200.786,371.71 199.5,373.5C 200.249,375.036 201.249,376.369 202.5,377.5C 201.004,379.973 200.004,382.64 199.5,385.5 Z"/></g>
<g><path style="opacity:1" fill="#3d6855" d="M 133.5,364.5 C 134.5,364.5 135.5,364.5 136.5,364.5C 136.5,365.5 136.5,366.5 136.5,367.5C 135.5,367.5 134.5,367.5 133.5,367.5C 133.5,366.5 133.5,365.5 133.5,364.5 Z"/></g>
<g><path style="opacity:1" fill="#eff3f1" d="M 182.5,364.5 C 184.026,365.492 184.693,366.992 184.5,369C 184.742,371.348 183.908,373.182 182,374.5C 181.828,371.174 181.995,367.841 182.5,364.5 Z"/></g>
<g><path style="opacity:1" fill="#3e6957" d="M 138.5,365.5 C 140.97,366.36 141.137,367.694 139,369.5C 138.51,368.207 138.343,366.873 138.5,365.5 Z"/></g>
<g><path style="opacity:1" fill="#ebf0ee" d="M 125.5,367.5 C 126.434,368.568 126.768,369.901 126.5,371.5C 120.206,371.48 119.873,370.146 125.5,367.5 Z"/></g>
<g><path style="opacity:1" fill="#e9efec" d="M 242.5,370.5 C 244.195,371.011 245.861,371.678 247.5,372.5C 246.477,374.895 247.477,375.895 250.5,375.5C 250.415,377.929 249.415,379.929 247.5,381.5C 251.747,381.442 254.08,383.442 254.5,387.5C 252.046,387.679 249.879,387.013 248,385.5C 245.929,386.775 244.429,388.609 243.5,391C 242.365,391.749 241.365,391.583 240.5,390.5C 241.833,388.167 243.167,385.833 244.5,383.5C 244.167,383.167 243.833,382.833 243.5,382.5C 242.167,383.5 240.833,384.5 239.5,385.5C 239.167,385 238.833,384.5 238.5,384C 240.21,382.389 242.043,380.889 244,379.5C 243.855,376.486 243.355,373.486 242.5,370.5 Z"/></g>
<g><path style="opacity:1" fill="#f0f3f2" d="M 180.5,377.5 C 185.721,378.922 186.554,381.589 183,385.5C 181.794,389.45 180.794,393.45 180,397.5C 178.222,400.132 176.722,399.965 175.5,397C 177.738,390.641 179.405,384.141 180.5,377.5 Z"/></g>
<g><path style="opacity:1" fill="#3f6c5a" d="M 199.5,385.5 C 199.539,386.756 199.039,387.756 198,388.5C 197.415,387.002 197.915,386.002 199.5,385.5 Z"/></g>
<g><path style="opacity:1" fill="#ecf0ef" d="M 198.5,392.5 C 200.384,393.382 201.717,394.882 202.5,397C 200.973,398.632 199.307,398.799 197.5,397.5C 198.309,395.929 198.643,394.262 198.5,392.5 Z"/></g>
<g><path style="opacity:1" fill="#212122" d="M 257.5,433.5 C 256.833,433.5 256.167,433.5 255.5,433.5C 255.389,432.883 255.056,432.383 254.5,432C 256.157,431.275 257.157,431.775 257.5,433.5 Z"/></g>
<g><path style="opacity:1" fill="#141414" d="M 151.5,433.5 C 150.833,433.5 150.167,433.5 149.5,433.5C 150.167,430.833 150.833,430.833 151.5,433.5 Z"/></g>
<g><path style="opacity:1" fill="#282828" d="M 155.5,433.5 C 154.833,433.5 154.167,433.5 153.5,433.5C 154.167,430.833 154.833,430.833 155.5,433.5 Z"/></g>
<g><path style="opacity:1" fill="#151515" d="M 200.5,433.5 C 199.833,433.5 199.167,433.5 198.5,433.5C 199.167,430.833 199.833,430.833 200.5,433.5 Z"/></g>
<g><path style="opacity:1" fill="#2a2a2a" d="M 226.5,433.5 C 225.5,433.5 224.5,433.5 223.5,433.5C 224.26,431.015 225.26,431.015 226.5,433.5 Z"/></g>
<g><path style="opacity:1" fill="#181818" d="M 234.5,433.5 C 233.833,433.5 233.167,433.5 232.5,433.5C 233.167,430.833 233.833,430.833 234.5,433.5 Z"/></g>
<g><path style="opacity:1" fill="#141414" d="M 246.5,433.5 C 245.833,433.5 245.167,433.5 244.5,433.5C 245.167,430.833 245.833,430.833 246.5,433.5 Z"/></g>
<g><path style="opacity:1" fill="#434345" d="M 273.5,433.5 C 272.5,433.5 271.5,433.5 270.5,433.5C 271.74,431.015 272.74,431.015 273.5,433.5 Z"/></g>
<g><path style="opacity:1" fill="#272727" d="M 279.5,433.5 C 278.833,433.5 278.167,433.5 277.5,433.5C 278.167,430.833 278.833,430.833 279.5,433.5 Z"/></g>
<g><path style="opacity:1" fill="#1e1e1e" d="M 286.5,433.5 C 285.833,433.5 285.167,433.5 284.5,433.5C 285.167,430.833 285.833,430.833 286.5,433.5 Z"/></g>
</svg>
