<?xml version="1.0" standalone="no"?>
<!DOCTYPE svg PUBLIC "-//W3C//DTD SVG 20010904//EN"
 "http://www.w3.org/TR/2001/REC-SVG-20010904/DTD/svg10.dtd">
<svg version="1.0" xmlns="http://www.w3.org/2000/svg"
 width="436.000000pt" height="434.000000pt" viewBox="0 0 436.000000 434.000000"
 preserveAspectRatio="xMidYMid meet">

<g transform="translate(0.000000,434.000000) scale(0.100000,-0.100000)"
fill="#000000" stroke="none">
<path d="M1930 4279 c-634 -65 -1198 -405 -1555 -939 -31 -47 -87 -147 -124
-222 -364 -731 -266 -1612 252 -2253 83 -102 249 -263 355 -344 419 -318 953
-470 1468 -420 424 41 809 200 1139 470 86 70 253 241 322 329 139 179 261
408 333 629 146 447 146 880 -1 1325 -248 746 -900 1295 -1679 1411 -133 19
-387 27 -510 14z m425 -89 c831 -95 1520 -697 1726 -1506 80 -317 80 -679 -1
-990 -200 -775 -812 -1339 -1615 -1491 -127 -24 -455 -29 -598 -9 -1104 154
-1873 1155 -1732 2253 87 671 509 1257 1120 1553 197 96 392 155 606 184 125
17 370 20 494 6z"/>
<path d="M1877 4125 c-419 -58 -792 -237 -1091 -525 -335 -323 -532 -710 -591
-1163 -126 -969 499 -1892 1448 -2136 669 -173 1378 21 1867 509 369 370 569
853 570 1377 1 985 -726 1812 -1703 1938 -141 18 -365 18 -500 0z m242 -125
c10 -5 42 -45 71 -90 29 -44 54 -80 56 -80 2 0 4 31 4 69 0 61 -2 69 -21 74
-37 10 -10 27 42 27 37 0 49 -4 49 -15 0 -8 -6 -15 -14 -15 -18 0 -26 -45 -26
-156 0 -69 -3 -94 -12 -94 -7 0 -43 46 -80 103 l-68 102 0 -82 c0 -67 3 -83
15 -83 8 0 15 -7 15 -15 0 -11 -12 -15 -50 -15 -38 0 -50 4 -50 15 0 8 6 15
14 15 27 0 37 188 11 210 -36 30 0 54 44 30z m-149 -11 c0 -7 -6 -17 -14 -23
-12 -9 -12 -23 -1 -90 20 -125 -5 -176 -88 -176 -53 0 -82 32 -96 106 -7 32
-14 71 -17 87 -3 15 -14 32 -25 37 -30 17 -23 28 24 35 23 3 50 9 60 11 22 7
23 -22 1 -34 -14 -8 -15 -17 -4 -83 6 -41 18 -84 26 -96 16 -26 51 -30 79 -9
16 11 17 22 12 90 -7 83 -19 116 -42 116 -30 0 -15 29 18 33 61 7 67 7 67 -4z
m542 -25 c13 -8 9 -24 -6 -24 -22 0 -28 -16 -47 -113 -14 -74 -14 -91 -3 -102
13 -13 19 -35 9 -35 -2 0 -27 5 -55 11 -50 11 -67 32 -32 41 14 4 22 25 35
100 21 114 20 108 2 108 -8 0 -15 7 -15 16 0 14 8 16 52 10 28 -4 55 -9 60
-12z m193 -54 c2 0 2 -7 -1 -15 -4 -10 -13 -13 -25 -10 -18 6 -19 0 -19 -82
l1 -88 24 30 c14 17 38 49 55 71 26 36 28 43 13 48 -11 5 -13 10 -6 17 7 7 23
7 52 -2 44 -13 56 -39 19 -39 -17 -1 -42 -26 -97 -100 -40 -55 -79 -100 -87
-100 -11 0 -14 25 -14 127 0 102 -3 130 -16 144 -28 31 -7 40 47 19 27 -11 52
-20 54 -20z m-1215 -38 c0 -4 -5 -13 -11 -19 -7 -7 5 -42 40 -118 28 -59 48
-111 45 -117 -3 -5 -30 5 -60 22 -30 16 -79 44 -109 61 l-55 31 34 -74 c27
-59 37 -72 54 -70 37 5 33 -17 -7 -38 -54 -27 -65 -26 -56 7 9 39 -59 191 -88
195 -33 5 -31 24 4 38 27 12 36 11 59 -2 15 -8 57 -32 94 -53 l67 -37 -26 58
c-30 69 -29 66 -56 68 -37 2 -32 22 8 39 44 17 63 20 63 9z m1515 -93 c41 -22
77 -44 80 -49 7 -12 -28 -71 -40 -67 -5 2 -10 17 -10 32 0 21 -8 33 -30 46
l-30 18 -22 -40 c-19 -35 -20 -41 -6 -46 9 -3 23 -1 33 5 33 20 40 -2 14 -46
-29 -49 -41 -53 -46 -15 -5 41 -30 39 -55 -5 l-22 -39 29 -16 c36 -21 56 -21
68 -1 10 18 32 11 32 -9 0 -7 -9 -23 -19 -36 l-18 -24 -87 47 c-82 45 -112 79
-64 73 31 -3 110 134 104 181 -3 17 0 32 5 32 6 0 43 -18 84 -41z m-1824 -175
c50 -37 104 -70 120 -73 41 -8 39 -20 -9 -54 -41 -30 -75 -30 -50 0 10 12 9
18 -7 29 -24 18 -25 18 -57 -9 -33 -27 -30 -70 5 -65 34 5 28 -16 -13 -45 -39
-28 -59 -23 -42 10 7 13 -1 51 -28 135 -26 82 -34 120 -27 127 6 6 13 11 14
11 2 0 44 -30 94 -66z m2068 8 c43 -41 61 -65 61 -83 0 -34 -34 -69 -68 -69
-22 0 -28 -5 -30 -26 -1 -14 -7 -34 -13 -45 -6 -12 -8 -31 -5 -44 8 -31 -5
-38 -32 -19 -27 19 -28 44 -2 94 34 68 -1 102 -45 44 -20 -26 -24 -39 -16 -47
6 -6 11 -15 11 -19 0 -17 -26 -6 -64 26 -39 34 -43 58 -7 49 28 -7 145 141
131 166 -9 18 -4 31 11 31 4 0 35 -26 68 -58z m-879 -49 c421 -66 812 -358
1009 -751 76 -152 141 -384 141 -505 l0 -40 40 6 c50 6 116 38 172 82 24 19
44 31 46 26 2 -5 -6 -53 -17 -107 -24 -119 -68 -211 -121 -257 l-40 -34 0
-286 0 -287 107 0 108 0 -135 -135 -135 -135 -245 0 -245 0 -90 -68 c-309
-232 -694 -323 -1085 -256 -210 36 -451 146 -615 279 l-55 45 -247 0 -248 0
-135 135 -135 135 108 0 107 0 0 287 0 286 -40 34 c-53 46 -94 135 -120 262
-11 57 -19 105 -17 107 2 2 29 -16 60 -39 59 -44 134 -77 175 -77 18 0 22 5
22 34 0 18 7 73 15 122 107 620 621 1096 1247 1153 111 10 238 5 368 -16z
m-1454 -66 c-5 -20 6 -35 69 -91 58 -52 79 -65 89 -57 13 11 26 5 26 -10 0 -5
-14 -24 -31 -44 -36 -41 -62 -47 -54 -12 4 16 -2 30 -25 52 l-30 29 -35 -34
c-19 -19 -35 -39 -35 -44 0 -20 66 -66 78 -54 6 6 15 7 21 3 14 -8 -57 -97
-73 -92 -6 2 -10 15 -8 28 2 20 -11 38 -67 88 -52 46 -76 61 -90 56 -34 -10
-31 10 8 55 24 28 42 41 50 36 9 -6 9 -11 0 -22 -10 -13 -7 -21 19 -47 l32
-31 35 34 c19 19 35 39 35 45 0 6 -14 21 -31 34 -23 17 -33 20 -44 11 -30 -25
-25 12 7 50 38 45 63 53 54 17z m2567 -98 c32 -35 34 -59 7 -84 -26 -24 -48
-8 -31 23 22 41 -25 81 -57 48 -13 -13 -14 -22 -2 -70 16 -68 8 -101 -30 -121
-39 -20 -73 -11 -110 31 -34 39 -37 59 -13 86 24 26 47 24 38 -4 -14 -45 -10
-62 17 -77 25 -15 29 -14 45 2 15 15 16 22 5 62 -17 65 -15 89 11 112 44 40
76 38 120 -8z m135 -176 c22 -34 28 -51 20 -58 -7 -7 -12 -6 -15 3 -8 20 -24
14 -105 -40 -56 -39 -77 -59 -78 -75 0 -39 -18 -35 -50 12 -32 47 -33 73 -1
53 15 -9 31 -1 100 47 50 35 81 64 80 74 -4 46 12 41 49 -16z m-2938 3 c0 -19
14 -32 70 -65 38 -23 76 -51 85 -63 23 -34 19 -82 -11 -117 -37 -45 -79 -42
-167 10 -49 29 -75 39 -92 35 -36 -9 -37 6 -4 59 30 47 44 51 44 13 0 -14 19
-32 64 -59 76 -46 113 -50 137 -14 15 23 15 27 0 50 -18 28 -97 81 -135 91
-13 4 -26 2 -30 -4 -4 -6 -12 -8 -18 -4 -9 6 -5 19 13 50 28 47 44 54 44 18z
m3065 -216 c25 -50 43 -95 40 -101 -4 -5 -20 -16 -36 -24 -27 -14 -30 -14 -36
1 -4 10 0 20 10 26 18 10 23 43 7 53 -5 3 -50 -15 -99 -40 -75 -37 -90 -49
-88 -66 4 -42 -19 -29 -46 25 -27 56 -23 76 11 55 16 -10 33 -5 106 31 94 47
108 71 48 80 -18 3 -34 9 -35 13 -2 10 42 36 60 37 7 0 33 -41 58 -90z m-3235
-80 c0 -16 28 -39 105 -88 57 -37 103 -71 101 -77 -1 -5 -47 -12 -100 -15
l-98 -5 76 -53 c43 -30 75 -59 73 -65 -4 -12 -159 -12 -218 -1 -16 3 -32 -1
-42 -10 -17 -17 -37 -21 -37 -8 0 5 7 29 16 55 16 47 44 65 44 28 0 -16 10
-19 73 -23 39 -3 73 -4 75 -3 1 1 -25 21 -57 44 -53 36 -63 40 -80 29 -29 -18
-32 -8 -14 50 16 51 43 71 43 33 0 -17 9 -20 73 -23 39 -2 73 -3 75 -2 2 1
-24 21 -58 44 -58 40 -62 41 -75 23 -13 -17 -14 -17 -20 -1 -9 24 13 88 31 88
8 0 14 -9 14 -20z m3333 -152 c16 -50 8 -70 -19 -47 -13 10 -20 7 -47 -19 -17
-17 -29 -33 -26 -35 2 -2 23 -7 46 -10 35 -4 42 -2 46 14 3 10 9 19 14 19 9 0
33 -64 33 -89 0 -16 -21 -14 -34 4 -17 23 -134 39 -186 25 -33 -9 -40 -15 -35
-29 3 -11 0 -21 -8 -24 -10 -4 -19 12 -32 54 -19 61 -14 88 10 56 10 -15 21
-17 44 -12 38 8 151 102 151 125 0 21 11 33 21 23 3 -5 13 -29 22 -55z m-943
-1923 c9 -11 16 -12 31 -2 15 9 22 8 35 -5 13 -12 14 -21 7 -30 -6 -7 -14 -28
-18 -46 -6 -29 -4 -33 12 -30 22 4 30 -40 13 -73 -17 -30 5 -52 25 -25 8 10
19 15 25 11 8 -5 6 -12 -5 -25 -16 -17 -16 -21 -1 -42 28 -40 16 -68 -30 -68
-10 0 -12 9 -8 33 5 28 4 30 -8 15 -7 -9 -18 -24 -24 -34 -6 -10 -15 -14 -22
-10 -9 5 -6 15 9 36 18 23 20 33 11 57 -6 20 -6 36 0 47 5 10 7 20 4 23 -3 3
-21 -28 -39 -69 -34 -73 -60 -99 -81 -78 -7 7 -2 19 15 37 26 28 59 78 59 88
0 3 -6 5 -12 5 -7 0 -18 12 -25 26 -9 20 -9 26 3 31 8 3 14 9 14 14 0 4 -7 6
-15 3 -10 -4 -15 0 -15 14 0 11 -6 22 -12 25 -9 3 -7 9 6 19 12 10 17 21 13
32 -13 33 11 48 33 21z m-1383 -21 c3 -9 -7 -41 -23 -71 -21 -40 -25 -57 -16
-60 19 -7 14 -23 -8 -23 -24 0 -40 -35 -40 -88 l0 -37 18 28 c32 47 32 17 1
-44 -33 -66 -59 -78 -59 -26 0 17 -3 42 -6 53 -5 21 -7 21 -54 7 -64 -19 -159
-14 -174 9 -15 24 -5 29 34 18 43 -12 137 -2 156 18 21 20 12 25 -20 11 -32
-15 -45 -5 -28 21 20 33 15 43 -21 37 -26 -4 -36 -1 -46 15 -7 11 -11 21 -9
22 2 2 46 0 98 -4 55 -4 100 -2 107 3 7 5 22 36 34 68 21 58 43 75 56 43z
m-116 -64 c22 0 29 -5 29 -20 0 -28 -65 -29 -80 -1 -14 27 -13 34 6 27 9 -3
29 -6 45 -6z m158 -37 c12 -23 -4 -53 -28 -53 -16 0 -17 4 -7 35 12 39 20 43
35 18z m1294 -47 c-2 -3 -3 -22 -3 -41 0 -24 -5 -35 -15 -35 -8 0 -15 7 -15
15 0 9 -7 27 -16 40 -10 15 -12 25 -5 25 6 0 11 7 11 16 0 15 2 15 23 2 12 -9
21 -18 20 -22z m-1003 -22 c8 -20 6 -33 -7 -55 -24 -41 -34 -36 -27 14 10 75
18 84 34 41z m200 9 c0 -9 -12 -29 -27 -45 -26 -27 -26 -28 -8 -48 14 -16 16
-23 7 -32 -7 -7 -12 -22 -12 -34 0 -12 -7 -27 -15 -34 -8 -7 -15 -18 -15 -24
0 -6 7 -3 15 8 8 11 21 16 30 13 24 -10 18 -25 -17 -43 -18 -9 -45 -28 -60
-42 -30 -27 -50 -24 -27 4 11 13 11 18 2 21 -18 6 -16 23 2 23 8 0 15 7 15 15
0 9 -6 12 -15 9 -8 -4 -22 -3 -31 0 -15 6 -15 9 5 29 27 30 27 51 -1 70 l-23
15 33 12 c20 8 34 21 38 36 5 20 9 22 20 13 11 -9 14 -7 14 12 0 18 3 20 9 10
10 -16 31 -6 31 15 0 8 7 14 15 14 8 0 15 -8 15 -17z m-783 -50 c-3 -2 -18 -3
-34 -1 l-28 3 30 17 c26 14 30 14 33 1 2 -8 2 -17 -1 -20z m1204 -3 c6 0 7 -9
4 -20 -5 -15 -2 -20 14 -20 29 0 33 -15 11 -35 -25 -23 -25 -35 -1 -35 33 0
51 -11 51 -31 0 -20 -34 -27 -45 -9 -11 18 -30 10 -48 -20 -18 -29 -47 -41
-47 -19 0 6 9 22 20 36 27 35 25 47 -6 27 -18 -12 -28 -14 -36 -6 -14 14 -1
32 22 32 26 0 44 34 30 59 -16 30 -13 54 6 47 9 -3 20 -6 25 -6z m-617 -115
c-7 -11 -22 -53 -33 -94 -11 -41 -23 -76 -26 -79 -9 -9 -36 22 -32 37 3 9 14
52 26 96 31 116 28 111 54 84 19 -20 21 -27 11 -44z m160 -114 c12 -23 13 -31
3 -39 -19 -16 -34 -1 -31 33 4 46 7 47 28 6z"/>
<path d="M1115 3579 c21 -67 23 -70 45 -57 27 17 26 21 -16 53 l-36 28 7 -24z"/>
<path d="M3197 3564 c-23 -28 -26 -38 -17 -49 21 -25 69 -19 82 10 10 23 8 29
-13 50 l-24 25 -28 -36z"/>
<path d="M2104 3213 c-3 -10 -10 -28 -15 -40 -5 -13 -5 -23 0 -23 4 0 6 -22 3
-49 -2 -28 -1 -66 2 -85 6 -31 11 -36 36 -36 19 0 30 6 33 18 15 53 16 75 8
112 -5 22 -5 40 -1 40 4 0 2 17 -5 38 -15 42 -51 57 -61 25z"/>
<path d="M1820 2936 c0 -26 6 -48 15 -56 9 -8 15 -29 15 -56 0 -34 -5 -47 -22
-58 -64 -41 -148 -26 -211 37 l-40 40 8 -59 c14 -111 12 -125 -17 -147 -47
-35 -134 -27 -231 21 -17 8 26 -64 57 -96 37 -41 76 -62 111 -62 14 0 61 18
105 40 l80 40 438 0 439 0 87 -40 c95 -44 114 -47 154 -26 39 21 122 114 122
138 0 4 -21 -3 -47 -14 -65 -29 -154 -29 -191 -1 -29 22 -30 31 -16 145 l6 57
-41 -39 c-46 -44 -106 -65 -154 -54 -61 12 -67 20 -67 79 0 29 5 57 10 60 6 3
10 26 10 51 0 44 0 44 -36 44 -27 0 -37 -5 -41 -20 -5 -18 -14 -20 -94 -20
-53 0 -89 4 -89 10 0 6 -22 10 -50 10 -27 0 -50 -4 -50 -10 0 -6 -36 -10 -89
-10 -80 0 -89 2 -94 20 -4 15 -14 20 -41 20 -36 0 -36 0 -36 -44z"/>
<path d="M1730 2505 c0 -24 2 -25 65 -25 63 0 65 1 65 25 0 24 -2 25 -65 25
-63 0 -65 -1 -65 -25z"/>
<path d="M1900 2505 c0 -24 2 -25 66 -25 62 0 65 1 62 23 -3 20 -9 22 -65 25
-62 3 -63 2 -63 -23z"/>
<path d="M2070 2505 c0 -24 2 -25 66 -25 62 0 65 1 62 23 -3 20 -9 22 -65 25
-62 3 -63 2 -63 -23z"/>
<path d="M2237 2523 c-4 -3 -7 -15 -7 -25 0 -16 9 -18 65 -18 63 0 65 1 65 25
0 24 -3 25 -58 25 -32 0 -62 -3 -65 -7z"/>
<path d="M2407 2523 c-4 -3 -7 -15 -7 -25 0 -16 9 -18 65 -18 63 0 65 1 65 25
0 24 -3 25 -58 25 -32 0 -62 -3 -65 -7z"/>
<path d="M1633 2487 c-32 -15 -43 -27 -43 -44 0 -28 -1 -28 55 -1 34 17 45 28
45 45 0 28 -3 28 -57 0z"/>
<path d="M2570 2487 c0 -17 11 -28 45 -45 56 -27 55 -27 55 1 0 17 -11 28 -45
45 -56 27 -55 27 -55 -1z"/>
<path d="M986 2386 c-60 -89 -149 -180 -191 -196 -39 -15 -93 -12 -152 9 -29
10 -53 16 -53 14 0 -15 57 -110 77 -129 l26 -24 1439 0 1440 0 30 32 c30 32
50 66 62 104 l6 21 -52 -18 c-67 -23 -113 -23 -163 0 -47 21 -134 112 -190
199 -22 34 -43 62 -46 62 -3 0 -28 -33 -54 -72 -68 -102 -139 -174 -191 -194
-51 -19 -124 -15 -173 11 -37 18 -39 9 -11 -45 25 -50 25 -50 -9 -50 -27 0
-30 4 -56 85 -15 47 -32 85 -36 85 -5 0 -9 -38 -9 -85 0 -78 -2 -85 -20 -85
-18 0 -20 7 -20 85 l0 85 -35 0 -35 0 0 -85 c0 -84 0 -85 -25 -85 -25 0 -25 1
-25 85 l0 85 -35 0 -35 0 0 -85 c0 -84 0 -85 -25 -85 -25 0 -25 1 -25 85 l0
85 -35 0 -35 0 0 -85 c0 -84 0 -85 -25 -85 -25 0 -25 1 -25 85 l0 85 -35 0
-35 0 0 -85 c0 -78 -2 -85 -20 -85 -18 0 -20 7 -20 85 l0 85 -35 0 -35 0 0
-85 c0 -84 0 -85 -25 -85 -25 0 -25 1 -25 85 l0 85 -35 0 -35 0 0 -85 c0 -84
0 -85 -25 -85 -25 0 -25 1 -25 85 l0 85 -35 0 -35 0 0 -85 c0 -84 0 -85 -25
-85 -25 0 -25 1 -25 85 l0 85 -35 0 -35 0 0 -85 c0 -84 0 -85 -25 -85 -25 0
-25 1 -25 85 l0 85 -35 0 -35 0 0 -85 c0 -78 -2 -85 -20 -85 -18 0 -20 7 -20
85 0 47 -4 85 -9 85 -5 0 -21 -38 -35 -85 -26 -82 -28 -85 -57 -85 l-30 0 16
30 c8 16 20 41 25 54 l9 24 -54 -19 c-30 -10 -71 -19 -92 -19 -82 0 -167 69
-263 217 l-47 72 -57 -83z"/>
<path d="M1186 2345 l16 -25 930 2 931 3 15 23 14 22 -961 0 -961 0 16 -25z"/>
<path d="M1270 2271 c0 -12 20 -27 48 -35 19 -6 22 -4 22 18 0 23 -4 26 -35
26 -19 0 -35 -4 -35 -9z"/>
<path d="M1390 2260 c0 -20 22 -26 54 -14 30 12 18 34 -19 34 -28 0 -35 -4
-35 -20z"/>
<path d="M2800 2266 c0 -13 28 -26 58 -26 6 0 12 9 12 20 0 16 -7 20 -35 20
-23 0 -35 -5 -35 -14z"/>
<path d="M2920 2255 c0 -29 -2 -28 39 -14 43 15 41 39 -4 39 -31 0 -35 -3 -35
-25z"/>
<path d="M2080 2015 c0 -13 -42 -15 -320 -15 l-320 0 0 -215 0 -215 690 0 690
0 0 215 0 215 -320 0 c-278 0 -320 2 -320 15 0 11 -12 15 -50 15 -38 0 -50 -4
-50 -15z m-270 -85 c0 -20 -5 -20 -122 -18 -108 3 -123 5 -126 21 -3 15 8 17
122 17 120 0 126 -1 126 -20z m70 0 c0 -13 -7 -20 -20 -20 -13 0 -20 7 -20 20
0 13 7 20 20 20 13 0 20 -7 20 -20z m200 0 c0 -20 -5 -21 -82 -18 -70 3 -83 6
-86 21 -3 15 6 17 82 17 80 0 86 -1 86 -20z m270 0 c0 -18 -7 -20 -85 -20 -78
0 -85 2 -85 20 0 18 7 20 85 20 78 0 85 -2 85 -20z m70 -1 c0 -25 -33 -22 -38
4 -2 12 3 17 17 17 15 0 21 -6 21 -21z m280 1 c0 -20 -5 -20 -122 -18 -108 3
-123 5 -126 21 -3 15 8 17 122 17 120 0 126 -1 126 -20z m-1170 -185 c0 -128
-1 -135 -20 -135 -19 0 -20 7 -20 135 0 128 1 135 20 135 19 0 20 -7 20 -135z
m255 119 c24 -16 25 -20 25 -135 l0 -120 -122 3 -123 3 -3 112 c-3 110 -2 111
24 132 35 27 161 30 199 5z m95 -119 c0 -128 -1 -135 -20 -135 -19 0 -20 7
-20 135 0 128 1 135 20 135 19 0 20 -7 20 -135z m440 120 l30 -16 0 -119 0
-120 -50 0 -50 0 0 100 0 100 -120 0 -120 0 0 -100 0 -100 -50 0 -50 0 0 118
c0 156 -6 151 218 152 127 0 170 -3 192 -15z m100 -120 c0 -128 -1 -135 -20
-135 -19 0 -20 7 -20 135 0 128 1 135 20 135 19 0 20 -7 20 -135z m250 120
l30 -16 0 -120 0 -120 -122 3 -123 3 -3 115 -3 115 28 17 c36 23 152 24 193 3z
m100 -120 c0 -128 -1 -135 -20 -135 -19 0 -20 7 -20 135 0 128 1 135 20 135
19 0 20 -7 20 -135z m-530 -45 c0 -53 -4 -90 -10 -90 -6 0 -10 35 -10 85 l0
85 -85 0 -85 0 0 -85 c0 -50 -4 -85 -10 -85 -6 0 -10 37 -10 90 l0 90 105 0
105 0 0 -90z"/>
<path d="M730 1695 l0 -305 315 0 315 0 0 305 0 305 -315 0 -315 0 0 -305z
m220 135 l0 -50 -50 0 -50 0 0 50 0 50 50 0 50 0 0 -50z m140 0 l0 -50 -50 0
-50 0 0 50 0 50 50 0 50 0 0 -50z m150 0 l0 -50 -50 0 -50 0 0 50 0 50 50 0
50 0 0 -50z"/>
<path d="M2900 1695 l0 -305 315 0 315 0 0 305 0 305 -315 0 -315 0 0 -305z
m220 135 l0 -50 -50 0 -50 0 0 50 0 50 50 0 50 0 0 -50z m150 0 l0 -50 -50 0
-50 0 0 50 0 50 50 0 50 0 0 -50z m140 0 l0 -50 -50 0 -50 0 0 43 c0 24 3 47
7 50 3 4 26 7 50 7 l43 0 0 -50z"/>
<path d="M1497 1533 c-4 -3 -7 -10 -7 -15 0 -4 288 -8 641 -8 508 0 640 3 637
13 -4 9 -141 13 -635 15 -346 1 -633 -1 -636 -5z"/>
<path d="M1477 1473 c-4 -3 -7 -10 -7 -15 0 -4 297 -8 660 -8 580 0 660 2 660
15 0 13 -79 15 -653 15 -360 0 -657 -3 -660 -7z"/>
<path d="M1450 1405 c0 -13 82 -15 680 -15 598 0 680 2 680 15 0 13 -82 15
-680 15 -598 0 -680 -2 -680 -15z"/>
<path d="M625 1310 l29 -30 1476 0 1476 0 29 30 29 30 -1534 0 -1534 0 29 -30z"/>
<path d="M710 1225 l34 -35 1386 0 1386 0 34 35 34 35 -1454 0 -1454 0 34 -35z"/>
<path d="M1966 1104 c-20 -20 -20 -38 0 -59 15 -15 15 -17 -1 -29 -23 -17 -16
-60 10 -63 11 -2 14 0 8 3 -16 7 -17 46 -1 62 9 9 16 8 30 -5 20 -18 24 -53 6
-53 -6 0 -8 -3 -5 -6 11 -12 37 18 37 42 0 13 -7 27 -16 32 -15 8 -15 11 0 34
15 24 16 27 1 42 -21 20 -49 20 -69 0z m59 -15 c4 -13 2 -27 -7 -35 -12 -13
-17 -12 -32 5 -10 11 -16 27 -13 36 9 22 45 18 52 -6z"/>
<path d="M2218 1109 c-21 -12 -24 -59 -6 -77 7 -7 25 -12 40 -12 36 0 35 -12
-3 -44 -17 -14 -26 -26 -20 -26 6 0 25 13 42 28 70 63 24 176 -53 131z m60
-42 c3 -37 2 -38 -25 -35 -20 2 -29 9 -31 26 -5 36 5 54 30 50 19 -2 24 -10
26 -41z"/>
<path d="M2473 1113 c-7 -2 -13 -12 -13 -21 1 -15 2 -15 15 1 19 26 50 18 50
-13 0 -16 -8 -29 -24 -36 l-24 -12 24 -4 c27 -3 38 -40 19 -64 -17 -20 4 -18
24 2 22 21 20 40 -4 57 -18 13 -19 16 -5 27 43 35 -7 86 -62 63z"/>
<path d="M1723 1099 c13 -8 17 -24 17 -74 0 -58 -2 -64 -22 -68 -13 -2 2 -4
32 -4 30 0 45 2 33 4 -21 4 -23 10 -23 79 l0 74 -27 0 c-24 -1 -25 -2 -10 -11z"/>
<path d="M2452 973 c2 -10 11 -19 21 -21 16 -3 17 -1 5 17 -16 25 -31 27 -26
4z"/>
<path d="M1340 675 c0 -8 7 -15 15 -15 8 0 15 4 15 9 0 5 -7 11 -15 15 -9 3
-15 0 -15 -9z"/>
<path d="M1397 673 c-4 -3 -7 -13 -7 -22 1 -13 3 -13 11 2 11 19 8 33 -4 20z"/>
<path d="M1500 10 c0 -5 5 -10 10 -10 6 0 10 5 10 10 0 6 -4 10 -10 10 -5 0
-10 -4 -10 -10z"/>
<path d="M1545 10 c-3 -5 -1 -10 4 -10 6 0 11 5 11 10 0 6 -2 10 -4 10 -3 0
-8 -4 -11 -10z"/>
<path d="M1990 10 c0 -5 5 -10 10 -10 6 0 10 5 10 10 0 6 -4 10 -10 10 -5 0
-10 -4 -10 -10z"/>
<path d="M2240 10 c0 -5 7 -10 16 -10 8 0 12 5 9 10 -3 6 -10 10 -16 10 -5 0
-9 -4 -9 -10z"/>
<path d="M2330 10 c0 -5 5 -10 10 -10 6 0 10 5 10 10 0 6 -4 10 -10 10 -5 0
-10 -4 -10 -10z"/>
<path d="M2450 10 c0 -5 5 -10 10 -10 6 0 10 5 10 10 0 6 -4 10 -10 10 -5 0
-10 -4 -10 -10z"/>
<path d="M2555 10 c3 -5 10 -10 16 -10 5 0 9 5 9 10 0 6 -7 10 -16 10 -8 0
-12 -4 -9 -10z"/>
<path d="M2715 10 c-3 -5 1 -10 10 -10 9 0 13 5 10 10 -3 6 -8 10 -10 10 -2 0
-7 -4 -10 -10z"/>
<path d="M2780 10 c0 -5 5 -10 10 -10 6 0 10 5 10 10 0 6 -4 10 -10 10 -5 0
-10 -4 -10 -10z"/>
<path d="M2850 10 c0 -5 5 -10 10 -10 6 0 10 5 10 10 0 6 -4 10 -10 10 -5 0
-10 -4 -10 -10z"/>
</g>
</svg>
