<?xml version="1.0" encoding="UTF-8"?>
<svg version="1.1" xmlns="http://www.w3.org/2000/svg" width="436" height="434">
<path d="M0 0 C143.88 0 287.76 0 436 0 C436 143.22 436 286.44 436 434 C292.12 434 148.24 434 0 434 C0 290.78 0 147.56 0 0 Z " fill="#275741" transform="translate(0,0)"/>
<path d="M0 0 C2.23606799 -0.00962164 4.47118144 -0.04066351 6.70703125 -0.07226562 C16.44779336 -0.14315968 25.29306738 0.94113352 34.76953125 3.24023438 C35.75123291 3.47331299 36.73293457 3.7063916 37.74438477 3.9465332 C58.11539217 8.96102823 76.84062904 18.62981117 92.76953125 32.24023438 C93.30916504 32.69624023 93.84879883 33.15224609 94.40478516 33.62207031 C120.11764331 55.58843462 137.62732493 87.31165654 141.54296875 120.97851562 C141.78129546 124.40959845 141.81310857 127.80198365 141.76953125 131.24023438 C150.76702599 129.59147879 157.34137423 126.52785901 164.76953125 121.24023438 C166.25453125 120.25023437 166.25453125 120.25023437 167.76953125 119.24023438 C166.61015277 133.15277614 163.30311604 146.63888809 153.76953125 157.24023438 C152.28453125 158.23023438 152.28453125 158.23023438 150.76953125 159.24023438 C150.29178011 161.78161738 150.29178011 161.78161738 150.3371582 164.79150391 C150.30746696 166.53308273 150.30746696 166.53308273 150.2771759 168.30984497 C150.27078598 169.5682016 150.26439606 170.82655823 150.2578125 172.12304688 C150.2398613 173.40758759 150.2219101 174.6921283 150.20341492 176.01559448 C150.15584233 179.43173099 150.12608052 182.84780114 150.09997559 186.26416016 C150.07020623 189.74980787 150.02366363 193.23522669 149.97851562 196.72070312 C149.89240025 203.56043213 149.82664195 210.40020234 149.76953125 217.24023438 C156.69953125 217.24023438 163.62953125 217.24023438 170.76953125 217.24023438 C168.78953125 219.55023438 166.80953125 221.86023438 164.76953125 224.24023438 C163.68700582 225.89768217 162.62781746 227.57080589 161.6015625 229.26367188 C156.48664094 236.47766962 151.03755774 243.02430727 142.03820801 244.77008057 C132.01565664 245.89858555 121.91486266 245.60619866 111.8605957 245.11083984 C98.62930159 244.00273621 98.62930159 244.00273621 87.16015625 249.43945312 C85.66782885 251.01290365 84.20009152 252.61042306 82.76953125 254.24023438 C53.48845849 276.28041865 14.95769592 281.55656874 -20.54296875 277.55273438 C-44.4034113 273.5294279 -70.88602853 262.58467459 -88.23046875 245.24023438 C-89.69289994 245.25324531 -91.15477343 245.33641828 -92.61303711 245.44750977 C-136.3660395 248.38321661 -136.3660395 248.38321661 -148.40234375 238.42382812 C-154.90989899 232.55865204 -160.53908849 225.62910383 -165.23046875 218.24023438 C-165.23046875 217.91023437 -165.23046875 217.58023438 -165.23046875 217.24023438 C-158.30046875 217.24023438 -151.37046875 217.24023438 -144.23046875 217.24023438 C-144.23046875 197.77023437 -144.23046875 178.30023438 -144.23046875 158.24023438 C-145.88046875 157.58023438 -147.53046875 156.92023438 -149.23046875 156.24023438 C-150.92578125 154.28710938 -150.92578125 154.28710938 -152.35546875 151.99023438 C-153.07089844 150.86875 -153.07089844 150.86875 -153.80078125 149.72460938 C-156.85134898 144.42362283 -158.75803529 139.77925304 -159.91796875 133.74023438 C-160.16933594 132.47179687 -160.42070312 131.20335937 -160.6796875 129.89648438 C-161.17591798 126.60235864 -161.33814735 123.5628882 -161.23046875 120.24023438 C-160.16119141 120.94599609 -160.16119141 120.94599609 -159.0703125 121.66601562 C-151.4863568 126.59609719 -145.39104697 130.3054815 -136.23046875 131.24023438 C-136.27171875 129.98855469 -136.31296875 128.736875 -136.35546875 127.44726562 C-136.31016418 98.43535419 -121.53861245 69.89111783 -103.23046875 48.24023438 C-102.50601563 47.37398437 -101.7815625 46.50773437 -101.03515625 45.61523438 C-75.9807064 16.532422 -38.01583775 0.09848663 0 0 Z " fill="#F9FAFA" transform="translate(210.23046875,75.759765625)"/>
<path d="M0 0 C143.88 0 287.76 0 436 0 C436 143.22 436 286.44 436 434 C292.12 434 148.24 434 0 434 C0 290.78 0 147.56 0 0 Z M55.91992188 74.92773438 C51.22388951 79.99639189 47.01058463 85.37884067 43 91 C42.58202148 91.58426758 42.16404297 92.16853516 41.73339844 92.77050781 C9.70585631 138.07116794 -2.82656101 192.15816894 5 247 C5.10763672 247.79937988 5.21527344 248.59875977 5.32617188 249.42236328 C8.31631685 270.67013076 15.48614954 292.45855901 25.99365234 311.20068359 C27.07084032 313.12666016 28.10827363 315.07125525 29.14453125 317.01953125 C36.85256995 331.32692979 46.35189523 343.77439823 57 356 C57.97453125 357.16015625 57.97453125 357.16015625 58.96875 358.34375 C62.33573759 362.32291715 65.8842958 365.80989037 69.8671875 369.171875 C71.32039156 370.41747848 72.74174585 371.70099058 74.1328125 373.015625 C113.58684923 410.19603928 168.19730757 426.46121571 221.38476562 425.12548828 C270.16593353 423.43224677 316.66694581 404.53706345 353 372 C353.56380371 371.49791016 354.12760742 370.99582031 354.70849609 370.47851562 C361.20991477 364.66462426 367.51986038 358.80829572 373 352 C373.81726563 351.00871094 374.63453125 350.01742188 375.4765625 348.99609375 C411.66203088 304.52244234 426.93567692 248.98962949 422.71582031 192.17382812 C418.03063529 147.53268182 398.18362925 106.23561576 368.08984375 73.3125 C366.31643159 71.35014486 364.61849755 69.35338591 362.9375 67.3125 C359.64074752 63.44981998 355.88064865 60.26027285 352 57 C351.15953125 56.26007812 350.3190625 55.52015625 349.453125 54.7578125 C330.12160859 38.04299306 307.89631796 25.79931367 284 17 C283.27409668 16.72172363 282.54819336 16.44344727 281.80029297 16.15673828 C260.43056969 7.98842652 237.40135493 4.77390048 214.625 4.8125 C213.91313538 4.81343658 213.20127075 4.81437317 212.46783447 4.81533813 C151.18358696 4.98994448 97.85915758 31.00461808 55.91992188 74.92773438 Z " fill="#F7F8FA" transform="translate(0,0)"/>
<path d="M0 0 C1.09272217 0.2163208 1.09272217 0.2163208 2.20751953 0.43701172 C6.5646815 1.3505209 10.78280705 2.58980131 15 4 C16.37986084 4.45850342 16.37986084 4.45850342 17.78759766 4.92626953 C31.02474532 9.38441937 43.76098841 14.2538487 56 21 C56.59280762 21.31791504 57.18561523 21.63583008 57.79638672 21.96337891 C72.17241927 29.67782491 84.74699235 39.29270685 97 50 C98.27037109 51.08474609 98.27037109 51.08474609 99.56640625 52.19140625 C103.7322847 55.7933756 107.53834524 59.50200692 111.08203125 63.71875 C112.48718242 65.39004997 113.92735111 67.03207652 115.38671875 68.65625 C153.38742822 111.33353383 168.88515074 166.75083755 166 223 C165.4689725 230.42181633 164.43856601 237.70270977 163 245 C162.83951172 245.82145508 162.67902344 246.64291016 162.51367188 247.48925781 C159.89541992 260.56511612 156.32894151 272.76828452 151 285 C150.39317497 286.42445608 149.78640764 287.84893674 149.1796875 289.2734375 C140.15421787 310.25484097 128.23705189 328.98529206 113 346 C112.49791016 346.56380371 111.99582031 347.12760742 111.47851562 347.70849609 C105.66462426 354.20991477 99.80829572 360.51986038 93 366 C92.00871094 366.81726563 91.01742188 367.63453125 89.99609375 368.4765625 C62.06655047 391.20111003 29.27292863 406.57395491 -6.125 413.25 C-6.98295166 413.41346924 -7.84090332 413.57693848 -8.72485352 413.74536133 C-48.77093037 420.80832757 -90.93496977 415.43257116 -128 399 C-128.6492041 398.7210791 -129.2984082 398.4421582 -129.96728516 398.15478516 C-151.02132996 389.07294285 -169.69177755 376.13659423 -186.34375 360.4453125 C-188.94383774 357.99253967 -188.94383774 357.99253967 -191.6484375 355.89453125 C-195.24923734 352.99355464 -198.01515419 349.51523429 -201 346 C-201.81597656 345.08347656 -202.63195312 344.16695313 -203.47265625 343.22265625 C-220.63248941 323.78552508 -233.07517466 301.2371703 -242 277 C-242.41741455 275.91114502 -242.41741455 275.91114502 -242.84326172 274.80029297 C-249.65608469 256.97676395 -253.73146496 237.08516906 -254 218 C-254.02852051 216.57034912 -254.02852051 216.57034912 -254.05761719 215.11181641 C-254.97012426 164.87157033 -241.86750628 116.61611226 -210 77 C-209.2059375 76.00226563 -208.411875 75.00453125 -207.59375 73.9765625 C-196.0456545 59.75244564 -182.92902595 46.65156109 -168 36 C-167.41573242 35.58202148 -166.83146484 35.16404297 -166.22949219 34.73339844 C-117.52800373 0.30147252 -58.31881393 -11.56797041 0 0 Z M-166.5625 46.1875 C-167.20509766 46.66219727 -167.84769531 47.13689453 -168.50976562 47.62597656 C-172.47428815 50.63147405 -175.99446781 53.88333097 -179.46606445 57.44458008 C-181.16172525 59.16399038 -182.94728002 60.7174039 -184.8125 62.25 C-200.45218604 75.88613161 -212.49952637 93.69083479 -222 112 C-222.69250843 113.29437781 -223.38521741 114.58864833 -224.078125 115.8828125 C-232.59252557 132.05432383 -238.27938628 149.13057352 -242 167 C-242.2477417 168.16861572 -242.2477417 168.16861572 -242.50048828 169.36083984 C-247.66511524 194.93829435 -246.44252356 222.61451513 -241 248 C-240.77570313 249.11181641 -240.77570313 249.11181641 -240.546875 250.24609375 C-236.84876987 268.35996054 -229.80051586 285.79865271 -221 302 C-220.38640625 303.1653125 -219.7728125 304.330625 -219.140625 305.53125 C-206.927987 327.93790815 -189.08199731 348.37208671 -169 364 C-168.46697266 364.42007324 -167.93394531 364.84014648 -167.38476562 365.27294922 C-144.60023363 383.11554004 -118.94004131 394.87637428 -91 402 C-89.80890625 402.31710937 -88.6178125 402.63421875 -87.390625 402.9609375 C-68.76778975 407.63980904 -50.07518526 407.35873664 -31 407 C-30.17097168 406.98598145 -29.34194336 406.97196289 -28.48779297 406.95751953 C-17.72269779 406.71303013 -7.43391118 404.47529738 3 402 C4.45986328 401.66162109 4.45986328 401.66162109 5.94921875 401.31640625 C41.9326994 392.22168037 72.36472897 373.41955327 99 348 C99.65355469 347.39929688 100.30710937 346.79859375 100.98046875 346.1796875 C106.53520743 340.92841436 111.08033903 334.76195459 115.70263672 328.69873047 C116.82420401 327.23018226 117.95966876 325.77226734 119.09765625 324.31640625 C137.4268823 300.19107997 149.79938243 270.32067084 154.625 240.5 C154.7482666 239.74114502 154.8715332 238.98229004 154.99853516 238.20043945 C161.90852728 193.29504804 154.12017681 149.99417505 133 110 C132.53255371 109.10498779 132.53255371 109.10498779 132.05566406 108.19189453 C119.86553956 85.06935678 101.56353579 64.00264901 81 48 C80.46697266 47.57992676 79.93394531 47.15985352 79.38476562 46.72705078 C63.7130167 34.45448782 46.50140357 24.93997037 27.95507812 17.75927734 C26.33107434 17.12857657 24.7185635 16.46837702 23.109375 15.80078125 C-39.90104875 -9.26468606 -113.50246459 6.82597046 -166.5625 46.1875 Z " fill="#2A5944" transform="translate(257,9)"/>
<path d="M0 0 C1.60935425 0.32931519 1.60935425 0.32931519 3.2512207 0.6652832 C33.9004401 7.21371963 62.78663889 20.87140448 86.9375 40.875 C87.81148438 41.59671387 87.81148438 41.59671387 88.703125 42.33300781 C99.90116911 51.63480194 109.97217299 61.35448094 118.9375 72.875 C119.35757324 73.40802734 119.77764648 73.94105469 120.21044922 74.49023438 C153.51225493 117.01578828 166.96027496 170.26769892 160.98535156 223.67822266 C158.53186788 242.65940715 153.2942835 260.23717521 145.9375 277.875 C145.60878906 278.66632324 145.28007812 279.45764648 144.94140625 280.27294922 C135.17613037 303.33379003 120.12301067 322.89593039 102.9375 340.875 C101.98423828 341.89013672 101.98423828 341.89013672 101.01171875 342.92578125 C69.27542049 375.8739668 19.53624895 397.7455379 -26.0625 398.875 C-27.13371094 398.90223145 -28.20492187 398.92946289 -29.30859375 398.95751953 C-45.4874052 399.30364857 -61.16840164 399.07128229 -77.0625 395.875 C-77.92633301 395.70339355 -78.79016602 395.53178711 -79.68017578 395.35498047 C-111.0340836 388.93268084 -140.37967077 375.31921232 -165.0625 354.875 C-165.93648437 354.15328613 -165.93648437 354.15328613 -166.828125 353.41699219 C-178.0241292 344.11689255 -188.10642755 334.40043749 -197.0625 322.875 C-197.49852539 322.31538574 -197.93455078 321.75577148 -198.38378906 321.17919922 C-205.10490494 312.48760694 -210.89662491 303.54761631 -216.02148438 293.82958984 C-217.00139124 291.98973658 -218.01888694 290.17656634 -219.046875 288.36328125 C-229.77410755 268.88087162 -235.95688204 246.33601335 -238.74047852 224.39672852 C-238.99013299 222.44170119 -239.28103069 220.49191873 -239.58862305 218.54516602 C-242.06317734 199.37980038 -241.16223187 177.7234528 -237.0625 158.875 C-236.76448486 157.50093994 -236.76448486 157.50093994 -236.46044922 156.09912109 C-229.52754278 125.25677552 -215.83107487 96.56145274 -196.0625 71.875 C-195.41788818 71.06796631 -195.41788818 71.06796631 -194.76025391 70.24462891 C-162.13943288 29.78641363 -112.97525071 3.07838645 -61.3515625 -2.62890625 C-41.14595466 -4.47433014 -19.90211618 -4.07466499 0 0 Z M-174.8125 56.9375 C-175.33142822 57.40784668 -175.85035645 57.87819336 -176.38500977 58.36279297 C-201.49286861 81.60002659 -218.40128745 113.40739569 -228.0625 145.875 C-228.36800781 146.89335937 -228.67351562 147.91171875 -228.98828125 148.9609375 C-229.79592336 151.91815016 -230.45219814 154.87071645 -231.0625 157.875 C-231.26552734 158.80965088 -231.26552734 158.80965088 -231.47265625 159.76318359 C-241.87467978 209.20793732 -229.8614325 262.64459429 -203.0625 304.875 C-200.50125339 308.62632079 -197.82166013 312.26727806 -195.0625 315.875 C-194.44761719 316.68453125 -193.83273438 317.4940625 -193.19921875 318.328125 C-177.38447591 338.62862305 -158.37161107 355.06130005 -136.0625 367.875 C-135.13195801 368.41205566 -135.13195801 368.41205566 -134.18261719 368.95996094 C-119.74734208 377.20358263 -104.48269712 383.34072867 -88.4375 387.6875 C-87.43904053 387.96158691 -87.43904053 387.96158691 -86.42041016 388.24121094 C-71.27082303 392.08095169 -56.08323002 393.43658051 -40.5 393.3125 C-39.63231995 393.30812927 -38.76463989 393.30375854 -37.8706665 393.29925537 C17.06198321 392.91834609 65.09717751 370.61534949 103.73828125 332.08203125 C131.55729394 302.89421041 149.34304486 264.63847922 154.9375 224.875 C155.11039551 223.80427246 155.28329102 222.73354492 155.46142578 221.63037109 C155.98924669 217.46681148 156.15246867 213.39879253 156.2109375 209.20703125 C156.22986557 207.97051315 156.22986557 207.97051315 156.24917603 206.70901489 C156.95786759 149.13372559 138.21360153 99.14101756 97.875 57.5625 C93.17067444 53.00366904 88.08525804 48.91868125 82.9375 44.875 C81.97585938 44.11960938 81.01421875 43.36421875 80.0234375 42.5859375 C72.95274427 37.15698834 65.646633 32.34754198 57.9375 27.875 C56.24560547 26.88693359 56.24560547 26.88693359 54.51953125 25.87890625 C41.15096139 18.30190777 26.66234605 13.14070733 11.9375 8.875 C11.02742187 8.5965625 10.11734375 8.318125 9.1796875 8.03125 C-56.62476021 -10.21156719 -125.5602486 12.00835241 -174.8125 56.9375 Z " fill="#F4F6F6" transform="translate(252.0625,17.125)"/>
<path d="M0 0 C2.97 0 5.94 0 9 0 C9 0.99 9 1.98 9 3 C30.12 3 51.24 3 73 3 C73 17.19 73 31.38 73 46 C27.46 46 -18.08 46 -65 46 C-65 31.81 -65 17.62 -65 3 C-43.55 3 -22.1 3 0 3 C0 2.01 0 1.02 0 0 Z " fill="#132B58" transform="translate(209,231)"/>
<path d="M0 0 C2.21728897 2.69532833 4.32660806 5.42570554 6.296875 8.3046875 C14.28365368 20.17306251 14.28365368 20.17306251 26 28 C33.0789283 28.95627628 39.36620147 27.37123011 46 25 C44.8905928 28.48670834 43.73662334 31.77484237 42 35 C43.65 35.33 45.3 35.66 47 36 C47.29003906 34.78763672 47.29003906 34.78763672 47.5859375 33.55078125 C47.97652344 31.94783203 47.97652344 31.94783203 48.375 30.3125 C48.63023437 29.25675781 48.88546875 28.20101562 49.1484375 27.11328125 C49.91905489 24.29593234 50.85498543 21.68331675 52 19 C52.66 19 53.32 19 54 19 C54 24.61 54 30.22 54 36 C55.32 36 56.64 36 58 36 C58 30.06 58 24.12 58 18 C60.31 18 62.62 18 65 18 C65 23.94 65 29.88 65 36 C66.65 36 68.3 36 70 36 C70 30.39 70 24.78 70 19 C72.31 19 74.62 19 77 19 C77 24.61 77 30.22 77 36 C78.65 36 80.3 36 82 36 C82 30.39 82 24.78 82 19 C84.31 19 86.62 19 89 19 C89 24.61 89 30.22 89 36 C90.65 36 92.3 36 94 36 C94 30.39 94 24.78 94 19 C96.31 19 98.62 19 101 19 C101 24.61 101 30.22 101 36 C102.32 36 103.64 36 105 36 C105 30.06 105 24.12 105 18 C107.64 18 110.28 18 113 18 C113 23.94 113 29.88 113 36 C114.32 36 115.64 36 117 36 C117 30.06 117 24.12 117 18 C119.31 18 121.62 18 124 18 C124 23.94 124 29.88 124 36 C125.65 36 127.3 36 129 36 C129 30.39 129 24.78 129 19 C131.31 19 133.62 19 136 19 C136 24.61 136 30.22 136 36 C137.65 36 139.3 36 141 36 C141 30.39 141 24.78 141 19 C143.31 19 145.62 19 148 19 C148 24.61 148 30.22 148 36 C149.65 36 151.3 36 153 36 C153 30.39 153 24.78 153 19 C155.31 19 157.62 19 160 19 C160 24.61 160 30.22 160 36 C161.32 36 162.64 36 164 36 C164 30.39 164 24.78 164 19 C164.99 19.33 165.98 19.66 167 20 C168.16796875 22.8359375 168.16796875 22.8359375 169.1875 26.375 C169.53167969 27.53773438 169.87585938 28.70046875 170.23046875 29.8984375 C171 33 171 33 171 36 C172.98 36 174.96 36 177 36 C174.525 30.555 174.525 30.555 172 25 C173.629375 25.495 175.25875 25.99 176.9375 26.5 C183.68885949 28.30036253 189.63494718 29.66532524 196 26.125 C205.06181429 19.70621488 211.16752181 10.24932509 217 1 C220.78720957 2.26240319 221.05209944 3.40854377 223 6.8125 C225.8442686 11.43217194 228.93091696 15.49475918 232.5625 19.5 C233.23249023 20.25567261 233.23249023 20.25567261 233.91601562 21.02661133 C237.52295219 24.91459933 241.15529507 27.5386965 246.45703125 28.3984375 C252.46561165 28.33865063 257.43201169 27.25947352 263 25 C262.4361068 28.88536171 261.33310556 31.45224086 259.125 34.6875 C258.61195313 35.45449219 258.09890625 36.22148437 257.5703125 37.01171875 C256 39 256 39 253 41 C250.78649342 41.25415033 250.78649342 41.25415033 248.14702034 41.26006222 C247.14091276 41.26712781 246.13480519 41.2741934 245.0982095 41.2814731 C243.98976551 41.27905802 242.88132153 41.27664293 241.73928833 41.27415466 C240.5641898 41.27939134 239.38909128 41.28462802 238.17838371 41.29002339 C234.91112366 41.30245776 231.64399657 41.30586619 228.37671733 41.30542648 C224.85514904 41.30707236 221.33362015 41.32013452 217.81207275 41.33161926 C210.10968158 41.35448548 202.40731792 41.36239148 194.7048974 41.36744571 C189.89714172 41.37070059 185.08939406 41.37722176 180.28164291 41.3844471 C166.97478302 41.40401448 153.66793059 41.4204181 140.36105537 41.42332363 C139.08334207 41.42360499 139.08334207 41.42360499 137.77981638 41.42389202 C136.05293648 41.42425828 134.32605657 41.42462198 132.59917666 41.42498314 C131.74193176 41.42516595 130.88468686 41.42534876 130.00146484 41.42553711 C128.71403135 41.42580793 128.71403135 41.42580793 127.40058909 41.42608423 C113.48812327 41.42962711 99.57581211 41.45665594 85.66339995 41.494035 C71.38556584 41.53208945 57.10780853 41.55148089 42.82992256 41.55178314 C34.81099782 41.55236833 26.79225761 41.56089977 18.77338028 41.58978081 C11.94620271 41.61425643 5.11927697 41.62160357 -1.70793258 41.60653328 C-5.19221563 41.59934872 -8.67600103 41.60028714 -12.16022873 41.62294388 C-15.93569912 41.64324914 -19.70986902 41.63294211 -23.48532104 41.61473083 C-24.58930359 41.6279308 -25.69328613 41.64113077 -26.83072269 41.65473074 C-34.2575854 41.57256462 -34.2575854 41.57256462 -38.11859322 38.5948801 C-38.73945745 37.73856967 -39.36032169 36.88225924 -40 36 C-40.80050781 34.94425781 -40.80050781 34.94425781 -41.6171875 33.8671875 C-42.03226563 33.20976562 -42.44734375 32.55234375 -42.875 31.875 C-43.30554687 31.21242187 -43.73609375 30.54984375 -44.1796875 29.8671875 C-45 28 -45 28 -44 25 C-43.443125 25.2165625 -42.88625 25.433125 -42.3125 25.65625 C-35.58143356 28.11217965 -29.85060703 29.5046522 -23 26.5 C-12.51946875 20.55764053 -6.45848535 9.78270576 0 0 Z " fill="#0D2453" transform="translate(104,187)"/>
<path d="M0 0 C20.79 0 41.58 0 63 0 C63 20.13 63 40.26 63 61 C42.21 61 21.42 61 0 61 C0 40.87 0 20.74 0 0 Z " fill="#092151" transform="translate(290,234)"/>
<path d="M0 0 C20.79 0 41.58 0 63 0 C63 20.13 63 40.26 63 61 C42.21 61 21.42 61 0 61 C0 40.87 0 20.74 0 0 Z " fill="#082150" transform="translate(73,234)"/>
<path d="M0 0 C2.64 0 5.28 0 8 0 C8 1.32 8 2.64 8 4 C13.94 4 19.88 4 26 4 C26 3.34 26 2.68 26 2 C29.3 2 32.6 2 36 2 C36 2.66 36 3.32 36 4 C41.94 4 47.88 4 54 4 C54 2.68 54 1.36 54 0 C56.64 0 59.28 0 62 0 C62.02689216 1.47906892 62.04634621 2.95827483 62.0625 4.4375 C62.07410156 5.26121094 62.08570313 6.08492187 62.09765625 6.93359375 C62 9 62 9 61 10 C60.92773498 11.85287502 60.9161878 13.70833878 60.9375 15.5625 C60.94652344 16.57441406 60.95554687 17.58632812 60.96484375 18.62890625 C60.97644531 19.41136719 60.98804688 20.19382813 61 21 C64.91855126 23.1250278 67.49202625 23.44340725 72 23 C77.83384982 21.14877836 82.01637013 18.62615082 86 14 C86.1003939 19.42127068 85.73539333 24.44957825 84.828125 29.80078125 C84.78792537 32.11519048 84.78792537 32.11519048 86.5546875 33.76953125 C89.79065489 35.3978535 92.26210205 35.39830902 95.875 35.375 C97.66550781 35.38660156 97.66550781 35.38660156 99.4921875 35.3984375 C103.28198924 34.96797004 105.67063818 33.79273329 109 32 C109.99 32 110.98 32 112 32 C108.08069893 38.46038638 103.93297075 44.53351462 97 48 C91.40768939 48.47910466 88.56193461 47.48586286 83.84765625 44.55810547 C74.76866754 39.54213466 65.5681205 39.98342539 55.4375 40.0703125 C53.47321996 40.06558341 51.50894394 40.05877845 49.54467773 40.05001831 C45.44963153 40.03976224 41.35566208 40.05448772 37.26074219 40.08740234 C32.04898848 40.12728458 26.83975895 40.104286 21.62809753 40.0623951 C17.57838408 40.03692723 13.52925514 40.04522883 9.47952271 40.06328964 C7.55965871 40.0679118 5.63973913 40.06239827 3.71994019 40.04593277 C-7.28650443 39.97221726 -15.49737516 40.61432427 -24.97680664 46.50143433 C-28.60018703 48.2975065 -31.00235645 48.37810861 -35 48 C-42.13226598 44.36108879 -46.82496669 38.23202032 -50 31 C-46 33 -46 33 -44.29296875 34.05078125 C-41.15445066 35.3500315 -38.44982667 35.30165477 -35.0625 35.3125 C-33.85722656 35.32925781 -32.65195313 35.34601563 -31.41015625 35.36328125 C-27.74837644 34.97319474 -25.84063222 34.32366913 -23 32 C-22.6392166 28.57255771 -22.44061022 26.11877956 -24 23 C-24.06950541 21.45976004 -24.08452357 19.91665012 -24.0625 18.375 C-24.05347656 17.55773437 -24.04445312 16.74046875 -24.03515625 15.8984375 C-24.02355469 15.27195313 -24.01195312 14.64546875 -24 14 C-23.56429687 14.39832031 -23.12859375 14.79664063 -22.6796875 15.20703125 C-17.9487688 19.41570568 -13.96419804 22.73998263 -7.4375 23.3125 C-4.16487238 23.0149884 -1.98353674 22.28011576 1 21 C1.02687279 19.18757948 1.04633715 17.37504767 1.0625 15.5625 C1.07410156 14.55316406 1.08570313 13.54382813 1.09765625 12.50390625 C1.28612676 10.05978933 1.28612676 10.05978933 0 9 C-0.07179964 7.48071962 -0.08392007 5.95832518 -0.0625 4.4375 C-0.05347656 3.61121094 -0.04445312 2.78492188 -0.03515625 1.93359375 C-0.02355469 1.29550781 -0.01195312 0.65742188 0 0 Z " fill="#0D2453" transform="translate(182,136)"/>
<path d="M0 0 C96.03 0 192.06 0 291 0 C285 7 285 7 282.46519417 7.87744415 C281.19681688 7.87914885 281.19681688 7.87914885 279.90281582 7.88088799 C278.91860226 7.89914222 277.9343887 7.91739645 276.92035049 7.93620384 C275.31748368 7.91278126 275.31748368 7.91278126 273.68223572 7.8888855 C272.53724234 7.89980543 271.39224896 7.91072537 270.21255881 7.92197621 C266.37275534 7.94991583 262.53488651 7.92777439 258.69506836 7.90576172 C255.9436695 7.91139503 253.19235299 7.92745555 250.44099426 7.94293213 C243.7422977 7.97405132 237.04415026 7.96733954 230.34543221 7.94704364 C224.90173139 7.9312331 219.45818444 7.92909166 214.01446724 7.93671036 C213.23962265 7.93778299 212.46477805 7.93885562 211.66645332 7.93996076 C210.09237114 7.94219883 208.518289 7.94446833 206.9442069 7.94676889 C192.18597987 7.9667272 177.42805726 7.94378258 162.66988016 7.90616633 C150.00527228 7.87488581 137.34111347 7.88032935 124.67651367 7.91259766 C109.9694832 7.95005235 95.26271941 7.96481113 80.55564791 7.94331181 C78.98767098 7.94108196 77.41969401 7.93888137 75.851717 7.93671036 C75.08023961 7.93563043 74.30876222 7.9345505 73.51390673 7.93343785 C68.07591176 7.92739247 62.63808589 7.93759831 57.20011711 7.95406723 C50.57415777 7.97369296 43.94877893 7.96840309 37.32288616 7.93110202 C33.94150441 7.91269394 30.5618929 7.9092767 27.18039322 7.92864609 C23.51621547 7.94770344 19.85478222 7.92387718 16.19078064 7.8888855 C14.58456774 7.91230808 14.58456774 7.91230808 12.9459061 7.93620384 C11.96430029 7.91794961 10.98269448 7.89969537 9.97134304 7.88088799 C8.70320929 7.87918329 8.70320929 7.87918329 7.40945667 7.87744415 C5 7 5 7 0 0 Z " fill="#132B58" transform="translate(68,308)"/>
<path d="M0 0 C100.98 0 201.96 0 306 0 C304 4 304 4 302 6 C299.85298365 6.255301 299.85298365 6.255301 297.12951183 6.26285553 C295.5763112 6.27437896 295.5763112 6.27437896 293.99173278 6.2861352 C292.84535741 6.28440223 291.69898205 6.28266927 290.51786804 6.28088379 C289.30687197 6.28682603 288.0958759 6.29276828 286.84818298 6.29889059 C283.47602483 6.31328278 280.10407037 6.31861163 276.73189604 6.32008553 C273.09919478 6.32378065 269.46653797 6.33887229 265.8338623 6.35235596 C257.88555759 6.37954848 249.93727301 6.39157609 241.98892951 6.40037727 C237.02824267 6.40589787 232.06756365 6.4143718 227.1068821 6.42338562 C213.37886767 6.44777454 199.65085953 6.46837233 185.92282391 6.4751358 C185.04377142 6.47557494 184.16471893 6.47601407 183.25902848 6.47646651 C181.9372494 6.47712134 181.9372494 6.47712134 180.58876771 6.4777894 C178.80307495 6.47867634 177.0173822 6.47956947 175.23168945 6.48046875 C174.34591942 6.48091161 173.46014939 6.48135447 172.54753784 6.48181075 C158.19202703 6.48970825 143.83671918 6.52461921 129.48128679 6.57118779 C114.75147956 6.6185861 100.02177423 6.64353819 85.29188949 6.64587164 C77.01805024 6.64770683 68.74447538 6.65925304 60.47070885 6.69551086 C53.42572617 6.72627445 46.38108955 6.73657705 39.3360525 6.72003466 C35.74031023 6.71220734 32.14526521 6.714147 28.54960823 6.74214935 C24.65379663 6.77221223 20.75897246 6.75593672 16.86308289 6.73498535 C15.72339969 6.75109816 14.58371649 6.76721097 13.40949744 6.78381205 C12.36620711 6.77063236 11.32291678 6.75745267 10.24801159 6.7438736 C8.89916245 6.74566486 8.89916245 6.74566486 7.52306384 6.74749231 C5 6 5 6 0 0 Z " fill="#082050" transform="translate(60,300)"/>
<path d="M0 0 C64.02 0 128.04 0 194 0 C194 0.66 194 1.32 194 2 C193.34 2 192.68 2 192 2 C191.34 3.32 190.68 4.64 190 6 C165.81778203 6.14006179 141.6356247 6.24591798 117.45308304 6.31087303 C106.22509465 6.3418323 94.99735805 6.38405254 83.76953125 6.45263672 C73.98518038 6.51237515 64.20101181 6.55113406 54.41648364 6.56453097 C49.2338802 6.57236414 44.05179839 6.59081689 38.86936188 6.63438034 C33.99374624 6.67503353 29.11886824 6.68768384 24.24309921 6.67864609 C22.4515749 6.6803 20.66002654 6.69227849 18.86864853 6.71523285 C16.42561915 6.74500805 13.98538897 6.73794297 11.54229736 6.7215271 C10.47419984 6.74774267 10.47419984 6.74774267 9.38452458 6.77448785 C7.39702225 6.73828697 7.39702225 6.73828697 4 6 C2.68 4.02 1.36 2.04 0 0 Z " fill="#293F68" transform="translate(116,196)"/>
<path d="M0 0 C0.73573242 -0.00287018 1.47146484 -0.00574036 2.22949219 -0.00869751 C3.77930474 -0.01073176 5.32914334 -0.00524665 6.87890625 0.00732422 C9.24277493 0.0233884 11.60493411 0.0074553 13.96875 -0.01171875 C15.47917042 -0.0097362 16.98958978 -0.00589229 18.5 0 C19.5533252 -0.00910904 19.5533252 -0.00910904 20.62792969 -0.0184021 C24.95361223 0.04318536 27.9686936 0.47732701 31.25 3.3984375 C31.81762695 5.94213867 31.81762695 5.94213867 31.73828125 8.94140625 C31.72216797 10.01455078 31.70605469 11.08769531 31.68945312 12.19335938 C31.62661133 13.87268555 31.62661133 13.87268555 31.5625 15.5859375 C31.53994141 16.71708984 31.51738281 17.84824219 31.49414062 19.01367188 C31.43514811 21.80991726 31.3528824 24.60351847 31.25 27.3984375 C27.95 27.3984375 24.65 27.3984375 21.25 27.3984375 C21.25 20.7984375 21.25 14.1984375 21.25 7.3984375 C13.33 7.3984375 5.41 7.3984375 -2.75 7.3984375 C-2.75 13.9984375 -2.75 20.5984375 -2.75 27.3984375 C-6.05 27.3984375 -9.35 27.3984375 -12.75 27.3984375 C-12.89492719 23.46132313 -12.98394537 19.52489125 -13.0625 15.5859375 C-13.1253418 13.90661133 -13.1253418 13.90661133 -13.18945312 12.19335938 C-13.20556641 11.12021484 -13.22167969 10.04707031 -13.23828125 8.94140625 C-13.26446533 7.95164795 -13.29064941 6.96188965 -13.31762695 5.94213867 C-12.75 3.3984375 -12.75 3.3984375 -10.70385742 1.5769043 C-7.08122602 0.13162438 -3.84040762 -0.03321142 0 0 Z " fill="#F8F8F9" transform="translate(203.75,245.6015625)"/>
<path d="M0 0 C0.70705078 -0.01160156 1.41410156 -0.02320313 2.14257812 -0.03515625 C5.14373415 -0.01824833 7.47439852 0.12780429 10.14526367 1.5534668 C11.9375 3.375 11.9375 3.375 12.39160156 5.91870117 C12.36018066 7.40333862 12.36018066 7.40333862 12.328125 8.91796875 C12.31813477 9.88500732 12.30814453 10.8520459 12.29785156 11.84838867 C12.24322754 13.68687378 12.24322754 13.68687378 12.1875 15.5625 C12.105 19.460625 12.0225 23.35875 11.9375 27.375 C3.6875 27.375 -4.5625 27.375 -13.0625 27.375 C-13.165625 23.476875 -13.26875 19.57875 -13.375 15.5625 C-13.42052002 14.33684326 -13.46604004 13.11118652 -13.51293945 11.84838867 C-13.52542725 10.8813501 -13.53791504 9.91431152 -13.55078125 8.91796875 C-13.57696533 7.92821045 -13.60314941 6.93845215 -13.63012695 5.91870117 C-13.0625 3.375 -13.0625 3.375 -10.77246094 1.5534668 C-7.17347343 -0.01160642 -3.8530636 -0.06357025 0 0 Z " fill="#F5F6F8" transform="translate(169.0625,245.625)"/>
<path d="M0 0 C1.2890625 -0.00773438 2.578125 -0.01546875 3.90625 -0.0234375 C7.7547876 0.40324819 9.48715017 0.99502408 12.5 3.375 C13.06762695 5.91870117 13.06762695 5.91870117 12.98828125 8.91796875 C12.97579346 9.88500732 12.96330566 10.8520459 12.95043945 11.84838867 C12.90491943 13.07404541 12.85939941 14.29970215 12.8125 15.5625 C12.709375 19.460625 12.60625 23.35875 12.5 27.375 C4.25 27.375 -4 27.375 -12.5 27.375 C-12.603125 23.476875 -12.70625 19.57875 -12.8125 15.5625 C-12.85802002 14.33684326 -12.90354004 13.11118652 -12.95043945 11.84838867 C-12.96292725 10.8813501 -12.97541504 9.91431152 -12.98828125 8.91796875 C-13.01446533 7.92821045 -13.04064941 6.93845215 -13.06762695 5.91870117 C-12.5 3.375 -12.5 3.375 -10.1940918 1.5534668 C-6.67215493 0.01287873 -3.83470556 -0.02300823 0 0 Z " fill="#F5F6F8" transform="translate(257.5,245.625)"/>
<path d="M0 0 C42.24 0 84.48 0 128 0 C128.33 1.32 128.66 2.64 129 4 C86.1 4 43.2 4 -1 4 C-0.67 2.68 -0.34 1.36 0 0 Z " fill="#3E5276" transform="translate(149,280)"/>
<path d="M0 0 C0.99 0 1.98 0 3 0 C3.24476074 0.76296387 3.48952148 1.52592773 3.74169922 2.31201172 C5.17789141 5.38001249 6.28441939 6.25557241 9.1328125 8.0078125 C9.93847656 8.51957031 10.74414062 9.03132812 11.57421875 9.55859375 C12.83685547 10.33396484 12.83685547 10.33396484 14.125 11.125 C15.80025591 12.15964212 17.46988556 13.20346878 19.1328125 14.2578125 C19.87418457 14.7130127 20.61555664 15.16821289 21.37939453 15.63720703 C21.91419434 16.08692871 22.44899414 16.53665039 23 17 C23 17.99 23 18.98 23 20 C17.06 20.33 11.12 20.66 5 21 C9.60234542 24.20825417 9.60234542 24.20825417 14.21484375 27.40185547 C15.8455383 28.55230862 17.42492818 29.77449769 19 31 C19 31.66 19 32.32 19 33 C10.42 33 1.84 33 -7 33 C-7.33 33.66 -7.66 34.32 -8 35 C-8.99 35 -9.98 35 -11 35 C-10.69078116 33.54096742 -10.37751201 32.08279278 -10.0625 30.625 C-9.88847656 29.81289062 -9.71445312 29.00078125 -9.53515625 28.1640625 C-9 26 -9 26 -8 24 C-7.34 24 -6.68 24 -6 24 C-6 25.32 -6 26.64 -6 28 C-1.05 28 3.9 28 9 28 C7.453125 26.824375 5.90625 25.64875 4.3125 24.4375 C3.44238281 23.77621094 2.57226562 23.11492187 1.67578125 22.43359375 C-0.91476634 20.72527875 -0.91476634 20.72527875 -3.83203125 21.28515625 C-4.54746094 21.52105469 -5.26289062 21.75695312 -6 22 C-5.125 14.375 -5.125 14.375 -4 11 C-3.01 11 -2.02 11 -1 11 C-1 12.32 -1 13.64 -1 15 C5.435 14.505 5.435 14.505 12 14 C9.9271875 12.4840625 9.9271875 12.4840625 7.8125 10.9375 C7.03519531 10.36902344 6.25789063 9.80054688 5.45703125 9.21484375 C2.48016155 7.74297336 1.112514 8.03252229 -2 9 C-1.51421457 5.87709365 -1.0013988 3.00419641 0 0 Z " fill="#E8EEEC" transform="translate(48,139)"/>
<path d="M0 0 C44.88 0 89.76 0 136 0 C136 0.99 136 1.98 136 3 C91.12 3 46.24 3 0 3 C0 2.01 0 1.02 0 0 Z " fill="#0C2554" transform="translate(145,292)"/>
<path d="M0 0 C43.56 0 87.12 0 132 0 C132 0.99 132 1.98 132 3 C88.44 3 44.88 3 0 3 C0 2.01 0 1.02 0 0 Z " fill="#172F5C" transform="translate(147,286)"/>
<path d="M0 0 C5.93689596 2.66277256 11.80760693 7.10418826 14.3125 13.1875 C13.89040448 16.98635972 12.87313871 18.4952124 10 21 C8.02 21 6.04 21 4 21 C3.67 25.62 3.34 30.24 3 35 C1.35 34.67 -0.3 34.34 -2 34 C-3.52518732 29.28578464 -2.14019649 27.28039297 0 23 C-0.20435808 20.21352443 -0.20435808 20.21352443 -1 18 C-3.86632997 19.05098766 -4.83006643 19.66862954 -6.25 22.4375 C-7.14044938 25.03486851 -7.14044938 25.03486851 -7 28 C-10.15133488 26.16172132 -13.11964908 24.24027294 -16 22 C-15.505 20.515 -15.505 20.515 -15 19 C-14.28457031 18.95230469 -13.56914062 18.90460938 -12.83203125 18.85546875 C-8.99036704 17.69502122 -7.12979853 15.3264773 -4.6875 12.3125 C-4.23310547 11.79494141 -3.77871094 11.27738281 -3.31054688 10.74414062 C-0.99307311 7.94574749 -0.02242458 6.25982609 0.29296875 2.60546875 C0.14794922 1.31576172 0.14794922 1.31576172 0 0 Z " fill="#F1F5F3" transform="translate(317,67)"/>
<path d="M0 0 C-0.144375 0.680625 -0.28875 1.36125 -0.4375 2.0625 C0.26119475 6.75373618 3.56028388 8.95557384 7 12 C7.53625 12.51433594 8.0725 13.02867188 8.625 13.55859375 C11.05769116 15.79489578 12.5458287 16.95063355 15.875 17.3125 C16.57625 17.209375 17.2775 17.10625 18 17 C16.47291037 20.43595166 14.40072955 23.11912454 12 26 C11.01 25.67 10.02 25.34 9 25 C8.896875 24.236875 8.79375 23.47375 8.6875 22.6875 C7.95635961 19.82940576 7.23048087 18.84257115 5 17 C1.2047869 18.49097658 -0.61042731 20.75700849 -3 24 C-0.13494256 26.68664503 -0.13494256 26.68664503 3 29 C5.32171592 28.96624167 5.32171592 28.96624167 7 28 C7 31.58912412 6.33563446 32.10857029 4 34.6875 C3.443125 35.31011719 2.88625 35.93273437 2.3125 36.57421875 C1.879375 37.04472656 1.44625 37.51523438 1 38 C-0.485 37.505 -0.485 37.505 -2 37 C-1.7834375 35.9790625 -1.7834375 35.9790625 -1.5625 34.9375 C-2.25982956 30.25543012 -5.56002634 28.03062398 -9 25 C-9.86625 24.195625 -10.7325 23.39125 -11.625 22.5625 C-14.34462658 20.77327199 -15.80797137 20.63519673 -19 21 C-19 17.45595664 -18.39010515 16.89732095 -16.125 14.3125 C-15.32449219 13.37857422 -15.32449219 13.37857422 -14.5078125 12.42578125 C-13 11 -13 11 -11 11 C-11.0825 11.7425 -11.165 12.485 -11.25 13.25 C-10.92894816 16.78157027 -9.64734383 17.76630364 -7 20 C-3.2047869 18.50902342 -1.38957269 16.24299151 1 13 C-0.62280307 10.87501931 -0.62280307 10.87501931 -3 9 C-6.167832 8.66551741 -6.167832 8.66551741 -9 9 C-7.45665977 5.21180126 -4.44676575 0 0 0 Z " fill="#EFF3F1" transform="translate(92,82)"/>
<path d="M0 0 C1.32 0.66 2.64 1.32 4 2 C3.34215037 5.29680965 2.10579427 7.84117922 0.4375 10.75 C-0.01753906 11.54921875 -0.47257812 12.3484375 -0.94140625 13.171875 C-1.29074219 13.77515625 -1.64007813 14.3784375 -2 15 C-1.01 15 -0.02 15 1 15 C1 15.66 1 16.32 1 17 C0.360625 17.12375 -0.27875 17.2475 -0.9375 17.375 C-1.618125 17.58125 -2.29875 17.7875 -3 18 C-4.14352916 20.28705831 -4.10334439 21.59264762 -4.0625 24.125 C-4.041875 25.40375 -4.02125 26.6825 -4 28 C-3.01 26.68 -2.02 25.36 -1 24 C-1.5413 28.54692 -2.55215564 32.10158121 -5 36 C-6.98 36.495 -6.98 36.495 -9 37 C-9.495 32.05 -9.495 32.05 -10 27 C-11.2375 27.33 -12.475 27.66 -13.75 28 C-19.42438496 29.26297916 -25.21226136 29.61398787 -31 29 C-31.66 28.34 -32.32 27.68 -33 27 C-33 26.01 -33 25.02 -33 24 C-32.14341797 24.24169922 -32.14341797 24.24169922 -31.26953125 24.48828125 C-25.03549432 25.89389027 -18.93471533 25.22551825 -13 23 C-12.67 22.34 -12.34 21.68 -12 21 C-13.98 21.33 -15.96 21.66 -18 22 C-17.49396008 19.83125748 -17.00016187 18.00032373 -16 16 C-18.64 16 -21.28 16 -24 16 C-24.66 14.68 -25.32 13.36 -26 12 C-25.10861328 12.10828125 -25.10861328 12.10828125 -24.19921875 12.21875 C-17.7619374 12.93956533 -11.4768939 13.0830371 -5 13 C-3.35 8.71 -1.7 4.42 0 0 Z " fill="#F0F4F2" transform="translate(148,349)"/>
<path d="M0 0 C3.0625 -0.625 3.0625 -0.625 7 0 C9.82661752 3.02600548 11.87254549 6.46126378 14 10 C14.80551045 11.21300396 15.61650808 12.42242029 16.4375 13.625 C16.953125 14.40875 17.46875 15.1925 18 16 C18.33 11.71 18.66 7.42 19 3 C18.01 3 17.02 3 16 3 C16 2.01 16 1.02 16 0 C19.3 0 22.6 0 26 0 C26 0.99 26 1.98 26 3 C24.68 3 23.36 3 22 3 C22 11.25 22 19.5 22 28 C21.01 28 20.02 28 19 28 C17.77319336 26.57885742 17.77319336 26.57885742 16.58984375 24.60546875 C16.15736328 23.89712891 15.72488281 23.18878906 15.27929688 22.45898438 C14.61510742 21.33459961 14.61510742 21.33459961 13.9375 20.1875 C13.05088112 18.7225958 12.16416598 17.25774986 11.27734375 15.79296875 C10.88796631 15.1383667 10.49858887 14.48376465 10.09741211 13.80932617 C9.10854464 12.17895981 8.05771209 10.58656814 7 9 C6.67 13.95 6.34 18.9 6 24 C6.99 24 7.98 24 9 24 C9 24.99 9 25.98 9 27 C5.7 27 2.4 27 -1 27 C-1 26.01 -1 25.02 -1 24 C-0.01 23.67 0.98 23.34 2 23 C2 16.4 2 9.8 2 3 C1.34 2.67 0.68 2.34 0 2 C0 1.34 0 0.68 0 0 Z " fill="#EBF0EE" transform="translate(206,34)"/>
<path d="M0 0 C0.7425 0.185625 1.485 0.37125 2.25 0.5625 C4.94990963 0.99203108 6.44631077 0.85122974 9 0 C10.1875 1.5 10.1875 1.5 11 4 C10.27101296 6.78824238 9.1843275 9.37665092 8 12 C9.32 12 10.64 12 12 12 C11.67 15.3 11.34 18.6 11 22 C12.65 21.34 14.3 20.68 16 20 C16 20.99 16 21.98 16 23 C15.34 23 14.68 23 14 23 C14.495 23.9075 14.99 24.815 15.5 25.75 C17 29 17 29 17 33 C14.03 33.495 14.03 33.495 11 34 C11.33 32.35 11.66 30.7 12 29 C11.34 28.67 10.68 28.34 10 28 C9.34 29.98 8.68 31.96 8 34 C7.34 34 6.68 34 6 34 C6.144375 33.46375 6.28875 32.9275 6.4375 32.375 C7.63640691 27.31294859 8.27931628 22.14774083 9 17 C8.34 17 7.68 17 7 17 C6.81824219 17.58007812 6.63648438 18.16015625 6.44921875 18.7578125 C4.9581894 23.39147293 3.31666424 27.69762355 1 32 C-0.65 32 -2.3 32 -4 32 C-2.46798474 28.55296566 -0.34730584 25.93413229 2 23 C2.70885894 21.68861096 3.39456452 20.36222983 4 19 C3.01 19 2.02 19 1 19 C0.375 16.6875 0.375 16.6875 0 14 C0.66 13.01 1.32 12.02 2 11 C1.01 11 0.02 11 -1 11 C-2.26264601 6.70700357 -1.62950412 4.12168689 0 0 Z " fill="#EFF3F1" transform="translate(287,348)"/>
<path d="M0 0 C-0.30538696 1.09598511 -0.30538696 1.09598511 -0.61694336 2.21411133 C-1.06234332 5.45340956 -0.58460096 6.69136034 0.87109375 9.57421875 C1.28037109 10.40630859 1.68964844 11.23839844 2.11132812 12.09570312 C2.7677832 13.37864258 2.7677832 13.37864258 3.4375 14.6875 C4.29347846 16.39818503 5.14649752 18.11035509 5.99609375 19.82421875 C6.37950928 20.57791748 6.7629248 21.33161621 7.15795898 22.1081543 C8 24 8 24 8 26 C4.42635641 25.42590968 1.71615696 24.50054964 -1.42578125 22.71484375 C-2.22177734 22.26689453 -3.01777344 21.81894531 -3.83789062 21.35742188 C-4.65451172 20.88884766 -5.47113281 20.42027344 -6.3125 19.9375 C-7.14845703 19.46505859 -7.98441406 18.99261719 -8.84570312 18.50585938 C-10.90061387 17.34336701 -12.95078346 16.17250085 -15 15 C-12.69 19.62 -10.38 24.24 -8 29 C-6.68 29 -5.36 29 -4 29 C-5 32 -5 32 -7.9375 33.6875 C-11 35 -11 35 -13 35 C-12.855625 33.96875 -12.71125 32.9375 -12.5625 31.875 C-12.52934414 27.27462429 -14.29968269 23.60048004 -16.3125 19.5625 C-16.6206665 18.93520996 -16.92883301 18.30791992 -17.24633789 17.66162109 C-19.18362541 13.81398768 -19.18362541 13.81398768 -23 12 C-22.67 11.01 -22.34 10.02 -22 9 C-19.01685215 8.01355973 -16.86770015 7.64484737 -13.91113281 8.85498047 C-11.59672281 10.14478719 -9.3584899 11.5122306 -7.125 12.9375 C-6.34125 13.41896484 -5.5575 13.90042969 -4.75 14.39648438 C-2.82399346 15.58262255 -0.91068333 16.78933317 1 18 C-1.97 12.06 -1.97 12.06 -5 6 C-6.32 6 -7.64 6 -9 6 C-9 5.01 -9 4.02 -9 3 C-3.375 0 -3.375 0 0 0 Z " fill="#EFF2F1" transform="translate(149,46)"/>
<path d="M0 0 C4.2002771 0.90523213 7.57966461 2.90282094 11.25 5.0625 C11.8996875 5.43955078 12.549375 5.81660156 13.21875 6.20507812 C14.81505091 7.13234115 16.40787529 8.06558456 18 9 C17.01 11.31 16.02 13.62 15 16 C14.01 15.67 13.02 15.34 12 15 C12.0825 14.236875 12.165 13.47375 12.25 12.6875 C12.28317959 9.87988598 12.28317959 9.87988598 10.125 8.1875 C8.1147343 6.83739288 8.1147343 6.83739288 6 7 C5.01 9.31 4.02 11.62 3 14 C4.32 14.66 5.64 15.32 7 16 C7 15.34 7 14.68 7 14 C7.99 14 8.98 14 10 14 C8.94124926 17.40312738 7.99097846 20.01353231 6 23 C5.34 23 4.68 23 4 23 C3.67 21.35 3.34 19.7 3 18 C2.01 18 1.02 18 0 18 C-0.99 20.31 -1.98 22.62 -3 25 C0.99560608 27.83022097 4.42737323 26.76210446 9 26 C8.1875 28.9375 8.1875 28.9375 7 32 C4 33 4 33 2.19067383 32.28735352 C1.53607178 31.90506592 0.88146973 31.52277832 0.20703125 31.12890625 C-0.50517578 30.71962891 -1.21738281 30.31035156 -1.95117188 29.88867188 C-2.68916016 29.45103516 -3.42714844 29.01339844 -4.1875 28.5625 C-5.31188477 27.9118457 -5.31188477 27.9118457 -6.45898438 27.24804688 C-8.31127243 26.17442769 -10.1563425 25.08837319 -12 24 C-12 23.34 -12 22.68 -12 22 C-11.26523437 21.80921875 -10.53046875 21.6184375 -9.7734375 21.421875 C-6.0556688 19.51586401 -4.57654538 16.78763282 -2.625 13.25 C-2.25761719 12.6415625 -1.89023437 12.033125 -1.51171875 11.40625 C0.31256774 8.18449122 1.02152313 6.27180641 0.7265625 2.546875 C0.48679687 1.70640625 0.24703125 0.8659375 0 0 Z " fill="#F0F4F3" transform="translate(291,52)"/>
<path d="M0 0 C5.66940866 3.11019989 10.77882909 6.65065242 15.92578125 10.55273438 C19.24467842 12.99611673 21.85722035 14.60135517 26 15 C22.87378374 18.39417765 20.43458973 20.6062718 16 22 C16 20.35 16 18.7 16 17 C14.20800528 16.21717352 14.20800528 16.21717352 12 16 C9.65373496 17.00966359 9.65373496 17.00966359 8 19 C7.66574265 21.62625139 7.66574265 21.62625139 8 24 C9.32 23.67 10.64 23.34 12 23 C12.33 23.99 12.66 24.98 13 26 C10.36 27.65 7.72 29.3 5 31 C5 29.68 5 28.36 5 27 C3.98110553 20.47103146 1.83796214 14.25029207 -0.29296875 8.015625 C-1.027478 4.882801 -0.88884161 3.05716222 0 0 Z " fill="#EFF3F1" transform="translate(108,67)"/>
<path d="M0 0 C0.66 0.33 1.32 0.66 2 1 C2.14252197 1.63413818 2.28504395 2.26827637 2.43188477 2.92163086 C3.40888688 6.49585475 6.90721338 7.78156842 9.9375 9.5625 C16.75662617 13.63493926 16.75662617 13.63493926 19 17 C19.32645395 21.54524346 18.80212303 25.03273399 15.875 28.5625 C11.98252523 30.50873739 10.348983 30.75934624 6 30 C2.8825174 28.31136359 -0.07930113 26.48887284 -3.03515625 24.53125 C-6.32256016 22.83340766 -8.35438141 22.69664986 -12 23 C-12.33 22.34 -12.66 21.68 -13 21 C-11.02 18.03 -9.04 15.06 -7 12 C-6.34 12.33 -5.68 12.66 -5 13 C-4.91234375 13.76570313 -4.8246875 14.53140625 -4.734375 15.3203125 C-4.21626612 18.2352318 -4.21626612 18.2352318 -1.453125 20.0546875 C-0.39609375 20.65539062 0.6609375 21.25609375 1.75 21.875 C2.79671875 22.49117187 3.8434375 23.10734375 4.921875 23.7421875 C8.28085621 25.11476611 9.63564878 25.23516391 13 24 C15.23942511 22.20510479 15.23942511 22.20510479 15.125 19.75 C13.36255153 15.44179263 9.79037648 13.5146272 6 11 C5.01 10.34 4.02 9.68 3 9 C0.66800612 8.92094936 -1.66832622 8.91201231 -4 9 C-3.35455571 5.51460083 -1.89865603 2.97180943 0 0 Z " fill="#ECF1EF" transform="translate(66,109)"/>
<path d="M0 0 C0 0.99 0 1.98 0 3 C-0.99 3 -1.98 3 -3 3 C-2.855625 3.58265625 -2.71125 4.1653125 -2.5625 4.765625 C-1.07540289 11.33363725 0.15942481 18.2989176 -1 25 C-2.8771591 27.26340583 -4.37503278 28.68751639 -7 30 C-13.23688863 30.57748969 -13.23688863 30.57748969 -16.3125 28.25 C-19.66210466 23.78386045 -20.49142348 19.74445869 -21.125 14.25 C-21.21136719 13.55261719 -21.29773438 12.85523438 -21.38671875 12.13671875 C-21.59771846 10.42527668 -21.79975501 8.71273371 -22 7 C-22.99 7 -23.98 7 -25 7 C-25 6.01 -25 5.02 -25 4 C-21.32589215 2.82428549 -17.83070817 2.92633254 -14 3 C-14 3.66 -14 4.32 -14 5 C-14.99 5 -15.98 5 -17 5 C-16.55040347 7.77251194 -16.09073921 10.54269519 -15.625 13.3125 C-15.49867188 14.09818359 -15.37234375 14.88386719 -15.2421875 15.69335938 C-15.11328125 16.45068359 -14.984375 17.20800781 -14.8515625 17.98828125 C-14.67874756 19.03302612 -14.67874756 19.03302612 -14.50244141 20.09887695 C-14.02824879 22.30828759 -14.02824879 22.30828759 -12 25 C-8.535 24.505 -8.535 24.505 -5 24 C-4.60158691 14.28462515 -4.60158691 14.28462515 -7 5 C-7.99 4.67 -8.98 4.34 -10 4 C-10 3.01 -10 2.02 -10 1 C-6.56484998 0.37542727 -3.50935186 0 0 0 Z " fill="#F0F4F2" transform="translate(197,34)"/>
<path d="M0 0 C0.99 0 1.98 0 3 0 C2.75 2.375 2.75 2.375 2 5 C-0.0625 6.3125 -0.0625 6.3125 -2 7 C-2 8.32 -2 9.64 -2 11 C-1.01 11.33 -0.02 11.66 1 12 C0.34 14.64 -0.32 17.28 -1 20 C-0.01 20.66 0.98 21.32 2 22 C1.67 22.99 1.34 23.98 1 25 C0.071875 25.28875 -0.85625 25.5775 -1.8125 25.875 C-5.56530658 27.19951997 -6.78868745 28.76808166 -9 32 C-9.66 31.67 -10.32 31.34 -11 31 C-10.34 29.68 -9.68 28.36 -9 27 C-9.66 27 -10.32 27 -11 27 C-11 26.34 -11 25.68 -11 25 C-10.01 25 -9.02 25 -8 25 C-8.33 24.34 -8.66 23.68 -9 23 C-10.32 23 -11.64 23 -13 23 C-12.21302675 19.58978257 -11.12880057 16.31114834 -10 13 C-11.32 12.67 -12.64 12.34 -14 12 C-13 10 -13 10 -10.5 9.0625 C-9.675 8.711875 -8.85 8.36125 -8 8 C-7.67 7.01 -7.34 6.02 -7 5 C-6.34 5 -5.68 5 -5 5 C-4.34 4.34 -3.68 3.68 -3 3 C-2.01 3.33 -1.02 3.66 0 4 C0 2.68 0 1.36 0 0 Z " fill="#E4EAE8" transform="translate(202,365)"/>
<path d="M0 0 C1.53723734 2.76203532 3.05184161 5.53585152 4.5625 8.3125 C5.00013672 9.09818359 5.43777344 9.88386719 5.88867188 10.69335938 C6.29794922 11.45068359 6.70722656 12.20800781 7.12890625 12.98828125 C7.51119385 13.68477783 7.89348145 14.38127441 8.28735352 15.09887695 C9 17 9 17 8 20 C5 22 5 22 2.8125 21.625 C1.9153125 21.315625 1.9153125 21.315625 1 21 C1.66 20.01 2.32 19.02 3 18 C3 16.68 3 15.36 3 14 C-1.25140272 15.34489651 -5.27950591 16.90900715 -9.3125 18.8125 C-10.36050781 19.29332031 -11.40851563 19.77414063 -12.48828125 20.26953125 C-15.23503498 21.78314439 -15.23503498 21.78314439 -15.85546875 24.69921875 C-15.92701172 25.83810547 -15.92701172 25.83810547 -16 27 C-16.66 27 -17.32 27 -18 27 C-19.65 23.37 -21.3 19.74 -23 16 C-22.01 15.67 -21.02 15.34 -20 15 C-20 15.66 -20 16.32 -20 17 C-13.2813095 15.00386732 -7.19265192 12.2708579 -1 9 C-1 8.01 -1 7.02 -1 6 C-3.97 5.505 -3.97 5.505 -7 5 C-7 4.01 -7 3.02 -7 2 C-4.35261084 0.5393715 -3.10551666 0 0 0 Z " fill="#EBF0EE" transform="translate(370,124)"/>
<path d="M0 0 C3.54205538 2.0020313 4.73284046 3.1818239 6 7.0625 C6 10 6 10 4.5625 11.875 C4.046875 12.24625 3.53125 12.6175 3 13 C2.01 12.67 1.02 12.34 0 12 C0.33 9.69 0.66 7.38 1 5 C-0.65614657 4.61781233 -2.32457024 4.28604898 -4 4 C-4.33 4.33 -4.66 4.66 -5 5 C-4.69264888 8.50472028 -4.28345317 11.99146756 -3.86328125 15.484375 C-4 19 -4 19 -5.734375 21.9140625 C-8 24 -8 24 -11.9375 24.625 C-15.25136747 24.40242681 -16.09453956 23.93160968 -18.9375 21.875 C-21.20438456 18.71510032 -22 16.88186335 -22 13 C-20.5625 11.125 -20.5625 11.125 -19 10 C-18.01 10.33 -17.02 10.66 -16 11 C-16.20625 12.11375 -16.4125 13.2275 -16.625 14.375 C-16.810625 16.169375 -16.810625 16.169375 -17 18 C-15.10244856 20.34973818 -15.10244856 20.34973818 -11.875 20.125 C-10.92625 20.08375 -9.9775 20.0425 -9 20 C-9.144375 19.34773438 -9.28875 18.69546875 -9.4375 18.0234375 C-11.56939502 7.98576512 -11.56939502 7.98576512 -11 4 C-8.05127687 -0.48205916 -5.14006617 -0.7214128 0 0 Z " fill="#F1F4F3" transform="translate(345,91)"/>
<path d="M0 0 C0.99 0 1.98 0 3 0 C4.42258812 3.82320557 5.24042276 6.91281305 5 11 C4.34 11 3.68 11 3 11 C2.34 10.34 1.68 9.68 1 9 C0.21625 9.825 -0.5675 10.65 -1.375 11.5 C-4 14 -4 14 -6 14 C-6 14.66 -6 15.32 -6 16 C-2.37 16.33 1.26 16.66 5 17 C5 15.68 5 14.36 5 13 C5.66 13 6.32 13 7 13 C7.66 15.97 8.32 18.94 9 22 C8.01 22 7.02 22 6 22 C5.34 21.34 4.68 20.68 4 20 C1.53102648 19.66398585 -0.83252497 19.44252729 -3.3125 19.3125 C-4.62863281 19.22613281 -5.94476563 19.13976562 -7.30078125 19.05078125 C-10.43871022 19.00770514 -12.98050123 19.22322372 -16 20 C-16.33 21.32 -16.66 22.64 -17 24 C-17.66 24 -18.32 24 -19 24 C-19.50559908 22.56445975 -20.0042749 21.1264798 -20.5 19.6875 C-20.91765625 18.48673828 -20.91765625 18.48673828 -21.34375 17.26171875 C-22 15 -22 15 -22 12 C-21.01 12.33 -20.02 12.66 -19 13 C-19 13.66 -19 14.32 -19 15 C-11.50586749 13.29920397 -6.03242677 9.85244274 -1 4 C-0.21329114 1.85905418 -0.21329114 1.85905418 0 0 Z " fill="#F0F3F2" transform="translate(380,151)"/>
<path d="M0 0 C3.9492568 0.55105909 7.34920174 1.38935371 11 3 C11 3.66 11 4.32 11 5 C9.68 5 8.36 5 7 5 C7.33 10.28 7.66 15.56 8 21 C10.97 17.04 13.94 13.08 17 9 C16.34 8.01 15.68 7.02 15 6 C18.93670488 4.68776504 21.12488144 5.75703744 25 7 C25 7.99 25 8.98 25 10 C24.24605957 10.07726318 23.49211914 10.15452637 22.71533203 10.23413086 C19.29780702 11.19805605 18.538028 12.35624519 16.5546875 15.25390625 C15.65169922 16.53491211 15.65169922 16.53491211 14.73046875 17.84179688 C14.11816406 18.73962891 13.50585938 19.63746094 12.875 20.5625 C11.6521693 22.34081617 10.4208108 24.11330826 9.1796875 25.87890625 C8.64069824 26.6685376 8.10170898 27.45816895 7.54638672 28.27172852 C7.0360791 28.84205811 6.52577148 29.4123877 6 30 C5.01 30 4.02 30 3 30 C3 21.09 3 12.18 3 3 C2.01 2.67 1.02 2.34 0 2 C0 1.34 0 0.68 0 0 Z " fill="#F5F7F6" transform="translate(259,40)"/>
<path d="M0 0 C1.65 0.33 3.3 0.66 5 1 C7.82079894 8.75719708 8.51437986 17.38551031 5 25 C3.02 25 1.04 25 -1 25 C-2.07957377 21.76127868 -2.13326784 19.33971795 -2.125 15.9375 C-2.12757813 14.87402344 -2.13015625 13.81054688 -2.1328125 12.71484375 C-2 10 -2 10 -1 8 C-1.66 7.67 -2.32 7.34 -3 7 C-2.01 4.69 -1.02 2.38 0 0 Z " fill="#102756" transform="translate(211,111)"/>
<path d="M0 0 C1.6254308 0.14095064 3.25034051 0.28792087 4.875 0.4375 C5.77992188 0.51871094 6.68484375 0.59992187 7.6171875 0.68359375 C10 1 10 1 12 2 C12 2.66 12 3.32 12 4 C10.68 4.33 9.36 4.66 8 5 C7.49550598 7.58252893 6.99625699 10.16588703 6.5 12.75 C6.28537109 13.84441406 6.28537109 13.84441406 6.06640625 14.9609375 C5.41111121 18.39343532 5 21.49169491 5 25 C5.66 25.33 6.32 25.66 7 26 C7 26.99 7 27.98 7 29 C3.37 28.34 -0.26 27.68 -4 27 C-4 26.01 -4 25.02 -4 24 C-3.01 23.67 -2.02 23.34 -1 23 C0.32 16.4 1.64 9.8 3 3 C2.01 2.67 1.02 2.34 0 2 C0 1.34 0 0.68 0 0 Z " fill="#EDF1EF" transform="translate(240,36)"/>
<path d="M0 0 C0.66 0 1.32 0 2 0 C3.5078125 1.96875 3.5078125 1.96875 5.125 4.5 C5.66382813 5.3353125 6.20265625 6.170625 6.7578125 7.03125 C7.16773438 7.6809375 7.57765625 8.330625 8 9 C5 10 5 10 2.734375 10.296875 C-0.91554412 11.23542563 -3.69584883 13.12925233 -6.75 15.25 C-7.33910156 15.63285156 -7.92820312 16.01570313 -8.53515625 16.41015625 C-11.33881142 18.33726635 -12.84262377 19.50578342 -13.890625 22.796875 C-13.92671875 23.52390625 -13.9628125 24.2509375 -14 25 C-19.13623978 20.04087193 -19.13623978 20.04087193 -21 17 C-20.505 15.515 -20.505 15.515 -20 14 C-19.32453125 14.26039062 -18.6490625 14.52078125 -17.953125 14.7890625 C-13.51851982 15.10582001 -11.20857628 12.95099354 -7.75 10.375 C-7.11320312 9.93542969 -6.47640625 9.49585937 -5.8203125 9.04296875 C-2.03913621 6.31205974 -2.03913621 6.31205974 -0.078125 2.1640625 C-0.05234375 1.44992188 -0.0265625 0.73578125 0 0 Z " fill="#EFF3F2" transform="translate(357,107)"/>
<path d="M0 0 C1.32 0.66 2.64 1.32 4 2 C3.34215037 5.29680965 2.10579427 7.84117922 0.4375 10.75 C-0.01753906 11.54921875 -0.47257812 12.3484375 -0.94140625 13.171875 C-1.29074219 13.77515625 -1.64007813 14.3784375 -2 15 C-1.01 15 -0.02 15 1 15 C1 15.66 1 16.32 1 17 C0.38125 17.12375 -0.2375 17.2475 -0.875 17.375 C-3.19120832 17.87197356 -3.19120832 17.87197356 -5 20 C-7.125 20.625 -7.125 20.625 -9 21 C-9.33 20.34 -9.66 19.68 -10 19 C-11.65821773 18.62690101 -13.32577014 18.29299023 -15 18 C-15.33 17.67 -15.66 17.34 -16 17 C-18.02852478 16.83900597 -20.05775294 16.6811709 -22.08984375 16.57421875 C-24 16 -24 16 -25.25390625 13.95703125 C-25.50011719 13.31121094 -25.74632813 12.66539062 -26 12 C-25.10861328 12.10828125 -25.10861328 12.10828125 -24.19921875 12.21875 C-17.7619374 12.93956533 -11.4768939 13.0830371 -5 13 C-3.35 8.71 -1.7 4.42 0 0 Z " fill="#DEE6E3" transform="translate(148,349)"/>
<path d="M0 0 C3 0.25 3 0.25 5 2.25 C4.71269945 4.58944736 4.38063221 6.9239143 4 9.25 C4.33 9.58 4.66 9.91 5 10.25 C5.25 13.1875 5.25 13.1875 5 16.25 C2 18.25 2 18.25 -1.125 17.9375 C-4 17.25 -4 17.25 -5 16.25 C-5.1613058 13.18518979 -4.98150241 11.19450722 -4 8.25 C-4.185625 7.239375 -4.37125 6.22875 -4.5625 5.1875 C-4.706875 4.218125 -4.85125 3.24875 -5 2.25 C-3 0.25 -3 0.25 0 0 Z " fill="#4A7362" transform="translate(200,321.75)"/>
<path d="M0 0 C1.32 0.33 2.64 0.66 4 1 C4 2.32 4 3.64 4 5 C5.32 5 6.64 5 8 5 C7.38722388 7.96175123 6.74627478 9.38058783 5 12 C5.78375 11.95875 6.5675 11.9175 7.375 11.875 C10 12 10 12 12 14 C12 14.99 12 15.98 12 17 C9.36 16.67 6.72 16.34 4 16 C3.566875 16.825 3.13375 17.65 2.6875 18.5 C1.8521875 19.7375 1.8521875 19.7375 1 21 C0.01 21 -0.98 21 -2 21 C-0.80100302 17.9168649 0.47700477 14.93720508 2 12 C1.38125 12.495 0.7625 12.99 0.125 13.5 C-2 15 -2 15 -4 15 C-4 14.01 -4 13.02 -4 12 C-1.5 10.3125 -1.5 10.3125 1 9 C0.67 6.03 0.34 3.06 0 0 Z " fill="#F0F4F2" transform="translate(243,371)"/>
<path d="M0 0 C3.0625 0.375 3.0625 0.375 5 1.875 C6.55593743 5.53602925 6.23640372 8.6061512 5.0625 12.375 C3 14.875 3 14.875 1.0625 16.375 C0.4025 16.045 -0.2575 15.715 -0.9375 15.375 C0.0525 13.725 1.0425 12.075 2.0625 10.375 C0.6084375 10.4059375 0.6084375 10.4059375 -0.875 10.4375 C-3.9375 10.375 -3.9375 10.375 -4.9375 9.375 C-5.125 5.9375 -5.125 5.9375 -4.9375 2.375 C-2.9375 0.375 -2.9375 0.375 0 0 Z " fill="#3A6653" transform="translate(224.9375,321.625)"/>
<path d="M0 0 C3.63 0 7.26 0 11 0 C11 3.3 11 6.6 11 10 C7.37 10 3.74 10 0 10 C0 6.7 0 3.4 0 0 Z " fill="#DFE3E8" transform="translate(331,246)"/>
<path d="M0 0 C1.32 0 2.64 0 4 0 C4 8.91 4 17.82 4 27 C2.68 27 1.36 27 0 27 C0 18.09 0 9.18 0 0 Z " fill="#E9ECEF" transform="translate(184,246)"/>
<path d="M0 0 C1.32 0 2.64 0 4 0 C4 8.91 4 17.82 4 27 C2.68 27 1.36 27 0 27 C0 18.09 0 9.18 0 0 Z " fill="#EEF0F3" transform="translate(273,246)"/>
<path d="M0 0 C1.32 0 2.64 0 4 0 C4 8.91 4 17.82 4 27 C2.68 27 1.36 27 0 27 C0 18.09 0 9.18 0 0 Z " fill="#E2E5EB" transform="translate(238,246)"/>
<path d="M0 0 C1.32 0 2.64 0 4 0 C4 8.91 4 17.82 4 27 C2.68 27 1.36 27 0 27 C0 18.09 0 9.18 0 0 Z " fill="#E1E5EA" transform="translate(149,246)"/>
<path d="M0 0 C3.3 0 6.6 0 10 0 C10 3.3 10 6.6 10 10 C6.7 10 3.4 10 0 10 C0 6.7 0 3.4 0 0 Z " fill="#F2F3F6" transform="translate(317,246)"/>
<path d="M0 0 C3.3 0 6.6 0 10 0 C10 3.3 10 6.6 10 10 C6.7 10 3.4 10 0 10 C0 6.7 0 3.4 0 0 Z " fill="#F1F2F5" transform="translate(302,246)"/>
<path d="M0 0 C3.3 0 6.6 0 10 0 C10 3.3 10 6.6 10 10 C6.7 10 3.4 10 0 10 C0 6.7 0 3.4 0 0 Z " fill="#F4F5F7" transform="translate(114,246)"/>
<path d="M0 0 C3.3 0 6.6 0 10 0 C10 3.3 10 6.6 10 10 C6.7 10 3.4 10 0 10 C0 6.7 0 3.4 0 0 Z " fill="#EFF1F3" transform="translate(99,246)"/>
<path d="M0 0 C3.3 0 6.6 0 10 0 C10 3.3 10 6.6 10 10 C6.7 10 3.4 10 0 10 C0 6.7 0 3.4 0 0 Z " fill="#F0F1F4" transform="translate(85,246)"/>
<path d="M0 0 C8.25 0 16.5 0 25 0 C25 1.32 25 2.64 25 4 C16.75 4 8.5 4 0 4 C0 2.68 0 1.36 0 0 Z " fill="#E7EAEE" transform="translate(245,239)"/>
<path d="M0 0 C8.25 0 16.5 0 25 0 C25 1.32 25 2.64 25 4 C16.75 4 8.5 4 0 4 C0 2.68 0 1.36 0 0 Z " fill="#E7EAEE" transform="translate(156,239)"/>
<path d="M0 0 C5.66735967 3.37629938 5.66735967 3.37629938 7 5.875 C7 8.83659437 6.00147712 11.23121033 5 14 C5 14.99 5 15.98 5 17 C6.32 16.67 7.64 16.34 9 16 C9.33 16.99 9.66 17.98 10 19 C7.36 20.65 4.72 22.3 2 24 C2 22.68 2 21.36 2 20 C1.70195209 18.24364623 1.36700009 16.49325043 1 14.75 C0.814375 13.85796875 0.62875 12.9659375 0.4375 12.046875 C0.293125 11.37140625 0.14875 10.6959375 0 10 C0.66 10 1.32 10 2 10 C1.34 6.7 0.68 3.4 0 0 Z " fill="#E3E9E7" transform="translate(111,74)"/>
<path d="M0 0 C0.99 0 1.98 0 3 0 C4.1875 2.0625 4.1875 2.0625 5 5 C3.8125 8.1875 3.8125 8.1875 2.9375 9.953125 C1.17333123 13.80489347 0.15412845 17.93190183 -1 22 C-2.32 21.67 -3.64 21.34 -5 21 C-4.1595613 16.51471135 -3.05582308 12.10942057 -1.9375 7.6875 C-1.75123047 6.94693359 -1.56496094 6.20636719 -1.37304688 5.44335938 C-0.91643895 3.62863559 -0.45836694 1.81428029 0 0 Z " fill="#EDF2F0" transform="translate(181,378)"/>
<path d="M0 0 C3.79256984 2.20498246 7.344848 4.71751331 10.6875 7.5625 C10.6875 7.8925 10.6875 8.2225 10.6875 8.5625 C5.22980189 8.67388159 0.07240641 8.47907981 -5.3125 7.5625 C-5.3125 6.2425 -5.3125 4.9225 -5.3125 3.5625 C-5.9725 3.2325 -6.6325 2.9025 -7.3125 2.5625 C-3.07886288 -0.58248757 -3.07886288 -0.58248757 0 0 Z " fill="#376451" transform="translate(47.3125,159.4375)"/>
<path d="M0 0 C0.33 0.99 0.66 1.98 1 3 C0.34 3 -0.32 3 -1 3 C-0.505 3.9075 -0.01 4.815 0.5 5.75 C2 9 2 9 2 13 C0.02 13.33 -1.96 13.66 -4 14 C-3.67 12.35 -3.34 10.7 -3 9 C-3.66 8.67 -4.32 8.34 -5 8 C-5.66 9.98 -6.32 11.96 -7 14 C-7.66 14 -8.32 14 -9 14 C-8.855625 13.46375 -8.71125 12.9275 -8.5625 12.375 C-8.13687967 10.57793639 -7.7975749 8.76014628 -7.5 6.9375 C-7 4 -7 4 -6 1 C-5.38125 1.20625 -4.7625 1.4125 -4.125 1.625 C-3.073125 1.810625 -3.073125 1.810625 -2 2 C-1.34 1.34 -0.68 0.68 0 0 Z " fill="#EBF0EE" transform="translate(302,368)"/>
<path d="M0 0 C3.3 0 6.6 0 10 0 C10 0.99 10 1.98 10 3 C8.68 3 7.36 3 6 3 C6 7.95 6 12.9 6 18 C5.01 18 4.02 18 3 18 C3 13.05 3 8.1 3 3 C2.01 3 1.02 3 0 3 C0 2.01 0 1.02 0 0 Z " fill="#E3EAE7" transform="translate(222,34)"/>
<path d="M0 0 C0 0.99 0 1.98 0 3 C-0.99 3 -1.98 3 -3 3 C-2.34 7.29 -1.68 11.58 -1 16 C-1.66 16 -2.32 16 -3 16 C-3 17.98 -3 19.96 -3 22 C-3.33 22 -3.66 22 -4 22 C-4.14695313 20.30230469 -4.14695313 20.30230469 -4.296875 18.5703125 C-4.44693781 17.08844222 -4.59803321 15.60667624 -4.75 14.125 C-4.8428125 13.00544922 -4.8428125 13.00544922 -4.9375 11.86328125 C-5.16023862 9.42244484 -5.16023862 9.42244484 -6 6 C-7.93121069 4.40417063 -7.93121069 4.40417063 -10 4 C-10 3.01 -10 2.02 -10 1 C-6.56484998 0.37542727 -3.50935186 0 0 0 Z " fill="#E4EBE8" transform="translate(197,34)"/>
<path d="M0 0 C4.62 0 9.24 0 14 0 C14 1.65 14 3.3 14 5 C9.38 5 4.76 5 0 5 C0 3.35 0 1.7 0 0 Z " fill="#293F68" transform="translate(223,181)"/>
<path d="M0 0 C4.62 0 9.24 0 14 0 C14 1.65 14 3.3 14 5 C9.38 5 4.76 5 0 5 C0 3.35 0 1.7 0 0 Z " fill="#293F68" transform="translate(206,181)"/>
<path d="M0 0 C1.65 1.32 3.3 2.64 5 4 C4.125 8.875 4.125 8.875 3 10 C0.125 10.25 0.125 10.25 -3 10 C-3.99 9.01 -4.98 8.02 -6 7 C-4.02 4.69 -2.04 2.38 0 0 Z " fill="#315E4A" transform="translate(322,74)"/>
<path d="M0 0 C5.61 0 11.22 0 17 0 C17 1.32 17 2.64 17 4 C11.39 4 5.78 4 0 4 C0 2.68 0 1.36 0 0 Z " fill="#EEF0F2" transform="translate(218,239)"/>
<path d="M0 0 C5.61 0 11.22 0 17 0 C17 1.32 17 2.64 17 4 C11.39 4 5.78 4 0 4 C0 2.68 0 1.36 0 0 Z " fill="#E7EAEE" transform="translate(191,239)"/>
<path d="M0 0 C2.91517292 1.07401108 4.77810176 1.77810176 7 4 C6.75 6.5625 6.75 6.5625 6 9 C5.01 9.495 5.01 9.495 4 10 C4 9.34 4 8.68 4 8 C3.01 8 2.02 8 1 8 C1 8.66 1 9.32 1 10 C-1.475 9.01 -1.475 9.01 -4 8 C-2.68 5.36 -1.36 2.72 0 0 Z " fill="#35624E" transform="translate(297,58)"/>
<path d="M0 0 C4.29 0 8.58 0 13 0 C13 1.65 13 3.3 13 5 C8.71 5 4.42 5 0 5 C0 3.35 0 1.7 0 0 Z " fill="#1D335F" transform="translate(240,181)"/>
<path d="M0 0 C4.29 0 8.58 0 13 0 C13 1.65 13 3.3 13 5 C8.71 5 4.42 5 0 5 C0 3.35 0 1.7 0 0 Z " fill="#1E3460" transform="translate(190,181)"/>
<path d="M0 0 C4.29 0 8.58 0 13 0 C13 1.65 13 3.3 13 5 C8.71 5 4.42 5 0 5 C0 3.35 0 1.7 0 0 Z " fill="#1B315D" transform="translate(173,181)"/>
<path d="M0 0 C0.33 0 0.66 0 1 0 C1 5.61 1 11.22 1 17 C2.32 17 3.64 17 5 17 C5 17.99 5 18.98 5 20 C1.7 20 -1.6 20 -5 20 C-5 19.01 -5 18.02 -5 17 C-4.01 16.67 -3.02 16.34 -2 16 C-1.93941406 14.92878906 -1.87882813 13.85757813 -1.81640625 12.75390625 C-1.73201463 11.35675609 -1.64736594 9.95962143 -1.5625 8.5625 C-1.52318359 7.85544922 -1.48386719 7.14839844 -1.44335938 6.41992188 C-1.11328125 1.11328125 -1.11328125 1.11328125 0 0 Z " fill="#F3F6F5" transform="translate(210,41)"/>
<path d="M0 0 C0 5.28 0 10.56 0 16 C0.99 16.33 1.98 16.66 3 17 C-0.3 17 -3.6 17 -7 17 C-5.68 16.67 -4.36 16.34 -3 16 C-3.11376617 13.87436897 -3.24135631 11.7494739 -3.375 9.625 C-3.44460937 8.44164062 -3.51421875 7.25828125 -3.5859375 6.0390625 C-3.70217346 2.89437681 -3.70217346 2.89437681 -6 1 C-4 0 -4 0 0 0 Z " fill="#466F5E" transform="translate(177,322)"/>
<path d="M0 0 C1.53202706 0.25195908 3.05257128 0.57596777 4.5625 0.9375 C5.38878906 1.13214844 6.21507812 1.32679687 7.06640625 1.52734375 C8.02353516 1.76130859 8.02353516 1.76130859 9 2 C9 2.99 9 3.98 9 5 C7.9171875 5.0309375 7.9171875 5.0309375 6.8125 5.0625 C3.12767982 6.29077339 2.23494066 8.15345661 0.30859375 11.40625 C-1.31851944 13.38792816 -2.51171377 13.62123339 -5 14 C-3.34832443 10.4213696 -1.21713508 7.25179812 1 4 C0.34 3.01 -0.32 2.02 -1 1 C-0.67 0.67 -0.34 0.34 0 0 Z " fill="#EAEFED" transform="translate(275,45)"/>
<path d="M0 0 C0.66 0.33 1.32 0.66 2 1 C2 1.66 2 2.32 2 3 C2.66 3.33 3.32 3.66 4 4 C4 5.65 4 7.3 4 9 C0.37 8.67 -3.26 8.34 -7 8 C-7 7.34 -7 6.68 -7 6 C-5.46875 4.4921875 -5.46875 4.4921875 -3.5 2.875 C-2.8503125 2.33617187 -2.200625 1.79734375 -1.53125 1.2421875 C-1.0259375 0.83226562 -0.520625 0.42234375 0 0 Z " fill="#396551" transform="translate(381,159)"/>
<path d="M0 0 C0.52078125 0.16371094 1.0415625 0.32742188 1.578125 0.49609375 C4.6756875 1.14058659 7.58841094 1.09411589 10.75 1.0625 C11.92046875 1.05347656 13.0909375 1.04445313 14.296875 1.03515625 C15.18890625 1.02355469 16.0809375 1.01195312 17 1 C16 4 16 4 14 5 C12.0027458 5.12199138 10.00094019 5.17547512 8 5.1875 C6.9275 5.20167969 5.855 5.21585937 4.75 5.23046875 C2 5 2 5 0 3 C0 2.01 0 1.02 0 0 Z " fill="#E9EFED" transform="translate(115,373)"/>
<path d="M0 0 C3.48670834 1.1094072 6.77484237 2.26337666 10 4 C10 5.65 10 7.3 10 9 C6.51329166 7.8905928 3.22515763 6.73662334 0 5 C0 3.35 0 1.7 0 0 Z " fill="#162D5A" transform="translate(257,183)"/>
<path d="M0 0 C0 1.65 0 3.3 0 5 C-1.28913487 5.67154933 -2.58140204 6.33708859 -3.875 7 C-4.59429687 7.37125 -5.31359375 7.7425 -6.0546875 8.125 C-8 9 -8 9 -10 9 C-10 7.35 -10 5.7 -10 4 C-8.71086513 3.32845067 -7.41859796 2.66291141 -6.125 2 C-5.40570313 1.62875 -4.68640625 1.2575 -3.9453125 0.875 C-2 0 -2 0 0 0 Z " fill="#142C59" transform="translate(169,183)"/>
<path d="M0 0 C0.33 0 0.66 0 1 0 C0.50269348 4.97306516 -0.55302334 8.63799813 -3 13 C-4.65 13 -6.3 13 -8 13 C-6.46798474 9.55296566 -4.34730584 6.93413229 -2 4 C-1.29114106 2.68861096 -0.60543548 1.36222983 0 0 Z " fill="#EDF2F0" transform="translate(291,367)"/>
<path d="M0 0 C0.66 0 1.32 0 2 0 C2.66 2.97 3.32 5.94 4 9 C3.01 9 2.02 9 1 9 C0.34 8.34 -0.32 7.68 -1 7 C-3.65537372 6.43479997 -6.29144713 6.26211802 -9 6 C-5.86501708 4.14223235 -3.62528568 3.79859524 0 4 C0 2.68 0 1.36 0 0 Z " fill="#E3EAE7" transform="translate(385,164)"/>
<path d="M0 0 C0.99 0 1.98 0 3 0 C4.35439668 2.70879335 4.06501451 5.00933268 4 8 C2.35 8 0.7 8 -1 8 C-1.625 5.125 -1.625 5.125 -2 2 C-1.34 1.34 -0.68 0.68 0 0 Z " fill="#F3F6F5" transform="translate(224,323)"/>
<path d="M0 0 C1.32 0.66 2.64 1.32 4 2 C3.6875 4.375 3.6875 4.375 3 7 C-0.22373677 9.14915785 -1.26703674 9.38286803 -5 9 C-5.66 8.34 -6.32 7.68 -7 7 C-7 6.01 -7 5.02 -7 4 C-6.01 4.33 -5.02 4.66 -4 5 C-4 5.66 -4 6.32 -4 7 C-2.68 6.67 -1.36 6.34 0 6 C0 4.02 0 2.04 0 0 Z " fill="#3D6956" transform="translate(252,331)"/>
<path d="M0 0 C1.98 0.495 1.98 0.495 4 1 C4 3.64 4 6.28 4 9 C3.01 9 2.02 9 1 9 C-1.125 2.25 -1.125 2.25 0 0 Z " fill="#F2F5F3" transform="translate(281,363)"/>
<path d="M0 0 C0.66 0.66 1.32 1.32 2 2 C1.67028521 5.29714793 1.3773161 6.6226839 -1 9 C-3.125 8.625 -3.125 8.625 -5 8 C-3.68 7.34 -2.36 6.68 -1 6 C-1 4.68 -1 3.36 -1 2 C-1.99 2 -2.98 2 -4 2 C-4.33 2.66 -4.66 3.32 -5 4 C-5.99 4 -6.98 4 -8 4 C-7.67 3.01 -7.34 2.02 -7 1 C-4.48718205 -0.25640898 -2.78302919 -0.20872719 0 0 Z " fill="#376451" transform="translate(253,322)"/>
<path d="M0 0 C5.875 3.625 5.875 3.625 7 7 C5.35 7.66 3.7 8.32 2 9 C1.34 6.03 0.68 3.06 0 0 Z " fill="#36634F" transform="translate(111,74)"/>
<path d="M0 0 C2.0625 0.4375 2.0625 0.4375 4 1 C4.33 2.32 4.66 3.64 5 5 C3.35 5.33 1.7 5.66 0 6 C-0.38218767 4.34385343 -0.71395102 2.67542976 -1 1 C-0.67 0.67 -0.34 0.34 0 0 Z " fill="#F9FAFA" transform="translate(198,332)"/>
<path d="M0 0 C2.31 0 4.62 0 7 0 C7 0.99 7 1.98 7 3 C4.35261084 4.4606285 3.10551666 5 0 5 C0 3.35 0 1.7 0 0 Z " fill="#162D5A" transform="translate(292,206)"/>
<path d="M0 0 C2.375 -0.125 2.375 -0.125 5 0 C7 2 7 2 7 5 C3.62537285 4.45276317 1.91765 3.9451 -1 2 C-0.67 1.34 -0.34 0.68 0 0 Z " fill="#E0E7E4" transform="translate(248,383)"/>
<path d="M0 0 C2.64 0 5.28 0 8 0 C8 0.99 8 1.98 8 3 C2.25 4.125 2.25 4.125 0 3 C0 2.01 0 1.02 0 0 Z " fill="#F3F6F5" transform="translate(135,357)"/>
<path d="M0 0 C1.32 0 2.64 0 4 0 C4 1.98 4 3.96 4 6 C2.68 5.67 1.36 5.34 0 5 C-0.5625 3.0625 -0.5625 3.0625 -1 1 C-0.67 0.67 -0.34 0.34 0 0 Z " fill="#ECF0EF" transform="translate(198,323)"/>
<path d="M0 0 C2.31 0 4.62 0 7 0 C7 1.32 7 2.64 7 4 C4.69 3.67 2.38 3.34 0 3 C0 2.01 0 1.02 0 0 Z " fill="#112957" transform="translate(280,206)"/>
<path d="M0 0 C1.98 0 3.96 0 6 0 C6 1.65 6 3.3 6 5 C4.35 4.67 2.7 4.34 1 4 C0.67 2.68 0.34 1.36 0 0 Z " fill="#152C59" transform="translate(128,206)"/>
<path d="M0 0 C2.31 0 4.62 0 7 0 C7 0.99 7 1.98 7 3 C4.69 3.33 2.38 3.66 0 4 C0 2.68 0 1.36 0 0 Z " fill="#0A2251" transform="translate(139,206)"/>
<path d="M0 0 C2.875 -0.125 2.875 -0.125 6 0 C6.66 0.66 7.32 1.32 8 2 C7.67028521 5.29714793 7.3773161 6.6226839 5 9 C5 6.36 5 3.72 5 1 C3.35 1 1.7 1 0 1 C0 0.67 0 0.34 0 0 Z " fill="#5A8070" transform="translate(197,322)"/>
<path d="M0 0 C0.99 0.33 1.98 0.66 3 1 C3 2.65 3 4.3 3 6 C1.68 6.33 0.36 6.66 -1 7 C-0.67 4.69 -0.34 2.38 0 0 Z " fill="#DCE4E1" transform="translate(153,359)"/>
<path d="M0 0 C0.33 0 0.66 0 1 0 C0.50769231 7.38461538 0.50769231 7.38461538 -2.0625 10.5 C-2.701875 10.995 -3.34125 11.49 -4 12 C-4.66 11.67 -5.32 11.34 -6 11 C-5.65066406 10.54109375 -5.30132812 10.0821875 -4.94140625 9.609375 C-4.48636719 8.99578125 -4.03132812 8.3821875 -3.5625 7.75 C-3.11003906 7.14671875 -2.65757812 6.5434375 -2.19140625 5.921875 C-0.96099003 3.93707244 -0.43887332 2.28012345 0 0 Z " fill="#446F5D" transform="translate(230,326)"/>
<path d="M0 0 C0.66 0.33 1.32 0.66 2 1 C2.1875 4.375 2.1875 4.375 2 8 C1.01 8.66 0.02 9.32 -1 10 C-0.67 6.7 -0.34 3.4 0 0 Z " fill="#EDF1F0" transform="translate(183,365)"/>
<path d="M0 0 C0.66 0 1.32 0 2 0 C2.33 1.98 2.66 3.96 3 6 C2.34 6 1.68 6 1 6 C1 7.98 1 9.96 1 12 C0.67 12 0.34 12 0 12 C0 8.04 0 4.08 0 0 Z " fill="#DCE5E2" transform="translate(193,44)"/>
<path d="M0 0 C0.66 0.33 1.32 0.66 2 1 C1.67 2.65 1.34 4.3 1 6 C-0.32 6.33 -1.64 6.66 -3 7 C-1.125 2.25 -1.125 2.25 0 0 Z " fill="#E5EBE9" transform="translate(244,385)"/>
<path d="M0 0 C0.66 0.33 1.32 0.66 2 1 C2.5625 2.875 2.5625 2.875 3 5 C3.33 5.99 3.66 6.98 4 8 C2.68 7.67 1.36 7.34 0 7 C-0.38133299 5.0085944 -0.71325582 3.00720923 -1 1 C-0.67 0.67 -0.34 0.34 0 0 Z " fill="#34624E" transform="translate(196,323)"/>
<path d="M0 0 C0.66 0 1.32 0 2 0 C2.66 1.65 3.32 3.3 4 5 C2.35 5.33 0.7 5.66 -1 6 C-0.67 4.02 -0.34 2.04 0 0 Z " fill="#EBF0EE" transform="translate(199,393)"/>
<path d="M0 0 C1.32 1.32 2.64 2.64 4 4 C2.02 4.33 0.04 4.66 -2 5 C-1.125 1.125 -1.125 1.125 0 0 Z " fill="#FBFCFC" transform="translate(132,366)"/>
<path d="M0 0 C0.99 0.33 1.98 0.66 3 1 C3 1.66 3 2.32 3 3 C4.32 3.33 5.64 3.66 7 4 C7 4.33 7 4.66 7 5 C4.625 5.125 4.625 5.125 2 5 C1.34 4.34 0.68 3.68 0 3 C0 2.01 0 1.02 0 0 Z " fill="#678A7B" transform="translate(245,335)"/>
<path d="M0 0 C0.33 0.66 0.66 1.32 1 2 C2.98 1.67 4.96 1.34 7 1 C6.34 2.32 5.68 3.64 5 5 C4.34 5 3.68 5 3 5 C3 4.34 3 3.68 3 3 C2.01 3 1.02 3 0 3 C0 2.01 0 1.02 0 0 Z " fill="#547B6B" transform="translate(129,369)"/>
</svg>
